<?xml version="1.0" standalone="no"?>
<!DOCTYPE svg PUBLIC "-//W3C//DTD SVG 1.1//EN" "http://www.w3.org/Graphics/SVG/1.1/DTD/svg11.dtd">
<svg width="101mm" height="95mm" viewBox="0 16 101 95" xmlns="http://www.w3.org/2000/svg" version="1.1">
<title>OpenSCAD Model</title>
<path d="
M 49.3783,109.995 L 50.9763,109.952 L 51.7897,109.878 L 52.4329,109.785 L 53.2333,109.67 L 54.0538,109.553
 L 54.7644,109.453 L 58.3105,108.781 L 62.0942,107.731 L 65.8125,106.399 L 69.1622,104.881 L 72.32,103.125
 L 75.339,101.139 L 77.9921,99.0619 L 80.4442,96.7511 L 82.5948,94.3087 L 84.5036,91.6733 L 86.1698,88.8483
 L 87.5667,85.8808 L 88.2916,83.7942 L 88.5114,82.8559 L 88.647,81.9019 L 88.6819,81.0998 L 88.6309,80.2985
 L 88.5519,79.8783 L 88.4156,79.4731 L 88.2251,79.0904 L 87.9591,78.7108 L 87.6363,78.3784 L 87.2649,78.1014
 L 86.536,77.7138 L 85.7593,77.4347 L 84.9156,77.2604 L 84.0561,77.2039 L 83.5316,77.2374 L 83.0152,77.3337
 L 82.5139,77.4913 L 81.9166,77.7774 L 81.3745,78.1573 L 80.7977,78.6866 L 80.277,79.271 L 79.8375,79.8773
 L 79.4618,80.5253 L 79.3182,80.87 L 79.2303,81.233 L 79.2008,81.6054 L 79.1951,81.6895 L 79.1782,81.772
 L 79.1624,81.8158 L 79.14,81.8567 L 79.1114,81.8935 L 79.0886,81.9155 L 79.0631,81.9341 L 79.0353,81.9491
 L 79.0055,81.9602 L 78.9612,81.97 L 78.9159,81.9733 L 78.8707,81.9699 L 78.812,81.9573 L 78.7561,81.9368
 L 78.7035,81.9088 L 78.6547,81.8739 L 77.7272,81.0972 L 76.6534,80.1644 L 75.4424,79.0669 L 74.1689,77.8981
 L 72.9041,76.7464 L 71.8039,75.7528 L 71.1511,75.1755 L 69.1912,73.4213 L 67.1933,71.5306 L 65.3075,69.6864
 L 65.2619,69.6339 L 65.2254,69.5747 L 65.1984,69.5105 L 65.182,69.4429 L 65.1766,69.3736 L 65.179,69.337
 L 65.1866,69.3013 L 65.1991,69.2669 L 65.2165,69.2339 L 65.238,69.2036 L 65.2633,69.1762 L 65.2926,69.1519
 L 65.3248,69.1315 L 65.3593,69.1154 L 65.396,69.1036 L 65.4337,69.0964 L 65.4721,69.0941 L 65.5885,69.0858
 L 65.7023,69.0611 L 65.8116,69.0204 L 65.9138,68.9646 L 66.0071,68.8949 L 66.9524,68.0055 L 67.8586,66.9755
 L 68.1667,66.5391 L 68.4253,66.0718 L 69.1076,64.4712 L 69.5235,63.0271 L 69.8632,61.004 L 70.3931,56.6634
 L 70.9844,53.0893 L 71.3457,51.7568 L 71.8456,50.4699 L 72.4379,49.3422 L 73.1605,48.2934 L 75.1421,46.131
 L 75.9396,45.4035 L 76.6503,44.7904 L 77.2632,44.2875 L 77.2978,44.2641 L 77.336,44.2469 L 77.3766,44.2363
 L 77.4181,44.2328 L 77.4365,44.2343 L 77.4546,44.2388 L 77.4716,44.2463 L 77.4872,44.2564 L 77.5009,44.2689
 L 77.5124,44.2835 L 77.5211,44.2997 L 77.6294,44.5895 L 77.7268,44.9862 L 77.7982,45.4663 L 78.0647,47.0395
 L 78.6021,49.1989 L 79.2378,51.3605 L 79.8325,52.9652 L 80.9071,55.0805 L 82.2113,56.9222 L 83.6559,58.3802
 L 84.3713,58.9111 L 85.1497,59.344 L 85.7786,59.5861 L 86.4368,59.7323 L 88.1695,59.8602 L 89.9059,59.7427
 L 90.5702,59.6003 L 91.2064,59.3625 L 91.9582,58.9618 L 92.6573,58.4753 L 93.2945,57.91 L 94.3106,56.7814
 L 95.2012,55.5517 L 96.0105,54.1497 L 96.6748,52.6736 L 97.1608,51.1903 L 97.4775,49.6619 L 97.6324,47.3085
 L 97.5623,46.1551 L 97.3914,45.0122 L 96.7375,42.7045 L 95.658,40.3153 L 95.2955,39.6269 L 94.9904,39.0311
 L 94.7294,38.5111 L 94.7202,38.4882 L 94.7145,38.4642 L 94.7126,38.4395 L 94.7147,38.4264 L 94.7206,38.4145
 L 94.7298,38.405 L 94.7416,38.3989 L 95.1076,38.3384 L 95.5415,38.2818 L 96.057,38.2333 L 96.9101,38.1198
 L 97.7467,37.9183 L 98.1702,37.7596 L 98.5676,37.5434 L 98.9307,37.2739 L 99.2255,36.9776 L 99.47,36.6385
 L 99.6582,36.265 L 99.8768,35.5791 L 99.985,34.8674 L 100.001,34.1393 L 99.9775,33.8658 L 99.923,33.597
 L 99.8303,33.3004 L 99.7112,33.0134 L 99.254,32.0911 L 98.8142,31.336 L 98.2735,30.5592 L 97.6595,29.7971
 L 96.999,29.0855 L 96.4484,28.5241 L 95.9846,28.0314 L 95.5934,27.6019 L 95.5827,27.588 L 95.574,27.5726
 L 95.5677,27.5561 L 95.5639,27.5389 L 95.5627,27.5213 L 95.5662,27.4755 L 95.5776,27.431 L 95.7735,26.8643
 L 96.0055,26.2099 L 96.281,25.4569 L 96.8271,23.8883 L 97.1023,22.8243 L 97.1579,22.4345 L 97.1756,22.0412
 L 97.1624,21.8288 L 97.1235,21.6195 L 97.0598,21.4164 L 97.0129,21.3149 L 96.9521,21.2211 L 96.8787,21.1367
 L 96.7941,21.0635 L 96.7002,21.0031 L 96.5604,20.9381 L 96.4135,20.8921 L 96.2616,20.8659 L 96.1079,20.86
 L 95.6764,20.9063 L 95.2576,21.02 L 94.1403,21.4973 L 92.9575,22.211 L 91.4019,23.3973 L 89.9484,24.6329
 L 89.7338,24.8481 L 89.5459,25.0868 L 89.3872,25.3458 L 89.3544,25.3963 L 89.3131,25.4404 L 89.265,25.4768
 L 89.2113,25.5044 L 89.1537,25.5224 L 89.0938,25.5302 L 89.045,25.5281 L 88.9974,25.5176 L 88.9519,25.4992
 L 88.9106,25.4732 L 88.8738,25.4406 L 88.8436,25.4023 L 88.8203,25.3592 L 88.6734,24.9554 L 88.5774,24.5364
 L 88.3583,22.9838 L 88.0692,21.1747 L 87.6427,19.501 L 87.1385,18.1289 L 86.9949,17.8415 L 86.819,17.5727
 L 86.6129,17.3262 L 86.4037,17.1331 L 86.1675,16.9698 L 85.9397,16.8565 L 85.8821,16.8372 L 85.8225,16.8255
 L 85.7616,16.8216 L 85.6444,16.8306 L 85.5298,16.8576 L 85.4207,16.9019 L 85.3197,16.9623 L 85.229,17.0376
 L 85.1511,17.1258 L 84.3204,18.3793 L 83.4689,20.0819 L 82.7193,22.0782 L 82.565,22.5138 L 82.4019,22.9017
 L 82.2488,23.2125 L 82.2295,23.2438 L 82.2064,23.2722 L 82.1795,23.2973 L 82.1498,23.3186 L 81.9468,23.4209
 L 81.7296,23.4869 L 79.9813,23.8458 L 78.1401,24.2073 L 78.1078,24.2109 L 78.0755,24.2092 L 78.0442,24.2022
 L 78.014,24.1903 L 77.9862,24.1736 L 77.9614,24.1527 L 77.947,24.1357 L 77.9359,24.1165 L 77.9281,24.0957
 L 77.9241,24.0738 L 77.8869,23.665 L 77.8548,23.1791 L 77.8341,22.6199 L 77.7093,21.4418 L 77.5827,20.9329
 L 77.3983,20.4419 L 77.1646,19.9897 L 76.8783,19.5689 L 76.523,19.1519 L 76.1294,18.771 L 75.2075,18.0471
 L 74.8292,17.8158 L 74.425,17.6332 L 74.002,17.5023 L 73.5661,17.425 L 72.4011,17.3576 L 71.5064,17.4072
 L 70.6231,17.5595 L 70.1356,17.7051 L 69.67,17.91 L 69.2331,18.171 L 68.8301,18.4851 L 68.4685,18.8463
 L 68.1542,19.2492 L 67.6854,20.0236 L 67.3066,20.8458 L 67.0213,21.7443 L 66.9398,22.1609 L 66.8976,22.5832
 L 66.8954,22.9996 L 66.9326,23.4143 L 67.123,24.2888 L 67.2651,24.6732 L 67.4547,25.0367 L 68.0421,25.8797
 L 68.6975,26.6037 L 68.8545,26.7347 L 69.03,26.8399 L 69.2198,26.9167 L 69.3332,26.9628 L 69.4381,27.0261
 L 69.5318,27.105 L 69.5578,27.1347 L 69.5787,27.1681 L 69.5946,27.2042 L 69.6045,27.2424 L 69.6087,27.2817
 L 69.6069,27.3211 L 69.599,27.3598 L 69.5511,27.486 L 69.4827,27.6023 L 69.3955,27.7054 L 68.8568,28.191
 L 67.4022,29.3969 L 65.798,30.7698 L 63.9818,32.3627 L 61.8787,34.2419 L 58.2596,37.4313 L 55.7514,39.4536
 L 53.7164,40.8362 L 51.7254,41.8854 L 49.6515,42.6286 L 48.7191,42.8242 L 47.7699,42.9071 L 46.7497,42.8801
 L 45.7383,42.7434 L 43.1772,42.1192 L 39.8549,41.3015 L 36.7443,40.8949 L 33.6684,40.8865 L 30.4512,41.2639
 L 28.7982,41.5321 L 28.4302,41.5693 L 28.0604,41.5704 L 27.9651,41.5583 L 27.8731,41.531 L 27.7867,41.4892
 L 27.7082,41.4341 L 27.6667,41.3942 L 27.6313,41.3486 L 27.6031,41.2984 L 27.5825,41.2446 L 27.57,41.1883
 L 27.5657,41.1309 L 27.5497,40.9019 L 27.5019,40.6773 L 27.4231,40.4617 L 26.6448,38.7912 L 25.743,37.0445
 L 24.8803,35.6049 L 23.2147,33.4654 L 22.2747,32.5317 L 21.2556,31.6853 L 20.2031,30.9615 L 19.0884,30.3378
 L 17.9689,29.8499 L 16.8043,29.4828 L 15.2154,29.2091 L 13.3787,29.1482 L 11.584,29.2891 L 10.8483,29.4252
 L 10.1293,29.632 L 8.96606,30.0908 L 7.85117,30.6571 L 6.8056,31.3207 L 5.82936,32.0825 L 4.95098,32.9187
 L 4.15974,33.8377 L 3.4878,34.8051 L 2.92423,35.8394 L 2.35664,37.1174 L 2.0396,38.0697 L 1.83539,39.1291
 L 1.64168,40.833 L 1.53438,41.6396 L 1.35482,42.574 L 1.13681,43.4866 L 0.911383,44.2235 L 0.185099,46.7138
 L 0.0304096,47.6471 L 0.0010517,48.5927 L 0.0489204,49.0459 L 0.159042,49.488 L 0.329648,49.9106 L 0.478324,50.1602
 L 0.666969,50.3814 L 0.889924,50.5677 L 1.14118,50.7139 L 1.63319,50.9135 L 1.81264,50.9585 L 1.99704,50.9735
 L 2.21516,50.961 L 2.43033,50.9237 L 3.26709,50.7131 L 3.79447,50.559 L 4.25795,50.3989 L 4.63288,50.2486
 L 4.74619,50.1522 L 4.90064,50.0559 L 5.01984,50.0049 L 5.09836,49.9844 L 5.15696,49.978 L 5.20731,49.9805
 L 5.24197,49.9881 L 5.27074,49.9992 L 5.2955,50.0137 L 5.3192,50.0334 L 5.34006,50.0577 L 5.3581,50.0871
 L 5.3739,50.1248 L 5.38687,50.1749 L 5.39572,50.263 L 5.38994,50.3867 L 5.36423,50.7669 L 5.15755,52.9822
 L 5.1039,54.4326 L 5.177,55.4371 L 5.25777,55.7896 L 5.39819,56.1228 L 5.55029,56.3642 L 5.73752,56.5792
 L 5.95552,56.7631 L 6.19923,56.9114 L 6.57876,57.0664 L 6.97868,57.1575 L 7.38804,57.1821 L 7.88218,57.1401
 L 8.36711,57.0366 L 8.83531,56.8732 L 9.61653,56.4884 L 10.3468,56.0144 L 10.8381,55.6374 L 11.2523,55.2853
 L 11.5775,54.98 L 11.5954,54.9595 L 11.6098,54.9364 L 11.6203,54.9113 L 11.6268,54.8849 L 11.6314,54.829
 L 11.6383,54.801 L 11.6497,54.7746 L 11.6652,54.7503 L 11.6846,54.729 L 11.7071,54.711 L 11.7322,54.6969
 L 11.7663,54.6842 L 11.8019,54.6769 L 11.8382,54.6751 L 11.8744,54.6789 L 11.9095,54.6881 L 11.943,54.7026
 L 12.1352,54.8217 L 12.3093,54.966 L 12.8101,55.4805 L 13.1048,55.7759 L 13.4274,56.0406 L 13.743,56.2426
 L 14.0833,56.3997 L 14.3752,56.4829 L 14.6769,56.5143 L 14.772,56.5093 L 14.8654,56.4907 L 14.955,56.4592
 L 15.0394,56.4153 L 15.1168,56.3599 L 15.2174,56.2637 L 15.3036,56.1544 L 15.3737,56.0341 L 15.4265,55.9053
 L 15.7646,54.7418 L 16.0999,53.1899 L 16.412,51.245 L 16.7529,49.1002 L 17.1013,47.499 L 17.5143,46.1763
 L 18.0498,44.9224 L 18.4596,44.2011 L 18.9548,43.5356 L 19.1683,43.3183 L 19.4119,43.1355 L 19.6805,42.9915
 L 19.9674,42.8896 L 20.2753,42.8288 L 20.5888,42.8126 L 20.9014,42.8413 L 21.2068,42.9142 L 22.0347,43.2247
 L 22.8251,43.6212 L 23.9281,44.2495 L 23.6432,45.1442 L 23.4981,45.5899 L 23.2884,46.2146 L 23.0562,46.8946
 L 22.8349,47.5316 L 22.1274,49.7641 L 21.6644,51.7407 L 21.4054,53.6584 L 21.3169,55.7072 L 21.3369,57.1304
 L 21.4089,58.1665 L 21.5512,59.0669 L 21.7893,60.0359 L 22.1558,61.2224 L 22.5611,62.3492 L 22.9746,63.3395
 L 23.3637,64.1006 L 23.485,64.3145 L 23.6537,64.6192 L 23.8364,64.9534 L 24.0065,65.2692 L 24.5044,66.1839
 L 24.8231,66.7177 L 25.1018,67.1083 L 25.4317,67.4907 L 25.5284,67.6107 L 25.6056,67.7441 L 25.6618,67.8876
 L 25.6955,68.038 L 25.7018,68.1281 L 25.6946,68.2181 L 25.6742,68.306 L 25.6411,68.39 L 25.596,68.4682
 L 25.5397,68.5388 L 24.7353,69.2722 L 21.4892,71.7476 L 20.6998,72.3486 L 19.7009,73.115 L 18.6671,73.9122
 L 17.7598,74.6161 L 16.1777,75.835 L 14.5589,77.0567 L 13.1155,78.1274 L 12.5629,78.4983 L 12.5429,78.5084
 L 12.5217,78.5154 L 12.4994,78.5189 L 12.477,78.519 L 12.4548,78.5157 L 12.4335,78.509 L 12.4133,78.4991
 L 12.3182,78.4307 L 12.2362,78.347 L 12.1247,78.1969 L 12.0277,78.0371 L 11.7782,77.542 L 11.2812,76.6126
 L 11.0471,76.2713 L 10.7763,75.9583 L 10.4729,75.6775 L 10.1399,75.4322 L 9.22946,74.9061 L 8.37702,74.559
 L 7.4793,74.3562 L 6.92657,74.3202 L 6.37455,74.3664 L 5.83561,74.4942 L 5.35127,74.6923 L 4.90512,74.9657
 L 4.50896,75.3075 L 4.15691,75.7205 L 3.86863,76.1801 L 3.6498,76.6765 L 3.42508,77.484 L 3.31755,78.3152
 L 3.32922,79.1532 L 3.89882,82.9666 L 4.41405,85.0475 L 5.0591,87.0918 L 5.79187,88.948 L 6.66683,90.7414
 L 7.51597,92.2568 L 8.33304,93.5786 L 9.06781,94.6722 L 9.72182,95.6094 L 11.5246,97.4221 L 13.5437,99.3187
 L 15.56,101.032 L 16.1544,101.462 L 17.6624,102.425 L 21.2676,104.499 L 24.9971,106.233 L 28.8374,107.626
 L 32.8013,108.684 L 36.4903,109.355 L 38.6358,109.637 L 40.5297,109.814 L 42.6395,109.923 L 45.5213,109.994
 L 47.4935,110.012 z
M 71.7514,25.4145 L 71.2674,25.2663 L 70.8156,25.0384 L 70.4085,24.7374 L 70.0582,24.3719 L 69.7749,23.9526
 L 69.5663,23.4914 L 69.4388,23.0015 L 69.396,22.4971 L 69.4388,21.9927 L 69.5663,21.5029 L 69.7749,21.0417
 L 70.0582,20.6223 L 70.4085,20.2569 L 70.8156,19.9558 L 71.2674,19.728 L 71.7514,19.5797 L 72.2535,19.5154
 L 72.7594,19.5369 L 73.254,19.6436 L 73.7238,19.8323 L 74.1549,20.0977 L 74.5349,20.4321 L 74.8529,20.826
 L 75.0998,21.2679 L 75.2682,21.7451 L 75.3537,22.2441 L 75.3646,22.4971 L 75.3537,22.7502 L 75.2682,23.2491
 L 75.0998,23.7264 L 74.8529,24.1682 L 74.5349,24.5621 L 74.1549,24.8965 L 73.7238,25.1619 L 73.254,25.3506
 L 72.7594,25.4573 L 72.2535,25.4788 z
M 86.4009,39.1375 L 86.1257,39.0484 L 85.7975,38.878 L 85.5025,38.6555 L 85.2481,38.3871 L 85.0927,38.164
 L 84.9682,37.9224 L 84.8764,37.6663 L 84.8196,37.4003 L 84.7981,37.1279 L 84.8128,36.8549 L 84.863,36.5863
 L 84.9479,36.3265 L 85.1148,35.9925 L 85.3339,35.6902 L 85.5992,35.4273 L 85.8824,35.2132 L 86.1866,35.0299
 L 86.3047,34.9767 L 86.4285,34.9393 L 86.5563,34.9187 L 86.6858,34.9148 L 86.8138,34.928 L 86.9388,34.9582
 L 87.0588,35.0045 L 87.1718,35.0664 L 87.4561,35.2705 L 87.7167,35.5043 L 88.0287,35.8615 L 88.1322,36.0177
 L 88.2136,36.1864 L 88.273,36.3676 L 88.3081,36.555 L 88.3378,37.0508 L 88.2966,37.5872 L 88.1742,38.1111
 L 88.0926,38.3195 L 87.9844,38.5152 L 87.8511,38.695 L 87.6953,38.8556 L 87.5368,38.9774 L 87.3611,39.0726
 L 87.1727,39.1389 L 86.9763,39.1748 L 86.6869,39.18 z
M 42.5384,93.9002 L 39.5298,93.6005 L 36.409,93.0003 L 34.5491,92.4804 L 32.156,91.657 L 29.8728,90.7797
 L 28.5252,90.125 L 28.1883,89.9323 L 27.6669,89.6353 L 27.0792,89.3008 L 26.5033,88.9738 L 25.4039,88.3264
 L 25.1347,88.1428 L 24.8855,87.9334 L 24.8029,87.8422 L 24.7374,87.7381 L 24.6908,87.6242 L 24.6773,87.5631
 L 24.6742,87.5007 L 24.6817,87.4385 L 24.6995,87.3785 L 24.7271,87.3223 L 24.7917,87.2277 L 24.8667,87.1411
 L 25.2968,86.7065 L 25.8223,86.1976 L 26.4106,85.6518 L 28.2539,83.8683 L 29.6688,82.2575 L 30.8015,80.646
 L 31.7808,78.8686 L 32.2836,77.6635 L 32.7921,76.0838 L 33.1966,74.553 L 33.2763,74.1026 L 33.3031,73.646
 L 33.3125,73.4377 L 33.3408,73.2084 L 33.3824,72.9929 L 33.4319,72.83 L 33.4607,72.7696 L 33.4988,72.7144
 L 33.545,72.6659 L 33.5983,72.6252 L 33.6572,72.5935 L 33.7445,72.5625 L 33.8352,72.5447 L 33.9275,72.5403
 L 34.0194,72.5497 L 34.3598,72.6255 L 34.6918,72.7315 L 36.266,73.3291 L 40.2787,74.6597 L 42.0818,75.0832
 L 43.912,75.368 L 45.5832,75.4909 L 47.2589,75.4704 L 48.8458,75.3036 L 50.4085,74.9806 L 52.2009,74.4788
 L 53.8656,73.9351 L 55.2841,73.4131 L 55.3793,73.3674 L 55.4658,73.3068 L 55.5416,73.2331 L 55.6211,73.1251
 L 55.6414,73.1053 L 55.6648,73.0891 L 55.6904,73.0769 L 55.7178,73.069 L 55.7461,73.0657 L 55.7744,73.067
 L 55.8023,73.073 L 55.9004,73.1121 L 55.9904,73.1675 L 56.0696,73.2374 L 56.495,73.7564 L 57.3078,74.9376
 L 59.6887,78.4437 L 62.1271,81.9827 L 64.3065,85.1005 L 65.7621,87.1194 L 66.5888,88.3433 L 66.6236,88.4114
 L 66.6468,88.4843 L 66.6579,88.56 L 66.6567,88.6366 L 66.6432,88.712 L 66.6176,88.7841 L 66.5808,88.8511
 L 66.4815,88.9786 L 66.3636,89.0891 L 66.23,89.1801 L 66.0841,89.2493 L 63.7953,90.0939 L 59.5595,91.5226
 L 56.2652,92.4419 L 53.0329,93.0864 L 49.0272,93.6382 L 45.6361,93.91 z
" stroke="black" fill="lightgray" stroke-width="0.5"/>
</svg>
