<?xml version="1.0" standalone="no"?>
<!DOCTYPE svg PUBLIC "-//W3C//DTD SVG 1.1//EN" "http://www.w3.org/Graphics/SVG/1.1/DTD/svg11.dtd">
<svg width="101mm" height="120mm" viewBox="-1 1 101 120" xmlns="http://www.w3.org/2000/svg" version="1.1">
<title>OpenSCAD Model</title>
<path d="
M 53.056,119.89 L 56.8901,119.448 L 60.4504,118.711 L 63.9277,117.65 L 67.2928,116.274 L 70.2543,114.685
 L 73.0108,112.763 L 75.5255,110.534 L 78.0002,107.709 L 78.886,106.4 L 79.6186,105 L 80.1582,103.589
 L 80.5239,102.123 L 80.757,100.468 L 80.8418,98.7994 L 80.7511,96.7541 L 80.634,95.9166 L 80.4431,95.0927
 L 80.1875,94.3186 L 79.8607,93.5717 L 78.9335,91.9626 L 78.0082,90.7891 L 76.4595,89.2114 L 74.689,87.5914
 L 72.9911,86.223 L 71.8543,85.3723 L 71.8623,80.5878 L 71.8786,78.689 L 71.9224,76.9414 L 71.9825,75.4789
 L 72.0562,74.8932 L 72.2421,73.983 L 75.2055,73.8298 L 77.5494,73.6339 L 79.4392,73.3033 L 81.0641,72.8026
 L 82.5894,72.0916 L 83.671,71.3679 L 85.081,70.1731 L 86.0408,69.2607 L 86.8234,68.2142 L 87.2227,67.492
 L 87.4221,67.189 L 87.5797,66.8624 L 87.6929,66.5179 L 87.7083,66.429 L 87.7098,66.3388 L 87.6969,66.2494
 L 87.6703,66.1632 L 87.6309,66.0823 L 87.5788,66.0084 L 87.5162,65.9436 L 87.444,65.8894 L 86.8573,65.5689
 L 86.2335,65.3286 L 81.5787,63.9068 L 79.6319,63.3357 L 78.702,63.1128 L 77.8186,62.9903 L 76.2208,62.8714
 L 73.9441,62.8912 L 72.9516,63.0256 L 71.9788,63.2646 L 71.0304,63.6074 L 70.1236,64.0482 L 68.1787,65.3079
 L 67.0662,66.017 L 66.7687,66.1533 L 66.4566,66.2524 L 66.135,66.3128 L 65.8585,66.3255 L 65.5831,66.2944
 L 65.3161,66.2206 L 65.042,66.1007 L 64.7852,65.9475 L 64.5493,65.7632 L 64.4149,65.6315 L 64.2946,65.4871
 L 64.0584,65.1265 L 63.8741,64.7419 L 63.8164,64.5704 L 63.7773,64.3936 L 63.7292,63.9269 L 63.7316,63.8618
 L 63.744,63.7979 L 63.7658,63.7366 L 63.797,63.6795 L 63.8374,63.6264 L 63.8855,63.5799 L 63.9391,63.5408
 L 63.9986,63.51 L 64.4661,63.3374 L 64.9945,63.1727 L 66.3444,62.7503 L 67.9548,62.2461 L 69.7074,61.6969
 L 71.8509,61.03 L 74.7112,60.1492 L 77.7582,59.2169 L 80.5347,58.3737 L 84.9441,57.0088 L 87.8276,56.028
 L 89.8848,55.2041 L 91.4906,54.3856 L 93.0732,53.2631 L 95.965,50.7408 L 99.012,47.9819 L 99.0983,47.8889
 L 99.1683,47.7831 L 99.2198,47.6671 L 99.2521,47.5444 L 99.2635,47.4181 L 99.27,47.3068 L 99.2876,47.1969
 L 99.373,46.8323 L 99.4917,46.4154 L 99.6314,45.9985 L 99.7849,45.501 L 99.8919,44.9912 L 99.9943,43.8536
 L 99.9477,42.8445 L 99.928,42.7403 L 99.8925,42.6405 L 99.8423,42.5472 L 99.7782,42.4628 L 99.702,42.3892
 L 99.6372,42.3418 L 99.5673,42.3025 L 99.4933,42.2717 L 99.024,42.1223 L 98.4542,41.9741 L 97.8384,41.8476
 L 97.0574,41.7442 L 96.2709,41.7153 L 96.011,41.7382 L 95.7575,41.8007 L 95.5167,41.9012 L 95.2944,42.0376
 L 94.7903,42.4728 L 94.3676,42.9877 L 92.628,45.6197 L 92.1134,46.361 L 91.4199,47.2389 L 90.6713,48.1078
 L 89.9813,48.8264 L 88.6252,49.9923 L 87.1604,50.9501 L 85.866,51.5725 L 85.7815,51.5987 L 85.6943,51.6105
 L 85.6061,51.6076 L 85.5197,51.5901 L 85.4374,51.5585 L 85.3616,51.5135 L 85.294,51.4565 L 85.249,51.4038
 L 85.2126,51.3445 L 85.1867,51.2803 L 85.1707,51.2128 L 85.1655,51.1436 L 85.184,50.8906 L 85.2358,50.6424
 L 85.5447,49.6634 L 86.7108,46.3775 L 88.0314,41.8909 L 88.8858,37.1506 L 89.2629,32.2242 L 89.1565,27.1811
 L 88.6394,23.0083 L 87.6448,18.6287 L 86.4127,14.806 L 86.0871,14.068 L 85.6755,13.3745 L 85.1834,12.7355
 L 85.1112,12.641 L 85.0529,12.5377 L 85.0085,12.4276 L 84.9796,12.3123 L 84.966,12.1941 L 84.9681,12.0752
 L 85.0036,11.8065 L 85.064,11.5424 L 85.3739,10.4906 L 85.6761,9.24399 L 85.8213,7.96944 L 85.7895,6.78082
 L 85.5731,5.61164 L 85.3468,4.92591 L 85.0418,4.27125 L 84.6629,3.65652 L 84.2374,3.13344 L 83.7422,2.67641
 L 83.1863,2.29478 L 82.5965,1.99416 L 81.9755,1.76453 L 80.5137,1.44687 L 79.0066,1.36886 L 78.327,1.42621
 L 77.658,1.55749 L 77.061,1.74765 L 76.4909,2.00772 L 75.9563,2.33401 L 75.1962,2.95607 L 74.5429,3.68943
 L 73.9793,4.55807 L 73.5495,5.5001 L 73.2421,6.53393 L 73.0719,7.59905 L 73.0102,8.57623 L 73.0164,8.8925
 L 73.0552,9.20638 L 73.1246,9.50214 L 73.2273,9.78827 L 73.6003,10.5816 L 74.2626,11.6391 L 74.62,12.0658
 L 75.0239,12.4492 L 75.4728,12.7882 L 75.9566,13.0746 L 77.1356,13.5763 L 77.9419,13.8932 L 78.0899,13.9732
 L 78.2244,14.0738 L 78.3428,14.1931 L 78.5102,14.4233 L 78.6384,14.6774 L 79.0948,15.8602 L 79.4108,16.7136
 L 79.8095,17.7596 L 80.222,18.8218 L 80.5834,19.7298 L 81.5355,22.1733 L 82.0211,23.6883 L 82.3467,25.2205
 L 82.7081,27.6975 L 82.9911,30.4739 L 83.0944,33.1515 L 83.0624,35.4769 L 83.0528,35.5581 L 83.0297,35.6366
 L 82.9942,35.7101 L 82.947,35.7767 L 82.8891,35.8344 L 82.8225,35.8818 L 82.7488,35.9174 L 82.6625,35.9433
 L 82.573,35.9561 L 82.4827,35.9556 L 82.3933,35.9416 L 82.3073,35.9144 L 81.0721,35.3891 L 79.7093,34.7139
 L 78.4217,33.9572 L 77.3931,33.2358 L 76.4314,32.4272 L 74.562,30.4551 L 72.9134,28.1605 L 71.5832,25.6659
 L 70.4982,23.3278 L 69.8381,22.1559 L 69.5486,21.7674 L 69.2137,21.4169 L 68.8194,21.087 L 68.3936,20.799
 L 67.2481,20.2016 L 66.7881,20.0353 L 66.3089,19.9359 L 66.0573,19.9195 L 65.8061,19.9371 L 65.5594,19.9887
 L 65.3984,20.0461 L 65.2464,20.125 L 65.1065,20.2239 L 64.9816,20.3409 L 64.7001,20.6922 L 64.4738,21.0813
 L 64.3079,21.4998 L 64.085,22.36 L 63.9496,23.2382 L 63.8981,24.1782 L 63.9379,25.1186 L 64.0714,25.9396
 L 64.3187,26.7339 L 65.1706,28.5365 L 66.2639,30.2036 L 67.7562,31.9984 L 69.3993,33.6565 L 71.4103,35.3778
 L 73.5476,36.9391 L 76.0047,38.4906 L 78.5478,39.8963 L 80.6299,41.0382 L 80.9148,41.2354 L 81.1658,41.4741
 L 81.377,41.7489 L 81.4815,41.9446 L 81.5509,42.1553 L 81.583,42.3748 L 81.5768,42.5966 L 81.2888,44.1042
 L 80.7638,45.6749 L 80.0586,47.1733 L 79.1811,48.5816 L 78.1457,49.8783 L 76.9543,51.0586 L 75.6353,52.0939
 L 74.1843,52.9891 L 72.6439,53.72 L 71.1599,54.3266 L 70.0151,53.0673 L 69.2082,52.0772 L 68.5129,51.006
 L 67.9594,49.8967 L 67.541,48.7299 L 67.2333,47.4269 L 67.0662,46.0985 L 67.0511,42.9653 L 67.1393,41.2953
 L 67.1177,40.5136 L 67.0721,40.2533 L 66.9879,40.0028 L 66.8649,39.7578 L 66.7101,39.5313 L 66.5784,39.3822
 L 66.4304,39.249 L 66.0028,38.9384 L 65.5101,38.6496 L 65.0235,38.4302 L 64.5527,38.2903 L 64.0662,38.223
 L 63.575,38.2299 L 63.3416,38.2715 L 63.1187,38.3523 L 62.913,38.4701 L 62.7305,38.6214 L 62.5766,38.8016
 L 62.2951,39.2682 L 62.0901,39.7731 L 61.9661,40.3038 L 61.6883,43.0938 L 61.6988,45.4837 L 61.9667,47.6896
 L 62.4915,49.7111 L 63.2722,51.5489 L 63.5926,52.1811 L 63.8414,52.713 L 64.0319,53.1536 L 64.2669,53.5496
 L 64.6276,53.9366 L 65.0812,54.397 L 65.5458,54.8892 L 65.9433,55.376 L 66.2405,55.8027 L 66.2809,55.8787
 L 66.3083,55.9601 L 66.3219,56.0451 L 66.3213,56.1568 L 66.3034,56.2671 L 66.2682,56.3732 L 66.2171,56.4724
 L 66.1505,56.5624 L 65.827,56.9032 L 65.4734,57.2126 L 64.4229,57.9321 L 63.0138,58.6834 L 62.3071,59.0328
 L 61.6458,59.3718 L 61.0926,59.6656 L 60.8392,59.8196 L 60.7621,59.8643 L 60.6795,59.8975 L 60.5934,59.9187
 L 60.5071,59.9266 L 60.4208,59.9211 L 60.3363,59.9024 L 60.1719,59.8394 L 60.0181,59.754 L 59.5587,59.4301
 L 59.1113,59.1239 L 58.4647,58.7457 L 57.7466,58.3636 L 57.0609,58.0361 L 55.1064,57.2919 L 53.0794,56.7766
 L 50.9239,56.4714 L 48.7489,56.3869 L 46.603,56.5238 L 44.482,56.8806 L 42.5432,57.4393 L 40.6886,58.2346
 L 39.9603,58.5779 L 39.4093,58.7759 L 39.2031,58.8239 L 38.9934,58.852 L 38.9191,58.8532 L 38.8451,58.8446
 L 38.7729,58.8263 L 38.7042,58.7985 L 36.3784,57.6175 L 34.8208,56.67 L 33.8508,55.8861 L 33.7598,55.7848
 L 33.6861,55.6699 L 33.6318,55.5447 L 33.5992,55.4124 L 33.5881,55.2764 L 33.5927,55.2077 L 33.6063,55.1403
 L 33.6291,55.0754 L 33.7684,54.7974 L 33.9673,54.4985 L 34.2026,54.2214 L 34.9469,53.2915 L 35.7991,51.9148
 L 36.6057,50.3821 L 37.2233,48.9347 L 37.802,47.1724 L 38.1886,45.5025 L 38.411,43.7734 L 38.4948,41.8309
 L 38.3527,39.4907 L 38.2821,39.1336 L 38.1658,38.7888 L 38.0046,38.4623 L 37.802,38.1599 L 37.6475,37.9896
 L 37.4672,37.8468 L 37.2658,37.7354 L 37.0491,37.6581 L 36.8227,37.6171 L 36.3322,37.602 L 35.8441,37.6519
 L 35.3671,37.7659 L 34.9783,37.908 L 34.5494,38.106 L 34.1464,38.3259 L 33.8406,38.5337 L 33.6981,38.6604
 L 33.5739,38.8047 L 33.47,38.9644 L 33.3861,39.1393 L 33.3244,39.3236 L 33.2871,39.514 L 33.2159,40.5089
 L 33.1949,43.3952 L 33.1814,47.7666 L 32.3976,49.2922 L 31.5818,50.6432 L 30.4989,52.0362 L 29.4145,53.2061
 L 29.3155,53.2903 L 29.2048,53.3578 L 29.0846,53.4068 L 28.9582,53.4361 L 28.8284,53.445 L 28.3915,53.4031
 L 27.9675,53.2884 L 27.5688,53.1042 L 24.9496,51.5193 L 22.3553,49.7784 L 21.2694,48.6851 L 20.4122,47.4606
 L 19.8017,46.1646 L 19.3839,44.7016 L 19.3414,44.4819 L 18.8197,42.9387 L 18.557,41.7777 L 18.3803,40.5991
 L 20.9666,39.3011 L 23.7474,37.7929 L 26.4265,36.1107 L 28.6952,34.4311 L 30.8048,32.5553 L 32.5083,30.72
 L 34.0166,28.7207 L 35.143,26.7757 L 35.9853,24.6919 L 36.1546,24.0712 L 36.2634,23.4371 L 36.3118,22.1013
 L 36.2536,21.4861 L 36.1404,20.8785 L 36.047,20.5632 L 35.9178,20.261 L 35.7538,19.976 L 35.459,19.5988
 L 35.3782,19.5246 L 35.2863,19.4644 L 35.1858,19.42 L 35.0637,19.3859 L 34.9385,19.3666 L 34.8118,19.3625
 L 34.1119,19.4062 L 33.4937,19.5132 L 32.8989,19.7123 L 32.2962,20.0108 L 31.735,20.381 L 31.2253,20.8158
 L 30.7727,21.3103 L 30.4212,21.822 L 30.1526,22.3819 L 29.4456,23.9647 L 28.364,25.9776 L 27.1868,27.9505
 L 26.169,29.412 L 25.6069,30.0822 L 24.8811,30.8384 L 24.1155,31.5608 L 23.4314,32.1267 L 21.9591,33.1239
 L 20.1862,34.0996 L 18.5024,34.8896 L 18.3276,34.9507 L 18.1457,34.9847 L 17.9604,34.9909 L 17.7766,34.9693
 L 17.702,34.9488 L 17.632,34.9176 L 17.5669,34.8761 L 17.509,34.8255 L 17.4593,34.7666 L 17.4189,34.701
 L 17.3329,34.5065 L 17.2703,34.3032 L 17.2321,34.0938 L 17.1569,32.8827 L 17.1658,29.9595 L 17.3394,26.2314
 L 17.8031,23.2282 L 18.6846,20.268 L 20.1695,16.663 L 21.2308,13.9157 L 21.3612,13.3568 L 21.3961,12.784
 L 21.3353,12.2134 L 21.2632,11.9564 L 21.1506,11.7146 L 20.9999,11.4945 L 20.8149,11.3019 L 20.6012,11.1421
 L 20.0903,10.8653 L 19.5486,10.6544 L 18.9849,10.5131 L 18.249,10.4267 L 17.508,10.4379 L 17.1149,10.5029
 L 16.7378,10.6321 L 16.3879,10.8217 L 16.0348,11.0889 L 15.7225,11.4021 L 15.4564,11.7556 L 14.5471,13.4144
 L 13.5025,16.0104 L 12.6034,18.8903 L 11.8813,21.9369 L 11.368,25.0341 L 11.1228,27.7472 L 10.9785,31.6987
 L 10.9196,35.6649 L 10.9622,36.2918 L 11.0972,36.9055 L 11.2092,37.3379 L 11.3754,38.1229 L 11.5554,39.0409
 L 11.7262,39.9856 L 12.1878,42.1887 L 12.8541,44.6395 L 13.599,46.9315 L 14.2946,48.5972 L 14.8431,49.8489
 L 14.8678,49.9314 L 14.8789,50.0168 L 14.8761,50.1029 L 14.8598,50.1874 L 14.8296,50.2681 L 14.7867,50.343
 L 14.7506,50.3871 L 14.7081,50.4248 L 14.6597,50.4548 L 14.6073,50.4766 L 14.5518,50.4894 L 14.495,50.493
 L 14.4383,50.4872 L 14.3834,50.4722 L 13.3234,50.0136 L 12.6118,49.6001 L 11.9535,49.1056 L 10.3092,47.5712
 L 8.76627,45.8279 L 7.68804,44.2291 L 7.29462,43.5673 L 6.81732,42.8385 L 6.33201,42.154 L 5.9207,41.6362
 L 5.00681,40.568 L 3.12045,40.568 L 2.0379,40.5891 L 1.74067,40.6159 L 1.44806,40.6727 L 1.23069,40.7459
 L 1.02812,40.854 L 0.812289,41.01 L 0.614341,41.188 L 0.440751,41.3798 L 0.287511,41.5882 L 0.180213,41.7825
 L 0.10498,41.9914 L 0.0467058,42.261 L 0.0177228,42.5353 L -0.00571027,43.4561 L 0.0232727,44.1718 L 0.109297,44.9055
 L 0.238179,45.5687 L 0.396969,46.0566 L 0.606633,46.4758 L 0.868096,46.8651 L 1.17643,47.2181 L 3.48983,49.4537
 L 5.9984,51.6515 L 8.03245,53.1294 L 9.71223,53.9995 L 12.3565,55.0052 L 17.0742,56.5937 L 28.8259,60.3909
 L 32.9199,61.7399 L 33.6553,62.0257 L 34.3614,62.3775 L 34.4921,62.4634 L 34.608,62.5679 L 34.7076,62.6884
 L 34.7878,62.8225 L 34.8476,62.967 L 34.883,63.1152 L 34.8945,63.2671 L 34.8815,63.4189 L 34.8445,63.5668
 L 34.7841,63.7067 L 34.6429,63.9377 L 34.4156,64.2483 L 34.1514,64.5782 L 33.8859,64.8792 L 33.6522,65.1017
 L 33.3926,65.2937 L 33.1117,65.4524 L 32.9171,65.5302 L 32.7136,65.5798 L 32.5052,65.6 L 32.2958,65.5904
 L 31.9807,65.5291 L 31.678,65.4212 L 31.3949,65.2693 L 30.8572,64.8908 L 30.3565,64.4649 L 29.5711,63.818
 L 28.7115,63.2728 L 26.609,62.3389 L 24.2561,61.7358 L 21.8595,61.5308 L 20.5062,61.613 L 16.0638,62.1744
 L 11.293,62.7969 L 11.1527,62.8268 L 11.0192,62.8784 L 10.895,62.9506 L 10.8808,62.9623 L 10.8688,62.9761
 L 10.8589,62.9917 L 10.8521,63.0087 L 10.8478,63.0266 L 10.8463,63.0449 L 10.8481,63.0633 L 10.8527,63.081
 L 10.8601,63.0979 L 11.6014,64.4488 L 12.3355,65.72 L 12.9278,66.6161 L 15.1761,69.2155 L 16.353,70.2349
 L 17.6403,71.1114 L 19.0444,71.8486 L 20.5229,72.4229 L 24.0295,73.2706 L 24.9215,73.4225 L 25.6936,73.5706
 L 26.3491,73.7084 L 26.3796,73.7173 L 26.4086,73.7304 L 26.4351,73.7475 L 26.4592,73.7682 L 26.5147,73.8346
 L 26.5581,73.9096 L 26.5877,73.991 L 26.6032,74.0764 L 26.922,77.7321 L 27.1819,81.0776 L 27.2608,83.1312
 L 27.2732,84.9022 L 24.9536,86.4148 L 22.0238,88.6214 L 19.6593,91.0505 L 18.7411,92.2864 L 17.9437,93.6037
 L 17.3641,94.8605 L 16.9521,96.182 L 16.7212,97.6958 L 16.6657,99.7131 L 16.7613,101.69 L 16.8568,102.368
 L 17.0258,103.031 L 17.6567,104.659 L 18.5113,106.234 L 19.5776,107.736 L 20.8405,109.142 L 22.1,110.369
 L 23.3096,111.488 L 24.4122,112.471 L 25.8977,113.348 L 27.5309,114.349 L 29.5341,115.392 L 31.6854,116.371
 L 33.7749,117.183 L 37.5584,118.355 L 41.423,119.222 L 45.3444,119.777 L 49.1976,120 z
M 79.0306,10.9747 L 78.586,10.8875 L 78.1596,10.7342 L 77.5016,10.3706 L 76.9133,9.90228 L 76.6022,9.57013
 L 76.3346,9.20198 L 76.2088,8.97328 L 76.1138,8.73016 L 76.0512,8.47687 L 76.0081,8.04004 L 76.0355,7.60198
 L 76.284,6.41985 L 76.4249,6.02518 L 76.6217,5.65488 L 76.8995,5.25436 L 77.213,4.8812 L 77.5522,4.5462
 L 77.9213,4.24435 L 78.2506,4.04116 L 78.6101,3.89763 L 78.9335,3.82579 L 79.264,3.80313 L 80.0907,3.87273
 L 80.9278,4.07508 L 81.2827,4.21197 L 81.6206,4.38718 L 81.9234,4.59885 L 82.1913,4.85399 L 82.4053,5.13719
 L 82.5675,5.45285 L 82.6995,5.84843 L 82.7765,6.2582 L 82.8419,7.36442 L 82.8083,8.16445 L 82.7679,8.42476
 L 82.6921,8.67713 L 82.5823,8.914 L 82.4405,9.13315 L 81.9437,9.73509 L 81.4002,10.2411 L 80.7782,10.6464
 L 80.366,10.8279 L 79.931,10.9447 L 79.483,10.9939 z
M 38.8139,82.6739 L 38.4298,82.6096 L 38.0576,82.494 L 37.7046,82.3291 L 37.2461,82.0277 L 36.8388,81.6597
 L 36.4925,81.2338 L 36.1056,80.6086 L 35.9977,80.3741 L 35.9249,80.1268 L 35.8811,79.847 L 35.8715,79.5639
 L 35.9215,78.6106 L 36.1247,77.3026 L 36.2832,76.7774 L 36.5083,76.2768 L 36.7691,75.8625 L 37.0891,75.4921
 L 37.4641,75.1705 L 37.8819,74.9071 L 38.6561,74.5669 L 38.9666,74.4863 L 39.2863,74.4589 L 39.6208,74.4849
 L 39.9474,74.5626 L 40.8329,74.9051 L 41.2914,75.1546 L 41.7095,75.4675 L 41.941,75.6943 L 42.1442,75.947
 L 42.316,76.222 L 42.5318,76.7056 L 42.6687,77.2172 L 42.7578,77.8557 L 42.7902,78.4997 L 42.7612,79.3032
 L 42.7226,79.5898 L 42.653,79.8704 L 42.5546,80.1357 L 42.4263,80.3881 L 42.0135,81.0255 L 41.6395,81.4793
 L 41.2097,81.8801 L 40.7305,82.221 L 40.2508,82.4629 L 39.7368,82.6194 L 39.2037,82.6856 z
M 56.3406,83.0262 L 55.8254,82.8861 L 55.3589,82.6764 L 54.9337,82.392 L 54.5616,82.0411 L 54.2532,81.6331
 L 54.1219,81.4032 L 54.0109,81.1627 L 53.9335,80.9352 L 53.8833,80.7003 L 53.8524,80.4152 L 53.8475,80.1286
 L 53.894,79.2836 L 53.9992,78.4704 L 54.1752,77.6697 L 54.3988,77.0433 L 54.7213,76.4617 L 54.9575,76.154
 L 55.2316,75.88 L 55.5399,75.6444 L 55.8818,75.4469 L 56.2457,75.2935 L 56.6258,75.1867 L 57.0572,75.1237
 L 57.4932,75.1186 L 57.9258,75.1713 L 58.3479,75.281 L 58.7468,75.4448 L 59.1196,75.6617 L 59.4588,75.9276
 L 59.7588,76.2376 L 60.1245,76.7498 L 60.4041,77.3138 L 60.5897,77.9151 L 60.7017,78.6043 L 60.7319,79.3018
 L 60.6798,79.998 L 60.5691,80.5163 L 60.3795,81.0113 L 60.1158,81.4712 L 59.7847,81.885 L 59.3845,82.2556
 L 58.9359,82.5657 L 58.4478,82.8091 L 57.9298,82.9808 L 57.4044,83.074 L 56.8707,83.0893 z
M 47.8656,104.411 L 45.5556,104.321 L 44.1465,104.194 L 42.993,103.977 L 41.6706,103.6 L 39.2956,102.687
 L 37.2615,101.592 L 35.5968,100.334 L 34.9244,99.6667 L 34.3281,98.9307 L 33.9315,98.3132 L 33.8088,98.0609
 L 33.7179,97.7955 L 33.6516,97.4942 L 33.617,97.1878 L 33.5881,96.2406 L 33.617,95.5018 L 33.7052,94.6591
 L 33.8341,93.8448 L 33.9873,93.1991 L 34.2389,92.5136 L 34.583,91.8695 L 35.0132,91.279 L 35.911,90.3357
 L 36.9189,89.511 L 38.1957,88.6917 L 39.5521,88.0119 L 42.7495,86.8972 L 44.2082,86.5559 L 45.3703,86.3921
 L 46.7682,86.3409 L 49.2481,86.3785 L 51.5865,86.4578 L 53.0591,86.577 L 54.2622,86.782 L 55.5954,87.1297
 L 58.4811,88.2449 L 59.7095,88.9159 L 60.8601,89.7128 L 61.778,90.5173 L 62.5905,91.4278 L 62.987,92.003
 L 63.307,92.6243 L 63.5445,93.2813 L 63.7671,94.3854 L 63.8016,95.5112 L 63.6474,96.6268 L 63.3083,97.71
 L 62.7968,98.7231 L 62.1265,99.6388 L 61.1827,100.596 L 60.1238,101.425 L 58.9676,102.112 L 56.7116,103.116
 L 54.3624,103.876 L 52.8254,104.243 L 51.6704,104.412 L 50.3146,104.46 z
" stroke="black" fill="lightgray" stroke-width="0.5"/>
</svg>
