<?xml version="1.0" standalone="no"?>
<!DOCTYPE svg PUBLIC "-//W3C//DTD SVG 1.1//EN" "http://www.w3.org/Graphics/SVG/1.1/DTD/svg11.dtd">
<svg width="101mm" height="134mm" viewBox="0 1 101 134" xmlns="http://www.w3.org/2000/svg" version="1.1">
<title>OpenSCAD Model</title>
<path d="
M 83.2034,134.863 L 85.2269,134.482 L 87.1885,133.857 L 89.0426,133 L 90.7744,131.916 L 92.357,130.625
 L 93.6888,129.214 L 94.8201,127.636 L 95.73,125.922 L 96.3377,124.205 L 96.6607,122.412 L 96.6904,120.591
 L 96.5164,119.286 L 96.1681,118.017 L 95.6511,116.806 L 95.2487,116.083 L 94.9583,115.628 L 94.1278,114.542
 L 93.1723,113.565 L 91.3101,112.117 L 89.2519,110.966 L 86.6585,109.901 L 83.9796,109.074 L 81.7961,108.454
 L 80.3116,107.892 L 79.0618,107.208 L 77.6842,106.223 L 76.5236,105.227 L 75.6526,104.285 L 74.9078,103.205
 L 74.1334,101.776 L 73.606,100.576 L 73.1889,99.3328 L 72.5442,96.4157 L 72.1579,92.8251 L 72.0077,88.2913
 L 72.0367,84.779 L 72.1034,83.8573 L 72.2571,82.9461 L 72.4653,82.2494 L 72.7772,81.5923 L 73.7908,80.1128
 L 74.5394,79.3061 L 75.3876,78.6046 L 76.3883,77.9579 L 77.4507,77.4183 L 80.8589,76.1016 L 88.0598,73.7748
 L 91.7108,72.3131 L 93.2499,71.456 L 94.6914,70.4432 L 95.9364,69.3488 L 97.0505,68.1216 L 98.0274,66.7691
 L 98.8498,65.3174 L 100.002,62.9927 L 100.002,59.8414 L 99.9795,57.8767 L 99.8844,56.8955 L 99.7915,56.4879
 L 99.6562,56.0919 L 99.1677,55.0006 L 98.5639,53.9324 L 97.8448,52.9385 L 96.9985,51.9995 L 96.0607,51.1522
 L 95.0413,50.4049 L 93.9507,49.7659 L 92.8318,49.2623 L 91.6639,48.887 L 89.7707,48.5572 L 87.5288,48.4733
 L 85.2725,48.6244 L 83.3308,49.0103 L 81.1882,49.5778 L 78.5442,50.2143 L 75.8828,50.8102 L 73.685,51.2509
 L 69.7499,51.8948 L 65.7946,52.3689 L 62.1407,52.7002 L 62.0931,52.7002 L 62.0462,52.6924 L 62.0014,52.6769
 L 61.9596,52.6543 L 61.9221,52.6253 L 61.89,52.5902 L 61.864,52.5506 L 61.8448,52.507 L 61.8332,52.461
 L 61.8293,52.4136 L 61.831,52.3898 L 61.8361,52.3661 L 61.8444,52.3435 L 61.8557,52.3226 L 61.8702,52.3031
 L 62.0397,52.1238 L 62.2715,51.9245 L 62.5459,51.729 L 63.1392,51.297 L 63.6871,50.8084 L 65.1685,49.2506
 L 66.5743,47.5595 L 67.5026,46.1603 L 69.0214,42.8902 L 70.039,39.3991 L 70.5101,35.8711 L 70.5307,34.179
 L 70.4012,32.4916 L 69.9938,30.1243 L 69.3544,27.8087 L 68.5069,25.6463 L 67.4283,23.5892 L 66.1524,21.698
 L 64.6736,19.9606 L 63.0073,18.3948 L 61.1779,17.023 L 59.9739,16.2858 L 54.083,13.5984 L 53.9317,13.5174
 L 53.7879,13.4169 L 53.7834,13.412 L 53.7798,13.4065 L 53.7768,13.3999 L 53.7751,13.3928 L 53.7746,13.387
 L 53.7752,13.3787 L 53.7768,13.3726 L 53.7793,13.3668 L 53.9228,13.1575 L 54.1187,12.9086 L 54.3689,12.6264
 L 54.3855,12.6085 L 54.6521,12.2642 L 54.8702,11.8596 L 55.0503,11.3697 L 55.1724,10.8624 L 55.2962,9.54011
 L 55.2478,7.75064 L 55.1225,6.75359 L 54.8744,5.77959 L 54.5255,4.95196 L 54.0385,4.19735 L 53.6484,3.75124
 L 53.2083,3.3543 L 52.7248,3.01157 L 51.8618,2.55004 L 50.9456,2.20649 L 49.958,1.97167 L 48.9495,1.85435
 L 47.9747,1.86376 L 47.0098,2.00202 L 46.1085,2.2594 L 45.2517,2.6393 L 44.4784,3.12614 L 43.7864,3.72301
 L 43.0472,4.59851 L 42.7493,5.06117 L 42.4957,5.54963 L 42.0778,6.69274 L 41.7409,8.16073 L 41.5757,9.18115
 L 41.5481,9.48607 L 41.5494,9.79197 L 41.5797,10.0537 L 41.6427,10.3095 L 41.886,10.9468 L 42.1101,11.3862
 L 42.3976,11.8494 L 42.7013,12.268 L 42.9716,12.5642 L 43.4226,13.03 L 43.4734,13.0967 L 43.514,13.1698
 L 43.5437,13.2481 L 43.5618,13.3298 L 43.5635,13.3576 L 43.5607,13.3853 L 43.5534,13.412 L 43.5417,13.4371
 L 43.526,13.4602 L 43.5067,13.48 L 43.4843,13.4967 L 43.4596,13.5092 L 41.8467,14.1023 L 41.371,14.3074
 L 40.854,14.5075 L 37.9976,15.8103 L 35.3076,17.5493 L 32.883,19.656 L 30.8168,22.0544 L 29.3905,24.2956
 L 28.2951,26.7159 L 27.4458,29.4719 L 26.9065,32.305 L 26.6897,35.1347 L 26.7913,37.9707 L 27.2221,40.4627
 L 28.0404,42.8553 L 28.6762,44.6015 L 30.1354,46.6092 L 31.6433,48.5413 L 32.7914,49.7685 L 33.4349,50.3788
 L 33.9771,50.9109 L 34.4397,51.378 L 34.4503,51.3905 L 34.4589,51.4046 L 34.465,51.42 L 34.4688,51.4361
 L 34.4702,51.4525 L 34.465,51.518 L 34.4493,51.582 L 34.4238,51.6425 L 34.3891,51.6983 L 34.3459,51.748
 L 34.2955,51.79 L 34.2388,51.8234 L 34.1778,51.8478 L 34.1135,51.8619 L 34.048,51.8656 L 33.9824,51.859
 L 28.8847,50.8773 L 23.4819,49.6476 L 18.4455,48.2146 L 16.0329,47.6093 L 13.4452,47.2622 L 10.9847,47.1958
 L 9.97286,47.2718 L 8.97288,47.4445 L 7.71034,47.7961 L 6.49145,48.2784 L 5.3774,48.8704 L 4.34075,49.5895
 L 3.40553,50.4182 L 2.5753,51.3525 L 1.8426,52.399 L 1.23081,53.5207 L 0.745913,54.6861 L 0.376887,55.8931
 L 0.12876,57.1276 L 0.00331701,58.3804 L 0.00169421,59.6421 L 0.123891,60.8978 L 0.36926,62.1438 L 0.733579,63.3603
 L 1.12987,64.2687 L 1.65306,65.1106 L 3.3226,67.124 L 5.3662,69.0346 L 7.46919,70.4975 L 8.68224,71.1187
 L 10.4516,71.867 L 12.6409,72.6994 L 15.2048,73.5917 L 19.8285,75.2843 L 23.0376,76.8249 L 24.163,77.54
 L 25.2125,78.3623 L 25.7202,78.8615 L 26.161,79.4204 L 26.5281,80.0304 L 26.9713,81.0594 L 27.263,82.1412
 L 27.6308,85.0419 L 27.6457,88.5533 L 27.2864,92.567 L 26.8172,95.4876 L 26.2123,97.8721 L 25.3691,100.081
 L 24.1747,102.452 L 23.8644,102.933 L 23.4949,103.37 L 22.3242,104.478 L 20.9795,105.527 L 19.7162,106.286
 L 18.6041,106.807 L 17.6275,107.176 L 16.3583,107.547 L 14.0159,108.141 L 10.1251,109.414 L 8.50795,110.184
 L 6.98462,111.126 L 5.71267,112.135 L 4.57492,113.293 L 3.62801,114.547 L 2.85994,115.918 L 2.37991,117.033
 L 2.24538,117.437 L 2.15142,117.852 L 2.05454,118.826 L 2.0315,120.667 L 2.05568,122.483 L 2.15013,123.456
 L 2.23954,123.861 L 2.36872,124.255 L 2.8132,125.286 L 3.58452,126.618 L 4.81136,128.287 L 6.08835,129.824
 L 6.45737,130.177 L 6.88125,130.464 L 7.12516,130.603 L 7.5909,130.878 L 8.13746,131.204 L 8.70528,131.546
 L 10.8118,132.623 L 13.186,133.471 L 15.5981,134.024 L 17.8177,134.211 L 18.9392,134.155 L 20.0482,133.978
 L 22.6984,133.245 L 25.5153,132.108 L 28.2635,130.647 L 29.5746,129.797 L 31.9917,128.081 L 34.7791,126.048
 L 37.5971,123.936 L 39.639,122.469 L 41.6841,121.167 L 43.61,120.101 L 45.2836,119.355 L 46.1767,119.063
 L 47.0379,118.881 L 48.0241,118.781 L 49.3223,118.743 L 50.7668,118.763 L 51.689,118.86 L 52.5226,119.082
 L 53.6216,119.514 L 54.4601,119.91 L 55.4839,120.458 L 56.5186,121.058 L 57.3997,121.621 L 59.1497,122.876
 L 62.3367,125.322 L 65.7144,127.952 L 66.0026,128.206 L 66.2589,128.492 L 66.5786,128.833 L 66.9484,129.12
 L 69.5126,130.769 L 72.0679,132.334 L 73.7256,133.206 L 75.7489,134.051 L 77.5299,134.597 L 79.2668,134.896
 L 81.1486,134.993 z
M 47.6268,12.2259 L 47.0254,12.0417 L 46.4639,11.7586 L 45.9584,11.3848 L 45.5235,10.9307 L 45.1713,10.4098
 L 44.9122,9.83676 L 44.7538,9.22821 L 44.7004,8.60181 L 44.7538,7.97524 L 44.9122,7.36669 L 45.1713,6.79368
 L 45.5235,6.27276 L 45.9584,5.8187 L 46.4639,5.4448 L 47.0254,5.16178 L 47.6268,4.9776 L 48.2504,4.89775
 L 48.8786,4.92437 L 49.4934,5.05695 L 50.0767,5.29145 L 50.6123,5.62104 L 51.0842,6.03648 L 51.4793,6.52575
 L 51.7859,7.07458 L 51.9954,7.66756 L 52.1017,8.28731 L 52.1152,8.60181 L 52.1017,8.91614 L 51.9954,9.53589
 L 51.7859,10.1289 L 51.4793,10.6777 L 51.0842,11.167 L 50.6123,11.5824 L 50.0767,11.912 L 49.4934,12.1465
 L 48.8786,12.2791 L 48.2504,12.3057 z
M 39.2398,33.7713 L 38.5527,33.5609 L 37.9109,33.2373 L 37.3332,32.81 L 36.8358,32.2912 L 36.4335,31.6958
 L 36.1375,31.041 L 35.9562,30.3454 L 35.8954,29.6295 L 35.9562,28.9133 L 36.1375,28.2178 L 36.4335,27.5628
 L 36.8358,26.9674 L 37.3332,26.4486 L 37.9109,26.0213 L 38.5527,25.6977 L 39.2398,25.4873 L 39.9526,25.3961
 L 40.6706,25.4266 L 41.3732,25.578 L 42.0401,25.8459 L 42.6519,26.2227 L 43.1915,26.6975 L 43.643,27.2568
 L 43.9935,27.8841 L 44.2329,28.5618 L 44.3543,29.27 L 44.3697,29.6295 L 44.3543,29.9888 L 44.2329,30.6971
 L 43.9935,31.3746 L 43.643,32.002 L 43.1915,32.5612 L 42.6519,33.0361 L 42.0401,33.4127 L 41.3732,33.6808
 L 40.6706,33.832 L 39.9526,33.8627 z
M 55.5279,34.0381 L 54.8519,33.8309 L 54.2204,33.5127 L 53.6518,33.0922 L 53.1627,32.5817 L 52.7665,31.9958
 L 52.4753,31.3514 L 52.2972,30.6671 L 52.2372,29.9625 L 52.2972,29.258 L 52.4753,28.5737 L 52.7665,27.9293
 L 53.1627,27.3434 L 53.6518,26.8329 L 54.2204,26.4123 L 54.8519,26.094 L 55.5279,25.887 L 56.2293,25.797
 L 56.9359,25.8271 L 57.6272,25.9762 L 58.2833,26.2397 L 58.8853,26.6106 L 59.4163,27.0778 L 59.8605,27.6279
 L 60.2053,28.2452 L 60.441,28.912 L 60.5606,29.609 L 60.5755,29.9625 L 60.5606,30.3161 L 60.441,31.0131
 L 60.2053,31.6797 L 59.8605,32.297 L 59.4163,32.8473 L 58.8853,33.3145 L 58.2833,33.6853 L 57.6272,33.9489
 L 56.9359,34.0979 L 56.2293,34.1279 z
M 47.0385,49.8852 L 46.1437,49.7717 L 45.7255,49.6625 L 45.3192,49.5155 L 44.1108,48.9754 L 42.9385,48.326
 L 41.8503,47.5438 L 39.6075,45.4194 L 37.7214,42.9843 L 37.0594,41.8347 L 36.5398,40.6139 L 36.3541,40.0211
 L 36.3327,39.9116 L 36.327,39.8002 L 36.3374,39.6894 L 36.3631,39.5863 L 36.4049,39.489 L 36.4617,39.3994
 L 36.8103,38.9854 L 37.0862,38.7344 L 37.4049,38.5226 L 37.717,38.377 L 37.7986,38.352 L 37.8828,38.3369
 L 37.968,38.3324 L 38.5888,38.3811 L 38.8724,38.4372 L 39.1501,38.5187 L 39.3607,38.6034 L 39.5616,38.7091
 L 39.5959,38.7336 L 39.6256,38.7637 L 39.6494,38.7985 L 39.6671,38.8368 L 39.6778,38.8775 L 39.6815,38.9195
 L 39.7033,39.1912 L 39.7684,39.4555 L 39.8748,39.7064 L 40.6624,41.0782 L 41.655,42.5106 L 42.6716,43.6808
 L 43.6972,44.614 L 44.8159,45.4328 L 45.8597,45.9953 L 46.9832,46.3741 L 47.7013,46.5031 L 48.4296,46.5407
 L 49.1569,46.4863 L 50.2681,46.2363 L 51.3216,45.8044 L 51.9933,45.4096 L 52.6142,44.9392 L 53.909,43.6575
 L 55.0445,42.1499 L 55.487,41.3932 L 55.8601,40.5999 L 55.9107,40.1558 L 56.0049,39.8012 L 56.0993,39.5865
 L 56.2046,39.419 L 56.3224,39.2837 L 56.4563,39.1727 L 56.5999,39.0885 L 56.7677,39.0227 L 56.9719,38.978
 L 57.2332,38.9617 L 57.6585,39.0055 L 58.0765,39.0497 L 58.4817,39.162 L 58.8631,39.3394 L 59.0069,39.4356
 L 59.1352,39.5519 L 59.2453,39.6857 L 59.3347,39.834 L 59.4015,39.9938 L 59.4446,40.1615 L 59.483,40.5032
 L 59.476,40.8468 L 59.4241,41.1866 L 59.3277,41.5167 L 58.4543,43.4303 L 57.3468,45.0831 L 55.8731,46.7058
 L 54.2191,48.1194 L 53.417,48.6674 L 52.5697,49.1421 L 51.6116,49.5767 L 51.2448,49.705 L 50.8674,49.797
 L 50.0008,49.8949 L 48.5403,49.9184 z
M 15.7681,70.5616 L 14.2679,70.3049 L 12.9596,69.9063 L 12.7123,69.7884 L 12.489,69.6297 L 12.2964,69.4348
 L 12.2553,69.3783 L 12.2217,69.3171 L 12.1959,69.2524 L 12.1609,69.1242 L 12.1378,68.9932 L 12.126,68.8486
 L 12.1268,68.7038 L 12.1406,68.5644 L 12.168,68.4272 L 12.2216,68.2707 L 12.3008,68.1253 L 12.4032,67.9957
 L 12.4869,67.9199 L 12.582,67.8592 L 12.6862,67.8152 L 12.7961,67.7891 L 12.9856,67.7753 L 13.1751,67.7902
 L 13.3601,67.8337 L 14.0975,68.138 L 14.7816,68.4317 L 15.5005,68.625 L 16.2179,68.7058 L 16.9389,68.6737
 L 17.3232,68.5997 L 17.694,68.4752 L 18.045,68.3022 L 18.1672,68.2186 L 18.2755,68.1177 L 18.3675,68.0017
 L 18.4408,67.8731 L 18.4942,67.7349 L 18.5262,67.5904 L 18.5398,67.3774 L 18.5195,67.1648 L 18.4661,66.9582
 L 18.0655,65.9892 L 17.5624,65.0829 L 17.4803,64.9735 L 17.3818,64.8782 L 17.2693,64.8 L 17.0303,64.6859
 L 16.9246,64.6137 L 16.8315,64.5261 L 16.7531,64.425 L 16.2606,63.5823 L 15.8304,62.6099 L 15.6928,62.1792
 L 15.5973,61.7371 L 15.5672,61.4243 L 15.5795,61.1106 L 15.6343,60.8011 L 15.8057,60.2421 L 16.0363,59.7047
 L 16.3331,59.1773 L 16.6836,58.684 L 17.0444,58.296 L 17.4616,57.969 L 17.8723,57.7423 L 18.4204,57.5226
 L 19.0081,57.3415 L 19.5459,57.2322 L 20.1031,57.1259 L 20.7504,56.9515 L 21.3841,56.7418 L 21.898,56.5271
 L 22.5212,56.2 L 22.632,56.1263 L 22.7323,56.0392 L 22.8208,55.94 L 22.8854,55.8415 L 22.9331,55.7339
 L 22.9621,55.62 L 23.0054,55.1101 L 22.9881,54.8574 L 22.9365,54.6093 L 22.8518,54.3709 L 22.732,54.1359
 L 22.5848,53.9175 L 22.4123,53.7182 L 22.0571,53.4036 L 21.6609,53.1418 L 20.5746,52.6277 L 20.204,52.4565
 L 19.8572,52.2408 L 19.6943,52.1029 L 19.5562,51.9396 L 19.4473,51.7556 L 19.3978,51.628 L 19.3697,51.494
 L 19.3634,51.3572 L 19.3793,51.2212 L 19.4345,51.0294 L 19.5205,50.8489 L 19.6349,50.6854 L 19.7019,50.6159
 L 19.7785,50.5573 L 19.8632,50.5107 L 19.9536,50.4776 L 20.0914,50.4499 L 20.2316,50.4432 L 20.3711,50.4585
 L 20.6962,50.5375 L 21.011,50.6506 L 22.1556,51.1576 L 22.5958,51.3914 L 23.0092,51.6704 L 23.9082,52.4417
 L 24.6441,53.2431 L 24.9497,53.9297 L 25.1078,54.4991 L 25.1696,55.0169 L 25.1492,55.5129 L 25.0536,55.9759
 L 24.8796,56.4353 L 24.6041,56.9176 L 24.1128,57.5188 L 23.4353,58.0769 L 22.749,58.5006 L 22.0118,58.8122
 L 21.1816,59.0336 L 19.6057,59.3784 L 19.1888,59.4985 L 18.7855,59.658 L 18.6044,59.7531 L 18.4356,59.8688
 L 18.2815,60.0035 L 18.0731,60.2438 L 17.905,60.5142 L 17.7482,60.887 L 17.6523,61.2797 L 17.6327,61.5163
 L 17.6495,61.7532 L 17.7026,61.9846 L 17.8683,62.3973 L 18.0968,62.7787 L 18.9554,63.8788 L 19.5201,64.5983
 L 19.9226,65.2479 L 20.2059,65.9027 L 20.4072,66.6349 L 20.5771,67.7308 L 20.5876,67.9689 L 20.5699,68.2065
 L 20.5245,68.4405 L 20.4546,68.6522 L 20.357,68.8528 L 20.2335,69.0383 L 19.6107,69.7338 L 19.1263,70.1298
 L 18.903,70.2634 L 18.6636,70.3656 L 18.3738,70.45 L 18.077,70.5034 L 17.1544,70.5907 z
M 80.9743,71.825 L 80.4136,71.7351 L 79.9235,71.5832 L 79.4617,71.3594 L 79.0224,71.0621 L 78.6276,70.7077
 L 78.1357,70.1126 L 77.7448,69.4466 L 77.6221,69.1441 L 77.5405,68.8282 L 77.5007,68.5039 L 77.5043,68.1776
 L 77.5765,67.6967 L 77.7178,67.2316 L 77.9259,66.7919 L 78.4517,65.9521 L 79.0506,65.1627 L 79.7772,64.2463
 L 79.9651,63.9666 L 80.121,63.6676 L 80.2208,63.3955 L 80.2794,63.1117 L 80.3292,62.3438 L 80.3055,61.8308
 L 80.2341,61.3589 L 80.1304,60.9798 L 80.1087,60.9279 L 80.0798,60.8795 L 80.0446,60.8358 L 80.0034,60.7972
 L 79.9036,60.7287 L 79.7936,60.6773 L 79.3429,60.5225 L 78.7972,60.367 L 78.212,60.2326 L 77.23,59.9685
 L 76.2868,59.5877 L 75.4564,59.1157 L 74.7036,58.5279 L 74.1256,57.9089 L 73.659,57.2025 L 73.4589,56.7511
 L 73.3366,56.2727 L 73.295,55.7806 L 73.3199,55.4433 L 73.3947,55.1132 L 73.5174,54.7979 L 73.8114,54.2784
 L 74.1743,53.8042 L 74.6621,53.3119 L 75.2041,52.8802 L 76.5322,52.106 L 77.7274,51.5639 L 78.0067,51.4645
 L 78.2967,51.4036 L 78.3949,51.3976 L 78.4929,51.4067 L 78.5883,51.4309 L 78.6788,51.4697 L 78.8092,51.5489
 L 78.9279,51.6448 L 79.0329,51.7554 L 79.1118,51.8695 L 79.1704,51.9951 L 79.2066,52.129 L 79.2192,52.2673
 L 79.2092,52.4123 L 79.1774,52.5545 L 79.1254,52.6903 L 79.0536,52.8167 L 78.9033,53.01 L 78.7274,53.1803
 L 78.5296,53.3242 L 78.1401,53.5365 L 77.7277,53.7007 L 77.3097,53.8716 L 76.9194,54.0991 L 76.5144,54.4048
 L 76.1413,54.7489 L 75.8323,55.0971 L 75.56,55.4751 L 75.4821,55.6177 L 75.425,55.7701 L 75.3902,55.929
 L 75.3784,56.0912 L 75.3873,56.2123 L 75.4136,56.3309 L 75.4564,56.4444 L 75.5157,56.5503 L 75.5892,56.6467
 L 75.8944,56.9482 L 76.237,57.2068 L 76.7185,57.4882 L 77.2266,57.7186 L 78.4869,58.1267 L 80.5194,58.8031
 L 80.953,59.0186 L 81.3514,59.2934 L 81.7073,59.6215 L 81.979,59.9644 L 82.1888,60.3482 L 82.3308,60.7618
 L 82.4861,61.5917 L 82.5397,62.4343 L 82.5017,63.4408 L 82.4528,63.7486 L 82.3564,64.0449 L 82.2054,64.3526
 L 82.0165,64.6389 L 81.1851,65.6971 L 80.2455,66.955 L 79.9628,67.4306 L 79.7403,67.9372 L 79.6684,68.1833
 L 79.6298,68.4366 L 79.6259,68.6928 L 79.6415,68.8174 L 79.6751,68.9383 L 79.726,69.0531 L 79.7936,69.1592
 L 79.8753,69.2541 L 80.0535,69.4044 L 80.2541,69.523 L 80.4716,69.6061 L 80.9274,69.7119 L 81.392,69.7681
 L 81.9194,69.7772 L 82.4449,69.7342 L 82.9567,69.6397 L 83.4561,69.4932 L 84.6547,69.1222 L 84.8731,69.079
 L 85.0953,69.0665 L 85.3171,69.0849 L 85.3888,69.1014 L 85.4573,69.1287 L 85.5206,69.1662 L 85.5777,69.2129
 L 85.6269,69.2676 L 85.6675,69.3293 L 85.741,69.4946 L 85.7859,69.6699 L 85.8012,69.85 L 85.7898,70.013
 L 85.7556,70.1726 L 85.6998,70.326 L 85.623,70.4701 L 85.4839,70.6593 L 85.3181,70.8258 L 85.1298,70.966
 L 84.7068,71.1945 L 84.2556,71.3617 L 82.9067,71.6862 L 81.5416,71.8407 z
M 46.5869,70.0016 L 46.0243,69.882 L 45.0652,69.5487 L 44.1628,69.0837 L 43.3346,68.4965 L 42.6102,67.8064
 L 41.9952,67.0173 L 41.5027,66.1465 L 41.1551,65.2359 L 40.9501,64.2828 L 40.8925,63.3098 L 40.986,62.3553
 L 41.2305,61.4278 L 41.6202,60.5515 L 42.4121,59.3128 L 42.8312,58.8026 L 43.2978,58.3356 L 43.7825,57.9393
 L 44.3059,57.5953 L 44.8705,57.3009 L 45.4615,57.0635 L 46.218,56.8536 L 46.9946,56.7387 L 47.7795,56.7209
 L 48.9854,56.8705 L 50.149,57.2207 L 51.2359,57.7611 L 52.2164,58.4768 L 52.7747,59.0263 L 53.2604,59.6406
 L 53.6659,60.3107 L 53.853,60.7472 L 53.9708,61.2073 L 54.1798,62.7469 L 54.2688,64.3413 L 54.2482,64.9276
 L 54.169,65.5087 L 54.0849,65.838 L 53.9595,66.1536 L 53.7944,66.4504 L 52.9335,67.5994 L 51.8669,68.6646
 L 51.3653,69.0484 L 50.8206,69.369 L 50.2897,69.6052 L 49.7366,69.7832 L 48.4564,70.0195 L 47.1593,70.0591
 z
M 45.708,88.0761 L 45.0706,87.8864 L 44.4609,87.6206 L 43.9226,87.3051 L 43.425,86.9288 L 42.3775,85.8965
 L 41.509,84.751 L 41.2326,84.2511 L 41.0301,83.7171 L 40.8367,82.8677 L 40.7586,82.0003 L 40.7974,81.1302
 L 40.9517,80.2426 L 41.2123,79.3804 L 41.5755,78.5562 L 42.032,77.7898 L 42.5789,77.0851 L 43.2079,76.4529
 L 43.8817,75.9347 L 44.622,75.5169 L 45.4139,75.2079 L 46.2847,74.9942 L 47.1748,74.8866 L 48.0359,74.8936
 L 48.888,75.0175 L 49.7173,75.2562 L 50.5068,75.605 L 51.2788,76.0712 L 51.99,76.6261 L 52.7005,77.3669
 L 53.2759,78.2167 L 53.7397,79.2026 L 54.0599,80.2443 L 54.2277,81.3119 L 54.242,82.3925 L 54.1635,83.0574
 L 54.0065,83.7081 L 53.7737,84.3357 L 53.4786,84.9178 L 53.1219,85.4645 L 52.6822,86.0124 L 52.1963,86.5196
 L 51.6695,86.981 L 51.1041,87.3945 L 50.5472,87.7223 L 49.957,87.9862 L 49.3479,88.1731 L 48.7194,88.277
 L 47.2148,88.2999 z
M 47.3039,107.399 L 46.443,107.247 L 45.6066,106.992 L 44.7929,106.633 L 44.0269,106.181 L 43.3197,105.642
 L 42.6923,105.03 L 42.1451,104.346 L 41.6865,103.6 L 41.4134,102.971 L 41.2432,102.308 L 41.088,100.599
 L 41.2075,98.9497 L 41.2953,98.575 L 41.439,98.2183 L 41.6357,97.8877 L 42.4462,96.651 L 42.6875,96.2915
 L 42.9723,95.9653 L 43.7637,95.2734 L 44.6864,94.6716 L 45.1423,94.4433 L 45.6161,94.2556 L 46.2258,94.0834
 L 46.8513,93.9829 L 48.2743,93.9558 L 49.6702,94.1603 L 50.2601,94.3362 L 50.8237,94.5837 L 51.2736,94.8432
 L 51.6971,95.1437 L 52.5616,95.9196 L 53.3243,96.815 L 53.8923,97.7349 L 54.1166,98.2688 L 54.2642,98.8286
 L 54.4651,100.373 L 54.4836,101.934 L 54.4163,102.517 L 54.2709,103.085 L 54.0465,103.629 L 53.7459,104.135
 L 52.8178,105.272 L 51.7093,106.277 L 51.1872,106.634 L 50.6251,106.924 L 49.8354,107.209 L 49.0141,107.384
 L 48.1769,107.446 z
M 68.1444,124.725 L 67.4953,124.625 L 66.8637,124.444 L 65.3504,123.795 L 63.9467,123.028 L 63.5749,122.77
 L 63.2456,122.46 L 63.1528,122.342 L 63.079,122.21 L 63.0261,122.07 L 62.9951,121.922 L 62.9854,121.768
 L 62.9974,121.613 L 63.031,121.462 L 63.0852,121.317 L 63.1799,121.145 L 63.3002,120.99 L 63.4425,120.855
 L 63.5249,120.797 L 63.615,120.752 L 63.7107,120.721 L 63.8099,120.704 L 63.9105,120.702 L 64.1237,120.73
 L 64.3298,120.792 L 64.5239,120.885 L 65.329,121.434 L 65.9966,121.908 L 66.7116,122.308 L 67.1315,122.482
 L 67.5696,122.603 L 68.0195,122.669 L 68.2827,122.673 L 68.5439,122.642 L 68.7987,122.576 L 69.0425,122.477
 L 69.2048,122.382 L 69.351,122.263 L 69.4777,122.124 L 69.5821,121.968 L 69.6621,121.797 L 69.7482,121.509
 L 69.7919,121.211 L 69.7901,120.919 L 69.7424,120.63 L 69.4735,119.833 L 68.8041,118.337 L 68.2801,116.907
 L 68.1614,116.299 L 68.1363,115.68 L 68.2053,115.116 L 68.3701,114.571 L 68.6366,114.016 L 68.9761,113.503
 L 69.3586,113.05 L 69.7847,112.639 L 70.0402,112.443 L 70.3177,112.279 L 70.6132,112.151 L 71.1524,111.998
 L 71.7081,111.922 L 73.444,111.881 L 75.1286,111.85 L 75.6444,111.785 L 76.1458,111.649 L 76.3706,111.55
 L 76.5759,111.415 L 76.7565,111.248 L 76.9067,111.055 L 77.0231,110.84 L 77.1023,110.608 L 77.1432,110.392
 L 77.1584,110.172 L 77.1481,109.952 L 77.0843,109.62 L 76.967,109.304 L 76.8754,109.138 L 76.762,108.986
 L 76.6291,108.851 L 74.8399,107.105 L 74.2909,106.665 L 74.2285,106.598 L 74.1782,106.521 L 74.1413,106.437
 L 74.1194,106.348 L 74.1141,106.28 L 74.1197,106.211 L 74.136,106.144 L 74.1623,106.08 L 74.1984,106.021
 L 74.5968,105.554 L 74.8231,105.355 L 75.0723,105.186 L 75.3071,105.068 L 75.3641,105.049 L 75.4232,105.037
 L 75.4831,105.033 L 75.5898,105.041 L 75.6942,105.064 L 75.794,105.103 L 75.8868,105.156 L 75.9709,105.222
 L 77.0716,106.282 L 78.1156,107.419 L 78.4338,107.838 L 78.7034,108.29 L 78.8877,108.732 L 78.9937,109.199
 L 79.0682,110.456 L 78.9502,111.69 L 78.8798,111.977 L 78.7712,112.252 L 78.6263,112.51 L 78.4221,112.777
 L 78.1826,113.013 L 77.9116,113.212 L 77.3783,113.505 L 76.8133,113.729 L 76.1002,113.925 L 75.3708,114.048
 L 73.6149,114.152 L 72.3509,114.172 L 71.6602,114.252 L 71.4187,114.318 L 71.1893,114.419 L 70.9699,114.555
 L 70.7704,114.719 L 70.6031,114.898 L 70.4605,115.097 L 70.3448,115.313 L 70.264,115.532 L 70.2166,115.761
 L 70.2036,115.994 L 70.2459,116.434 L 70.356,116.861 L 70.8332,118.048 L 71.2216,119.007 L 71.5099,120.002
 L 71.6396,120.87 L 71.6235,121.748 L 71.5382,122.245 L 71.3864,122.726 L 71.1711,123.181 L 70.9046,123.582
 L 70.5788,123.936 L 70.202,124.234 L 69.8998,124.412 L 69.5783,124.551 L 69.2422,124.651 L 68.6963,124.731
 z
M 27.1261,126.527 L 26.4279,126.394 L 25.7603,126.15 L 25.3476,125.915 L 24.9812,125.613 L 24.6716,125.252
 L 24.4278,124.845 L 24.2315,124.355 L 24.1077,123.841 L 24.0586,123.315 L 24.0856,122.788 L 24.3457,121.522
 L 24.8024,120.313 L 25.5083,118.697 L 25.6654,118.216 L 25.7564,117.718 L 25.7644,117.478 L 25.7334,117.239
 L 25.6646,117.008 L 25.5565,116.778 L 25.4177,116.566 L 25.2512,116.375 L 25.0398,116.184 L 24.8102,116.015
 L 24.5994,115.901 L 24.3725,115.824 L 24.0666,115.765 L 23.7565,115.737 L 22.5915,115.716 L 20.8252,115.634
 L 20.1777,115.538 L 19.5448,115.37 L 19.0258,115.159 L 18.5414,114.879 L 18.0747,114.52 L 17.6544,114.108
 L 17.331,113.705 L 17.0559,113.268 L 16.9285,113 L 16.8339,112.719 L 16.7734,112.429 L 16.7466,111.974
 L 16.7987,111.52 L 16.9349,110.987 L 17.1231,110.471 L 17.3122,110.094 L 17.5484,109.745 L 18.3077,108.863
 L 19.219,107.999 L 20.1392,107.309 L 20.6714,106.981 L 20.754,106.941 L 20.8414,106.913 L 20.9321,106.899
 L 20.9936,106.899 L 21.0547,106.908 L 21.1136,106.926 L 21.1691,106.952 L 21.5472,107.197 L 21.6601,107.293
 L 21.7573,107.405 L 21.837,107.53 L 21.8972,107.666 L 21.9334,107.803 L 21.9462,107.945 L 21.935,108.086
 L 21.9001,108.224 L 21.8076,108.434 L 21.6816,108.627 L 21.5256,108.796 L 21.1926,109.063 L 20.8275,109.283
 L 20.4313,109.52 L 20.0665,109.803 L 19.7254,110.137 L 19.4228,110.507 L 19.181,110.882 L 18.9845,111.282
 L 18.9035,111.516 L 18.8543,111.759 L 18.8374,112.007 L 18.8481,112.155 L 18.8804,112.3 L 18.9335,112.439
 L 19.0064,112.568 L 19.0976,112.685 L 19.3121,112.892 L 19.5536,113.065 L 19.8174,113.203 L 20.3924,113.406
 L 20.9901,113.527 L 22.5751,113.631 L 23.6925,113.686 L 24.7991,113.852 L 25.3372,114.004 L 25.846,114.236
 L 26.3135,114.542 L 26.6014,114.796 L 26.8533,115.086 L 27.0644,115.407 L 27.2312,115.753 L 27.5078,116.631
 L 27.6452,117.54 L 27.6661,118.385 L 27.6423,118.711 L 27.5855,119.032 L 27.4923,119.369 L 27.3693,119.695
 L 26.9419,120.611 L 26.4177,121.842 L 26.2639,122.375 L 26.1709,122.921 L 26.1553,123.348 L 26.204,123.773
 L 26.2478,123.927 L 26.3174,124.072 L 26.4109,124.203 L 26.5255,124.317 L 26.6624,124.412 L 26.8134,124.484
 L 26.974,124.529 L 27.1399,124.547 L 27.6282,124.533 L 28.1119,124.464 L 28.6835,124.321 L 29.2385,124.123
 L 30.3475,123.554 L 31.4155,122.956 L 31.6336,122.865 L 31.8622,122.806 L 32.0969,122.779 L 32.1939,122.783
 L 32.289,122.803 L 32.3792,122.839 L 32.4623,122.889 L 32.5357,122.953 L 32.6284,123.062 L 32.7059,123.182
 L 32.7671,123.311 L 32.8109,123.446 L 32.8473,123.63 L 32.8658,123.816 L 32.864,123.913 L 32.8489,124.009
 L 32.8211,124.103 L 32.7796,124.195 L 32.7267,124.282 L 32.6634,124.362 L 32.3624,124.646 L 31.3506,125.337
 L 30.13,125.938 L 28.8928,126.37 L 28.3696,126.488 L 27.8367,126.546 z
" stroke="black" fill="lightgray" stroke-width="0.5"/>
</svg>
