<?xml version="1.0" encoding="utf-8"?>
<svg version="1.1" id="Layer_1" xmlns="http://www.w3.org/2000/svg" xmlns:xlink="http://www.w3.org/1999/xlink" x="0px" y="0px"
	 viewBox="0 0 1457.121 1643.803" enable-background="new 0 0 1457.121 1643.803" xml:space="preserve">
<path d="M728.505,22.581c3.934-1.941,3.546-2.594,68.571,40.059c6.982,3.702,1.659-2.121,5.649,207.928
	c132.347-70.812,112.27-66.783,124.727-60.139c18.83,12.998,38.143,25.279,56.806,38.476c0.2,23.546,0.233,47.091-0.017,70.62
	c-59.256,32.277-117.462,66.438-176.484,99.115c-2.55,1.316-5.266,3.483-4.566,6.732c1.407,34.477-0.211,111.774,2.283,124.594
	c22.483-10.782,105.176-64.907,117.078-68.254c5.374,1.486,2.787-2.046,6.815,145.29c38.893-21.229,77.952-42.176,116.678-63.705
	c0,0,3.394-215.694,3.416-217.743c69.818-32.667,58.375-33.419,73.52-27.362c85.138,39.567,51.618,2.854,60.839,160.104
	c62.322-31.994,123.46-66.321,185.499-98.848c19.463,11.148,38.226,23.462,57.573,34.827c11.355,7.34,10.212,6.587,10.698,17.53
	c-0.694,75.281,3.687,68.799-10.665,77.769c-60.905,36.623-154.812,87.459-168.186,98.265
	c42.129,25.54,97.294,54.387,108.847,62.438c0.1,17.23-0.417,34.477,0.25,51.69c1.067,8.682,1.75,17.413,1.35,26.162
	c-17.547,11.298-35.86,21.329-54.257,31.144c-13.306,7.771,8.354,14.67-187.399-99.448c-31.11,17.979-102.843,64.417-115.345,73.67
	c9.556,9.801,72.044,43.847,111.713,73.67c-12.14,13.552-73.887,44.189-113.479,71.303c36.628,21.959,115.577,61.25,117.245,61.722
	c3.88-0.085,77.274-43.527,162.553-89.234c15.551-8.219,13.142-11.376,49.041,14.214c26.988,20.166,24.345,18.514,26.445,30.111
	c0.089,1.667,1.336,50.896-2.016,62.472c-7.541,10.638-82.717,46.935-103.164,63.005c12.874,9.708,99.992,60.001,171.968,102.981
	c0.041,52.538,0.767,75.476-2.95,86.601c-9.784,7.823-50.877,24.563-75.369,36.427c-152.814-85.766-146.682-83.672-169.719-95.666
	c0.005,1.669-2.075,116.28-3.899,125.01c-1.8,2.733-4.866,4.232-7.515,5.982c-63.449,34.534-53.543,31.141-64.405,26.995
	c-7.891-3.838-53.331-26.15-55.323-34.71c-4.62-18.08-0.742-33.828-2.45-196.897c-105.485-59.721-109.187-62.557-121.194-67.921
	c-3.416,32.844-1.616,65.904-2.016,98.848c0.7,11.365-1.783,22.546-2.016,33.877c-35.052-15.881-107.734-65.74-120.461-68.971
	c-1.996,13.565-0.714,93.216-1.9,123.377c-0.249,6.144-10.373-0.426,116.695,71.07c69.144,40.555,61.871,22.062,59.272,107.247
	c-0.117,6.499-5.799,10.981-10.998,13.897c-16.114,8.732-32.177,17.73-49.308,24.312c-8.493,3.234-96.123-51.923-116.095-60.455
	c-7.761,204.928,6.862,197.336-14.414,212.994c-19.33,12.581-38.376,25.795-59.039,36.143
	c-23.012-11.931-43.992-27.295-65.971-40.942c-11.251-5.507-2.152-19.714-7.482-208.228c-37.41,20.38-74.42,41.492-111.513,62.455
	c-12.651-6.279-54.359-29.982-63.238-36.96c0.017-25.462,0.05-50.924-0.017-76.369c10.568-7.926,160.335-91.219,173.301-100.332
	c-0.083-42.925,0.317-85.867-0.217-128.776c-19.788,9.173-109.682,72.96-124.31,74.453c-3.871-66.332-1.139-46.399-2.299-141.024
	c-11.309,4.689-14.424,8.52-113.112,64.388c-3.942,146.666,0.28,115.605-3.583,200.863c-12.398,7.93-55.622,35.624-65.488,39.693
	c-5.156,2.563-26.377-14.279-60.789-36.643c-0.019-1.689-0.375-101.243-2.116-126.677c-21.036,5.819-174.941,101.388-185.566,96.599
	c-21.646-8.565-42.992-17.897-64.138-27.645c-11.722-6.726-14.422,4.742-13.148-90.9c28.65-18.311,159.77-88.808,189.532-104.764
	c0-0.5-0.017-1.5-0.017-2c-37.876-18.93-75.803-37.793-113.712-56.639c-4.585-1.286-3.644,0.497-3.416-75.669
	c-1.5-8.966,66.367-41.656,72.57-43.175c7.276,0.162,105.336,59.748,167.619,95.449c9.35,4.552,45.8-16.885,119.328-61.289
	c-21.59-15.775-109.164-62.244-119.645-72.537c10.419-11.234,68.465-45.161,114.512-74.62c-1.668-0.974-107.74-62.81-113.662-63.955
	c-15.224,3.505-167.971,101.913-178.067,96.682c-21.963-10.031-43.775-20.43-65.121-31.711c0.114-62.617,1.7-79.635,1.7-79.635
	c5.325-3.982,107.769-60.715,113.729-63.971c-1.683-0.903-177.601-95.543-183.733-99.732c-0.067-29.261-0.05-58.523-0.017-87.8
	c7.816-4.768,51.922-28.364,65.571-34.544c15.371-6.405,2.707-4.314,189.065,98.049c3.15-14.111,1.521-17.679,2.016-77.202
	c0.733-17.63,1.916-35.243,1.65-52.907c17.247-12.364,35.227-23.696,52.624-35.843c8.866-4.583-5.707-7.714,75.419,37.96
	c0.014,4.654,0.493,130.139-0.75,202.496c38.526,21.813,76.969,43.809,115.495,65.604c4.208-34.746-0.203-118.802,7.065-137.708
	c41.959,19.53,81.602,43.575,123.194,63.838c2.622-18.164,2.068-79.537,1.766-129.759
	c-19.485-10.994-145.327-81.576-174.951-100.698c2.716-24.179,1.316-48.508,1.85-72.753c-0.283-3.816,3.683-5.266,6.299-6.999
	c64.157-37.303,52.371-32.593,63.505-28.128c35.277,18.947,69.67,39.493,104.947,58.406c0.272-49.043-0.44-154.077,1.816-204.762
	C661.765,62.706,710.164,30.577,728.505,22.581 M617.259,825.415c19.663,30.628,40.443,60.539,61.389,90.317
	c37.926-1.25,75.903-0.017,113.846-0.717c5.549-6.999,9.515-15.047,14.064-22.679c40.094-68.26,39.561-65.97,36.793-69.387
	c-56.485-99.025-53.362-93.394-57.256-92.849c-35.044-0.067-70.104,0.033-105.147-0.033
	C672.691,731.255,684.46,716.694,617.259,825.415z"/>
</svg>
