<?xml version="1.0" encoding="UTF-8" standalone="no"?>
<!-- Created with Inkscape (http://www.inkscape.org/) -->

<svg
   xmlns:dc="http://purl.org/dc/elements/1.1/"
   xmlns:cc="http://creativecommons.org/ns#"
   xmlns:rdf="http://www.w3.org/1999/02/22-rdf-syntax-ns#"
   xmlns:svg="http://www.w3.org/2000/svg"
   xmlns="http://www.w3.org/2000/svg"
   xmlns:sodipodi="http://sodipodi.sourceforge.net/DTD/sodipodi-0.dtd"
   xmlns:inkscape="http://www.inkscape.org/namespaces/inkscape"
   id="svg4988"
   version="1.1"
   inkscape:version="0.91 r13725"
   width="449.18005"
   height="693.16296"
   viewBox="0 0 449.18005 693.16296"
   sodipodi:docname="Flower29.svg">
  <metadata
     id="metadata4994">
    <rdf:RDF>
      <cc:Work
         rdf:about="">
        <dc:format>image/svg+xml</dc:format>
        <dc:type
           rdf:resource="http://purl.org/dc/dcmitype/StillImage" />
        <dc:title></dc:title>
      </cc:Work>
    </rdf:RDF>
  </metadata>
  <defs
     id="defs4992" />
  <sodipodi:namedview
     pagecolor="#ffffff"
     bordercolor="#666666"
     borderopacity="1"
     objecttolerance="10"
     gridtolerance="10"
     guidetolerance="10"
     inkscape:pageopacity="0"
     inkscape:pageshadow="2"
     inkscape:window-width="1600"
     inkscape:window-height="837"
     id="namedview4990"
     showgrid="false"
     fit-margin-top="0"
     fit-margin-left="0"
     fit-margin-right="0"
     fit-margin-bottom="0"
     inkscape:zoom="0.95423676"
     inkscape:cx="226.17272"
     inkscape:cy="342.49202"
     inkscape:window-x="-8"
     inkscape:window-y="-8"
     inkscape:window-maximized="1"
     inkscape:current-layer="svg4988" />
  <path
     style="fill:#000000"
     d="m 416.15045,621.94636 c -12.78663,10.19891 -23.89419,15.20659 -39.125,17.63896 -6.39621,1.02149 -12.97093,4.39033 -12.27894,6.29165 0.32762,0.90009 14.07049,5.05704 16.31047,4.93358 2.46563,-0.13591 11.09395,3.97202 12.61971,6.00821 1.88689,2.5181 -0.38653,6.31664 -4.99118,8.3395 -2.14651,0.94302 -4.0844,2.1041 -4.30645,2.58021 -2.54788,5.46393 -28.11855,10.44853 -39.82462,7.76317 -1.79882,-0.41265 -5.33292,-0.81963 -7.85359,-0.90442 -2.52064,-0.0848 -6.02983,-0.27062 -7.7982,-0.41296 -8.03011,-0.64631 -17.38658,6.12281 -20.18622,14.60412 -1.70713,5.17165 -3.17692,5.51059 -10.03256,2.31376 -5.76645,-2.68895 -6.02165,-3.58268 -3.64172,-12.75282 4.18046,-16.10753 5.76292,-26.203 6.01577,-38.37821 0.0234,-1.12695 0.26491,-4.6105 0.53667,-7.74128 0.27179,-3.13072 0.26581,-9.13296 -0.0133,-13.33825 -0.27907,-4.20529 -0.43653,-7.79791 -0.34995,-7.98361 0.0866,-0.18571 -0.43811,-4.90436 -1.16574,-10.4859 -0.72772,-5.58153 -1.38494,-11.80627 -1.46047,-13.83275 -0.27169,-7.29003 -3.74251,-17.84845 -13.85504,-42.14806 -5.58025,-13.409 -5.75343,-14.10477 -3.44661,-13.84777 3.33643,0.37168 2.95115,-5.51998 -0.46515,-7.11302 -0.40024,-0.18663 -1.88367,-2.54632 -3.29652,-5.24364 -3.3491,-6.39403 -13.42036,-19.10227 -16.14563,-20.37306 -1.17259,-0.54679 -3.76678,-2.73983 -5.76485,-4.87345 -1.99808,-2.13356 -5.23537,-5.43386 -7.19398,-7.33399 -6.01823,-5.83842 -4.37306,-7.15718 7.26773,-5.8258 15.42748,1.76446 32.92252,16.97783 36.8789,32.06925 1.31752,5.02567 3.07814,1.56206 4.78195,-9.40749 1.95134,-12.56307 6.42302,-6.28555 7.98857,11.21464 0.37163,4.15587 0.92923,9.44582 1.23879,11.75548 0.30956,2.30961 0.76667,9.03961 1.01577,14.9555 0.46702,11.0891 3.56346,34.69776 4.70053,35.8388 1.02186,1.02609 1.12159,0.0884 0.78823,-7.43378 -0.17283,-3.89964 -0.18412,-7.36926 -0.0251,-7.71029 0.38479,-0.82531 -0.54649,-38.51431 -1.12098,-45.36379 -0.24826,-2.96044 -2.05663,-14.04439 -4.01856,-24.63103 -1.96187,-10.5867 -4.1686,-23.09255 -4.90434,-27.79082 -0.73522,-4.69833 -1.60866,-8.82949 -1.94085,-9.18037 -0.33231,-0.3508 -1.91228,-5.10572 -3.51121,-10.5663 -1.5989,-5.4606 -4.11063,-11.9649 -5.58162,-14.454 -1.47093,-2.48914 -3.93129,-7.11007 -5.46736,-10.26879 -2.76889,-5.69385 -5.08839,-7.86528 -7.03597,-6.58679 -0.55602,0.36497 -4.55781,1.15571 -8.89295,1.75712 -8.9296,1.23888 -12.97142,2.6729 -20.08757,7.12705 -6.00748,3.76023 -8.18693,3.30183 -6.06127,-1.27479 2.48088,-5.34154 11.40301,-19.88217 15.42212,-25.13406 6.82845,-8.92295 6.40914,-10.15663 -4.80049,-14.12375 -8.95927,-3.17078 -13.38685,-5.37909 -19.61381,-9.78272 -6.5948,-4.66375 -11.75145,-6.24039 -19.26707,-5.89084 -15.17058,0.70557 -10.19527,-6.37301 7.00245,-9.96269 14.33077,-2.99129 13.87884,-2.82973 13.36787,-4.77879 -1.20826,-4.60862 -10.80576,-9.32429 -17.47705,-8.58715 -5.27356,0.5827 -7.47509,-0.73529 -5.59017,-3.34665 2.31049,-3.20104 1.99502,-4.56775 -1.4171,-6.13911 -4.48533,-2.06561 -15.53863,-4.47037 -18.54668,-4.03508 -1.41789,0.20525 -3.14241,0.10985 -3.83226,-0.21182 -3.62084,-1.68844 -2.35108,1.1312 2.35198,5.22273 10.29878,8.95963 10.29276,8.58689 0.2369,14.71923 -11.73191,7.15453 -25.15307,10.83407 -33.39526,9.15571 -6.41423,-1.30616 -6.62971,0.46261 -0.9401,7.71757 8.37648,10.68112 19.03561,14.23655 35.46061,11.82819 7.72409,-1.13258 8.37265,-1.07497 9.60597,0.85328 0.8523,1.33238 -1.13145,3.77011 -2.53523,3.11551 -2.54236,-1.18551 -9.06386,1.63669 -14.74277,6.37997 -7.94386,6.63515 -26.01002,13.37037 -34.83542,12.98705 -7.92705,-0.34433 -7.96564,0.44271 -0.33629,6.85744 10.76144,9.04819 -6.17894,12.81465 -23.32734,5.1865 -9.55812,-4.25176 -8.56358,-0.61671 2.25972,8.25916 2.86306,2.34794 3.21896,3.07939 2.3767,4.88552 -0.83201,1.78424 -1.68633,2.01904 -5.33907,1.46725 -2.39171,-0.36127 -7.33869,-0.73313 -10.99327,-0.82635 -11.78908,-0.30066 -17.372694,-1.62669 -26.541624,-6.30326 -7.95021,-4.05496 -8.38545,-4.17509 -8.94915,-2.46971 -1.32524,4.00933 -4.46207,10.86417 -5.07339,11.08664 -3.77362,1.37349 -12.946385,-6.4833 -13.151648,-11.26483 -0.4973,-11.58502 -6.878739,-10.93021 -7.999167,0.8208 -0.803545,8.42752 -4.142133,8.39783 -13.548342,-0.12052 -12.551779,-11.367 -14.748069,-24.71199 -6.19219,-37.62456 2.811845,-4.24364 1.712704,-5.12567 -2.860252,-2.29535 -1.794503,1.11066 -4.72756,2.15077 -6.517963,2.31128 -1.790373,0.16065 -5.089108,0.75285 -7.330478,1.31621 -7.054324,1.77325 -10.4335241,-1.2961 -4.803656,-4.3632 3.568524,-1.94409 5.897099,-4.59854 13.27913,-15.13756 9.007391,-12.85955 7.352417,-13.84916 -6.692019,-4.00163 -8.177399,5.73319 -18.0228051,8.46616 -19.15548613,5.31639 -0.361162,-1.00428 10.56021913,-28.15764 15.03780813,-37.38789 5.663235,-11.67437 23.503467,-23.16913 34.064139,-21.94806 3.930489,0.45445 4.853016,-1.15242 2.276144,-3.96457 -4.093058,-4.46675 -6.287202,-13.09519 -5.209431,-20.48579 0.552492,-3.78849 1.249829,-8.86843 1.549659,-11.28879 1.423926,-11.49433 1.464371,-11.62984 3.714946,-12.44898 1.988939,-0.72392 2.201389,-0.59162 3.573801,2.22569 2.023209,4.15306 10.134044,17.31293 10.887142,17.66428 1.543264,0.72 5.342953,-2.97997 10.064843,-9.80064 8.434,-12.18277 26.899954,-26.87754 34.106094,-27.1408 4.15066,-0.15164 11.75867,-1.72369 14.90844,-3.08056 13.1103,-5.64763 21.99455,-2.71193 14.54701,4.80693 -12.60324,12.72393 -14.2764,21.75062 -3.5107,18.94045 14.88355,-3.88502 39.16911,-0.37274 28.02049,4.05248 -5.99158,2.37822 -14.6355,10.03123 -13.42053,11.88201 0.68053,1.0367 6.81641,0.97553 7.30525,-0.0728 0.94802,-2.03304 13.44805,-3.30355 19.36448,-1.96826 3.43191,0.77457 8.79814,1.9115 11.92492,2.52655 17.18983,3.38125 28.31814,14.3854 12.75335,12.61104 -2.81284,-0.32065 -5.68682,0.0593 -7.02241,0.92844 -1.24353,0.80918 -3.28934,1.92496 -4.5463,2.47953 -3.67316,1.62068 -15.45425,13.47306 -17.27671,17.38136 -0.90908,1.94952 -2.78658,4.8185 -4.17294,6.37516 -3.54138,3.97772 -3.01299,4.31517 5.84601,3.73335 12.91285,-0.84848 25.86228,1.02953 37.93582,5.50168 6.16213,2.28251 7.16783,2.39146 9.3505,1.01295 1.34515,-0.84959 6.08519,-3.49802 10.53333,-5.88557 8.69119,-4.66488 9.32221,-5.85742 4.32352,-8.17093 -4.23413,-1.95976 -13.07924,-2.3394 -21.23449,-0.9115 -9.5515,1.67241 -16.25135,-2.26448 -8.96122,-5.26568 0.61557,-0.25347 3.15804,-2.67915 5.64994,-5.39045 2.49188,-2.71135 7.68581,-7.73716 11.54202,-11.16854 8.77132,-7.80486 8.57871,-7.26352 4.79068,-13.46312 -3.27767,-5.36437 -11.54296,-28.09946 -12.60931,-34.68412 -0.33238,-2.05264 -1.03501,-6.5404 -1.56133,-9.9728 -1.08892,-7.10155 -1.45008,-7.895 -3.66432,-8.05008 -3.06958,-0.21499 -4.56558,7.74059 -3.11107,16.54426 1.3931,8.43164 -1.53221,10.57777 -6.57926,4.82689 -1.99001,-2.26752 -5.11063,-5.61056 -6.93472,-7.42896 -3.2348,-3.2249 -9.01681,-11.78811 -13.77839,-20.40639 -5.23083,-9.46774 -6.69463,-9.93544 -8.40472,-2.68542 -1.2717,5.39147 0.30516,11.50539 4.25618,16.50217 2.5734,3.25453 3.74411,7.22131 2.39295,8.10825 -1.43924,0.94481 -5.44894,-1.85037 -9.05372,-6.3114 -1.57766,-1.95235 -5.48913,-6.41472 -8.69219,-9.91637 -10.64107,-11.63311 -15.62768,-26.38079 -11.73945,-34.7191 0.25857,-0.55449 0.41056,-2.46277 0.33777,-4.24061 -0.36378,-8.88557 -8.88944,5.47113 -9.244,15.56634 -0.53279,15.16952 -9.426,18.01522 -11.2372,3.59574 -0.31065,-2.47336 -1.5236,-8.78183 -2.69539,-14.01882 -3.34076,-14.9307 -2.83734,-17.87299 6.31143,-36.88757 4.19205,-8.71266 7.41773,-15.93638 7.1682,-16.05275 -4.26938,-1.99084 -29.06718,12.43604 -31.93059,18.5766 -3.32341,7.12707 -8.567494,3.04295 -5.42136,-4.22216 10.67887,-24.65974 17.78136,-33.50584 30.77414,-38.32895 7.92747,-2.9428 8.49945,-4.0015 4.60547,-8.52427 -3.1321,-3.637804 -4.98577,-9.632673 -5.22188,-16.887469 -0.094,-2.888473 -0.4214,-6.644301 -0.72719,-8.346289 -0.64582,-3.590055 6.28265,-19.876614 10.7443,-25.25629 1.36102,-1.641081 5.26132,-8.433868 8.66731,-15.095084 8.16838,-15.975174 16.2657,-26.550914 19.25976,-25.154794 1.52429,0.71078 1.44562,1.09395 -2.61701,12.744298 -4.87749,13.987169 -5.84878,27.695749 -2.15332,30.391329 1.04038,0.758897 1.43521,0.561701 1.60666,-0.802413 1.997,-15.888922 2.76442,-17.858084 14.27721,-36.633684 2.1703,-3.53941 5.151,-8.9656096 6.62379,-12.0582296 4.07624,-8.55947 7.88931,-6.51233 5.36249,2.87897 -0.50635,1.8818896 -0.59664,3.9344796 -0.20065,4.5613196 0.87311,1.38208 1.16363,4.89807 1.33534,16.161355 0.12636,8.290112 1.92914,11.687178 3.92772,7.401231 0.3611,-0.774398 2.35477,-3.053338 4.43037,-5.064334 2.0756,-2.010984 5.43755,-5.267297 7.47099,-7.236244 7.75206,-7.506168 19.9701,-8.646038 39.58841,-3.693348 10.32537,2.606655 15.20931,1.747794 23.0114,-4.04666 9.63433,-7.1552396 11.08448,2.29872 1.92056,12.520798 -4.94718,5.518414 -5.52413,7.348331 -2.72269,8.635696 4.33463,1.99191 16.94208,3.888905 21.41,3.22155 7.88328,-1.177514 6.74567,4.007773 -2.36881,10.797419 -3.03132,2.2581 -5.6979,4.505819 -5.92575,4.994897 -0.27546,0.591327 5.6555,3.719643 17.70268,9.337339 l 18.11695,8.448082 4.62237,-0.690364 c 2.54231,-0.379707 6.11537,-1.855595 7.94012,-3.279779 3.39013,-2.645907 5.32713,-2.659809 6.00537,-0.04314 0.62305,2.403707 -5.18772,9.476298 -10.54586,12.835872 -10.63168,6.666155 -24.88439,13.883987 -28.09926,14.229984 -3.49927,0.376615 -19.72831,11.939832 -19.11657,13.620602 0.1597,0.43867 2.14649,1.09536 4.4152,1.45923 7.61277,1.22107 17.5756,4.28495 21.26483,6.5396 2.80499,1.71426 3.69265,1.93281 3.8072,0.93744 0.23076,-2.00516 -9.16249,-10.44554 -14.28106,-12.83237 -5.1125,-2.38399 -5.12331,-4.71924 -0.0226,-4.88281 5.09874,-0.1635 9.98376,3.3397 17.40694,12.48308 1.81986,2.24164 6.13006,6.01155 9.57812,8.37773 8.6794,5.95591 8.14849,8.74362 -1.73435,9.10667 -5.13067,0.18848 -14.45152,1.31656 -26.14287,3.16401 -1.33823,0.21146 0.16009,6.02562 2.38192,9.24298 2.98566,4.32342 8.62491,7.33061 14.16849,7.55554 11.96309,0.48544 5.9649,8.55887 -10.75269,14.47293 -3.58073,1.26675 -8.28324,3.41793 -10.44996,4.78042 -3.8098,2.39565 -17.79513,5.37385 -23.33309,4.96879 -2.39455,-0.17512 -4.64387,1.97984 -2.91032,2.78825 1.53648,0.71645 4.31071,10.59721 3.7185,13.24383 -0.72081,3.22154 1.18458,7.54931 5.27606,11.98348 8.51545,9.22871 8.3163,10.34701 -1.76561,9.91492 -13.82802,-0.59269 -30.25094,-8.95484 -37.63258,-19.16162 -6.21805,-8.59783 -15.37137,7.63652 -13.19018,23.39421 0.1866,1.34806 0.49259,4.74916 0.68001,7.55801 0.61715,9.24978 3.86414,22.09083 9.22582,36.48525 6.88486,18.48386 5.59083,17.28228 16.31485,15.14915 12.22296,-2.43126 22.29682,-2.13935 28.66594,0.83062 3.79072,1.76764 3.32377,-0.33134 -1.37978,-6.20228 -3.08627,-3.85227 -5.58235,-8.29186 -6.91155,-12.29308 -1.14433,-3.44471 -2.31669,-6.75502 -2.60529,-7.35624 -0.28817,-0.60141 -1.44544,-3.11159 -2.5707,-5.57864 -1.12534,-2.46703 -2.91142,-5.62446 -3.96909,-7.01647 -2.2163,-2.91691 -5.15589,-10.01717 -4.62159,-11.16296 1.2855,-2.75676 28.18588,8.10158 33.42457,13.49182 7.59755,7.81729 12.42682,6.77327 15.61091,-3.37487 4.08028,-13.00433 3.96914,-21.09276 -0.47709,-34.72045 -3.77963,-11.58449 -0.89099,-12.87292 9.42445,-4.20356 3.03798,2.5531 8.07763,6.56719 11.19937,8.92004 8.2736,6.23582 19.70536,20.84929 21.8401,27.91865 2.04205,6.76238 4.13447,7.51709 6.5398,2.35886 1.70886,-3.66471 9.96647,-9.80089 18.28026,-13.584 2.43472,-1.10796 7.3777,-4.9594 11.4198,-8.89812 9.34954,-9.11042 11.62651,-8.68455 8.53461,1.59627 -1.45706,4.84485 -1.57967,7.36567 -0.53518,11.00268 1.28355,4.46917 -1.16686,20.06128 -4.19326,26.68237 -3.5803,7.83271 -2.30939,10.92228 3.89577,9.47097 3.02439,-0.70737 12.50403,0.26088 20.24149,2.06744 10.17088,2.37471 18.31914,-0.46501 21.61499,-7.53299 0.71381,-1.53074 5.06538,-2.19455 6.26241,-0.95526 3.44105,3.56251 -8.97651,29.88574 -20.97149,44.4562 -5.84372,7.09837 -5.73237,7.55051 2.84429,11.54985 8.95984,4.17806 12.72954,4.37418 19.93126,1.03706 8.856,-4.10368 13.36972,3.27339 4.96932,8.12172 -1.13081,0.65265 -4.27042,3.35313 -6.97685,6.00104 -8.6304,8.44377 -17.05871,12.78349 -26.36978,13.57779 -4.40559,0.3754 -6.4308,2.26218 -4.49874,4.19039 8.32982,8.31313 13.63889,26.44345 10.67663,36.46006 -4.15362,14.04532 -4.34461,17.34663 -1.41543,24.47094 1.82578,4.4407 2.10266,6.36851 1.19439,8.31626 -1.79783,3.85552 -2.59469,3.4031 -9.35648,-5.31191 l -6.2633,-8.07249 -8.89133,-4.14611 c -10.54202,-4.91581 -11.0148,-4.75526 -10.9678,3.72396 0.0541,9.75987 -1.5777,20.06984 -4.00033,25.2742 -1.97117,4.23425 -3.87068,10.33438 -7.44537,23.90828 -1.31807,5.00497 -3.19992,3.61321 -4.75892,-3.51943 -1.23834,-5.66552 -4.07388,-9.61733 -10.72481,-14.94703 -1.1558,-0.92623 -3.21269,-3.55381 -4.57081,-5.83914 -2.10213,-3.53724 -2.64022,-3.99001 -3.61833,-3.04529 -2.35094,2.27076 -4.75199,10.76208 -3.95661,13.99241 3.86007,15.67705 -2.38519,90.62717 -10.22252,122.68213 -0.31216,1.27676 -1.73693,8.06019 -3.16611,15.07431 -2.74861,13.48921 -5.67483,26.38044 -7.80163,34.3697 -0.70644,2.65356 -1.22221,5.66489 -1.14621,6.69184 0.23088,3.11976 3.36196,-1.56109 4.29492,-6.42018 0.88158,-4.59239 14.49085,-31.06154 21.05701,-40.95665 2.01836,-3.04134 5.09403,-7.65845 6.83478,-10.26031 1.74076,-2.60183 4.37319,-6.72743 5.84984,-9.16796 1.47669,-2.44052 4.09338,-6.10796 5.81488,-8.14988 1.72131,-2.04204 4.37185,-5.19613 5.89031,-7.00889 6.00708,-7.17452 22.32992,-19.98853 36.58236,-28.71977 15.89808,-9.7394 19.44551,-12.21846 27.76585,-19.40376 8.47644,-7.32013 10.73652,-8.56759 12.40077,-6.84457 3.7985,3.93257 -15.91197,26.04303 -34.9577,39.21418 -11.21555,7.75618 -11.95946,9.35135 -4.39584,9.42582 15.51836,0.15282 22.23178,0.8685 22.9795,2.44966 0.94819,2.00494 -1.77709,5.91486 -5.11332,7.33604 -1.27524,0.54322 -4.49758,2.97323 -7.16079,5.40004 -6.3896,5.82242 -12.94058,9.82273 -21.18071,12.93381 -3.70813,1.39997 -8.36597,3.42237 -10.35087,4.49416 -4.45348,2.40476 -20.92078,18.70844 -24.8518,24.60492 -1.59134,2.38704 -4.6412,6.55074 -6.77745,9.25259 -4.8799,6.17214 -16.99895,27.18178 -17.18128,29.78565 -0.10827,1.54617 1.54535,0.57629 8.01766,-4.70245 15.15997,-12.36423 37.0789,-18.1882 54.30309,-14.42849 2.84003,0.61991 9.00751,1.58974 13.70551,2.15518 14.59841,1.757 14.76078,2.70619 2.17915,12.74156 z m -98.11703,-18.02212 c 5.37575,-30.25781 6.40844,-35.958 7.60336,-41.96884 0.67275,-3.3843 1.43968,-7.68156 1.70426,-9.54945 0.26455,-1.86788 0.76998,-5.35612 1.12313,-7.7516 1.38963,-9.42618 5.28566,-49.20829 5.47376,-55.89213 0.0632,-2.24622 0.52988,-8.77818 1.03706,-14.51542 0.50719,-5.73726 0.95281,-13.44275 0.99027,-17.12334 0.0374,-3.68054 0.18789,-8.26527 0.33429,-10.18826 0.38015,-4.99338 -0.0721,-6.48519 -1.82659,-6.02526 -2.27232,0.59572 -8.20529,9.04096 -9.43519,13.43056 -1.87408,6.68842 -2.27639,7.40738 -3.92331,7.01101 -1.01169,-0.24343 -1.77665,-1.88907 -2.12961,-4.58113 -0.68682,-5.23986 -3.80253,-14.369 -8.24616,-24.16115 -1.88581,-4.15562 -4.30789,-12.3144 -5.41794,-18.25019 -2.15659,-11.53195 -2.49899,-12.19774 -5.05362,-9.82775 -0.91823,0.85193 -2.98939,2.32991 -4.60243,3.28454 -3.95251,2.33915 -4.15406,1.03803 2.67164,17.25002 3.58985,8.52641 7.10092,19.01842 8.53573,25.50683 1.34052,6.06231 3.29907,13.78912 4.35232,17.17073 1.05327,3.38157 2.40125,9.86626 2.99555,14.41035 0.59433,4.54411 1.69926,12.49736 2.45545,17.67388 2.18386,14.95002 3.0835,49.5956 1.7815,68.60682 -1.1797,17.22548 -1.46359,20.6227 -2.28816,27.37947 -0.49267,4.03722 -0.91039,8.26458 -0.92825,9.39409 -0.0179,1.12953 -0.26001,3.80955 -0.53804,5.95559 -0.27807,2.14608 -0.37064,4.40709 -0.20575,5.02447 0.16492,0.61736 -0.18887,2.1705 -0.78615,3.45138 -0.59731,1.28093 -0.77726,2.79924 -0.39996,3.37402 0.91556,1.39478 1.51138,-1.01345 4.72281,-19.08914 z m 90.62134,-214.27792 c 3.13514,-28.20015 -3.4704,-39.89175 -29.35865,-51.9636 -5.49487,-2.56229 -7.21116,-2.93422 -11.91042,-2.58102 -3.01973,0.22696 -6.6569,0.169 -8.08259,-0.12879 -2.35168,-0.49125 -2.75683,-0.18828 -4.36752,3.26581 -2.0149,4.32099 -2.42949,3.86031 7.24155,8.04674 7.50284,3.24783 13.15813,7.04733 20.93699,14.06643 8.18363,7.38435 7.71991,12.37365 -0.53667,5.7741 -10.3719,-8.29028 -27.24967,-16.4298 -29.52037,-14.23651 -2.95302,2.85231 4.60926,25.08887 10.2333,30.09058 4.06652,3.61657 17.29959,10.56587 19.85189,10.42521 1.18553,-0.0654 6.43102,1.58499 11.65664,3.66746 13.67756,5.45063 12.47333,6.00912 13.85585,-6.42643 z m 23.87463,-64.17116 c -1.21892,0.3204 -5.7768,-1.17541 -13.46265,-4.41727 l -11.61971,-4.90114 -3.2295,1.59733 c -1.77627,0.87847 -4.48723,2.63998 -6.02435,3.91449 -1.53712,1.27449 -4.24344,3.08211 -6.0139,4.01703 -5.32687,2.81285 -4.57992,3.93374 2.08393,3.12695 5.28374,-0.63969 22.67147,0.3676 24.00395,1.39055 2.47873,1.903 -10.43268,3.68607 -22.68707,3.1331 -9.63616,-0.43482 -10.06397,0.44686 -2.18053,4.49375 9.96401,5.11492 23.63016,2.48831 35.93153,-6.90594 5.28161,-4.03344 6.64332,-6.35335 3.19822,-5.44889 z m -56.94857,91.1596 c 2.32121,-14.77274 0.60896,-20.23259 -8.21936,-26.20931 -6.04135,-4.08995 -10.52675,-5.71941 -9.26249,-3.36493 0.13151,0.24597 1.36317,2.53008 2.736,5.07636 2.67974,4.97021 5.05316,11.66263 5.72954,16.15584 0.2302,1.52972 0.89373,5.01674 1.47422,7.749 1.00828,4.74535 0.073,9.52315 -1.70211,8.69541 -0.46057,-0.21472 -1.10025,-2.0871 -1.42161,-4.16082 -1.50354,-9.70111 -2.74615,-14.85945 -5.37289,-22.30357 -1.56199,-4.42659 -2.66747,-8.73898 -2.45662,-9.58311 0.21083,-0.84411 -0.0685,-1.96233 -0.62081,-2.48494 -1.48192,-1.4023 -3.16196,5.21823 -3.56987,14.06794 -0.18202,3.9494 -0.72223,9.15025 -1.20046,11.55743 -1.2552,6.31854 2.00795,14.45388 8.05753,20.08803 2.5331,2.35913 4.91506,4.94362 5.29324,5.74333 1.94555,4.11403 8.70514,-9.37642 10.53573,-21.02667 z m 52.00547,-143.32497 c -0.21555,-1.38758 -0.96597,-1.33389 -4.4009,0.31496 -5.25072,2.52049 -11.10205,2.60797 -18.76567,0.28059 -16.98968,-5.15974 -40.9236,2.75485 -51.89126,17.15963 -2.39758,3.14896 -4.93469,6.47054 -5.63803,7.38131 -1.03621,1.34178 -0.75273,2.32993 1.49417,5.20887 l 2.77295,3.55292 4.6013,-0.0733 c 12.98959,-0.20682 37.24742,-9.43192 43.10165,-16.39125 4.18993,-4.98092 9.86834,-5.75221 7.67199,-1.04205 -5.09242,10.92072 -45.13161,29.13655 -51.92068,23.62133 -1.27169,-1.03314 -1.98846,-0.9738 -3.0015,0.24834 -1.45116,1.75074 -1.6166,5.27552 -0.27693,5.90021 0.46132,0.21509 1.83415,2.81437 3.05076,5.77616 2.20174,5.36009 2.22231,5.37991 4.44757,4.277 1.22956,-0.60943 5.70559,-1.40699 9.94666,-1.77245 17.72726,-1.52745 35.38293,-13.89924 47.98876,-33.62701 2.38071,-3.72574 4.90976,-7.6668 5.62008,-8.7579 2.76812,-4.25201 5.44662,-10.4639 5.19903,-12.05749 z m -81.4963,133.71083 c 3.59232,-17.08067 3.73611,-30.09122 0.42765,-38.68919 l -2.47134,-6.42249 -2.9474,0.79286 -2.94766,0.79189 -4.194,10.97452 c -4.65286,12.17524 -6.09694,18.54406 -6.21041,27.3902 -0.0419,3.26805 -0.3037,6.42963 -0.58168,7.02578 -0.27802,0.59613 -0.2018,3.42751 0.16929,6.29189 0.75058,5.79335 -0.20803,9.2121 -2.17634,7.7615 -4.98915,-3.67679 -1.53279,-37.51856 5.3364,-52.24957 4.25773,-9.13078 4.26126,-9.05787 -0.56922,-11.79068 -2.61679,-1.48043 -2.89928,-1.393 -5.64779,1.74738 -1.59128,1.81818 -4.65582,5.04404 -6.81006,7.16861 -5.12141,5.05083 -8.80419,12.76595 -8.61823,18.05469 0.0765,2.1759 -0.27216,6.883 -0.77483,10.46016 -1.14935,8.17912 2.45456,26.20778 8.08377,40.43929 5.04502,12.7546 6.282,13.19897 10.68301,3.83768 0.95638,-2.03208 3.44782,-5.7579 5.53845,-8.27872 3.25692,-3.92719 8.35884,-11.68626 11.52737,-17.53119 0.4924,-0.90826 1.47471,-4.40683 2.18302,-7.77459 z m -4.6116,-54.61042 c 0.42737,-2.42554 -3.31235,-8.41913 -5.34185,-8.56126 -1.74488,-0.12221 -4.44606,5.68255 -3.87391,8.32423 1.5084,6.96153 8.00129,7.12845 9.2155,0.2369 z m 3.55936,-22.70448 c -4.07528,-4.11951 -5.76104,-4.47101 -7.15072,-1.49085 -2.13034,4.56848 3.20256,11.59319 7.58906,9.99664 3.39092,-1.23419 3.20604,-4.82177 -0.43834,-8.50579 z m 37.54802,-78.41444 c 0.92049,-4.83491 1.84325,-16.21056 1.61702,-19.93431 -0.20647,-3.39826 -4.02568,-4.33336 -7.88698,-1.93111 -1.99225,1.23947 -5.06639,2.71139 -6.83133,3.27101 -11.44687,3.6292 -18.94862,14.42619 -16.83506,24.22992 0.74229,3.4428 1.06404,8.82959 0.71505,11.97061 -0.77027,6.93292 0.0295,7.57442 3.25589,2.61152 1.34819,-2.07373 4.40248,-6.58447 6.78734,-10.02383 2.38493,-3.43931 6.17068,-10.16914 8.4129,-14.95509 3.69654,-7.89014 5.44046,-9.95416 5.80384,-6.86899 0.37805,3.20932 -9.37926,23.245 -14.27387,29.31007 -7.9652,9.86999 -7.63566,11.0954 1.50513,5.59786 10.82464,-6.51017 15.77493,-13.00945 17.72986,-23.27759 z m -54.65732,96.05497 c -2.40803,-3.66834 -8.79357,-3.33959 -13.71637,0.70612 -11.98842,9.85254 -34.11532,16.57658 -54.62944,16.60101 -12.30208,0.0147 -17.08996,-3.25282 -6.2441,-4.26132 2.81311,-0.26158 10.2922,-0.96339 16.62021,-1.55964 25.69129,-2.42063 48.82036,-14.0279 43.87309,-22.01757 -0.80991,-1.30801 -1.06866,-3.57144 -0.61196,-5.35347 1.20955,-4.71947 0.31533,-7.60416 -3.03554,-9.79263 -1.64333,-1.07323 -5.36708,-3.83679 -8.27493,-6.14133 -7.0325,-5.57314 -23.72521,-12.54875 -34.62883,-14.47081 -9.19538,-1.62091 -11.01671,-2.2585 -10.86006,-3.8018 0.41285,-4.06811 23.24431,0.17873 38.03861,7.07546 5.02388,2.342 9.29036,3.92363 9.48102,3.51474 0.19071,-0.40889 1.10379,-1.77384 2.02927,-3.0332 l 1.68264,-2.28972 -5.57481,-3.22783 c -3.06633,-1.77498 -7.51644,-4.85259 -9.88945,-6.83861 -19.1971,-16.0661 -56.72642,-11.61937 -74.65292,8.84552 -1.92391,2.19639 -0.18859,2.96702 6.22461,2.76433 11.47079,-0.36259 15.49612,0.97254 26.69393,8.85374 21.96964,15.46269 34.53588,19.50575 50.8456,16.35925 5.56485,-1.07355 9.49288,0.32246 9.66445,3.43476 0.19672,3.56874 -4.24304,5.72272 -13.403,6.50264 -6.26412,0.53328 -21.04975,5.05709 -28.81197,8.81516 -6.93605,3.35811 -13.02615,5.36362 -21.35659,7.03291 -3.21263,0.64375 -7.92722,1.70371 -10.47687,2.35547 -2.5497,0.65172 -6.01676,1.34877 -7.70463,1.54898 -5.26199,0.62414 -4.1261,1.5436 10.71016,8.66913 37.62103,18.06861 55.66124,16.32365 71.92022,-6.95662 3.20849,-4.5944 8.51274,-8.47257 11.99126,-8.76786 3.0975,-0.26297 5.3058,-2.72487 4.09656,-4.56702 z m 10.24447,-38.78003 c -4.75211,-3.86047 -9.96453,-2.47906 -8.70949,2.30824 0.59735,2.27844 5.86544,6.61075 8.70413,7.15795 l 2.2896,0.44137 -0.32536,-4.2903 c -0.17904,-2.35967 -1.06047,-4.88741 -1.95885,-5.61722 z m -32.83537,76.40573 c 2.43529,-10.49085 1.45954,-10.8478 -5.42404,-1.9842 -6.22869,8.02032 -18.6835,18.56725 -25.53676,21.62495 -7.20192,3.21322 -6.12925,3.65175 4.7415,1.93849 9.71101,-1.53055 22.22241,-8.38402 24.21244,-13.26306 0.0974,-0.239 1.0006,-3.98129 2.00686,-8.31618 z m 27.88673,-64.63523 c -0.90703,-0.42298 -1.82747,-0.38667 -2.04539,0.0807 -0.21794,0.46729 0.58224,1.3059 1.77812,1.86352 1.23318,0.57505 2.1185,0.54015 2.0454,-0.0807 -0.0709,-0.60197 -0.87109,-1.44056 -1.77813,-1.86354 z m -5.89275,12.77237 c -0.41229,-7.48072 -6.5763,-10.30285 -9.37841,-4.29379 -3.594,7.70737 4.691,15.70672 8.50302,8.20986 0.54152,-1.06496 0.93548,-2.8272 0.87544,-3.91608 z m 20.05425,-58.92398 c 3.3386,-14.42864 -4.83807,-39.54754 -15.87295,-48.76217 -2.04718,-1.70997 -4.4777,-4.05516 -5.40065,-5.21219 -1.66029,-2.08134 -12.94167,-11.63248 -14.71837,-12.46105 -1.70351,-0.79435 -1.77785,1.35693 -0.24293,7.03061 1.72782,6.38692 1.27354,13.8338 -1.32505,21.71912 -6.32588,19.1957 -6.65881,39.38218 -0.7725,46.83842 4.01806,5.08975 6.51174,10.23868 6.06956,12.5326 -0.62566,3.24568 9.82625,6.88532 11.18788,3.89623 3.11691,-6.84205 4.9819,-28.9328 3.21222,-38.04885 -0.6679,-3.44056 -1.34612,-7.69178 -1.50734,-9.44711 -0.1616,-1.75531 -1.6862,-7.44103 -3.38862,-12.63493 -3.09695,-9.44599 -3.32018,-11.74759 -1.036,-10.68247 1.2148,0.56648 7.6181,19.49885 7.78591,23.02028 0.0487,1.02143 0.7026,3.77269 1.45306,6.11393 2.75389,8.59069 2.81585,19.94057 0.18543,33.9636 -0.77287,4.12017 0.0906,5.34819 3.62463,5.15524 2.13217,-0.11637 8.70375,-14.19478 10.7461,-23.02143 z m -55.76635,110.5484 c -3.76304,-1.72051 -16.93288,1.45454 -21.80439,5.25653 -4.86969,3.80068 -13.81941,17.8274 -12.93139,20.26718 0.48273,1.3263 5.90002,-0.84197 6.77117,-2.71017 0.43179,-0.92587 2.22115,-2.45417 3.97644,-3.39615 4.89,-2.62428 23.99134,-16.74826 24.74603,-18.29787 0.1698,-0.34749 -0.17167,-0.8515 -0.75789,-1.11949 z m 26.40892,-70.73855 c -2.8019,-6.51884 -5.23864,-8.86406 -7.47154,-7.19088 -4.05813,3.04083 0.95789,13.4616 6.33695,13.16511 2.98896,-0.16473 3.18588,-1.2017 1.13459,-5.97423 z M 278.418,336.15682 c -0.89265,-0.41628 -4.58179,-0.74043 -8.19802,-0.72037 -3.61625,0.0201 -7.12151,-0.21801 -7.78947,-0.52902 -1.2761,-0.59421 -1.7527,-0.6664 -16.34609,-2.47538 -9.70584,-1.20313 -10.85163,-1.47746 -10.37225,-2.48326 0.81171,-1.70308 14.48684,-1.62109 22.95811,0.13762 9.17684,1.90523 9.3122,0.47771 0.42726,-4.50576 -12.26842,-6.88124 -23.96814,-5.30856 -31.56285,4.24269 -3.95733,4.97681 -3.80803,5.35021 2.48398,6.2138 2.80891,0.38554 7.58565,1.37518 10.61496,2.19919 21.95939,5.97329 21.70972,5.95193 31.07495,2.65843 8.30787,-2.92167 9.22123,-3.56665 6.70942,-4.73792 z m 23.43361,-60.4475 c -1.1969,-3.11823 -2.25169,-7.33404 -2.3441,-9.3684 -0.47005,-10.34682 -3.90676,-14.11892 -20.53014,-22.5337 -6.21381,-3.14542 -11.97368,-6.15868 -12.7997,-6.69609 -2.64932,-1.72366 -2.85649,0.37095 -0.46384,4.68969 1.27933,2.30928 2.11309,5.22562 1.85273,6.48085 -0.26965,1.30012 0.4703,3.57235 1.71954,5.28029 1.2061,1.64895 2.84935,4.58498 3.65172,6.52459 3.28694,7.94568 10.53987,16.58046 18.79729,22.37873 2.4601,1.72745 5.07744,3.67293 5.81631,4.32332 2.48146,2.18426 2.68667,-2.47825 0.2514,-5.71177 -1.22981,-1.63292 -4.80385,-6.47587 -7.94233,-10.76204 -3.1385,-4.28617 -7.25046,-9.27142 -9.13779,-11.0783 -6.80421,-6.51424 -8.55323,-10.02836 -4.86257,-9.76987 4.30422,0.30146 23.22872,24.13996 24.93116,31.40494 0.8085,3.45022 3.55243,5.39057 3.35719,2.3739 -0.0664,-1.02661 -1.10002,-4.41789 -2.29687,-7.53615 z m -50.47795,71.10592 c -5.33277,-1.29212 -6.48941,-1.31888 -6.6281,-0.15333 -0.2248,1.88869 3.07309,3.41605 6.09901,2.82471 3.9152,-0.76518 4.12034,-1.80116 0.52907,-2.67137 z m 51.13678,-190.79103 c -4.7028,-2.19296 -8.96296,-7.46014 -13.0032,-16.07678 -8.88952,-18.95882 -13.23145,-22.21205 -29.43712,-22.05566 -5.40642,0.0522 -11.19636,0.71045 -12.86652,1.46284 -1.67014,0.7524 -5.5565,1.35035 -8.63636,1.32881 -19.58645,-0.13707 9.89647,23.90576 38.18165,31.1365 9.56029,2.44396 13.56316,4.45802 12.66943,6.37466 -2.12412,4.5552 -35.72443,-7.21626 -48.90346,-17.13269 -8.85828,-6.66541 -14.11746,-7.10658 -13.67643,-1.14728 0.12543,1.69412 5.40031,11.27062 6.4873,11.77748 0.39673,0.1849 1.41908,1.56736 2.27192,3.07203 7.79704,13.75504 33.92359,19.63153 54.01689,12.14968 12.07103,-4.49472 17.24333,-8.86233 12.89587,-10.88958 z m 13.27947,-32.92887 c -1.09582,-0.72164 -1.92859,-0.68159 -2.29806,0.11075 -0.73355,1.57307 -2.87895,1.42618 -6.9593,-0.47652 -2.65218,-1.23673 -14.04874,-4.35886 -24.77039,-6.78594 -2.95272,-0.6684 -1.68212,1.65264 1.80857,3.30374 2.82796,1.33759 6.87122,6.31088 7.93339,9.75809 l 0.76472,2.48193 3.31583,-1.54068 c 1.8237,-0.84732 4.73426,-1.59872 6.46791,-1.66969 12.33054,-0.50483 17.74012,-2.54531 13.73735,-5.18173 z m -51.57912,68.21053 c -0.079,-8.97941 -20.11831,-27.9698 -22.99802,-21.7942 -0.47264,1.01366 1.06615,4.97486 2.12426,5.46826 0.56481,0.26339 1.53394,1.77379 2.15362,3.35647 1.62683,4.15518 5.33221,9.86648 9.41059,14.5052 3.43277,3.90441 4.01382,6.98759 1.05712,5.60882 -3.11235,-1.4513 -13.91078,-16.46635 -16.78926,-23.34519 -5.51894,-13.18889 -5.16415,-12.99424 -5.57414,-3.05804 -0.73582,17.83289 7.11728,28.38935 24.63789,33.11941 10.4106,2.81054 10.53521,2.76767 8.09962,-2.78625 -1.17654,-2.68283 -2.08978,-7.44991 -2.12165,-11.07449 z m -85.38597,192.09268 c -0.29712,-0.45284 -2.42481,-1.00687 -4.72795,-1.23132 -8.31227,-0.81006 -12.33552,-3.57219 -20.85994,-14.32123 -14.47663,-18.25456 -27.73059,-26.6838 -32.56833,-20.71266 -0.92881,1.14645 -2.60696,2.47378 -3.72928,2.94952 -2.58288,1.09507 -2.4001,1.5158 2.03752,4.69072 1.9971,1.4289 4.60134,4.24714 5.78713,6.26283 4.83762,8.2232 12.50083,15.12106 21.66586,19.50206 14.01048,6.69712 10.03882,8.03793 -4.4745,1.51056 -8.3556,-3.75795 -15.28875,-9.39894 -20.51386,-16.69063 -1.72328,-2.40481 -4.57792,-5.57915 -6.34372,-7.05401 -1.76566,-1.47501 -3.66181,-3.14872 -4.21335,-3.71975 -2.13733,-2.21287 -2.6039,2.40956 -0.55779,5.52653 1.1275,1.71762 3.07838,6.64369 4.33519,10.9469 5.46868,18.72376 20.22187,25.98001 45.27245,22.26691 8.97574,-1.33043 20.54326,-7.40882 18.89058,-9.92642 z M 318.66459,79.392946 C 317.1936,79.19232 306.04652,74.393921 293.89333,68.72985 l -22.09674,-10.298358 -8.67498,1.170722 c -7.85158,1.059601 -9.45632,1.685895 -16.90641,6.598233 l -8.2316,5.427875 -2.01139,6.820196 c -1.10626,3.751106 -2.95879,8.845336 -4.11675,11.320518 -4.89685,10.467134 -2.02602,13.041704 6.50727,5.835744 10.24567,-8.651957 20.13485,-12.906949 33.46116,-14.397233 7.75556,-0.86731 11.5355,1.615222 4.59608,3.018525 -19.31569,3.906065 -27.58347,7.52762 -38.63288,16.922488 -1.56715,1.3325 -3.35876,2.48274 -3.98131,2.55607 -1.84606,0.21743 -6.72438,8.63689 -6.18853,10.68077 0.92768,3.53867 3.51635,3.53673 5.16742,-0.004 2.11683,-4.53958 7.503,-5.74651 28.11052,-6.29904 9.55674,-0.25621 18.05934,-3.29973 24.77549,-8.868377 2.59602,-2.152448 8.31356,-5.171033 13.88769,-7.332053 16.99774,-6.589749 24.82841,-11.708305 19.10609,-12.488754 z M 188.07546,336.67573 c -7.47031,-8.17058 -23.37314,-13.16449 -27.90277,-8.76221 -0.88229,0.85756 -3.82612,2.72291 -6.54167,4.14532 -8.32931,4.36275 -7.89386,6.21551 1.24744,5.30781 10.54539,-1.04714 12.15149,-1.0839 18.4991,-0.42399 16.33252,1.69812 6.71528,4.79818 -11.48178,3.70112 -1.6783,-0.10121 -4.62089,0.43911 -6.53906,1.20074 -1.91817,0.76157 -4.447,1.22625 -5.61957,1.03251 -5.98325,-0.98827 -9.76875,1.04825 -7.09464,3.81674 11.4282,11.83159 56.35294,1.92555 45.43294,-10.01807 z m -47.40171,67.65565 c -2.33593,-2.72442 -5.13004,-5.46704 -6.20919,-6.09462 -12.94376,-7.52781 -14.68932,-3.94874 -2.37728,4.87426 4.39067,3.14639 3.8677,4.62488 -0.98077,2.77303 -3.82792,-1.46201 -6.2833,-3.50247 -10.32123,-8.57714 -3.09574,-3.89054 -5.65211,-2.83918 -4.0174,1.65217 2.21071,6.0738 13.48925,12.48188 22.06264,12.53517 6.62818,0.0412 6.94946,-1.2073 1.84323,-7.16285 z m 51.48927,-121.84333 c -4.48945,-2.09348 -33.41675,-4.55338 -38.25334,-3.25294 -2.31844,0.62328 -8.06444,2.1505 -12.7689,3.39377 -4.70444,1.24325 -8.71332,2.60303 -8.90862,3.02181 -0.19527,0.41879 -2.32461,2.06105 -4.73188,3.64949 -4.56594,3.01285 -13.03337,12.26507 -14.91227,16.2944 -0.87147,1.86894 -0.57313,2.99795 1.49121,5.64293 2.77131,3.55082 3.57203,6.71081 2.75162,10.85919 -0.28328,1.43244 -0.19994,2.7514 0.18526,2.931 0.78932,0.36807 1.26867,-0.13679 7.14786,-7.52828 9.33133,-11.7316 25.1341,-25.00159 28.11711,-23.61055 1.9512,0.90985 1.06879,3.27931 -1.84825,4.9629 -5.57739,3.21899 -14.43492,11.26996 -20.73493,18.84682 -3.85276,4.63353 -7.63062,9.15416 -8.39538,10.04579 -1.15692,1.34892 -0.96255,2.09086 1.15729,4.41874 8.23563,9.04333 29.06095,0.15749 39.50177,-16.85482 8.98338,-14.63762 15.84131,-22.08069 25.07795,-27.21762 3.5585,-1.97899 6.34943,-5.03095 5.12359,-5.60256 z M 116.6492,413.68683 c -3.98324,-6.40877 -5.23846,-12.5567 -4.53154,-22.19514 0.66938,-9.12704 -3.16966,-27.8151 -5.98358,-29.12724 -2.81293,-1.31168 -6.639484,3.23307 -7.463264,8.86401 -0.4337,2.96473 -1.61428,8.18199 -2.62353,11.59401 -2.40644,8.13568 -1.55353,16.52929 2.29851,22.61986 4.470454,7.06829 2.315644,9.04273 -2.76734,2.53572 -4.51201,-5.7761 -6.01775,-12.06049 -4.78087,-19.95323 3.32988,-21.24866 3.30991,-21.64541 -1.31056,-26.0403 -3.20814,-3.05152 -3.5602,-2.79495 -4.29871,3.13297 -0.34336,2.75621 -1.72528,7.37236 -3.07091,10.25803 -2.75695,5.91228 -4.58351,14.52003 -4.41474,20.80428 0.33343,12.41327 18.30115,25.51069 35.145984,25.61938 8.39664,0.0542 8.6028,-0.38584 3.80049,-8.11237 z M 227.20194,172.11571 c -0.26748,-5.97852 -2.10144,-12.43387 -6.1207,-21.54462 -0.96804,-2.19429 -2.20894,-5.68211 -2.7576,-7.75069 -2.60775,-9.83273 -10.38656,-4.52871 -12.89569,8.793 -0.59102,3.13797 -2.32731,9.07792 -3.85837,13.19986 -1.53108,4.12194 -2.97584,9.26683 -3.21059,11.43307 -0.23475,2.16625 -0.86125,4.8998 -1.39219,6.07454 -1.53818,3.40325 -1.87978,12.67401 -0.85092,23.09131 0.28967,2.93228 0.081,3.56437 -1.33169,4.03392 -1.27537,0.4239 -1.65113,0.27123 -1.57467,-0.63985 0.0552,-0.65813 -0.22779,-2.8848 -0.62891,-4.94813 -2.59706,-13.35906 -0.36308,-29.10003 6.09563,-42.95078 4.00702,-8.59309 5.06658,-12.65376 3.67711,-14.0923 -1.50556,-1.55872 -5.74906,0.78913 -7.25214,4.01246 -0.69161,1.48318 -3.17345,4.58006 -5.51519,6.88195 -16.11303,15.83885 -16.46378,46.4719 -0.74712,65.25092 12.00012,14.33833 12.6321,14.74366 12.39135,7.94805 -0.24313,-6.86291 5.09712,-19.51425 11.69238,-27.69982 11.84249,-14.6981 14.73136,-20.98853 14.27926,-31.09287 z m 60.375,-125.462369 c -1.87419,-0.873948 -10.50636,-1.229212 -11.29757,-0.464974 -0.53891,0.520524 -1.51244,0.698089 -2.16342,0.394506 -0.65099,-0.303545 -1.37647,-0.138324 -1.61216,0.367166 -0.23573,0.505503 -3.98068,2.172477 -8.32208,3.704389 -11.68978,4.12487 -15.39568,7.57939 -5.51171,5.137846 2.49965,-0.617476 6.49167,-1.096617 8.87122,-1.064791 2.37958,0.0318 4.76286,-0.228623 5.29622,-0.578734 0.53338,-0.350127 2.41049,-0.795798 4.17135,-0.990365 4.89329,-0.540683 12.85251,-5.439842 10.56815,-6.505043 z m -16.40533,-3.512264 c -10.91505,-5.089774 -36.1331,9.997974 -30.12112,18.021213 1.04893,1.399857 1.41818,1.440783 2.08056,0.230755 1.45724,-2.662024 1.81147,-3.071736 5.13454,-5.938844 1.81041,-1.561985 3.71763,-2.641317 4.2383,-2.398545 0.52067,0.242762 3.03285,-0.851502 5.58265,-2.43177 2.54981,-1.580274 6.7804,-3.431526 9.4013,-4.113927 5.3144,-1.383664 6.20144,-2.194886 3.68377,-3.368884 z m -48.23537,83.461363 c 2.44517,-8.66649 -2.84446,-11.98634 -7.44256,-4.67106 -1.04205,1.65782 -2.54363,3.32115 -3.33683,3.69625 -1.11203,0.52583 -0.8873,1.45534 0.98135,4.05943 3.46094,4.82296 9.68103,7.44169 8.68914,3.65817 -0.21071,-0.80169 0.28879,-3.83607 1.1089,-6.74279 z M 270.61221,25.295134 c -0.27588,-0.128774 -3.25251,0.51465 -6.61454,1.429598 -7.70339,2.096418 -8.86555,2.12976 -16.94223,0.485919 -18.02577,-3.668756 -29.27231,-2.156291 -37.96433,5.105585 -11.63394,9.719754 -14.4297,12.975442 -18.33596,21.352426 -6.73747,14.448561 -2.72099,31.790549 5.81912,25.125224 3.4062,-2.658435 8.62247,-4.352387 10.58479,-3.437338 1.57375,0.733838 1.77928,0.07278 2.36717,-7.613656 0.62814,-8.212734 4.82641,-18.17358 9.89894,-23.486332 4.23433,-4.43485 11.9081,-9.348243 13.46575,-8.621891 1.65163,0.770159 0.80412,2.13914 -2.47516,3.997988 -14.62874,8.292314 -20.69125,26.273111 -14.84867,44.039677 4.12361,12.539329 10.98107,5.053582 18.09238,-19.750036 3.91154,-13.64316 4.18373,-14.266304 8.10065,-18.546821 2.92417,-3.195614 5.43883,-4.761097 10.74249,-6.687714 3.8085,-1.38352 8.23282,-3.547955 9.83177,-4.80996 1.59891,-1.261981 3.91078,-2.990213 5.13747,-3.840538 2.24813,-1.558375 4.06957,-4.308826 3.14036,-4.742131 z M 114.56265,337.79342 c 1.47343,-1.8137 1.39004,-1.99911 -1.32973,-2.96095 -4.82423,-1.70605 -9.59011,5.6126 -5.87824,9.02688 2.07201,1.9059 6.71059,-0.0329 6.05565,-2.53115 -0.23295,-0.88868 0.27932,-2.46013 1.15234,-3.5348 z m 32.33437,-73.31 c -0.63799,-0.29743 -2.48867,-0.22952 -4.11266,0.15106 -1.62402,0.38059 -3.70405,0.34163 -4.62227,-0.0866 -1.83847,-0.85728 -11.90902,2.86863 -12.77545,4.72662 -2.61063,5.59849 0.3498,10.8917 3.66525,6.55331 0.95795,-1.25354 2.2492,-2.33893 2.86934,-2.41196 0.68663,-0.0808 0.65414,0.40515 -0.0828,1.24249 -7.81102,8.8751 -6.65209,10.65635 3.38201,5.19804 6.5504,-3.56324 14.51513,-14.0494 11.67657,-15.373 z M 222.44237,99.292542 c -2.10617,-4.189805 -5.86123,-3.358351 -9.15216,2.026508 -3.77698,6.18019 -1.48886,14.05995 3.68856,12.70262 2.43829,-0.63922 6.73017,-12.20954 5.4636,-14.729128 z M 76.522286,409.31343 c -0.14395,-3.26225 -4.05325,-14.95647 -4.89719,-14.6493 -1.684857,0.61325 -2.283051,4.27104 -1.657422,10.135 0.544562,5.10446 0.409032,6.15174 -0.6944,5.36548 -0.753848,-0.53764 -1.384476,-2.94465 -1.400879,-5.34963 -0.03375,-4.94979 -2.002166,-6.70573 -4.319464,-3.8532 -3.984412,4.90469 -1.408545,14.19405 5.026415,18.12674 5.07387,3.10086 8.33397,-0.91125 7.94294,-9.77509 z M 212.47539,118.41318 c -0.52066,-0.49263 -1.5289,-0.18883 -2.24652,0.67693 -0.75184,0.90704 -1.98938,1.25016 -2.92885,0.81208 -3.69906,-1.72489 -4.57726,1.67927 -1.09363,4.23919 3.19808,2.35007 9.10365,-3.04604 6.269,-5.7282 z m -45.28175,94.62413 c 0.35088,-1.89365 1.52173,-6.52203 2.60193,-10.28531 1.08019,-3.76327 1.91961,-8.0871 1.86538,-9.60852 -0.25129,-7.05002 0.8268,-12.02675 4.60381,-21.25198 4.42392,-10.80533 4.24688,-12.31391 -0.77931,-6.64076 -4.83941,5.46231 -10.08479,17.18106 -11.10082,24.80038 -0.95396,7.15398 -1.88379,9.64711 -3.15295,8.45391 -1.74235,-1.6381 1.36516,-17.90126 4.84746,-25.36906 2.74055,-5.87711 2.22848,-7.40101 -2.0194,-6.00973 -13.69051,4.48399 -16.3308,30.57707 -4.59076,45.36894 5.71212,7.19695 6.48159,7.25095 7.72466,0.54213 z m 36.486,-83.7127 c -1.46394,-2.49681 -5.08616,-2.62223 -7.9896,-0.27661 -5.81413,4.69711 -4.47584,14.41366 1.85129,13.44124 2.68466,-0.41262 7.52656,-10.79686 6.13831,-13.16463 z M 97.965536,352.09028 c -0.23694,-6.55812 -5.39193,-8.01129 -8.06723,-2.27412 -2.35809,5.05697 -1.90778,7.19105 1.8912,8.96254 4.4672,2.0831 6.41665,-0.0281 6.17603,-6.68842 z m 3.841284,-17.93942 c -0.92211,-0.65782 -3.099644,2.58759 -3.249534,4.84318 -0.10245,1.54131 0.0469,1.59614 1.775954,0.6519 1.93679,-1.05771 2.86143,-4.50584 1.47358,-5.49508 z m 5.9775,-13.1053 c 0.60016,-6.0191 -0.51436,-7.86683 -3.78344,-6.27231 -6.277064,3.06167 -5.895434,13.824 0.49219,13.88023 1.98255,0.0174 2.72927,-0.44307 2.79241,-1.72213 0.0473,-0.96033 0.27185,-3.6089 0.49888,-5.88576 z M 190.17449,141.9145 c -0.36485,-0.17014 -0.56143,-1.65829 -0.43692,-3.30697 0.99504,-13.17035 -45.63507,14.50549 -49.78084,29.54584 -0.92821,3.36749 -3.00121,4.99716 -3.28555,2.58292 -0.22357,-1.898 8.63707,-15.14731 14.12282,-21.11785 7.70828,-8.38949 12.58302,-11.03545 37.10819,-20.1421 6.82548,-2.53441 7.28092,-5.53464 1.41414,-9.31618 -3.52921,-2.27481 -3.67807,-2.27875 -4.68276,-0.12417 -0.85467,1.83283 -2.00928,2.2547 -6.54601,2.3918 -3.02956,0.0915 -7.81522,0.89345 -10.63481,1.78202 -2.81958,0.88856 -5.49026,1.44599 -5.93481,1.23868 -1.56118,-0.72799 -14.28688,8.4069 -17.34657,12.45189 -11.07557,14.64219 -16.77236,35.6071 -13.14308,48.36815 0.8843,3.10935 1.7783,6.83104 1.98656,8.27046 0.50454,3.48661 2.84304,4.66079 3.15791,1.58558 1.36112,-13.29393 15.15256,-29.37186 29.63737,-34.55094 9.23267,-3.30119 15.92473,-7.1949 18.58299,-10.81237 0.99647,-1.35604 2.24068,-2.51603 2.76492,-2.57779 1.18322,-0.13936 3.92805,-5.84386 3.01645,-6.26897 z m 9.06668,-24.1587 c -0.30144,-0.45928 0.1132,-2.96992 0.92148,-5.57925 3.41507,-11.02445 -1.06253,-16.076892 -8.15609,-9.20324 -5.27716,5.11356 -3.55225,13.31307 3.49162,16.59767 2.8293,1.31933 5.08311,0.22633 3.74299,-1.81518 z m 12.48235,-28.640048 c -0.589,-0.552594 -1.32118,0.06039 -2.12109,1.775795 -0.84479,1.81164 -0.81106,2.811237 0.10931,3.240416 1.61914,0.755022 3.40823,-3.705869 2.01178,-5.01621 z M 81.189416,365.5806 c -0.92275,-2.53523 -7.94891,-1.05949 -10.64757,2.23633 -1.538973,1.8795 -4.689146,4.77427 -7.000326,6.43292 -7.792185,5.59191 -10.311327,8.71345 -14.593279,18.08271 -2.196907,4.80709 -4.281523,8.60626 -4.632439,8.44263 -1.503799,-0.70122 0.338305,-8.26991 3.843718,-15.79271 l 3.761662,-8.07286 10.293152,-8.13046 c 5.661226,-4.47173 11.440472,-8.43995 12.842722,-8.81829 3.34227,-0.90177 6.03519,-13.41131 3.17418,-14.74539 -3.30488,-1.54111 -8.451805,4.17841 -8.41696,9.35326 0.01891,2.80787 -0.263255,3.62961 -1.20899,3.52075 -0.678504,-0.0781 -1.785671,0.13504 -2.460408,0.47354 -0.674759,0.3385 -3.768073,1.76855 -6.874104,3.17786 -23.192511,10.523 -32.044404,33.73678 -18.35164,48.12661 7.165716,7.53051 6.865028,7.57483 11.074584,-1.63297 3.393662,-7.42319 3.97287,-8.18665 9.849035,-12.9823 4.919773,-4.01514 7.207265,-6.67633 10.790453,-12.55331 2.50093,-4.10194 4.83255,-7.55773 5.18141,-7.67959 0.81573,-0.28504 3.73487,-8.4493 3.37477,-9.43875 z m 39.007094,-97.27274 c 1.83609,-11.74548 3.46036,-17.1717 6.34841,-21.20837 4.48479,-6.26844 3.16543,-7.08422 -7.46751,-4.61732 -31.328664,7.26839 -54.424933,38.42174 -46.487144,62.70408 2.20725,6.75211 13.53574,17.13882 19.87916,18.22654 l 2.79389,0.47907 -2.27694,-1.77207 c -13.06548,-10.16836 -11.90536,-26.55006 3.44081,-48.5867 12.280124,-17.63388 15.195454,-15.16565 3.31738,2.80865 -9.83622,14.88453 -12.65267,26.997 -8.66502,37.26514 3.22929,8.31539 3.41625,8.16224 15.296654,-12.53003 2.79761,-4.87266 5.45721,-8.98556 5.91022,-9.13979 1.58453,-0.53949 6.6801,-15.76104 7.91007,-23.62916 z M 205.82914,86.529912 c -0.0414,-6.155752 -6.37347,-7.153276 -9.04468,-1.424887 -2.393,5.131834 -1.956,7.258832 1.85662,9.036698 4.8277,2.251175 7.2373,-0.300467 7.18806,-7.611811 z M 90.104396,331.68261 c 0.41432,-5.66465 -5.24484,-4.33551 -8.16026,1.9166 -1.38631,2.973 -0.0704,4.76975 3.51638,4.80132 2.73092,0.024 4.31876,-2.27297 4.64388,-6.71792 z M 186.37086,109.46743 c 0.26547,-3.15797 -0.28701,-3.57315 -6.46582,-4.85992 -18.9062,-3.93726 -28.50056,-15.094612 -28.14869,-32.734343 0.14198,-7.118796 3.34103,-9.472841 3.3709,-2.480524 0.0569,13.306659 10.15309,25.441007 24.29244,29.196332 11.57012,3.072955 17.88258,-3.256682 8.94229,-8.966621 -1.92626,-1.230262 -4.44863,-3.701263 -5.60526,-5.49113 -1.1566,-1.789892 -5.60316,-6.698429 -9.88118,-10.907888 -6.98548,-6.873461 -8.09996,-8.458486 -10.93453,-15.55054 -2.91623,-7.296581 -3.27461,-9.916305 -2.57541,-18.825897 0.40606,-5.174321 -1.01734,-4.410907 -4.12679,2.21331 -1.58848,3.384028 -4.98747,9.130487 -7.55331,12.769913 -20.48209,29.052189 -7.34879,62.553738 24.1995,61.730258 4.12262,-0.1076 8.7986,0.0959 10.39106,0.4522 3.0457,0.68147 3.55584,-0.13395 4.09475,-6.54512 z M 67.667902,331.49458 c -5.617142,-2.28985 -11.678195,-4.63582 -13.469,-5.21322 -4.451895,-1.4354 -18.238862,0.18341 -21.8032,2.56003 -4.793434,3.19619 -6.528375,0.68672 -2.230929,-3.22688 5.799427,-5.28144 17.306074,-5.66562 30.636498,-1.02291 16.425125,5.72057 18.896575,5.94716 20.140935,1.84653 0.51833,-1.70815 -0.10846,-2.32159 -5.54249,-5.42411 -3.36982,-1.92397 -8.410233,-5.09012 -11.200988,-7.03583 -18.655795,-13.00679 -43.635206,3.5701 -52.904582,35.10863 -1.8816241,6.40217 -0.688408,7.30813 4.383028,3.32777 13.070848,-10.25878 39.597194,-13.24382 47.253287,-5.31745 1.54589,1.60048 5.204343,-0.12363 8.292965,-3.90822 1.5807,-1.93686 3.47261,-3.9406 4.2043,-4.45279 3.41091,-2.38767 2.83999,-2.92047 -7.759822,-7.24154 z m -5.413081,21.14661 c -1.279965,-1.32507 -13.985512,3.29851 -20.758535,7.55444 -4.094764,2.5728 -4.855213,2.775 -4.377306,1.16357 0.318126,-1.07264 1.839047,-2.58731 3.379855,-3.366 1.540776,-0.77871 2.983417,-1.80608 3.205879,-2.2831 0.222427,-0.477 1.944695,-1.67476 3.827211,-2.66167 3.995526,-2.09466 4.334405,-2.54173 2.555182,-3.37143 -6.826019,-3.18299 -18.869025,6.59808 -25.688736,20.86389 -2.416173,5.05426 9.585592,2.29106 21.774331,-5.01316 17.458472,-10.46215 18.002548,-10.89812 16.082279,-12.88618 z M 179.55378,61.182422 c -3.24984,-7.586259 -3.78512,-19.741392 -1.12095,-25.454727 1.1153,-2.391759 -0.62924,-4.818705 -2.3022,-3.202787 -5.99615,5.791718 -6.55404,27.455175 -0.86995,33.781107 6.82419,7.59479 8.75456,5.290993 4.2931,-5.123593 z m 11.98626,-23.624451 c 0.29623,-2.706504 0.22073,-6.000121 -0.16776,-7.319144 -0.38843,-1.319041 -0.90338,-4.701174 -1.14426,-7.515875 -0.82066,-9.591268 -6.2116,-3.601648 -9.47666,10.529068 -2.48159,10.739868 -0.79638,26.63199 2.68948,25.363244 1.4653,-0.533329 7.59796,-16.47785 8.0992,-21.057293 z m -42.74797,84.472259 c -2.75708,0.11723 -6.52443,0.45996 -8.37187,0.7616 -7.36809,1.203 -5.42634,-2.12695 2.2181,-3.8039 6.36154,-1.3955 8.13319,-2.4868 6.60526,-4.06865 -3.66374,-3.79315 -17.89736,0.34252 -23.64736,6.87084 -9.26194,10.51562 -14.0728,20.99135 -7.98703,17.39193 3.37886,-1.99841 16.62365,-6.78998 21.69707,-7.84933 4.0931,-0.85465 12.91173,-6.17717 13.98882,-8.44302 0.34303,-0.72165 -1.13051,-1.00295 -4.50299,-0.85947 z M 63.333701,299.5058 c -3.457475,-5.48182 -5.519669,-11.04189 -4.264748,-11.49864 0.462231,-0.16822 1.336812,0.93599 1.943577,2.45381 2.420512,6.05528 5.287656,4.43949 5.352755,-3.0168 0.05467,-6.27787 -11.38528,-20.24568 -13.270502,-16.20284 -4.883471,10.47265 -2.225495,22.30979 7.020765,31.26667 6.978074,6.7597 8.48725,5.35179 3.218198,-3.00224 z"
     id="path4998"
     inkscape:connector-curvature="0" />
</svg>
