<?xml version="1.0" encoding="UTF-8" standalone="no"?>
<svg xmlns:rdf="http://www.w3.org/1999/02/22-rdf-syntax-ns#" xmlns="http://www.w3.org/2000/svg" height="755" viewBox="0 0 598 755" width="598" version="1.1" xmlns:cc="http://creativecommons.org/ns#" xmlns:dc="http://purl.org/dc/elements/1.1/">
<path d="m232.55 753.75c-0.21313-0.6875-0.60274-2.375-0.86579-3.75s-1.5228-5.2-2.7994-8.5c-4.0132-10.374-3.418-26.261 1.3239-35.339l3.6263-6.9423-7.4582-1.1093c-41.952-6.2396-91.608 3.5809-111.95 22.141-7.8866 7.1954-11.376 5.1056-5.4259-3.25 1.0269-1.4421 2.1796-3.8674 2.5616-5.3896 4.7116-18.773 47.339-40.888 80.438-41.733 16.017-0.40875 16.128-0.58627 4.9129-7.873-4.4479-2.8899-9.9604-6.6773-12.25-8.4163s-5.5825-3.7446-7.3176-4.4569c-1.7351-0.71229-3.3805-2.1582-3.6564-3.2132-0.295-1.1281-1.3727-1.9181-2.6165-1.9181-1.2166 0-4.5482-2.3715-7.8436-5.5832-3.1508-3.0707-7.0788-6.5381-8.7288-7.7052-29.243-20.685-27.004-27.704 5-15.675 20.117 7.561 29.806 10.787 40.087 13.348 3.3479 0.83392 8.4808 2.4597 11.406 3.6128 10.534 4.1521 10.787-0.13649 0.87859-14.887-40.472-60.248-49.075-143.64-22.382-216.95 10.733-29.478 14.138-36.187 43.475-85.661 31.265-52.726 48.741-90.443 55.921-120.69 1.9918-8.3919 0.76691-35.995-1.7392-39.192-0.48068-0.6133-1.1709-3.0599-1.5338-5.4369-1.4616-9.5736-12.631-24.758-24.113-32.781-2.75-1.9215-6.529-4.5969-8.3979-5.9455-6.118-4.4148-8.6872-3.2189-4.5992 2.1408 3.9189 5.138 0.35104 18.567-6.642 24.999-12.946 11.907-32.247 19.009-56.861 20.923-4.125 0.32066-8.32 0.82684-9.3223 1.1248-1.0022 0.29799-6.5233-0.0153-12.269-0.69626-12.633-1.4972-12.258-1.8079-8.0437 6.6701 6.6272 13.332 10.327 43.034 3.9161 31.436-3.2211-5.8271-9.226-14.896-10.304-15.563-0.58187-0.35962-2.1704-2.416-3.53-4.5698-3.1973-5.0648-6.0087-5.5047-3.9681-0.62093 6.2548 14.97 1.798 41.404-8.432 50.012-13.547 11.399-43.428 4.1966-52.751-12.715-1.0217-1.8532-1.3054-1.8296-9.9237 0.82555-17.121 5.2747-15.499 5.1078-24.588 2.5297-26.56-7.5342-28.693-38.58-4.3926-63.937 5.4838-5.7221 4.9422-6.5757-3.8866-6.1249-13.098 0.66891-12.942 0.68115-13.285-1.0389-0.37333-1.872 5.0227-8.472 7.5937-9.288 2.2244-0.70601 4.678-4.6312 3.4024-5.443-6.6825-4.2529-18.9-15.635-19.814-18.46-0.32827-1.0141-1.9214-3.8064-3.5402-6.2051-4.7003-6.967-11.815-30.95-10.959-36.95 1.4683-10.3 37.18-15.901 56.607-8.877 10.74 3.882 10.04 4.434 9.669-7.623-0.217-7.073 0.197-12.785 1.269-17.5 0.875-3.85 2.058-9.925 2.628-13.5 1.008-6.319 4.133-13.554 8.355-19.338 2.866-3.9291 5.92-3.3066 22.211 4.5267 6.17 2.9693 25.36 24.568 25.36 28.548 0 0.694 0.36 1.263 0.81 1.263 1.5349 0 7.0571 13.519 8.1906 20.051 1.5094 8.6987 2.5644 10.251 4.7239 6.949 4.6255-7.0723 21.142-20.594 26.482-21.682 1.4881-0.30292 4.4847-2.0735 6.659-3.9346 2.18-1.86 5.05-3.383 6.39-3.383 1.3377 0 4.6411-0.6872 7.341-1.5271 12.278-3.8197 43.596-3.7556 45.072 0.09219 0.25722 0.67031-1.3079 4.7549-3.478 9.0768-2.16 4.322-4.64 9.883-5.5 12.358-4.2233 12.222-11.1 25.452-14.552 27.999-2.0666 1.5245-4.1306 6.0575-2.9175 6.4076 0.70667 0.20393 5.2878 1.3081 10.18 2.4537 4.8924 1.1456 12.317 3.646 16.5 5.5564 4.1826 1.9104 10.034 3.9576 13.002 4.5494 55.073 10.978 69.305 78.32 32.568 154.1-8.6471 17.838-22.999 45.735-27.603 53.654-28.075 48.29-39.078 68.802-44.167 82.342-1.3576 3.6118-3.4134 8.4194-4.5685 10.683-8.9885 17.619-16.899 72.32-14.102 97.514 3.0122 27.13 7.4001 51.925 10.073 56.92 0.63439 1.1854 2.1671 5.1164 3.4059 8.7357 7.3031 21.335 17.636 41.25 26.762 51.58 5.0825 5.753 5.313 4.4147 2.373-13.782-8.7133-53.933 2.2782-110.57 30.109-155.16 13.083-20.957 24.919-34.68 41.252-47.826 20.372-16.397 54.606-27.623 75.298-24.693 9.0925 1.2877 23.309 7.2677 24.267 10.207 0.74878 2.2992 2.4352 2.2517 2.4352-0.0685 0-9.7183 10.467-23.045 12.512-15.932 7.1474 24.856 9.8118 30.654 12.339 26.848 6.3238-9.5241 31.651-22.215 51.052-25.581 13.535-2.3483 15.251-0.15588 5.7626 7.3613-19.085 15.121-27.021 25.395-20.915 27.078 7.1452 1.9696 25.25 22.497 25.25 28.628 0 0.8128 0.7875 1.7438 1.75 2.0688 0.9625 0.32506 4.675 3.6182 8.25 7.318l6.5 6.727 9.5 0.60742c9.7167 0.62128 20 2.394 20 3.4478 0 0.32362-0.63439 1.2988-1.4098 2.1671-3.9479 4.4212-2.629 5.599 5.9098 5.2774 9.668-0.36411 27.54 3.9038 39.193 9.3596 4.0432 1.893 7.9038 3.4482 8.5793 3.4561 0.67544 0.008 2.4816 2.1454 4.0137 4.75s3.5463 5.9497 4.476 7.4336c6.8512 10.935-17.436 19.784-40.762 14.851-6.6567-1.4079-33.78-0.68533-37.75 1.0056-4.1119 1.7514-4.0861 1.9391 0.80734 5.8716 10.45 8.4-12.28 21.08-37.78 21.08-12.084 0-14.319 1.0691-6.2701 3 8.0302 1.9264 4.8827 8.1971-5.6559 11.268-12.234 3.5651-16.238 4.064-32.594 4.0614-9.2125-0.001-16.75 0.30159-16.75 0.67338 0 0.96927 4.7467 2.997 7.0157 2.997 12.47 0-7.0644 5.981-21.516 6.5877-18.361 0.7709-19.925 1.0902-24.642 5.0306-7.9265 6.6224-14.931 8.8446-32.847 10.421-9.6184 0.84622-12.116 1.4259-15.342 3.5607-4.6114 3.0517-4.3897 3.7138 0.76706 2.29 6.3945-1.7656 15.797-0.21959 14.975 2.4624-1.2665 4.1338-9.2842 14.225-18.392 23.148-19.161 18.772-25.141 25.531-18.409 20.807 2.7671-1.9416 13.432-7.1937 21.889-10.78 3.3465-1.419 18.963-4.4478 23.25-4.5093 2.6287-0.0377 1.0504 1.6645-4 4.314-6.1272 3.2144-18.944 12.641-19.486 14.331-0.21848 0.68156 2.0306 1.8569 5.4315 2.8384 14.405 4.1573 28.595 13.502 37.417 24.641 4.0319 5.0907 3.9996 5.1017-6.6127 2.2661-12.108-3.2353-33.249-5.0173-45.418-3.8284l-9.4179 0.92004-2.3392 4c-6.4633 11.052-11.338 23.503-12.724 32.5-1.0136 6.5788 3.1967 9.6656 37.899 27.785 12.1 6.318 24.925 13.017 28.5 14.887 8.8195 4.6126 11.858 7.173 9.9466 8.3822-2.6158 1.655-4.6633 1.0176-18.378-5.7206-7.4628-3.6666-13.836-6.399-14.163-6.0722-0.71058 0.71058 5.3246 4.6155 13.753 8.8985 4.8015 2.4399 5.7742 3.2984 4.5277 3.996-1.5923 0.8911-2.2345 0.59039-28.366-13.282-5.0488-2.6804-9.6613-4.8734-10.25-4.8734-2.0382 0-1.0596 2.0536 1.4296 3 2.1416 0.81425 3.5698 3 1.9602 3-1.9484 0-23.452-13.014-28.954-17.522-1.6535-1.3551-5.9314-4.5942-9.5064-7.1981s-6.725-4.9812-7-5.2828c-0.275-0.30165-2.4125-2.0371-4.75-3.8566s-4.25-3.9746-4.25-4.789c0-0.81446-2.0585-5.3892-4.5745-10.166-15.408-29.254-35.816-42.98-74.601-50.174-2.5713-0.47693-5.7213-1.5277-7-2.3351-1.2787-0.80738-3.4498-1.7899-4.8248-2.1833-3.125-0.8942-7.4861-2.7685-16.746-7.1969-3.9853-1.9059-7.8103-3.2664-8.5-3.0232-0.68972 0.24315-2.4981-0.42906-4.0186-1.4938-14.029-9.8239 1.6574 4.9913 19.998 18.887 14.255 10.8 16.864 10.522 3.0804-0.32831-18.477-14.545-17.981-15.732 0.77699-1.8615 11.21 8.2888 25.998 17.618 30.238 19.076 1.9386 0.66644 4.0571 1.9398 4.7078 2.8298 0.65072 0.88992 2.146 1.618 3.3229 1.618s2.1398 0.61959 2.1398 1.3769c0 0.75727 2.1375 2.3342 4.75 3.5044 2.6125 1.1701 6.775 3.3017 9.25 4.7369s7.65 4.4363 11.5 6.6692 9.1297 5.5166 11.733 7.2972c2.603 1.7805 5.303 3.4408 6 3.6895 0.69703 0.24872 0.97936 0.76428 0.6274 1.1457-0.35195 0.38142-3.6375-1.1412-7.3012-3.3837-9.65-5.91-34.08-19.04-35.42-19.04-2.7171 0-0.65359 1.8399 6.1074 5.4455 27.528 14.68 43.44 24.738 52.903 33.438 3.6593 3.3641 6.9966 6.1166 7.4161 6.1166 0.41954 0 1.4755 0.67122 2.3467 1.4916 2.4488 2.3062 18.917 14.508 19.58 14.508 0.32407 0 3.0365 1.8079 6.0276 4.0176 2.9911 2.2096 6.6487 4.4777 8.128 5.0402 1.4793 0.56244 4.8106 2.5795 7.4029 4.4824s5.3854 3.4598 6.2068 3.4598c0.82147 0 2.0538 0.675 2.7385 1.5 0.68469 0.825 1.8648 1.5 2.6224 1.5 2.3268 0 1.5254 1.9248-1.073 2.577-3.0641 0.76905-10.275-2.5591-24.854-11.472-5.9425-3.6328-12.242-7.4555-14-8.4949-1.7575-1.0394-5.742-3.6269-8.8544-5.75-17.16-11.7-52.84 5.74-52.84 25.83 0 5.352-3.2837 9.825-4.4503 6.0621zm0.3779-21.352c7.298-12.369 17.779-20.415 30.839-23.676 4.8032-1.199 8.8768-2.2583 9.0524-2.3539 1.2477-0.67948-3.1401-4.7099-7.5648-6.9486-11.158-5.6457-24.986-2.1525-30.2 7.629-6.2914 11.804-8.3067 35.823-2.1269 25.349zm-0.93-5.7c0-4.7741 22.939-22.094 25.659-19.374 0.35152 0.35152-1.13 1.4346-3.2923 2.4069-7.4918 3.3687-14.351 8.4784-17.935 13.362-3.8098 5.19-4.4312 5.6956-4.4312 3.6059zm-102.29-22.7c0.34443 0 3.5871-1.3048 7.206-2.8996 16.533-7.2858 36.625-10.259 67.994-10.063 11.872 0.0744 22.379-0.17901 23.348-0.5631 0.96951-0.3841 2.3802-0.18589 3.1349 0.44045 1.0284 0.85351 2.5111 0.8342 5.9183-0.0771 3.3826-0.9047 5.4593-0.93563 8.1141-0.12085 3.865 1.1862 5.463 0.26891 3.0378-1.7438-0.83055-0.6893-7.1266-3.1645-13.991-5.5004-6.8646-2.336-14.13-5.0294-16.144-5.9854-15.127-7.178-49.039-4.4229-68.332 5.5513-20.012 10.346-27.956 20.366-10.255 12.936 7.4303-3.1191 20.514-6.7351 26.755-7.3945 2.2-0.23243 8.05-0.89294 13-1.4678 5.5935-0.64959 10.491-0.70314 12.938-0.14147 2.1661 0.49705 4.1911 0.8787 4.5 0.84812 0.30886-0.0306 5.5116 0.073 11.562 0.23028 7.7201 0.20065 3.8438 0.50071-13 1.0063-31.661 0.95037-50.095 4.3156-62.788 11.462-2.867 1.6142-5.6194 2.4783-6.8602 2.1538-2.3185-0.60631-6.8518 3.2027-6.8518 5.7571 0 1.1671 1.1698 0.82975 5.044-1.4546 2.7742-1.6357 5.3258-2.974 5.6702-2.974zm163.19-18.444c1.1185-4.9981 6.3987-16.502 12.613-27.479 7.1657-12.658 23.873-31.284 33.569-37.425 9.8395-6.2314-7.8046-3.3794-18.884 3.0524-22.305 12.948-38.91 47.469-31.09 64.633 1.7482 3.8368 2.422 3.3426 3.7925-2.7813zm-2.8908-5.139c0.01-2.46 5.24-13.42 6.4-13.42 0.39926 0-5.3542 15.218-6.0175 15.917-0.21765 0.22916-0.39151-0.89584-0.38635-2.5zm-76.01-17.33c0-0.50267-3.0375-2.5963-6.75-4.6525s-9.835-5.7166-13.606-8.1342c-3.7706-2.4176-7.3663-4.2254-7.9904-4.0174-1.2408 0.41361 10.848 8.5214 22.346 14.987 5.0577 2.8442 6 3.1295 6 1.8167zm69.93-2.84c1.8472-4.0632 17.564-27.545 23.46-35.05 2.811-3.5782 7.1678-9.1104 9.6818-12.294 2.514-3.1834 8.4765-9.8837 13.25-14.889 9.079-9.5208 9.1808-9.6765 7.7743-11.897-0.96218-1.5192-7.8455-0.95335-13.82 1.136-5.3489 1.8705-4.9738 0.0105 1.282-6.3579 7.5886-7.7251 8.5516-8.1817 22.943-10.879 29.462-5.5216 36.309-10.193 15.919-10.86-10.336-0.33831-13.415-1.4136-7.169-2.5034 12.039-2.1003 25.904-2.8734 41.25-2.2999 23.518 0.87881 25.822-1.0926 7.9368-6.7898-4.7286-1.5062-8.4487-2.8743-8.2671-3.0401 1.2379-1.1298 23.719-1.3909 24.169-0.28065 0.40105 0.98906 0.69362 0.99446 1.3812 0.0255 0.6027-0.84932 7.6593-1.5576 22.826-2.2911 28.017-1.355 32.168-2.6577 21.954-6.8911-3.025-1.2538-5.4859-2.5741-5.4686-2.934 0.13925-2.8997 11-6.1352 20.64-6.1486 9.6163-0.0134 26.711-5.4511 30.577-9.7265 1.9436-2.1492 0.79459-3.7618-5.5585-7.8013-3.5028-2.2272-2.8702-2.942 7.0225-7.9354l7.2125-3.6405 13.287 0.23879c53.167 0.95546 63.865-1.5379 54.956-12.809-7.7522-9.8073-30.253-17.683-54.122-18.943-13.2-0.71-15.11-1.43-11.54-4.4 2.2333-1.8535 1.8324-4.7023-0.75-5.3304-5.8011-1.4108-15.033-1.9359-14.34-0.8157 0.38957 0.63033 1.6942 1.2099 2.8993 1.288 1.205 0.078 0.39098 0.41554-1.809 0.75-3.9623 0.60236-3.9973 0.64575-3.7089 4.6081 1.2587 17.295-1.1405 27.496-7.2681 30.901-1.0873 0.60429-2.4746 1.7205-3.0829 2.4805-1.555 1.9428-10.319 5.1164-14.131 5.1174-9.108 0.002-3.4498 3.3899 7.4889 4.4837 4.7748 0.47743 7.1651 1.1251 6.9138 1.8734-0.58254 1.7346-15.895 0.88591-17.339-0.96103-0.9505-1.2158-1.2102-1.1246-1.6564 0.58143-0.291 1.1128-1.2041 2.0233-2.0291 2.0233-1.0046 0-1.3283 0.6565-0.98017 1.9878 0.32972 1.2608-0.0702 2.2143-1.0936 2.607-0.8874 0.34052-1.6317 1.3585-1.654 2.2622-0.0456 1.8502-7.5796 11.9-10.099 13.471-1.6408 1.0234-9.2937-2.9493-14.361-7.4548-1.1-0.97812-2.9517-2.6389-4.1149-3.6907-2.1082-1.9061-2.1376-1.8911-9.1772 4.7027-17.509 16.4-42.478 15.593-52.033-1.6818-2.8572-5.1657-4.1642-5.2464-12.95-0.7995-15.014 7.5993-33.784 21.753-40.514 30.552-1.4914 1.9495-4.985 6.2445-7.7636 9.5445-17.525 20.813-38.075 67.079-39.531 89-0.18266 2.75-0.77344 6.7752-1.3128 8.9448-1.4653 5.894 0.52378 7.8686 2.8257 2.8052zm1.3401-13.296c2.5759-6.066 17.178-26.807 18.946-26.912 0.3935-0.0234-1.7262 3.2199-4.7104 7.2074s-7.1024 10.302-9.1516 14.032c-4.2945 7.8172-7.5262 11.423-5.0843 5.6725zm28.73-69.82c0-2.622 17.778-11.271 22.718-11.053 1.3913 0.0616 1.4532 0.19976 0.28226 0.62969-0.825 0.30291-3.7934 1.6174-6.5965 2.921-2.8031 1.3037-5.6856 2.3703-6.4056 2.3703-0.72002 0-2.7016 1.0444-4.4035 2.3209-4.48 3.36-5.59 3.92-5.59 2.81zm11.55-17.003c1.4635-1.3425 12.118-4.4057 13.603-3.9109 0.72513 0.24171-1.575 1.4166-5.1115 2.6109-6.7589 2.2825-10.124 2.7977-8.4916 1.3zm6.0698-7.5802c0.70817-1.8455 4.806-3.1889 15.43-5.0586 14.465-2.5456 13.075-1.2158-3.5946 3.4383-12.688 3.5425-12.567 3.5259-11.836 1.6203zm8.93-8.49c0.93938-0.93116 16.008-3.1609 19.924-2.9482 1.1144 0.0605-2.4738 0.93255-7.9738 1.9378-11.85 2.166-13.234 2.283-11.95 1.0104zm12.45-10.91c0.825-0.48666 9.6-1.1234 19.5-1.4151 9.9-0.29163 16.2-0.18237 14 0.2428-6.1067 1.1802-35.242 2.1997-33.5 1.1723zm126-22.15c0-1.1518 10.973-1.1518 15.5 0 2.0767 0.52843 0.15318 0.79978-6.25 0.88169-5.58 0.07-9.25-0.28-9.25-0.88zm54.5-23.5c-4.95-0.67355-12.511-1.5522-16.803-1.9525-5.2306-0.48791-7.6711-1.1102-7.4024-1.8876 0.55884-1.6168 7.1585-1.0619 29.487 2.4793 14.57 2.3107 10.122 3.4568-5.2818 1.3608zm-7.9781-6.1878c-5.488-0.7892-10.175-1.6322-10.417-1.8734-1.3592-1.3592 1.7536-1.3532 10.945 0.021 5.6663 0.84724 11.686 1.5473 13.376 1.5558 1.6906 0.008 3.7489 0.45153 4.5739 0.98469 2.1453 1.3864-6.2188 1.075-18.478-0.68802zm25.355-0.78128c-13.628-2.4607-16.843-3.328-12.796-3.4518 2.9705-0.0909 26.875 4.5435 27.702 5.3706 0.82216 0.82216-1.0845 0.57671-14.906-1.9188zm3.12-9.2c-4.6552-0.86968-12.337-1.2937-20.251-1.1179-9.2339 0.20509-12.751-0.0396-12.75-0.8872 0.004-3.0616 24.154-2.5148 37.751 0.85471 3.3762 0.8366 6.4663 3.2059 3.5 2.6836-0.4125-0.0726-4.125-0.76257-8.25-1.5332zm-289.21 180.67c-3.1957-24.484 5.5676-75.425 15.124-87.917l1.849-2.4168 2.6837 2.111c3.9804 3.131 4.9785 2.0434 6.9362-7.558 5.635-27.636 19.888-54.085 21.84-40.526 1.6935 11.768 5.3827 14.03 8.3433 5.1169 4.685-14.105 16.74-34.486 23.468-39.677 3.749-2.8926 3.6218-3.0169 4.8746 4.7627 2.0383 12.657 4.4564 13.56 11.962 4.4677 2.952-3.5762 7.6426-8.3008 10.424-10.499 4.9964-3.9494 5.0883-4.1237 7.759-14.72 3.1019-12.306 6.4737-19.559 11.848-25.485 6.1037-6.7299 6.1714-6.591-6.2881-12.91-34.142-17.316-28.74-33.399 8.1134-24.157 10.124 2.539 12.263-0.28164 5.712-7.5329-10.084-11.162-34.28-14.237-54.393-6.9132-3.0481 1.1099-7.075 2.4716-8.9486 3.0259-37.993 11.24-79.416 73.441-91.12 136.83-5.8445 31.65-2.3714 77.991 8.3298 111.14 6.9831 21.631 13.596 29.036 11.484 12.861zm5.1297-14c0.0809-5.225 0.50636-11.975 0.94548-15 0.62232-4.287 0.79927-2.4111 0.80233 8.5061 0.004 14.103 0.89803 18.494 3.7655 18.494 0.82474 0 1.5366-1.4755 1.8092-3.75 5.0177-41.871 39.512-96.528 76.261-120.84 7.9388-5.2513 8.7145-5.6891 17.75-10.017 5.2995-2.5385 7.75-4.2656 7.75-5.4621 0-6.4378 17.987-33.084 29.873-44.253 4.9566-4.6579 7.1545-8.4098 3.2534-5.5536-5.4523 3.9918-14.217 10.82-18.672 14.546-5.41 4.52-9.12 6.32-13.05 6.32-3.04 0-17.16 14.1-22.4 22.37-4.4876 7.0819-4.7985 6.9064-8.9881-5.0723-1.9316-5.5226-3.8494-10.099-4.2619-10.171-2.0284-0.35032-2.7711 0.31226-6.8551 6.116-10.781 15.321-14.041 24.36-14.418 39.973-0.37 15.25-5.48 24.23-5.48 9.62 0-2.2755-1.4644-7.5124-3.4025-12.168-1.8714-4.4954-3.6572-8.9609-3.9686-9.9234-1.8699-5.7799-7.7148 2.7089-12.54 18.212-2.8806 9.2555-4.7118 30.141-3.3911 38.678 0.61202 3.9562 0.68895 7.262 0.18173 7.8099-0.52736 0.56964-0.8795 0.0692-0.8795-1.25 0-1.21-0.38902-2.2-0.86448-2.2-0.47547 0-2.489-3.375-4.4745-7.5-4.2263-8.7804-7.1114-9.7526-8.9027-3-0.29181 1.1-1.728 6.05-3.1916 11-7.6822 25.983-11.613 55.618-9.0376 68.13l0.79673 3.87 0.72195-4c0.39707-2.2 0.78813-8.275 0.86903-13.5zm11.525-24.25c0.26383-1.2375 0.97931-4.8375 1.59-8 0.61065-3.1625 1.3476-5.75 1.6376-5.75 0.56189 0-0.47683 11.313-1.3084 14.25-0.73174 2.5847-2.4796 2.1293-1.9191-0.5zm49.607-76.878c0.0402-1.9676 6.7528-16.431 6.9025-14.872 0.0264 0.275-0.85176 2.8673-1.9515 5.7607s-1.9995 6.1008-1.9995 7.1276-0.675 2.427-1.5 3.1117c-1.2628 1.048-1.4923 0.86968-1.4515-1.1276zm35.76 115.38c-0.54-2.82-17.62-13.8-26.04-16.73-5.53-1.93-8.77-1.94-8.77-0.02 0 0.825-0.675 1.5-1.5 1.5-3.056 0-1.3728 1.9322 2.25 2.5829 6.6133 1.1878 7.074 2.3272 0.85578 2.1167-8.5415-0.28922-8.46 1.8452 0.10524 2.7569 9.8244 1.0457 12.366 2.5292 3.1532 1.8403-7.79-0.59-12.86 0.05-12.86 1.61 0 0.47775 2.8606 0.88513 6.3568 0.9053 7.5916 0.0438 21.137 1.9258 26.957 3.7455 6.2599 1.9571 9.9082 1.839 9.499-0.3075zm-123.35-30.88c-11.571-45.51-8.4379-87.096 10.529-139.73 2.5818-7.1649 12.099-26.318 16.465-33.136 1.7611-2.75 3.9055-6.1456 4.7653-7.5457 21.125-34.399 58.014-57.395 94.161-58.698 17.933-0.64647 18.034-2.7465 0.12431-2.5922-23.632 0.20362-47.932 9.5069-66 25.268-36.46 31.805-58.496 75.312-68.505 135.25-4.2795 25.629 1.8164 79.758 10.579 93.936 1.4884 2.4083 1.0208-0.40668-2.118-12.752zm-41.276-40.62c-3.0246-5.8836-11.901-36.949-14.644-51.248-6.2928-32.808-3.521-80.703 6.4528-111.5 0.62343-1.925 1.7708-5.8456 2.5498-8.7125 2.7958-10.29 16.736-41.578 21.58-48.433 1.0282-1.4553 3.7066-6.1758 5.9522-10.49 2.2455-4.3142 4.438-8.2986 4.8722-8.854 0.43417-0.55547 1.9034-3.035 3.265-5.51s7.0506-12.505 12.642-22.289c42.477-74.323 59.384-125.2 50.519-152.02l-1.3859-4.1929 0.6175 6c3.5091 34.096-12.954 81.874-50.134 145.5-5.8644 10.035-18.286 31.533-23.401 40.5-7.8165 13.702-13.252 23.242-13.957 24.5-0.46287 0.825-1.3073 2.85-1.8765 4.5-3.4014 9.8599-12.215 30.995-13.041 31.27-0.53836 0.17946-0.75941 1.1654-0.49121 2.191s-1.1355 8.1634-3.1193 15.862c-1.9838 7.6984-4.0658 17.525-4.6268 21.837-0.56094 4.3121-1.4811 10.99-2.0448 14.84-2.6757 18.274-0.0882 53.452 5.7006 77.5 3.716 15.437 13.792 42.932 15.212 41.511 0.28284-0.28284-0.006-1.5261-0.64163-2.7628zm208.32-53.23c34.303-5.6448 47.911-53.82 23.616-83.604l-1.9681-2.4127 0.55706 9.5c0.87264 14.882-5.9592 37.379-16.095 53-1.249 1.925-3.506 5.4538-5.0156 7.8418-1.5095 2.388-3 4.0863-3.3122 3.7742-0.31218-0.31217-0.10853-1.141 0.45255-1.8418 3.6321-4.5365 16.238-31.212 17.615-37.274 2.1383-9.4155 3.0818-20.166 1.4263-16.25-0.63949 1.5125-1.735 2.75-2.4345 2.75-0.69947 0-1.7631 0.91809-2.3636 2.0402-0.60054 1.1221-3.6871 5.0596-6.859 8.75-15.869 18.463-20.54 28.154-20.585 42.71l-0.0344 11 4 0.59552c2.2 0.32754 4.675 0.47933 5.5 0.33732s3.3-0.55441 5.5-0.91644zm-2.44-27.52c1.8019-3.025 5.7197-9.9173 8.7062-15.316 2.9865-5.3989 5.6381-9.608 5.8926-9.3535 0.59395 0.59395-6.6702 14.999-10.067 19.964-1.4279 2.0869-2.5963 4.146-2.5963 4.5757s-1.1725 1.8722-2.6056 3.2056c-2.4555 2.2846-2.4169 2.1074 0.67057-3.0757zm22.593-5.952c1.8909-4.3736 4.5484-12.136 5.9055-17.25l2.4675-9.298-0.61535 6.5c-0.64433 6.8062-3.9866 16.546-8.1498 23.75-3.58 6.1947-3.4805 5.2555 0.39218-3.702zm-3.2012-4.6311c3.16-7.91 7.55-25.29 7.55-29.85 0-1.96 0.45-3.57 1-3.57 1.317 0 1.2696 7.4487-0.0795 12.5-1.8221 6.8219-8.0121 23.248-9.4857 25.171-0.77056 1.0059-0.31049-0.90857 1.0224-4.2543zm38.297 25.292c4.8758-6.4579 6.4946-11.848 3.308-11.015-1.3555 0.35448-2.0625 1.3563-2.0625 2.9227 0 3.3812-1.7148 2.9582-2.5-0.61663-0.87565-3.9868-2.4831-3.8302-2.5662 0.25-0.0604 2.9673-0.21348 2.7997-1.7599-1.9266-2.03-6.22-3.17-7.62-3.17-3.92 0 1.506-0.675 3.4131-1.5 4.2381s-1.5 2.3537-1.5 3.3972c0 1.2756-0.4915 1.7086-1.5 1.3216-2.1813-0.83704-1.867 0.24464 1.4879 5.1208 4.8855 7.1008 6.5521 7.1329 11.767 0.22645zm26.682-23.332c7.7258-4.8877 11.923-14.789 9.6209-22.698-3.124-10.735-13.198-23.249-20.712-25.729-5.6858-1.8765-5.8468-0.55479-0.47981 3.9387 7.563 6.3321 6.2432 6.9216-2.4154 1.0789-10.188-6.8747-12.56-6.1098-3.7694 1.2154 13.252 11.043 14.602 13.661 2.5701 4.9831-17.83-12.87-24.51-15.49-9.99-3.92 9.33 7.43 16.75 14.75 14.96 14.75-0.66004 0-2.8889-1.4841-4.953-3.2981-9.39-8.25-27.15-20.7-29.53-20.7-1.8778 0-0.34667 1.9881 3.4827 4.5222 9.6359 6.3768 40.843 35.755 39.456 37.142-0.28475 0.28475-5.873-4.3608-12.418-10.324-6.5453-5.9627-13.442-12.145-15.325-13.739-1.8837-1.5936-4.4356-3.8079-5.671-4.9206-5.4618-4.9196-2.8017-0.0669 3.8839 7.0849 22.27 23.823 28.015 32.224 8.9733 13.122-15.477-15.526-15.51-14.366-0.17906 6.2917l5.4321 7.3194-7.2158-6.3829c-6.7552-5.9755-10.994-7.8588-6.4439-2.8632 2.2648 2.4867 4.6749 6.7461 3.8172 6.7461-0.30181 0-1.4354-0.5537-2.519-1.2304-2.4315-1.5185-5.4568 0.88325-4.4424 3.5268 2.8799 7.505 24.372 10.094 33.877 4.0804zm-94.858-23.605c11.212-7.3553 22.548-23.147 21.011-29.271-0.98268-3.9153-4.0233-3.143-6.8909 1.7503-2.3443 4.0002-6.6987 8.8227-6.6987 7.4188 0-0.35198 1.3879-2.8956 3.0842-5.6524 4.6406-7.5419 3.102-7.7374-2.9139-0.37039-5.2556 6.436-8.381 8.2662-4.2794 2.506 2.7222-3.823 2.6642-5.1532-0.22469-5.1532-3.9312 0-14.633 17.707-14.656 24.25-0.0188 5.2916 10.438 1.2962 19.725-7.5365 1.7793-1.6922 3.4778-2.834 3.7745-2.5373 0.84717 0.84717-7.4656 8.7536-13.26 12.611-4.8111 3.2034-6.5153 5.2124-4.4214 5.2124 0.4557 0 3.0432-1.4528 5.75-3.2284zm86.43-36.7c0-3.1081-12.491-13.657-18.923-15.979-8.0375-2.9027-19.077-3.2962-19.077-0.68 0 1.439 1.7046 1.9513 10.227 3.0729 2.5997 0.34216 5.036 1.1226 5.414 1.7343 0.4707 0.76161 0.0841 0.85718-1.2267 0.3032-3.32-1.4-13.41-1.89-13.41-0.65 0 0.6161 1.4625 1.1271 3.25 1.1355 1.7875 0.008 3.925 0.45153 4.75 0.98469 1.0501 0.67863-0.53415 0.97397-5.2821 0.98469-6.82 0.02-13.72 2.01-13.72 3.97 0 0.66964 4.0824 1.0681 11.25 1.098 9.1232 0.0381 13.235 0.5836 21.75 2.8855 13.054 3.5288 15 3.6777 15 1.1471zm-83.5-9.0117c0-0.78764-2.6044-2.7582-5.7876-4.379-6.9683-3.5481-6.8978-4.0844 0.28765-2.1889 2.9738 0.78449 5.6154 1.2179 5.8702 0.96317 0.69876-0.69876 0.23268-0.93849-7.8702-4.0481-9.3678-3.595-6.3675-4.4844 3.4833-1.0325 7.4544 2.6121 8.5167 2.566 8.5167-0.36975 0-4.3404-23.953-9.74-32.75-7.3825-3.1058 0.83232-2.8606 1.752 1.8213 6.8312 7.1052 7.7083 26.429 16.194 26.429 11.606zm22.1-3.82c0.29742-0.9625 0.96116-2.425 1.475-3.25 2.1155-3.3968 2.181-4.3371 0.39283-5.6446-2.7804-2.0331-7.5286-1.6503-10.157 0.81892-2.94 2.77-3.12 6.83-0.31 6.83 1.1111 0 2 0.66667 2 1.5 0 2.2334 5.9052 2.0099 6.6035-0.25zm32.206-20.945c6.98-5.8822 12.916-10.945 13.191-11.25 0.275-0.30534 2.6375-2.2728 5.25-4.3721 16.936-13.609-12.677-4.0179-35.75 11.579-6.2478 4.2234-9.9911 8.2904-6.5 7.0622 0.275-0.0967 1.3059-0.48945 2.2909-0.87268 1.2268-0.47731 1.6993-0.27189 1.5 0.65217-0.51006 2.3653 4.0357 2.1274 7.4382-0.38923 5.9245-4.382 6.3561-3.9787 1.009 0.9427-2.894 2.6636-5.2565 5.4054-5.25 6.093 0.031 3.2728 5.121 0.41486 16.821-9.4448zm-40.91 7.7782c1.0317-0.65322 1.2338-2.0945 0.76913-5.4847-0.83135-6.0654 0.73684-5.9414 1.9138 0.15138 0.96386 4.9894 4.6695 7.363 6.0163 3.8535 1.16-3.03-6.37-26.6-8.5-26.6-2.6794 0-3.6106 3.8105-3.9472 16.152-0.36291 13.305-0.0405 14.331 3.7499 11.931zm-294.5-187.69c9.4751-6.0255 14.142-18.582 14.008-37.684l-0.0973-13.795-3.1527-3.2528c-1.74-1.79-3.16-4.25-3.16-5.46 0-3.1344-2.7983-2.7716-4.2244 0.54761-1.6648 3.875-13.299 21.61-15.225 23.208-2.8466 2.3625-2.7176 0.39099 0.26764-4.0882 5.998-8.9999 13.416-24.764 13.923-29.589 0.6324-6.0169-0.3345-5.1817-5.4633 4.719-7.6909 14.847-22.525 38.999-24.7 40.216-2.8111 1.5732-1.7465-0.86504 4.7683-10.921 11.213-17.3 18.653-33.47 18.653-40.52 0-2.2592-2.291-0.18497-4.3959 3.9799-7.0596 13.969-7.4201 14.538-16.104 25.441-9.1598 11.501-12.367 13.571-5.8106 3.7509 6.51-9.7509 8.318-12.6 9.8-15.442 1.9485-3.7372 3.1503-5.7437 7.3095-12.204 3.47-5.39 5.34-12.3 3.33-12.3-0.62 0-1.13 0.39-1.13 0.87 0 1.7-9.76 15.71-14.721 21.13-2.7665 3.025-6.1727 6.85-7.5694 8.5-4.6191 5.4568-3.7561 1.9946 1.1372-4.5622 2.6425-3.5408 6.9647-9.5878 9.6049-13.438 2.6402-3.85 5.591-7.9 6.5574-9 5.0416-5.7391 5.4776-9.9012 0.77352-7.3837-1.7507 0.93697-1.9882 0.86178-1.4779-0.46797 0.76182-1.9853-0.97576-3.1662-2.6339-1.7901-0.68286 0.56672-4.8256 2.4511-9.2062 4.1875-24.906 9.8725-39.417 19.352-50.567 33.034-23.765 29.162 1.2769 53.817 37.094 36.52 3.0202-1.4585 5.6314-2.2314 5.8027-1.7176 4.8016 14.405 25.735 24.418 36.601 17.508zm38.6-32.9c0-4.3399-15.359-29.733-18.333-30.309-2.3466-0.45503-2.1462 3.6543 0.33262 6.8233 1.0755 1.375 1.9655 2.9133 1.9778 3.4184 0.0122 0.50512 2.1742 3.8801 4.8043 7.5s5.8168 8.2691 7.0816 10.332c2.3908 3.8988 4.1364 4.8425 4.1364 2.2361zm31.5-35.289c2.2-0.58043 8.1688-1.7912 13.264-2.6907 22.664-4.001 36.938-11.659 43.251-23.205l2.2955-4.1981-4.405-5.4612c-18.2-22.558-64.91-26.08-94.89-7.15-2.19 1.38-4.89 2.51-6 2.51s-2.02 0.61-2.02 1.35c0 0.73976-0.9 2.1595-2 3.155-3.2482 2.9396-2.7342 7.8075 0.75 7.1024 1.5125-0.30605 8.15-1.2721 14.75-2.1467 6.6-0.87463 18.734-2.685 26.965-4.023 13.823-2.247 22.49-3.0549 21.433-1.9977-0.70978 0.70978-34.885 7.3171-41.398 8.0038-10.842 1.1431-20.967 2.8292-22.885 3.8111-2.7619 1.4138-0.0599 2.8032 4.3851 2.2548 1.925-0.23751 8.675-0.65408 15-0.92571 15.525-0.66673 10.855 1.0081-7.4203 2.6616-28.514 2.5797-16.331 4.2435 31.171 4.257 4.5381 0.001 8.2506 0.31946 8.25 0.70704-0.002 1.5801-8.4592 2.066-27.946 1.6058-35.754-0.8444-34.934 1.7126 1.6954 5.2896 6.7375 0.65793 12.25 1.5818 12.25 2.0531 0 1.4345-27.083-0.59558-37.25-2.7922-4.4632-0.96425-3.3708 1.9745 1.6697 4.4918 12.656 6.3209 35.82 8.8433 49.08 5.3447zm-47.5-32.09c0-1.3467 5.1212-2.7272 19-5.1217 6.325-1.0913 13.712-2.4345 16.416-2.985 4.2669-0.86877 6.8329-0.71624 5.5008 0.32698-0.69389 0.54342-19.794 4.5361-29.917 6.2537-5.225 0.88659-9.8375 1.8204-10.25 2.075-0.4125 0.25466-0.75 0.008-0.75-0.54899zm-85.579 24.157c3.5502-1.8122 2.3816-2.6931-4.9214-3.7099-2.75-0.3829-5.9-0.90598-7-1.1624-1.962-0.45738-8.5 4.4455-8.5 6.3741 0 1.4089 17.197 0.14429 20.421-1.5018zm16.991-8.8674c2.017-0.78 1.053-2.4-1.424-2.4-2.28 0-6.988-2.04-6.988-3.03 0-0.38817 2.4875-0.0134 5.5277 0.83279 9.5035 2.6452 8.7572 0.073-1.2488-4.3041-4.828-2.11-9.229-4.27-9.779-4.79-2.3821-2.2775 12.204 2.56 16.801 5.5722 2.715 1.78 9.699 2.39 9.699 0.85 0-0.77-19.933-10.33-30.25-14.51-2.062-0.83-3.75-1.99-3.75-2.57 0-1.5927 1.2912-1.3081 8.1802 1.8029 19.631 8.865 27.714 12.144 29.887 12.124l2.433-0.02-2.5-1.95c-1.375-1.06-11.709-6.53-22.964-12.15-21.206-10.587-25.5-14.074-8.367-6.8 12.063 5.13 36.709 17.73 37.164 19.01 0.576 1.61 6.167 1.1 6.167-0.57 0-0.825-0.36397-1.5-0.80883-1.5-0.44485 0-3.4824-1.6287-6.75-3.6193-6.633-4.04-10.906-6.47-20.441-11.63-13.386-7.245-20.459-11.75-18.446-11.75 1.1125 0 3.5803 0.82149 5.4841 1.8255 13.88 7.3203 20.747 11.218 29.578 16.791 10.632 6.7089 11.384 7.0574 11.384 5.2775 0-1.9121-10.948-9.6705-27.482-19.475-8.6964-5.1569-9.6279-5.96-7.2344-6.237 2.6637-0.30826 6.0744 1.4973 26.442 13.997 9.2376 5.6694 10.264 3.7938 4.7342-8.6502-2.931-6.596-7.805-11.094-22.96-21.193-8.882-5.919-32.347-13.785-35.432-11.878-0.37689 0.23293-3.3588 0.52022-6.6264 0.63842-6.8629 0.24825-13.733 2.0364-21.198 5.5171l-5.2566 2.4511 0.58922 4.2176c1.2021 8.6046 3.8124 18.287 5.5346 20.53 0.97655 1.2719 2.2951 3.9719 2.93 6 0.63498 2.0281 3.1127 5.7125 5.5061 8.1875s5.8608 6.075 7.7054 8c10.247 10.693 34.437 19.126 44.16 15.395zm52.466-11.131c3.5752-5.454 1.327-9.264-5.4664-9.264-5.4306 0-10.565 5.2039-6.2479 6.3328 1.8202 0.476 1.9614 0.81062 0.88813 2.1039-2.1525 2.5936-0.63374 4.0634 4.1989 4.0634 3.9761 0 4.7556-0.3806 6.6273-3.236zm-5.4-25.024c-1.45-6.217-8.75-28.561-11.18-34.246-0.82388-1.925-2.3154-5.3-3.3144-7.5-6.5506-14.425-7.472-19.336-2.4488-13.05 2.9342 3.6719 12.941 31.439 17.97 49.867 1.7425 6.3843 4.2337 7.4729 3.6579 1.5984-0.87721-8.9496-7.6403-31.862-13.078-44.307-2.2729-5.2018-2.057-6.71 0.71078-4.9642 1.9496 1.2298 2.4493 2.5251 8.7209 22.606 3.8908 12.458 7.6169 19.451 7.4596 14-0.0427-1.4806-3.83-17.791-4.5662-19.664-0.51433-1.309-0.3954-1.6936 0.3762-1.2167 0.62055 0.38352 1.901 4.2935 2.8456 8.6888 1.8051 8.4 3.6387 9.9805 4.1772 3.6006 1.59-18.88-18.8-51.817-36.31-58.635-3.3-1.285-6.428-2.716-6.95-3.1799-3.233-2.8729-6.219-0.9037-7.438 4.9059-0.664 3.162-2.277 9.35-3.584 13.75-2.766 9.307-4.345 18.938-4.845 29.533l-0.35505 7.5329 6.9929 4.4671c3.8461 2.4569 11.933 9.2937 17.971 15.193 6.0377 5.8992 11.354 10.493 11.814 10.209 0.45979-0.28417 1.1183 0.60828 1.4634 1.9832 0.91 3.642 3.43 5.532 3.43 2.578 0-3.138-5.53-21.453-10.27-33.996-6.606-17.501-8.73-23.446-8.73-24.446 0-1.9327 1.6965 1.0232 3.4124 5.9457 0.95862 2.75 2.1497 5.9 2.6468 7 1.3056 2.8888 10.713 27.846 13.403 35.559 4.6402 13.302 8.6379 17.413 6.0162 6.1878zm-15.83-10.246c-4.708-12.086-8.911-25.818-6.734-22 1.9662 3.4488 8.153 21.281 7.7522 22.345-0.28 0.749-0.64 0.628-1.02-0.345zm36.85 7.585c3.3-2.7901 10.525-9.1256 16.055-14.079 19.546-17.505 31.303-26.981 32.273-26.011 0.36758 0.36758-0.10213 1.2317-1.0438 1.9203-0.94167 0.68857-5.441 4.6284-9.9984 8.7551-4.56 4.127-11.44 10.116-15.29 13.308-8.66 7.178-17.5 15.669-17.5 16.802 0 1.362 7.1664-3.0489 13.178-8.1109 8.1159-6.8343 27.714-21.621 29.116-21.967 1.2828-0.31709 0.25769 0.54934-16.241 13.727-11.791 9.4176-14.751 12.339-13.069 12.9 1.107 0.36902 12.082-6.5169 19.266-12.088 5.063-3.9263 4.6606-2.2541-0.78455 3.26-7.1837 7.2747-2.5975 6.1117 7.5703-1.9197 11.126-8.7885 12.28-9.0258 3.3283-0.68449-7.4183 6.9123-8.0757 9.3411-1.3851 5.1175 4.6952-2.9639 7.7118-2.9414 4.2395 0.03172-2.87 2.452-2.81 3.454 0.2 3.454 5.2 0 18.28-16.642 25.87-32.917 2.2-4.721 4.28-8.808 4.62-9.083 0.91587-0.73904 3.02-9.3982 2.4278-9.9912-7.078-7.0876-53.58 4.7853-65.999 16.851-2.1141 2.0539-5.888 5.3544-8.3864 7.3344-5.4387 4.3102-9.6788 10.163-10.562 14.581-1.1629 5.8143 2.9768 3.2969 18.961-11.53 4.3206-4.008 8.8206-7.7448 10-8.3039 1.1794-0.55917-2.5657 3.388-8.3224 8.7714-20.547 19.215-23.493 22.162-22.825 22.83 1.1075 1.1075 7.4663-3.9105 34.698-27.382 2.9734-2.5628 5.8984-4.8055 6.5-4.9837 1.2942-0.38337-4.0883 4.8097-27.22 26.263-9.45 8.766-17.18 16.041-17.18 16.168 0 0.12632-0.30147 1.0153-0.66994 1.9755-0.89139 2.3229 0.56606 1.4314 8.1699-4.9977z"/>
</svg>
