<?xml version="1.0" encoding="UTF-8" standalone="no"?>
<!-- Created with Inkscape (http://www.inkscape.org/) -->
<svg xmlns:rdf="http://www.w3.org/1999/02/22-rdf-syntax-ns#" xmlns="http://www.w3.org/2000/svg" xmlns:cc="http://web.resource.org/cc/" xmlns:dc="http://purl.org/dc/elements/1.1/" xmlns:svg="http://www.w3.org/2000/svg" xmlns:inkscape="http://www.inkscape.org/namespaces/inkscape" xmlns:sodipodi="http://sodipodi.sourceforge.net/DTD/sodipodi-0.dtd" xmlns:ns1="http://sozi.baierouge.fr" xmlns:xlink="http://www.w3.org/1999/xlink" id="svg2385" viewBox="0 0 461.85 412.7" version="1.0" inkscape:version="0.91 r13725">
  <g id="layer1" transform="translate(-163.06 -372.4)">
    <path id="path2395" style="fill-rule:evenodd;fill:#000000" d="m368.9 527.34c-9.44-62.95-61.54-87.74-82.47-96.95-18.6-8.17-22.66-23.29-22.66-23.29s-5.04 17-5.04 25.18c0 8.19-1.89 46.59 13.22 78.69 15.11 32.11 61.07 43.44 74.29 59.18s8.18 43.44 8.18 43.44-0.63-22.04-15.74-35.26-52.25-13.22-73.02-50.99c-20.78-37.77-22.54-108.23-4.41-134.72 8.89-12.98 0.69 6.86 14.48 19.52 12.79 11.74 51.52 23.4 74.28 46.58 25.96 26.44 19.52 69.88 18.89 68.62z"/>
    <path id="path3199" style="fill-rule:evenodd;fill:#000000" d="m339.99 553.06c5.43-24.98 5.27-36.33-9.84-52.07-15.41-16.06-30.43-10.7-47.54-39.12 8.9 34.53 30.97 31.92 43.28 50.92 12.02 18.56 12.87 39.59 14.1 40.27z"/>
    <path id="path3201" style="fill-rule:evenodd;fill:#000000" d="m388.32 524.74c24.35-7.79 34.1-13.6 40.18-34.56 6.2-21.37-5.95-31.7 10.11-60.73-25.46 24.98-12.16 42.78-22.46 62.94-10.06 19.69-27.85 30.94-27.83 32.35z"/>
    <path id="path3203" style="fill-rule:evenodd;fill:#000000" d="m438.33 550.91c18.91 17.19 28.82 22.72 50.01 17.51 21.61-5.32 24.48-21.01 57.65-21.61-34.36-9.56-43.13 10.86-65.74 12.02-22.09 1.13-40.72-8.65-41.92-7.92z"/>
    <path id="path3205" style="fill-rule:evenodd;fill:#000000" d="m441.81 611.35c-5.43 24.98-5.27 36.33 9.84 52.07 15.41 16.06 30.43 10.7 47.54 39.12-8.9-34.54-30.97-31.92-43.28-50.92-12.02-18.56-12.87-39.59-14.1-40.27z"/>
    <path id="path3207" style="fill-rule:evenodd;fill:#000000" d="m397.25 640.3c-24.35 7.78-34.09 13.6-40.17 34.55-6.2 21.38 5.95 31.71-10.11 60.74 25.46-24.98 12.15-42.79 22.45-62.94 10.07-19.7 27.86-30.94 27.83-32.35z"/>
    <path id="path3209" style="fill-rule:evenodd;fill:#000000" d="m351.66 614.13c-18.92-17.19-28.83-22.73-50.01-17.51-21.62 5.31-24.49 21-57.66 21.61 34.36 9.56 43.13-10.87 65.74-12.02 22.09-1.13 40.72 8.65 41.93 7.92z"/>
    <path id="path2391" style="fill-rule:evenodd;fill:#000000" d="m427.47 533.1c49.8-39.65 45.23-97.16 42.73-119.89-2.22-20.2 8.84-31.27 8.84-31.27s-17.24 4.13-24.33 8.23c-7.08 4.09-41.28 21.65-61.53 50.79s-7.09 74.6-14.11 93.92-33.52 28.8-33.52 28.8 18.76-11.56 22.66-31.25c3.89-19.7-14.68-51.86 7.64-88.74 22.33-36.88 82.47-73.63 114.47-71.17 15.69 1.2-5.59 4.02-9.66 22.29-3.78 16.95 5.5 56.32-3.2 87.63-9.92 35.7-50.76 51.84-49.99 50.66z"/>
    <path id="path2393" style="fill-rule:evenodd;fill:#000000" d="m452.6 584.82c59.24 23.3 106.76-9.42 125.19-22.94 16.38-12.02 31.5-7.98 31.5-7.98s-12.2-12.86-19.29-16.96c-7.09-4.09-39.4-24.92-74.76-27.89-35.35-2.97-68.14 31.16-88.38 34.74s-41.71-14.63-41.71-14.63 19.39 10.47 38.4 4c19-6.48 37.57-38.64 80.67-37.75 43.1 0.9 105 34.6 118.87 63.55 6.8 14.19-6.29-2.83-24.14 2.78-16.57 5.2-46.02 32.92-77.49 41.04-35.87 9.26-70.27-18.04-68.86-17.96z"/>
    <path id="path2396" style="fill-rule:evenodd;fill:#000000" d="m416.88 630.92c9.44 62.95 61.53 87.74 82.46 96.94 18.61 8.18 22.67 23.3 22.67 23.3s5.03-17 5.03-25.18c0-8.19 1.89-46.59-13.22-78.7-15.11-32.1-61.06-43.43-74.28-59.17s-8.19-43.44-8.19-43.44 0.63 22.04 15.74 35.26 52.25 13.22 73.03 50.99c20.77 37.77 22.54 108.23 4.4 134.71-8.89 12.99-0.69-6.85-14.48-19.51-12.79-11.74-51.52-23.4-74.28-46.58-25.96-26.44-19.51-69.88-18.88-68.62z"/>
    <path id="path2398" style="fill-rule:evenodd;fill:#000000" d="m359.84 624.4c-49.8 39.65-45.22 97.17-42.72 119.89 2.21 20.2-8.84 31.27-8.84 31.27s17.23-4.13 24.32-8.22c7.09-4.1 41.29-21.66 61.54-50.8s7.08-74.6 14.1-93.92c7.02-19.31 33.53-28.8 33.53-28.8s-18.77 11.56-22.66 31.25c-3.9 19.7 14.67 51.86-7.65 88.74s-82.46 73.64-114.46 71.17c-15.7-1.2 5.59-4.02 9.66-22.29 3.77-16.95-5.5-56.32 3.2-87.63 9.92-35.69 50.76-51.83 49.98-50.66z"/>
    <path id="path2400" style="fill-rule:evenodd;fill:#000000" d="m335.39 573.35c-59.24-23.3-106.76 9.42-125.2 22.95-16.38 12.02-31.5 7.98-31.5 7.98s12.2 12.86 19.29 16.95 39.4 24.93 74.76 27.89c35.36 2.97 68.15-31.16 88.39-34.74s41.71 14.63 41.71 14.63-19.4-10.47-38.4-4c-19.01 6.48-37.58 38.64-80.68 37.75-43.09-0.9-105-34.6-118.87-63.54-6.8-14.2 6.29 2.83 24.14-2.78 16.57-5.21 46.03-32.92 77.49-41.04 35.87-9.26 70.27 18.03 68.87 17.95z"/>
  </g>
  <metadata>
    <rdf:RDF>
      <cc:Work>
        <dc:format>image/svg+xml</dc:format>
        <dc:type rdf:resource="http://purl.org/dc/dcmitype/StillImage"/>
        <cc:license rdf:resource="http://creativecommons.org/licenses/publicdomain/"/>
        <dc:publisher>
          <cc:Agent rdf:about="http://openclipart.org/">
            <dc:title>Openclipart</dc:title>
          </cc:Agent>
        </dc:publisher>
        <dc:title>Decorative flower</dc:title>
        <dc:date>2008-06-28T18:14:32</dc:date>
        <dc:description/>
        <dc:source>https://openclipart.org/detail/17495/decorative-flower-by-lemmling</dc:source>
        <dc:creator>
          <cc:Agent>
            <dc:title>lemmling</dc:title>
          </cc:Agent>
        </dc:creator>
        <dc:subject>
          <rdf:Bag>
            <rdf:li>abstract</rdf:li>
            <rdf:li>bloom</rdf:li>
            <rdf:li>blossom</rdf:li>
            <rdf:li>decorative</rdf:li>
            <rdf:li>flower</rdf:li>
            <rdf:li>how i did it</rdf:li>
          </rdf:Bag>
        </dc:subject>
      </cc:Work>
      <cc:License rdf:about="http://creativecommons.org/licenses/publicdomain/">
        <cc:permits rdf:resource="http://creativecommons.org/ns#Reproduction"/>
        <cc:permits rdf:resource="http://creativecommons.org/ns#Distribution"/>
        <cc:permits rdf:resource="http://creativecommons.org/ns#DerivativeWorks"/>
      </cc:License>
    </rdf:RDF>
  </metadata>
</svg>
