<?xml version="1.0" standalone="no"?>
<!DOCTYPE svg PUBLIC "-//W3C//DTD SVG 1.1//EN" "http://www.w3.org/Graphics/SVG/1.1/DTD/svg11.dtd">
<svg width="101mm" height="120mm" viewBox="0 1 101 120" xmlns="http://www.w3.org/2000/svg" version="1.1">
<title>OpenSCAD Model</title>
<path d="
M 55.0784,119.977 L 59.0972,119.719 L 60.3418,119.583 L 61.7958,119.427 L 63.2258,119.275 L 64.3904,119.152
 L 68.4883,118.551 L 73.3076,117.509 L 77.789,116.308 L 79.1652,115.837 L 80.4938,115.246 L 81.5858,114.592
 L 82.566,113.78 L 83.0675,113.219 L 83.4821,112.593 L 83.8018,111.912 L 84.0262,111.175 L 84.1456,110.414
 L 84.1573,109.644 L 83.9935,108.307 L 83.6529,107.005 L 83.5455,106.692 L 82.7189,104.702 L 81.5101,102.211
 L 80.3305,99.8272 L 79.7031,98.5731 L 77.6697,94.5294 L 76.7407,92.7495 L 75.7356,90.2749 L 74.7098,87.8825
 L 73.9479,86.3494 L 73.5201,85.4305 L 73.0633,84.1334 L 72.6893,82.8548 L 72.6156,82.4855 L 72.5884,82.1096
 L 72.6115,81.8101 L 72.6856,81.5187 L 72.735,81.4067 L 72.801,81.3038 L 72.8829,81.2124 L 72.9778,81.1352
 L 73.1461,81.0375 L 73.3272,80.9666 L 73.5172,80.9244 L 74.3972,80.8619 L 75.103,80.8232 L 75.3435,80.7772
 L 75.5733,80.694 L 75.801,80.5703 L 76.0093,80.4156 L 76.6153,79.8537 L 77.0011,79.441 L 77.3271,79.0343
 L 77.567,78.6789 L 78.4002,77.4171 L 78.5852,76.9706 L 78.7237,76.5074 L 78.9212,75.2694 L 78.9714,73.7374
 L 78.9749,72.8821 L 79.0095,72.1416 L 79.0625,71.5306 L 79.0669,71.5059 L 79.0751,71.4822 L 79.0868,71.4601
 L 79.1015,71.4399 L 79.1192,71.4224 L 79.1394,71.4076 L 79.1685,71.3929 L 79.1997,71.3835 L 79.2322,71.3795
 L 79.2649,71.3813 L 79.5417,71.4332 L 79.8758,71.5282 L 80.2352,71.6636 L 80.7108,71.8295 L 81.2027,71.9372
 L 81.7561,71.999 L 82.3132,72.0112 L 83.6858,71.8869 L 85.4802,71.5458 L 87.4091,71.0347 L 88.0962,70.7829
 L 88.7546,70.4623 L 89.3105,70.1103 L 89.82,69.6941 L 90.8429,68.5864 L 91.6944,67.3125 L 91.9798,66.7242
 L 92.1917,66.1057 L 92.3209,65.4831 L 92.3706,64.849 L 92.3486,64.135 L 92.2626,63.4261 L 91.8835,61.8847
 L 91.6461,61.3193 L 91.3212,60.7992 L 90.9271,60.353 L 90.4637,59.9798 L 89.8351,59.5955 L 89.0295,59.1978
 L 88.8919,59.1137 L 88.7856,59.0297 L 88.6929,58.9304 L 88.6488,58.8674 L 88.6125,58.7994 L 88.5848,58.7274
 L 88.5686,58.6568 L 88.5626,58.5844 L 88.5677,58.5123 L 88.5836,58.4448 L 88.6103,58.3809 L 88.6472,58.3226
 L 88.6936,58.2712 L 88.7777,58.2031 L 88.8703,58.1471 L 88.97,58.1048 L 89.2222,58.0315 L 89.4798,57.9831
 L 90.4348,57.8689 L 91.6866,57.6571 L 92.9639,57.2726 L 94.0318,56.8259 L 94.0875,56.7942 L 94.137,56.754
 L 94.1799,56.7068 L 94.2152,56.6536 L 94.2413,56.5954 L 94.2584,56.5337 L 94.2692,56.4383 L 94.2779,56.4074
 L 94.2918,56.3783 L 94.3101,56.352 L 94.6965,55.8888 L 95.167,55.3513 L 95.7241,54.7487 L 97.0925,53.0771
 L 98.1526,51.291 L 98.8443,49.5067 L 99.0297,48.6831 L 99.1108,47.8425 L 99.0979,46.6882 L 98.9819,45.5396
 L 98.7677,44.493 L 98.4368,43.4768 L 98.032,42.6045 L 97.5206,41.7904 L 97.159,41.3459 L 96.7473,40.9469
 L 96.2917,40.5992 L 95.9399,40.3887 L 95.5676,40.217 L 95.2196,40.1084 L 94.859,40.0537 L 94.5232,40.0572
 L 94.1929,40.1169 L 93.8804,40.2312 L 93.5922,40.3978 L 93.4255,40.5023 L 93.2489,40.5892 L 93.1843,40.6113
 L 93.1172,40.624 L 93.0487,40.6266 L 92.9807,40.619 L 92.9459,40.6098 L 92.9129,40.5956 L 92.8819,40.5766
 L 92.8546,40.5532 L 92.8309,40.526 L 92.8113,40.4956 L 92.7758,40.4149 L 92.7543,40.3293 L 92.747,40.2413
 L 92.7496,40.2064 L 92.7581,40.1726 L 92.772,40.1403 L 92.7906,40.1106 L 93.115,39.6881 L 93.5204,39.1949
 L 94.0009,38.6494 L 94.6001,37.9105 L 95.2301,36.9771 L 95.8494,35.9199 L 96.417,34.8028 L 96.9157,33.7493
 L 97.4537,32.6187 L 97.9519,31.5761 L 98.3139,30.8244 L 98.5951,30.225 L 98.8325,29.6795 L 99.018,29.2187
 L 99.8491,27.2074 L 99.932,26.9297 L 99.9831,26.6443 L 100.013,25.9285 L 99.9481,24.721 L 99.768,23.0862
 L 99.6517,22.5008 L 99.4792,21.9296 L 99.2889,21.4893 L 99.0426,21.0779 L 98.7539,20.7207 L 98.4149,20.4106
 L 98.1779,20.2466 L 97.9226,20.1129 L 97.6528,20.0115 L 97.2127,19.914 L 96.7622,19.8889 L 96.2382,19.9366
 L 95.725,20.0529 L 94.5255,20.5075 L 93.6733,20.953 L 92.8659,21.4747 L 90.8318,23.0498 L 87.9694,25.5691
 L 83.2946,29.9312 L 80.6844,32.3581 L 77.6048,35.1525 L 74.6304,37.8135 L 73.7626,38.5 L 73.1869,38.9451
 L 69.8855,41.499 L 69.3375,41.9145 L 68.5652,42.4538 L 66.748,43.6834 L 65.0816,44.8002 L 64.2501,45.3274
 L 63.513,45.742 L 62.4046,46.3065 L 61.3914,46.8877 L 60.9518,47.0832 L 60.6526,47.1642 L 60.4181,47.1906
 L 60.2243,47.1822 L 60.0561,47.148 L 59.8951,47.0869 L 59.7445,46.9994 L 59.6026,46.8828 L 59.4629,46.7272
 L 59.3211,46.5146 L 59.1435,46.132 L 59.0988,46.0051 L 59.1445,45.5359 L 59.2571,45.0779 L 59.3229,44.9139
 L 59.4103,44.7602 L 59.5177,44.6196 L 59.6429,44.4947 L 60.0134,44.2096 L 60.4155,43.9705 L 60.8334,43.7113
 L 61.4701,43.2244 L 62.1781,42.6373 L 62.8635,42.0213 L 63.7646,41.1107 L 64.4361,40.2741 L 65.0561,39.2747
 L 65.8108,37.8168 L 66.6104,36.1234 L 66.9583,35.1603 L 67.0656,34.6856 L 67.1299,34.203 L 67.2351,32.6067
 L 67.2456,30.5187 L 67.1008,28.2214 L 66.8607,26.1503 L 66.7964,25.8333 L 66.6942,25.5263 L 66.5551,25.2342
 L 66.4256,24.9802 L 66.2239,24.5427 L 65.9994,24.0347 L 65.7808,23.519 L 65.4918,22.9028 L 65.0311,22.0621
 L 64.4972,21.1606 L 63.9629,20.3295 L 63.1327,19.1761 L 62.8115,18.7975 L 62.4569,18.4503 L 61.589,17.7882
 L 60.0005,16.7956 L 57.7754,15.393 L 57.5976,15.2539 L 57.4443,15.088 L 57.3197,14.8997 L 57.2268,14.6937
 L 57.2107,14.6339 L 57.204,14.5719 L 57.2073,14.5097 L 57.2205,14.4491 L 57.243,14.3911 L 57.2747,14.3373
 L 57.3139,14.2893 L 57.3605,14.2482 L 57.4131,14.2148 L 57.4702,14.1902 L 58.9377,13.8204 L 60.0341,13.5699
 L 61.0946,13.1953 L 62.0423,12.7192 L 62.9158,12.1181 L 63.2749,11.7864 L 63.5807,11.4049 L 63.8264,10.9821
 L 63.8698,10.8684 L 63.8929,10.749 L 63.895,10.6273 L 63.8761,10.507 L 63.8364,10.392 L 63.7775,10.2855
 L 63.7012,10.1907 L 63.6095,10.1106 L 63.4676,10.0183 L 63.3166,9.94196 L 62.7072,9.68751 L 61.9755,9.41351
 L 61.1977,9.15351 L 59.9648,8.7909 L 58.896,8.53629 L 57.7908,8.34553 L 56.4399,8.17938 L 55.8331,8.06645
 L 55.6991,8.01938 L 55.5739,7.95215 L 55.4607,7.86661 L 55.3939,7.79907 L 55.3371,7.72277 L 55.2918,7.63938
 L 55.2584,7.55031 L 55.2073,7.31724 L 55.1902,7.07939 L 55.1568,6.54417 L 55.0573,6.01695 L 54.6484,4.77174
 L 54.0793,3.60806 L 53.7938,3.18391 L 53.4524,2.80315 L 53.1004,2.48331 L 52.7538,2.21331 L 52.4512,2.01486
 L 51.2492,1.59132 L 50.8958,1.43563 L 50.5251,1.32748 L 50.1432,1.26871 L 49.4294,1.24441 L 48.7172,1.29594
 L 47.9842,1.42702 L 47.2687,1.63301 L 46.6553,1.89486 L 46.0859,2.24162 L 45.7713,2.50792 L 45.3774,2.92884
 L 44.9756,3.41606 L 44.6275,3.90206 L 44.2247,4.57528 L 44.0965,4.84635 L 43.9964,5.12881 L 43.9249,5.42203
 L 43.8832,5.7208 L 43.8476,6.5174 L 43.8262,7.11493 L 43.7604,7.62354 L 43.6618,8.01322 L 43.6404,8.06569
 L 43.6112,8.11461 L 43.575,8.1583 L 43.5326,8.19614 L 43.4313,8.2603 L 43.3206,8.30599 L 42.8103,8.45445
 L 42.1907,8.6046 L 41.5161,8.73752 L 40.8138,8.87337 L 40.1108,9.03336 L 39.4983,9.19336 L 37.631,9.86381
 L 37.1894,10.0512 L 36.7159,10.2623 L 36.0668,10.585 L 35.8936,10.6978 L 35.741,10.837 L 35.6725,10.9239
 L 35.6193,11.021 L 35.5827,11.1255 L 35.5431,11.3295 L 35.5299,11.5369 L 35.5391,11.687 L 35.5673,11.835
 L 35.6136,11.9784 L 35.6744,12.1027 L 35.7544,12.2156 L 35.8513,12.3144 L 36.0968,12.5044 L 36.3617,12.6662
 L 37.537,13.2756 L 38.4506,13.697 L 39.3774,14.0528 L 40.2378,14.317 L 40.9429,14.455 L 41.4889,14.5382
 L 41.9715,14.6437 L 42.3575,14.7565 L 42.3869,14.7684 L 42.4143,14.7842 L 42.4392,14.8037 L 42.4612,14.8267
 L 42.4796,14.8523 L 42.4938,14.8791 L 42.5046,14.9076 L 42.5116,14.9371 L 42.5129,14.9559 L 42.5113,14.9747
 L 42.5063,14.9927 L 42.4984,15.0096 L 42.1012,15.4931 L 41.7381,15.8111 L 41.2544,16.1751 L 40.6683,16.556
 L 37.9528,18.5054 L 36.9239,19.4763 L 36.0197,20.5644 L 35.2341,21.7782 L 34.5956,23.0756 L 33.4338,26.4174
 L 33.2858,26.9852 L 33.1587,27.5448 L 33.0649,28.0286 L 33.0366,28.3078 L 33.0056,30.1418 L 33.0303,31.4213
 L 33.1139,32.4359 L 33.2693,33.3884 L 33.3881,33.9794 L 33.4981,34.5682 L 33.587,35.081 L 33.6295,35.3888
 L 33.749,36.0002 L 33.9685,36.5834 L 34.9816,38.5371 L 36.1708,40.474 L 36.6659,41.1458 L 37.2213,41.7689
 L 37.733,42.3016 L 38.166,42.775 L 39.0209,43.6093 L 39.516,43.8868 L 40.1017,44.1876 L 41.0897,44.6977
 L 41.2111,44.7734 L 41.3212,44.8643 L 41.4187,44.9688 L 41.4683,45.0411 L 41.505,45.1207 L 41.528,45.2051
 L 41.5364,45.2925 L 41.4998,45.8988 L 41.3384,46.652 L 41.2303,46.9248 L 41.0764,47.1748 L 40.9711,47.2954
 L 40.8481,47.3983 L 40.7108,47.4806 L 40.5612,47.5411 L 40.404,47.578 L 40.2432,47.5903 L 40.0109,47.5735
 L 39.7832,47.5234 L 39.5654,47.4409 L 37.5479,46.4771 L 35.6008,45.4757 L 33.5915,44.2739 L 32.9835,43.9064
 L 32.2747,43.4585 L 31.4746,42.9273 L 30.6769,42.3961 L 29.9757,41.9482 L 29.3709,41.5756 L 28.4962,41.0399
 L 27.77,40.489 L 26.9425,39.8352 L 26.0801,39.1511 L 25.2458,38.5057 L 24.5307,37.9665 L 24.1505,37.7043
 L 21.3017,35.5463 L 19.6028,34.0517 L 17.4905,32.2449 L 14.7182,29.9464 L 13.6698,29.0809 L 12.4144,28.0358
 L 11.1587,26.9839 L 10.1089,26.0969 L 7.33142,23.9296 L 6.20574,23.1998 L 5.01792,22.5765 L 4.10239,22.2192
 L 3.1481,21.9836 L 2.79272,21.9496 L 2.43626,21.9745 L 2.08888,22.057 L 1.75935,22.1953 L 1.42366,22.4047
 L 1.12475,22.6641 L 0.86998,22.9667 L 0.665522,23.3055 L 0.297835,24.2187 L 0.0846079,25.1799 L 0.0130706,26.2976
 L 0.1023,27.414 L 0.35045,28.514 L 0.750752,29.5683 L 0.873673,29.8487 L 1.07121,30.3315 L 1.29428,30.891
 L 1.51443,31.4587 L 2.54595,33.7734 L 4.08455,36.5919 L 5.71083,39.2307 L 6.97296,40.8509 L 7.38742,41.3275
 L 7.71403,41.7664 L 7.94187,42.1335 L 7.95126,42.1536 L 7.95756,42.1749 L 7.96064,42.1969 L 7.96018,42.219
 L 7.95633,42.2409 L 7.94926,42.2621 L 7.9391,42.2818 L 7.92049,42.3067 L 7.89787,42.3278 L 7.87203,42.345
 L 7.84357,42.3575 L 7.81341,42.3647 L 7.44511,42.4038 L 6.98096,42.4101 L 6.45743,42.3739 L 5.64775,42.3198
 L 5.41083,42.3316 L 5.17899,42.3815 L 4.96407,42.4668 L 4.767,42.5875 L 4.17962,43.0601 L 3.42609,43.8194
 L 3.14733,44.1804 L 2.9101,44.5702 L 2.47134,45.3053 L 2.20981,45.9722 L 2.05273,46.7072 L 2.01796,47.4603
 L 2.02442,47.6028 L 2.09535,48.8558 L 2.29857,50.2975 L 2.63841,51.7035 L 3.16195,53.0982 L 3.88809,54.4204
 L 4.87377,55.7588 L 6.18482,57.2068 L 7.60572,58.5749 L 8.07602,58.9524 L 8.58817,59.2707 L 9.10062,59.5041
 L 9.64046,59.6649 L 11.2466,59.9463 L 11.9953,60.0486 L 12.6453,60.1535 L 13.1936,60.254 L 13.2218,60.2615
 L 13.2484,60.273 L 13.2729,60.2884 L 13.2949,60.3073 L 13.3233,60.341 L 13.3459,60.3787 L 13.3618,60.4198
 L 13.371,60.4629 L 13.3727,60.5069 L 13.3672,60.5507 L 13.3352,60.66 L 13.2866,60.7627 L 13.2223,60.8569
 L 13.133,60.9544 L 13.0319,61.0396 L 12.9209,61.1115 L 12.8113,61.161 L 12.695,61.1913 L 12.5753,61.2015
 L 12.4004,61.2153 L 12.2301,61.2566 L 12.0684,61.3244 L 11.9193,61.4167 L 11.5161,61.7464 L 11.1484,62.1153
 L 10.7854,62.5615 L 10.468,63.0408 L 10.2354,63.5014 L 10.0674,63.9893 L 9.91784,64.7164 L 9.85753,65.456
 L 9.88707,66.1979 L 10.0928,67.4165 L 10.4583,68.5971 L 10.9704,69.701 L 11.6266,70.726 L 12.0855,71.2663
 L 12.6127,71.7399 L 13.1989,72.1387 L 14.2572,72.6642 L 15.3782,73.0384 L 18.3213,73.5861 L 21.1489,73.7268
 L 21.5675,73.6908 L 21.9769,73.5961 L 22.3689,73.4448 L 22.7356,73.2401 L 22.9956,73.0993 L 23.2756,73.0041
 L 23.3207,72.9965 L 23.3666,72.9962 L 23.4119,73.0031 L 23.4555,73.0171 L 23.4966,73.0378 L 23.5336,73.0645
 L 23.5661,73.097 L 23.593,73.1341 L 23.6564,73.2553 L 23.7032,73.3839 L 23.7322,73.5174 L 23.7435,73.6534
 L 23.7236,74.8573 L 23.7595,76.2637 L 23.8547,76.8903 L 24.0129,77.504 L 24.2387,78.1188 L 24.5232,78.7088
 L 25.337,80.0117 L 26.2681,81.1166 L 26.7248,81.5186 L 27.2317,81.855 L 27.7082,82.0772 L 28.2143,82.2189
 L 28.5428,82.2607 L 28.8739,82.2596 L 29.2022,82.2158 L 29.3909,82.1867 L 29.5817,82.1747 L 29.7434,82.1838
 L 29.9025,82.2161 L 30.0545,82.271 L 30.1969,82.3476 L 30.352,82.4567 L 30.4963,82.5795 L 30.6484,82.7478
 L 30.7697,82.9393 L 30.8235,83.0656 L 30.8575,83.1985 L 30.8709,83.3351 L 27.5579,91.2178 L 22.1204,104.156
 L 21.0681,106.66 L 20.5771,108.081 L 20.3146,109.562 L 20.2805,110.515 L 20.3621,111.466 L 20.5589,112.399
 L 20.8538,113.248 L 21.2575,114.051 L 21.763,114.794 L 22.3466,115.438 L 23.0172,115.992 L 23.7607,116.442
 L 24.8179,116.915 L 25.9179,117.277 L 29.554,118.17 L 33.8092,118.98 L 38.1765,119.582 L 42.4615,119.892
 L 48.7922,120.016 z
M 48.8989,9.48489 L 48.3754,9.32459 L 47.8863,9.07798 L 47.4462,8.75229 L 47.0673,8.35707 L 46.7607,7.90353
 L 46.5351,7.40431 L 46.3971,6.87447 L 46.3508,6.32894 L 46.3971,5.78326 L 46.5351,5.25342 L 46.7607,4.75451
 L 47.0673,4.30082 L 47.4462,3.90544 L 47.8863,3.57991 L 48.3754,3.33345 L 48.8989,3.17315 L 49.442,3.10345
 L 49.9891,3.12684 L 50.5244,3.24207 L 51.0324,3.44622 L 51.4989,3.73329 L 51.9098,4.09513 L 52.2538,4.52112
 L 52.5209,4.99927 L 52.7033,5.51542 L 52.7958,6.0551 L 52.8073,6.32894 L 52.7958,6.60278 L 52.7033,7.14231
 L 52.5209,7.65877 L 52.2538,8.13676 L 51.9098,8.56275 L 51.4989,8.92444 L 51.0324,9.21167 L 50.5244,9.41582
 L 49.9891,9.5312 L 49.442,9.55443 z
M 66.4707,53.4531 L 66.407,53.4354 L 66.3468,53.4076 L 66.2919,53.3707 L 66.2437,53.3255 L 66.2033,53.2731
 L 66.1717,53.215 L 66.1431,53.1359 L 66.127,53.0538 L 66.1227,52.9699 L 66.1311,52.8864 L 66.1516,52.8052
 L 66.1837,52.7276 L 66.4493,52.2792 L 66.7714,51.8695 L 67.9782,50.6093 L 70.4694,48.1885 L 72.7178,46.0537
 L 74.6436,44.2773 L 76.1117,42.9911 L 78.7412,40.6989 L 81.1249,38.4711 L 83.3655,36.2082 L 85.565,33.8111
 L 86.4096,32.9175 L 87.3594,32.0275 L 88.3231,31.2215 L 89.2062,30.5852 L 91.1538,29.4846 L 91.3644,29.4047
 L 91.5854,29.3623 L 91.8107,29.3583 L 92.033,29.3927 L 92.2464,29.4649 L 92.3729,29.5323 L 92.4867,29.619
 L 92.586,29.7226 L 92.667,29.8404 L 92.729,29.9698 L 92.7695,30.1072 L 92.7878,30.2493 L 92.7864,31.1806
 L 92.6906,32.107 L 92.5673,32.7133 L 92.3889,33.3059 L 91.801,34.7597 L 91.0321,36.2583 L 90.1674,37.6088
 L 89.3326,38.654 L 88.3922,39.6054 L 84.5328,42.9933 L 80.2501,46.4699 L 76.4699,49.2092 L 75.2244,49.973
 L 73.3696,50.9687 L 71.4763,51.9335 L 68.8688,52.9084 L 67.9463,53.207 L 67.1091,53.4116 L 66.8244,53.453
 L 66.5365,53.4607 z
M 34.2409,53.8587 L 33.6392,53.7588 L 33.0496,53.603 L 31.0724,52.9339 L 27.7568,51.5678 L 24.7422,49.979
 L 21.5758,47.9061 L 17.7579,45.0302 L 15.829,43.5298 L 12.1855,40.6587 L 11.551,39.9638 L 9.778,37.7612
 L 8.42571,35.347 L 7.96987,34.1962 L 7.62449,33.0076 L 7.51019,32.3593 L 7.47572,31.7019 L 7.52203,31.0452
 L 7.52972,31.0096 L 7.5428,30.9755 L 7.56126,30.9439 L 7.58418,30.9158 L 7.61157,30.8913 L 7.64218,30.8719
 L 7.67572,30.8572 L 7.71111,30.8481 L 7.74741,30.8447 L 7.78372,30.8469 L 8.66201,31.0432 L 9.79538,31.4772
 L 11.006,32.1113 L 11.923,32.7242 L 12.9923,33.5853 L 14.1918,34.6696 L 15.5119,35.9729 L 16.6814,37.1483
 L 17.8859,38.3188 L 18.964,39.3324 L 19.6709,39.948 L 20.2214,40.4007 L 20.7464,40.836 L 21.1904,41.2073
 L 21.4146,41.4002 L 21.666,41.611 L 22.348,42.1538 L 23.1649,42.7972 L 24.0612,43.4967 L 25.7676,44.8493
 L 27.3717,46.1756 L 28.7272,47.3483 L 29.5971,48.1766 L 29.8263,48.3957 L 30.0903,48.6191 L 30.3486,48.8151
 L 30.5552,48.9447 L 30.7981,49.0998 L 31.2198,49.42 L 31.704,49.808 L 32.1935,50.222 L 32.7204,50.6776
 L 33.3181,51.1927 L 33.8933,51.6875 L 34.3453,52.0745 L 34.7659,52.4692 L 34.9155,52.6387 L 35.0481,52.8215
 L 35.1348,52.9748 L 35.2015,53.1381 L 35.2248,53.2311 L 35.2336,53.3267 L 35.2275,53.4227 L 35.2116,53.4924
 L 35.1853,53.5587 L 35.1487,53.6202 L 35.103,53.675 L 35.0491,53.7222 L 34.9885,53.7601 L 34.9228,53.7882
 L 34.6998,53.845 L 34.4708,53.8687 z
M 72.2464,58.7254 L 71.3338,58.6609 L 71.0484,58.612 L 70.7692,58.5354 L 70.6374,58.4804 L 70.5157,58.4058
 L 70.4072,58.3132 L 70.3405,58.2335 L 70.2881,58.1435 L 70.2525,58.0458 L 70.2338,57.9434 L 70.2332,57.8394
 L 70.2503,57.7331 L 70.2837,57.6308 L 70.3326,57.5348 L 70.3961,57.4478 L 70.4721,57.3715 L 70.8927,57.0517
 L 71.3464,56.7814 L 73.4366,55.726 L 74.6562,55.1208 L 76.0068,54.4314 L 77.283,53.7645 L 78.2536,53.2385
 L 79.1619,52.7339 L 81.2835,51.5542 L 82.1477,51.0735 L 82.9232,50.6307 L 83.6999,50.1646 L 84.3767,49.7386
 L 84.7942,49.4466 L 85.5082,48.9846 L 86.8357,48.284 L 88.2156,47.6111 L 89.2182,47.1971 L 89.4445,47.1279
 L 89.6768,47.0814 L 89.9201,47.0562 L 90.1648,47.0528 L 90.3909,47.0706 L 90.6148,47.1099 L 90.7918,47.1662
 L 90.9567,47.2517 L 91.0364,47.3119 L 91.1052,47.3843 L 91.1611,47.4671 L 91.2029,47.5577 L 91.2294,47.654
 L 91.2392,47.7535 L 91.178,48.9977 L 90.9126,50.3464 L 90.7235,50.887 L 90.4655,51.3981 L 89.8774,52.2376
 L 89.1671,52.9764 L 87.0665,54.5876 L 84.321,56.1543 L 81.0263,57.5992 L 79.2502,58.2254 L 77.8806,58.5509
 L 76.3453,58.6998 L 73.9144,58.7417 z
M 24.3336,59.6189 L 23.1286,59.5092 L 21.9921,59.2506 L 20.1458,58.6606 L 16.3059,57.1723 L 13.4149,55.5977
 L 12.3501,54.8079 L 11.3777,53.9071 L 10.8964,53.3447 L 10.4878,52.7275 L 10.1581,52.0647 L 10.0372,51.7132
 L 9.96538,51.3483 L 9.92092,50.4413 L 10.0114,49.5669 L 10.0629,49.3578 L 10.1401,49.1566 L 10.2417,48.9667
 L 10.2801,48.914 L 10.3263,48.8678 L 10.3788,48.8292 L 10.4368,48.7991 L 10.4986,48.7783 L 10.5629,48.7671
 L 10.6281,48.766 L 11.8107,48.8891 L 13.1435,49.1666 L 14.357,49.5823 L 15.0658,49.9041 L 16.1136,50.4273
 L 17.275,51.0329 L 18.3899,51.6407 L 21.576,53.3387 L 25.1184,55.0773 L 28.3825,56.5794 L 30.96,57.6718
 L 31.0298,57.6945 L 31.0964,57.7254 L 31.1591,57.764 L 31.2135,57.8082 L 31.2617,57.8592 L 31.3023,57.9165
 L 31.338,57.9834 L 31.3652,58.0541 L 31.3835,58.1277 L 31.4,58.2588 L 31.401,58.3909 L 31.3829,58.5312
 L 31.3431,58.6666 L 31.2824,58.7943 L 31.2027,58.9107 L 31.1057,59.0135 L 30.8855,59.1826 L 30.6412,59.314
 L 30.3789,59.4047 L 29.7,59.5415 L 29.0103,59.6055 L 26.5102,59.6514 z
M 50.1369,69.6472 L 48.0639,65.9343 L 48.0186,65.8529 L 43.673,65.8303 L 45.8997,62.0985 L 43.7467,58.324
 L 48.0917,58.3863 L 50.2841,54.6345 L 52.4027,58.4288 L 56.7482,58.4515 L 56.3034,59.1966 L 55.5818,60.4064
 L 55.537,60.4812 L 54.5216,62.1832 L 56.6745,65.9579 L 52.3293,65.8954 z
M 78.0237,67.4397 L 77.1805,67.354 L 76.3536,67.1926 L 75.5453,66.9555 L 74.3265,66.4803 L 73.3942,65.9843
 L 72.4952,65.3223 L 71.3657,64.3059 L 70.4412,63.3608 L 69.8246,62.5672 L 69.6412,62.253 L 69.4929,61.9209
 L 69.4649,61.8292 L 69.4502,61.7344 L 69.4489,61.6386 L 69.4612,61.5436 L 69.4871,61.4512 L 69.5106,61.3987
 L 69.5418,61.3507 L 69.58,61.3078 L 69.6242,61.2715 L 69.6737,61.2424 L 69.7269,61.2212 L 69.8817,61.1832
 L 70.04,61.1639 L 70.1992,61.1636 L 71.0343,61.2764 L 72.6256,61.6356 L 73.6156,61.8464 L 74.8816,62.0673
 L 76.2004,62.2644 L 77.3677,62.4035 L 80.3343,62.8025 L 81.1987,63.0124 L 82.0247,63.3422 L 82.2775,63.4879
 L 82.5067,63.6682 L 82.7081,63.8793 L 82.8773,64.117 L 83.0035,64.3676 L 83.0879,64.6351 L 83.1287,64.9128
 L 83.1246,65.1934 L 83.0879,65.4382 L 83.0259,65.6777 L 82.9776,65.8006 L 82.913,65.9157 L 82.8333,66.0209
 L 82.6646,66.1891 L 82.4733,66.3311 L 81.7823,66.7385 L 81.1375,67.0351 L 80.4578,67.2408 L 79.6694,67.3826
 L 78.8709,67.4486 z
M 22.0263,68.5637 L 21.7063,68.5411 L 20.9035,68.3941 L 20.1186,68.1086 L 19.372,67.6815 L 19.1802,67.4805
 L 19.0154,67.2568 L 18.8642,66.9883 L 18.7457,66.7039 L 18.6757,66.4349 L 18.65,66.1582 L 18.6646,65.9536
 L 18.7129,65.7542 L 18.794,65.5654 L 18.9892,65.2571 L 19.2289,64.9817 L 19.5409,64.7119 L 19.886,64.486
 L 20.274,64.2959 L 20.6811,64.1522 L 21.1671,64.0327 L 22.0323,63.8653 L 23.0412,63.6881 L 24.0741,63.5251
 L 25.1902,63.3365 L 26.4519,63.0811 L 27.663,62.8028 L 28.6111,62.545 L 30.3598,62.0656 L 30.8786,61.9665
 L 31.405,61.9247 L 31.6166,61.9365 L 31.8235,61.9822 L 32.0203,62.0604 L 32.1098,62.1145 L 32.1887,62.1832
 L 32.2549,62.2641 L 32.3061,62.3553 L 32.341,62.4538 L 32.365,62.5805 L 32.3709,62.7093 L 32.3381,63.0133
 L 32.2527,63.3164 L 32.1957,63.4468 L 32.1244,63.5701 L 31.8032,64.0154 L 31.4437,64.4302 L 30.3035,65.5636
 L 29.0894,66.6337 L 28.1482,67.2932 L 27.2554,67.7452 L 26.3141,68.0846 L 25.2256,68.352 L 24.1181,68.5229
 L 23.0732,68.5903 z
M 71.5881,75.6059 L 71.3051,75.542 L 71.0144,75.426 L 70.7023,75.2403 L 70.3017,74.9022 L 70.0301,74.7068
 L 69.7494,74.4627 L 69.3326,74.0188 L 68.9734,73.5273 L 68.6768,72.9955 L 68.2242,71.9302 L 67.8711,70.8281
 L 67.6374,69.7824 L 67.4977,68.7203 L 67.4977,68.4789 L 67.5397,68.2412 L 67.6223,68.0143 L 67.7431,67.8054
 L 67.8982,67.6205 L 67.9914,67.5395 L 68.0951,67.4728 L 68.2068,67.4209 L 68.3249,67.3854 L 68.6346,67.3377
 L 68.9483,67.3331 L 69.3174,67.3752 L 69.6788,67.4602 L 70.0583,67.5925 L 70.4243,67.7594 L 70.7657,67.9614
 L 71.0809,68.2029 L 72.1409,69.1654 L 73.201,70.2 L 73.9249,71.2961 L 73.9999,71.4684 L 74.0562,71.6478
 L 74.1421,72.1402 L 74.1824,72.8013 L 74.1722,73.3222 L 74.1136,73.8398 L 74.0538,74.1022 L 73.9601,74.3545
 L 73.8344,74.5925 L 73.6938,74.785 L 73.5249,74.953 L 73.3315,75.0922 L 72.9006,75.3496 L 72.5255,75.5082
 L 72.1926,75.594 L 71.8823,75.6243 z
M 29.5657,76.2348 L 29.2685,76.1608 L 28.9871,76.0397 L 28.7289,75.8748 L 28.5008,75.6702 L 28.3099,75.4322
 L 28.1605,75.1662 L 28.0568,74.8793 L 28.0013,74.5793 L 27.9957,74.2744 L 28.0977,73.5482 L 28.3077,72.8458
 L 28.6209,72.1829 L 29.3897,70.9829 L 30.2809,69.8709 L 30.8795,69.2543 L 31.4066,68.8352 L 31.676,68.6746
 L 31.9593,68.5408 L 32.6312,68.3126 L 33.7335,68.0254 L 33.8941,67.9968 L 34.0572,67.9917 L 34.0918,67.9958
 L 34.1253,68.0055 L 34.157,68.0203 L 34.1858,68.04 L 34.2112,68.064 L 34.2322,68.0918 L 34.3093,68.2325
 L 34.3655,68.3828 L 34.4433,68.7064 L 34.4878,69.0364 L 34.5519,70.1364 L 34.571,71.2495 L 34.5065,71.6941
 L 34.2678,72.5732 L 33.9099,73.3584 L 33.3842,74.1484 L 32.909,74.7354 L 32.3587,75.2527 L 31.7674,75.6716
 L 31.1227,76.0031 L 30.7183,76.1446 L 30.2986,76.2306 L 29.8711,76.2596 z
M 70.9095,96.5503 L 68.7802,96.5391 L 69.8711,94.7107 L 69.114,93.383 L 68.8162,92.861 L 70.9454,92.8916
 L 72.0195,91.0532 L 73.0576,92.9124 L 75.1868,92.9235 L 74.0958,94.752 L 75.1508,96.6017 L 73.0219,96.5709
 L 71.9475,98.4094 z
M 50.0485,96.8797 L 47.9191,96.8685 L 49.0102,95.0399 L 47.9551,93.1904 L 50.0843,93.221 L 51.1586,91.3827
 L 52.1966,93.2418 L 54.3261,93.2528 L 53.2349,95.0814 L 54.2896,96.9309 L 52.1607,96.9005 L 51.0864,98.7388
 z
M 30.7243,97.758 L 28.5952,97.7469 L 29.6862,95.9183 L 28.6312,94.0688 L 30.7603,94.0994 L 31.8346,92.261
 L 32.8726,94.1202 L 35.0019,94.1313 L 33.9109,95.9599 L 34.9658,97.8094 L 32.8367,97.7788 L 31.7626,99.6172
 z
M 40.8257,104.785 L 38.6963,104.774 L 39.7874,102.945 L 38.7323,101.096 L 40.8615,101.126 L 41.9357,99.2878
 L 42.9739,101.147 L 45.103,101.158 L 44.0121,102.987 L 45.067,104.836 L 42.9379,104.806 L 41.8637,106.644
 z
M 61.6867,104.895 L 59.5572,104.884 L 60.6483,103.055 L 59.5937,101.205 L 61.7226,101.236 L 62.7967,99.3977
 L 63.8349,101.257 L 65.9641,101.268 L 64.873,103.096 L 65.9281,104.946 L 63.7992,104.916 L 62.7246,106.754
 z
M 73.7584,111.155 L 70.7168,111.139 L 72.2752,108.527 L 70.7684,105.885 L 73.8098,105.928 L 75.3447,103.302
 L 76.8274,105.958 L 79.8692,105.974 L 78.3106,108.586 L 79.8175,111.229 L 76.776,111.185 L 75.2413,113.811
 z
M 28.6326,111.924 L 25.5908,111.908 L 27.1494,109.296 L 25.6424,106.653 L 28.6839,106.697 L 30.2186,104.071
 L 31.7015,106.727 L 34.7433,106.743 L 33.1847,109.355 L 34.6918,111.997 L 31.6503,111.953 L 30.1154,114.58
 z
M 51.2504,114.998 L 48.2086,114.982 L 49.7674,112.37 L 48.2602,109.728 L 51.3017,109.771 L 52.8364,107.145
 L 54.3195,109.801 L 57.3611,109.817 L 55.8025,112.429 L 57.3094,115.071 L 54.2681,115.028 L 52.7333,117.654
 z
" stroke="black" fill="lightgray" stroke-width="0.5"/>
</svg>
