<?xml version="1.0" encoding="UTF-8" standalone="no"?>
<!-- Created with Inkscape (http://www.inkscape.org/) -->

<svg
   xmlns:dc="http://purl.org/dc/elements/1.1/"
   xmlns:cc="http://creativecommons.org/ns#"
   xmlns:rdf="http://www.w3.org/1999/02/22-rdf-syntax-ns#"
   xmlns:svg="http://www.w3.org/2000/svg"
   xmlns="http://www.w3.org/2000/svg"
   xmlns:sodipodi="http://sodipodi.sourceforge.net/DTD/sodipodi-0.dtd"
   xmlns:inkscape="http://www.inkscape.org/namespaces/inkscape"
   version="1.1"
   id="svg3645"
   xml:space="preserve"
   width="800"
   height="800"
   viewBox="0 0 800 800"
   sodipodi:docname="logo-design-element-vector-3.svg"
   inkscape:version="0.92.4 (5da689c313, 2019-01-14)"><metadata
     id="metadata3651"><rdf:RDF><cc:Work
         rdf:about=""><dc:format>image/svg+xml</dc:format><dc:type
           rdf:resource="http://purl.org/dc/dcmitype/StillImage" /><dc:title></dc:title></cc:Work></rdf:RDF></metadata><defs
     id="defs3649"><clipPath
       clipPathUnits="userSpaceOnUse"
       id="clipPath3661"><path
         d="M 0,600 H 600 V 0 H 0 Z"
         id="path3659"
         inkscape:connector-curvature="0" /></clipPath><linearGradient
       x1="0"
       y1="0"
       x2="1"
       y2="0"
       gradientUnits="userSpaceOnUse"
       gradientTransform="matrix(351.92432,0,0,-351.92432,144.6333,303.26465)"
       spreadMethod="pad"
       id="linearGradient3685"><stop
         style="stop-opacity:1;stop-color:#1aaeec"
         offset="0"
         id="stop3675" /><stop
         style="stop-opacity:1;stop-color:#4253a7"
         offset="0.297753"
         id="stop3677" /><stop
         style="stop-opacity:1;stop-color:#e70c8d"
         offset="0.646067"
         id="stop3679" /><stop
         style="stop-opacity:1;stop-color:#e33c47"
         offset="0.955056"
         id="stop3681" /><stop
         style="stop-opacity:1;stop-color:#e33c47"
         offset="1"
         id="stop3683" /></linearGradient></defs><sodipodi:namedview
     pagecolor="#ffffff"
     bordercolor="#666666"
     borderopacity="1"
     objecttolerance="10"
     gridtolerance="10"
     guidetolerance="10"
     inkscape:pageopacity="0"
     inkscape:pageshadow="2"
     inkscape:window-width="1920"
     inkscape:window-height="1018"
     id="namedview3647"
     showgrid="false"
     inkscape:zoom="0.8603666"
     inkscape:cx="581.35593"
     inkscape:cy="454.23729"
     inkscape:window-x="-8"
     inkscape:window-y="-8"
     inkscape:window-maximized="1"
     inkscape:current-layer="g3653" /><g
     id="g3653"
     inkscape:groupmode="layer"
     inkscape:label="circles-element-15-publicdomainvectors.org-1"
     transform="matrix(1.3333333,0,0,-1.3333333,0,800)"><g
       id="g3655"><g
         id="g3657"
         clip-path="url(#clipPath3661)"><g
           id="g3663"><g
             id="g3665"><g
               id="g3671"><g
                 id="g3673"><path
                   d="m 496.558,288.644 c -21.668,24.756 -59.582,47.932 -91.352,55.231 -31.477,7.24 -61.67,1.397 -84.61,-17.892 4.622,-4.946 8.698,-10.033 15.119,-14.498 1.985,1.538 5.493,5.383 8.474,7.208 17.821,10.891 56.797,12.564 80.08,-5.87 3.158,-2.502 6.714,-7.146 7.256,-12.071 2.371,-21.581 -27.735,-22.545 -40.783,-19.823 -1.516,-6.158 -8.536,-13.952 -10.319,-18.98 43.101,-7.674 80.919,4.605 116.135,26.695 M 335.217,479.227 c -24.758,-21.667 -47.932,-59.582 -55.232,-91.35 -7.238,-31.478 -1.397,-61.672 17.892,-84.612 4.946,4.622 10.034,8.698 14.498,15.119 -1.538,1.986 -5.382,5.494 -7.207,8.475 -10.892,17.82 -12.565,56.796 5.868,80.079 2.503,3.158 7.146,6.714 12.07,7.257 21.582,2.37 22.547,-27.736 19.826,-40.783 6.156,-1.517 13.952,-8.537 18.978,-10.32 7.675,43.101 -4.603,80.919 -26.693,116.135 M 144.633,317.886 c 21.669,-24.756 59.582,-47.932 91.351,-55.231 31.477,-7.24 61.671,-1.397 84.612,17.892 -4.623,4.946 -8.699,10.032 -15.119,14.498 -1.985,-1.539 -5.495,-5.384 -8.476,-7.208 -17.819,-10.892 -56.796,-12.565 -80.079,5.87 -3.158,2.501 -6.714,7.146 -7.256,12.07 -2.371,21.582 27.735,22.546 40.783,19.824 1.516,6.157 8.536,13.953 10.32,18.979 -43.102,7.675 -80.92,-4.604 -116.136,-26.694 m 161.34,-190.583 c 24.757,21.667 47.933,59.582 55.233,91.349 7.238,31.479 1.397,61.672 -17.893,84.613 -4.946,-4.622 -10.034,-8.699 -14.498,-15.119 1.539,-1.986 5.383,-5.494 7.208,-8.475 10.892,-17.82 12.566,-56.797 -5.87,-80.079 -2.501,-3.158 -7.145,-6.715 -12.068,-7.257 -21.583,-2.371 -22.548,27.735 -19.826,40.783 -6.156,1.517 -13.952,8.536 -18.979,10.32 -7.674,-43.102 4.604,-80.919 26.693,-116.135"
                   style="fill:url(#linearGradient3685);fill-rule:evenodd;stroke:none"
                   id="path3687"
                   inkscape:connector-curvature="0" /></g></g></g></g></g></g></g></svg>