<?xml version="1.0" encoding="UTF-8" standalone="no"?>
<!-- Created with Inkscape (http://www.inkscape.org/) -->

<svg
   width="34.171963mm"
   height="52.139511mm"
   viewBox="0 0 34.171963 52.139511"
   version="1.1"
   id="svg2321"
   inkscape:version="1.2 (dc2aedaf03, 2022-05-15)"
   sodipodi:docname="Suprised fish.svg"
   xmlns:inkscape="http://www.inkscape.org/namespaces/inkscape"
   xmlns:sodipodi="http://sodipodi.sourceforge.net/DTD/sodipodi-0.dtd"
   xmlns="http://www.w3.org/2000/svg"
   xmlns:svg="http://www.w3.org/2000/svg"
   xmlns:rdf="http://www.w3.org/1999/02/22-rdf-syntax-ns#"
   xmlns:cc="http://creativecommons.org/ns#"
   xmlns:dc="http://purl.org/dc/elements/1.1/">
  <title
     id="title2347">Suprised fish</title>
  <sodipodi:namedview
     id="namedview2323"
     pagecolor="#ffffff"
     bordercolor="#666666"
     borderopacity="1.0"
     inkscape:showpageshadow="2"
     inkscape:pageopacity="0.0"
     inkscape:pagecheckerboard="0"
     inkscape:deskcolor="#d1d1d1"
     inkscape:document-units="mm"
     showgrid="false"
     inkscape:zoom="1.7987273"
     inkscape:cx="82.558374"
     inkscape:cy="82.558374"
     inkscape:window-width="1920"
     inkscape:window-height="991"
     inkscape:window-x="-9"
     inkscape:window-y="-9"
     inkscape:window-maximized="1"
     inkscape:current-layer="layer1" />
  <defs
     id="defs2318" />
  <g
     inkscape:label="Lager 1"
     inkscape:groupmode="layer"
     id="layer1"
     transform="translate(-121.08591,-127.4811)">
    <path
       id="path1719"
       style="fill:#000000;stroke-width:0.169333"
       d="m 134.23212,127.48214 c -0.0628,0.003 -0.12636,0.01 -0.19069,0.0222 -0.17152,0.0332 -0.34673,0.10222 -0.51831,0.20826 -1.22396,0.75646 -1.54175,1.60483 -0.85732,2.28926 0.36854,0.36853 0.53752,0.42408 0.99012,0.32608 1.26136,-0.27311 2.04227,-1.33969 1.61903,-2.21123 -0.17916,-0.36893 -0.49402,-0.58496 -0.85731,-0.62787 -0.0606,-0.007 -0.12269,-0.009 -0.18552,-0.007 z m -0.26975,0.50798 c 0.0869,-0.004 0.18197,0.003 0.29145,0.0186 0.73739,0.10822 0.98035,0.57573 0.60048,1.15549 -0.15874,0.24228 -0.47088,0.50968 -0.6935,0.59428 -0.57272,0.21774 -0.82808,0.19252 -1.13274,-0.11214 -0.38382,-0.38383 -0.32965,-0.71214 0.20515,-1.24695 0.28152,-0.28146 0.46848,-0.39649 0.72916,-0.40928 z m 0.1142,6.36344 c -0.0805,-0.004 -0.16276,-7.4e-4 -0.24495,0.008 -0.3945,0.0443 -0.79398,0.24463 -1.06246,0.62167 -0.39249,0.55119 -0.43312,0.98745 -0.14935,1.61024 0.15983,0.35081 0.31551,0.4315 0.83303,0.4315 0.34997,0 0.75977,-0.0475 0.91053,-0.10542 0.37402,-0.14353 0.76947,-0.95327 0.76947,-1.57562 0,-0.60962 -0.49258,-0.96123 -1.05627,-0.99012 z m -0.22428,0.48679 c 0.12646,0.0106 0.28189,0.0625 0.50747,0.14831 0.50967,0.19378 0.56574,0.66272 0.13797,1.1529 -0.30834,0.35336 -0.98884,0.56814 -1.35444,0.42788 -0.33027,-0.12669 -0.24897,-1.03258 0.12661,-1.40818 0.193,-0.193 0.3151,-0.29357 0.46406,-0.31729 0.0372,-0.006 0.0762,-0.007 0.11833,-0.004 z m 0.43822,5.24619 c -0.32721,0.0112 -0.71175,0.17247 -1.09916,0.51263 -0.67406,0.59184 -0.80122,1.34017 -0.31832,1.87379 0.62311,0.68851 1.96531,0.19707 2.24689,-0.82269 0.25203,-0.91279 -0.10292,-1.50049 -0.69298,-1.5596 -0.0443,-0.004 -0.0897,-0.006 -0.13643,-0.004 z m -0.17415,0.56482 c 0.062,-0.003 0.12281,5.6e-4 0.18087,0.009 0.27868,0.0434 0.49565,0.22715 0.49144,0.57568 -0.003,0.24526 -0.10676,0.57908 -0.23048,0.74207 -0.23735,0.31269 -0.8806,0.38841 -1.25935,0.14832 -0.12778,-0.081 -0.20121,-0.35389 -0.1695,-0.63097 0.0591,-0.51656 0.55324,-0.82409 0.98702,-0.8444 z m 7.79126,0.12661 v 5.2e-4 c -0.31247,0.02 -0.58443,0.27559 -1.34307,1.18959 -1.3713,1.65206 -2.94266,4.74325 -3.33158,6.55309 -0.25421,1.18299 -0.34422,1.37459 -0.64751,1.37459 -0.78908,0.002 -1.68322,0.40069 -2.82257,1.2578 -1.80325,1.35656 -3.08323,3.31521 -3.46542,5.30304 -0.25079,1.30438 -0.0271,1.39159 0.339,0.13229 0.34361,-1.18191 2.0719,-3.74737 3.25045,-4.82451 0.77262,-0.70614 2.35176,-1.53117 2.93057,-1.53117 0.0814,0 0.20167,0.32404 0.26717,0.71985 0.0655,0.39582 0.14856,0.76986 0.18448,0.83096 0.10235,0.17416 0.74207,-0.0441 0.74207,-0.25322 0,-0.10301 0.32404,-0.46741 0.71986,-0.80977 0.39581,-0.34236 0.66118,-0.68282 0.58962,-0.75602 -0.0716,-0.0732 -0.43378,0.16344 -0.8046,0.52555 l -0.67386,0.65835 0.002,-0.8387 c 0.002,-1.06311 0.75496,-3.44204 1.62161,-5.12527 0.33545,-0.65151 1.46993,-2.2215 2.14508,-2.96881 l 0.63562,-0.70332 -0.66249,1.43919 c -0.79052,1.71855 -1.11498,2.75714 -0.97565,3.12022 0.16057,0.41846 0.36461,0.31693 0.67593,-0.3359 0.51953,-1.08948 2.02418,-2.96491 2.2195,-2.76624 0.0359,0.0365 -0.34427,1.05735 -0.84491,2.26808 -0.87215,2.10912 -1.09015,3.00865 -0.77669,3.20239 0.0798,0.0493 0.39242,-0.21832 0.69453,-0.59428 0.30212,-0.37593 0.57944,-0.65308 0.6165,-0.61598 0.0371,0.0371 -0.12286,0.53584 -0.35554,1.10846 -0.57892,1.42482 -0.56216,2.1658 0.0326,1.42885 0.21788,-0.27004 0.22884,-0.25863 0.12454,0.12713 -0.063,0.23283 -0.13094,0.44337 -0.15141,0.46767 -0.0205,0.0243 -0.36346,-0.0712 -0.76223,-0.21188 -0.81891,-0.28894 -2.20658,-0.34311 -2.20658,-0.0863 0,0.0931 0.11138,0.16898 0.24753,0.16898 0.41685,0 2.68712,1.14917 3.18016,1.60972 0.88233,0.8242 1.79625,2.20491 2.29702,3.47059 0.5654,1.42906 0.89741,2.53989 0.75965,2.53989 -0.0506,0 -0.39384,-0.34312 -0.76275,-0.76222 -0.38105,-0.4329 -0.81899,-0.76171 -1.01441,-0.76171 -0.30179,0 -0.26997,0.0821 0.26045,0.66921 0.33253,0.36806 0.79051,0.95834 1.01751,1.31206 1.04206,1.62375 1.40996,8.04657 0.63717,11.12439 -0.59352,2.36393 -1.76902,5.01313 -2.22415,5.01313 -0.0707,0 -0.17156,0.17338 -0.22479,0.3855 -0.0532,0.21214 -0.33952,0.61203 -0.63563,0.88884 -0.58075,0.54295 -0.57249,0.56735 -0.20928,-0.62374 0.0734,-0.24075 0.0494,-0.32678 -0.0713,-0.25218 -0.10064,0.0622 -0.22996,0.32514 -0.2868,0.58395 -0.2055,0.93564 -0.74625,1.56619 -1.70946,1.99212 -1.08806,0.48121 -1.39718,0.52595 -1.09192,0.15813 0.25466,-0.30676 -0.006,-0.33971 -0.33538,-0.0424 -0.15625,0.14119 -0.14369,0.0643 0.0388,-0.23048 0.81591,-1.3188 1.0082,-3.68694 0.39842,-4.90926 -0.34069,-0.68289 -0.339,-0.96459 0.007,-1.78232 0.42537,-1.00372 0.5498,-1.68535 0.66145,-3.6189 0.16358,-2.83281 -0.42516,-5.71055 -1.48259,-7.24762 -0.56565,-0.82225 -1.86891,-1.71893 -2.50476,-1.72393 -0.60914,-0.004 -2.37977,0.88642 -2.89646,1.45728 -2.3793,2.62866 -3.47843,8.04609 -2.17455,10.71821 l 0.36535,0.74931 -0.44131,1.30328 c -0.25031,0.73921 -0.44435,1.69785 -0.44855,2.21433 l -0.008,0.91106 -0.24391,-0.67748 c -0.1342,-0.37253 -0.24515,-0.70087 -0.2465,-0.72967 -0.001,-0.0288 -0.0706,-0.0102 -0.154,0.0413 -0.18472,0.11419 -0.35656,-0.29506 -0.35656,-0.84956 0,-0.22521 -0.0732,-0.40928 -0.16279,-0.40928 -0.28096,0 -0.52328,-1.27723 -0.76532,-4.03076 -0.2844,-3.23535 -0.0236,-7.70803 0.55035,-9.43147 0.1861,-0.5588 0.29953,-1.0817 0.25167,-1.1622 -0.11434,-0.19238 -1.0388,1.2922 -1.41387,2.27066 -0.16224,0.42325 -0.38882,1.54586 -0.50385,2.49494 -0.17947,1.48082 -0.26381,1.76147 -0.59376,1.97766 -0.35619,0.23339 -0.45705,0.20952 -1.37098,-0.32556 -0.54261,-0.3177 -1.39688,-0.90638 -1.89807,-1.30793 -1.17368,-0.94037 -1.53218,-1.14074 -2.06034,-1.14774 -0.53592,-0.007 -0.83819,0.27951 -0.83819,0.7953 0,0.36676 0.46398,0.88523 1.69343,1.89291 0.35962,0.29476 0.38476,0.37271 0.16899,0.51728 -0.1397,0.0936 -0.56302,0.1706 -0.94103,0.1726 -1.61338,0.006 -1.68049,0.99801 -0.12868,1.90479 0.52754,0.30825 0.98709,0.64409 1.02113,0.74621 0.034,0.10213 -0.1816,0.23402 -0.47904,0.29352 -0.70959,0.14192 -0.99632,0.39689 -0.99632,0.88522 0,0.47567 0.51428,0.84383 1.40508,1.00666 0.60855,0.11126 0.6279,0.13402 0.36432,0.42529 -0.32306,0.35697 -0.20811,0.62592 0.35967,0.84181 0.39119,0.14872 2.58616,-0.29133 3.21892,-0.64544 0.1419,-0.0793 0.48177,-0.11157 0.75551,-0.0713 0.41991,0.0616 0.52661,0.18246 0.6811,0.7736 0.38514,1.47369 1.47802,3.43734 2.33681,4.19871 0.45604,0.4043 0.94543,0.96393 1.08778,1.24333 0.57875,1.13592 1.34616,1.79363 2.57556,2.20814 0.65193,0.21981 1.33768,0.37024 1.52394,0.33434 0.18627,-0.0359 0.59993,-0.10908 0.91932,-0.16278 0.31939,-0.0537 0.92917,-0.32106 1.35496,-0.59428 0.59474,-0.38166 0.97031,-0.49654 1.62057,-0.49454 0.46553,0.001 1.17862,-0.11636 1.5844,-0.262 0.76223,-0.27358 2.39468,-1.37662 2.39468,-1.61799 0,-0.0752 0.36223,-0.41293 0.80461,-0.75086 0.44238,-0.33793 1.07085,-1.02931 1.39681,-1.53582 0.32597,-0.50652 0.64032,-0.92359 0.69867,-0.92759 0.0583,-0.004 0.19898,0.73634 0.31212,1.64434 0.16013,1.28517 0.29801,1.77302 0.62219,2.20142 0.22907,0.30268 0.48254,0.54983 0.56379,0.54983 0.0813,0 0.39007,-0.20344 0.68626,-0.45268 l 0.53898,-0.4532 -0.11523,-1.37873 c -0.13285,-1.59491 -0.80239,-4.59183 -1.09038,-4.87981 -0.21441,-0.21443 -0.13176,1.13206 0.15917,2.59261 0.32989,1.65613 0.54142,3.38119 0.44545,3.6313 -0.13955,0.36364 -0.57178,0.33029 -0.78083,-0.0605 -0.0953,-0.17803 -0.2574,-0.8829 -0.35967,-1.56631 -0.30879,-2.06339 -0.46242,-2.51251 -0.86041,-2.51251 -0.25824,0 -0.32614,-0.0785 -0.25632,-0.2961 0.55338,-1.72484 0.84941,-3.1886 1.01596,-5.02399 0.10918,-1.20323 0.27775,-2.21437 0.37465,-2.24637 0.0969,-0.032 0.32228,0.049 0.50126,0.17983 0.27876,0.20384 0.29264,0.27738 0.0961,0.51418 -0.2928,0.35287 -0.0864,0.57279 0.29249,0.31161 1.13485,-0.7822 5.09647,-3.07712 5.32629,-3.08612 0.29829,-0.0112 0.0772,0.44426 -0.6351,1.30949 -0.4191,0.50904 -0.76223,1.01689 -0.76223,1.12809 0,0.27185 0.3503,0.69427 0.74983,0.90434 0.29418,0.15467 0.25591,0.20731 -0.38913,0.5364 -0.88648,0.45225 -1.0593,0.82438 -0.54932,1.18391 1.06858,0.75335 1.29798,1.01729 1.0356,1.19269 -0.1397,0.0934 -0.53528,0.17008 -0.87902,0.17208 -0.70941,0.003 -0.92933,0.20446 -0.55862,0.51212 0.30568,0.25371 0.33586,1.01492 0.0403,1.01492 -0.11642,2.7e-4 -0.70672,-0.19957 -1.31207,-0.4439 -0.60537,-0.24433 -1.45757,-0.58719 -1.89394,-0.76223 -0.43635,-0.17504 -0.95081,-0.31832 -1.14308,-0.31832 -0.36773,0 -0.47006,0.24465 -0.17777,0.42529 0.0947,0.0585 0.12328,0.18546 0.0636,0.28216 -0.0702,0.1136 0.0255,0.13296 0.27027,0.0553 0.34974,-0.111 1.15847,0.15378 3.16053,1.03456 0.29348,0.12912 0.72956,0.23461 0.96945,0.23461 0.56591,0 1.00868,-0.64699 0.8568,-1.25212 -0.10032,-0.39966 -0.0642,-0.4408 0.38189,-0.4408 0.58891,0 0.89865,-0.27059 0.89865,-0.78393 0,-0.34991 -0.35425,-0.72257 -1.12396,-1.18184 -0.27972,-0.16691 -0.21793,-0.23666 0.56224,-0.632 0.48214,-0.24431 0.92012,-0.51501 0.97358,-0.60151 0.17688,-0.2862 -0.0932,-0.66955 -0.5948,-0.8444 -0.60895,-0.21228 -0.62634,-0.51481 -0.0605,-1.04644 0.67596,-0.63505 1.11861,-1.46073 1.05937,-1.97611 -0.10722,-0.93297 -1.0819,-0.54949 -5.06377,1.99264 -0.69096,0.44115 -0.82599,0.47268 -1.22629,0.28681 -0.5217,-0.24223 -0.52979,-0.32324 -0.19533,-1.90221 0.13808,-0.6519 0.25114,-1.4011 0.25114,-1.66502 0,-0.51176 0.53225,-2.74719 0.95447,-4.00751 0.31381,-0.93668 1.02558,-3.73264 1.23351,-4.84569 0.28931,-1.54858 -0.48698,-2.44359 -1.36115,-1.56942 -0.89816,0.89813 -1.94931,4.10855 -2.15026,6.56756 l -0.11627,1.42317 -0.31006,-0.99942 c -0.9886,-3.18647 -1.24258,-3.81743 -2.02882,-5.03639 -0.47101,-0.73019 -1.1158,-1.52528 -1.43247,-1.76682 -0.54292,-0.41411 -0.5694,-0.48176 -0.46457,-1.1808 0.069,-0.46015 0.0393,-0.82807 -0.0786,-0.96997 -0.14188,-0.17096 -0.12342,-0.38709 0.0729,-0.85679 0.31207,-0.74691 0.34139,-1.43351 0.0615,-1.43351 -0.11042,0 -0.37811,0.16647 -0.59479,0.37001 l -0.39378,0.37 0.11162,-0.58136 c 0.0613,-0.31992 0.28133,-0.92501 0.48938,-1.34411 0.61627,-1.24138 1.01895,-2.68518 0.8077,-2.89646 -0.2965,-0.29648 -0.77022,0.0691 -1.66036,1.28158 -0.44801,0.61023 -0.8503,1.07361 -0.894,1.02991 -0.0437,-0.0437 0.24178,-0.75477 0.63407,-1.58027 0.83428,-1.75553 0.87518,-2.45941 0.14727,-2.54351 -0.0478,-0.006 -0.0933,-0.007 -0.13797,-0.005 z m -0.3483,0.51211 c 0.11777,-0.0393 -0.1459,0.37582 -0.58601,0.92243 -1.14138,1.41774 -1.27649,1.50065 -0.39326,0.24081 0.42101,-0.60054 0.8615,-1.12404 0.97927,-1.16324 z m -6.93498,3.88607 c -0.23294,0.002 -0.5012,0.14448 -0.76429,0.44339 -0.44311,0.50344 -0.54309,1.20667 -0.21756,1.5322 0.53965,0.53965 1.65933,-0.0734 1.65933,-0.90847 0,-0.68789 -0.28925,-1.07114 -0.67748,-1.06712 z m 4.17494,0.23513 c 0.0389,-0.0103 -0.10705,0.40113 -0.48369,1.44125 -0.25191,0.69568 -0.57163,1.64583 -0.71004,2.1115 -0.23294,0.78369 -0.24463,0.79595 -0.15709,0.16899 0.12306,-0.88131 0.66956,-2.53085 1.09089,-3.29283 0.14642,-0.26479 0.23661,-0.42271 0.25993,-0.42891 z m -4.58525,0.20619 c 0.10676,-0.016 0.24769,0.0496 0.4253,0.19534 0.33294,0.27312 0.37419,0.39234 0.22221,0.64233 -0.10265,0.16881 -0.35034,0.33142 -0.55036,0.36122 -0.29932,0.0445 -0.36332,-0.0303 -0.36122,-0.42323 0.003,-0.49423 0.0861,-0.74891 0.26407,-0.77566 z m 16.2357,5.6782 c 0.0241,0.003 0.0473,0.0107 0.0693,0.0243 0.3646,0.22533 0.1903,1.39494 -0.65939,4.42609 -0.46854,1.67134 -0.92981,3.57262 -1.02475,4.22455 -0.0949,0.65193 -0.28304,1.87119 -0.41806,2.70939 -0.13503,0.83816 -0.26599,1.67615 -0.29145,1.86242 -0.0848,0.62034 -0.25019,0.0159 -0.37001,-1.35444 -0.0651,-0.74502 -0.30306,-1.9683 -0.52865,-2.71818 -0.44827,-1.49004 -0.48819,-1.7694 -0.25528,-1.7694 0.085,0 0.20578,0.30498 0.26872,0.67748 0.20258,1.199 0.76189,0.617 0.76223,-0.79323 5.7e-4,-2.30784 1.5948,-7.05432 2.37246,-7.28121 0.0259,-0.008 0.0508,-0.0102 0.0749,-0.008 z m -16.42845,1.13947 c -0.49397,0 -0.68308,0.27262 -0.2651,0.38189 0.44872,0.11735 0.52727,0.83303 0.24288,2.2071 -0.42431,2.05001 -2.19269,5.12833 -2.74867,4.78472 -0.41713,-0.25781 -0.1838,-2.21382 0.42788,-3.58944 0.1305,-0.29349 0.23719,-0.57943 0.23719,-0.63563 0,-0.0562 0.17748,-0.46988 0.39429,-0.91932 0.62053,-1.28627 0.6702,-1.52633 0.19947,-0.95911 -1.54699,1.86409 -2.60369,5.53241 -1.83761,6.37894 0.15414,0.17032 0.4231,0.30954 0.59738,0.30954 0.52398,0 1.79286,-1.43079 2.3611,-2.66237 0.48045,-1.04123 0.5449,-1.11291 0.69866,-0.77618 0.16354,0.35818 0.60497,0.64611 0.75706,0.49402 0.0407,-0.0407 -0.0504,-0.26432 -0.20257,-0.49661 -0.27635,-0.42178 -0.11721,-0.76461 0.2496,-0.53795 0.0931,0.0576 0.16898,-0.0126 0.16898,-0.15606 0,-0.14342 -0.19663,-0.31012 -0.43718,-0.37052 -0.34761,-0.0873 -0.41624,-0.18379 -0.33435,-0.46922 0.45411,-1.58281 0.21504,-2.9838 -0.50901,-2.9838 z m 7.00887,0 c -0.53237,0 -1.22477,0.79202 -1.59163,1.82004 -0.28575,0.80076 -0.31002,3.7543 -0.0382,4.66122 0.11183,0.37325 0.44451,0.9347 0.73949,1.24747 0.51045,0.54129 0.90215,0.69879 1.14153,0.4594 0.06,-0.06 -0.12359,-0.34533 -0.40824,-0.63459 -0.60294,-0.61265 -1.0062,-1.48101 -0.98134,-2.11305 0.0141,-0.35931 0.0514,-0.31544 0.19482,0.2279 0.16684,0.63205 0.56582,1.22943 0.71882,1.07642 0.25831,-0.2583 0.33723,-1.02561 0.21962,-2.14354 -0.17872,-1.69884 -0.21536,-1.78156 -0.72915,-1.65261 -0.38616,0.0969 -0.42078,0.0593 -0.41238,-0.44752 0.0135,-0.80899 0.53911,-2.06459 0.89297,-2.13269 0.17646,-0.034 0.53134,0.18661 0.85783,0.53279 1.16177,1.23185 1.28917,4.91003 0.22272,6.4394 -0.31043,0.44524 -0.31323,0.47793 -0.0346,0.42323 0.51516,-0.10116 0.92234,-0.85364 1.17202,-2.16628 0.20234,-1.06387 0.20447,-1.4755 0.0155,-2.64273 -0.33655,-2.07905 -0.92322,-2.95486 -1.97973,-2.95486 z m -7.63106,2.53783 c -0.12267,-0.0259 -0.31846,0.0809 -0.54363,0.3297 -0.33587,0.37112 -1.1095,2.39031 -1.1095,2.89594 0,0.37856 0.37628,0.43959 0.65319,0.10594 0.20388,-0.24569 0.92675,-2.12022 1.10485,-2.86546 0.0674,-0.28207 0.0178,-0.44027 -0.10491,-0.46612 z m 4.70721,0.67748 c -0.2597,0 -0.94155,0.63666 -0.94155,0.87901 0,0.22214 0.28024,0.15762 0.50798,-0.11679 0.11593,-0.13969 0.27742,-0.25424 0.35915,-0.25424 0.25372,0 0.163,0.68287 -0.10438,0.78548 -0.13917,0.0534 -0.21069,0.16516 -0.15917,0.24856 0.16164,0.26153 0.39424,0.16717 0.68627,-0.27853 0.22577,-0.34456 0.24443,-0.51353 0.0925,-0.84698 -0.10435,-0.229 -0.30273,-0.41651 -0.4408,-0.41651 z m 1.67742,1.09502 c 0.0102,0.004 0.0213,0.0195 0.0331,0.0486 0.047,0.11642 0.047,0.30682 0,0.42323 -0.047,0.11642 -0.0853,0.0215 -0.0853,-0.21136 0,-0.17466 0.0216,-0.27187 0.0522,-0.26045 z m -3.31815,2.1947 c 0.64206,-0.0126 1.19335,0.25415 1.80299,0.84388 0.76743,0.74237 1.05222,1.47451 1.54926,3.98787 0.40206,2.03305 0.12219,5.5002 -0.57826,7.16803 -0.25632,0.61031 -0.25029,0.68703 0.12144,1.58389 0.3342,0.80634 0.3755,1.12124 0.28577,2.18281 -0.17916,2.1193 -1.15818,3.77888 -2.43912,4.13463 -1.36212,0.37828 -2.58829,-0.0292 -3.73363,-1.24023 -1.38191,-1.4612 -1.73609,-3.35031 -1.04644,-5.58313 l 0.34313,-1.11104 -0.34313,-1.01803 c -1.1971,-3.55354 0.85271,-10.16977 3.36,-10.84481 0.23967,-0.0645 0.46396,-0.0997 0.67799,-0.10387 z m 0.14315,1.40818 c -1.5463,0.0634 -3.26803,2.14651 -3.67885,4.98936 -0.18362,1.27063 -0.0921,2.83891 0.31058,5.31751 0.0772,0.47508 0.0793,1.02877 0.005,1.23041 -0.33855,0.91521 -0.36357,2.57504 -0.0548,3.62924 0.35646,1.21693 0.53846,1.46439 1.59111,2.16679 0.59092,0.3943 0.90303,0.49692 1.31569,0.43202 0.80341,-0.12637 2.35527,-1.33864 2.57142,-2.00867 0.35042,-1.08621 0.40769,-2.01673 0.1819,-2.95796 -0.19511,-0.81336 -0.18555,-1.16425 0.0734,-2.68459 0.61836,-3.63114 0.18736,-8.25379 -0.88212,-9.4573 -0.42145,-0.4743 -0.91756,-0.67793 -1.43299,-0.65681 z m -14.16555,2.42311 c 0.20676,0.0126 0.51958,0.20862 0.9834,0.60565 0.7012,0.6002 3.9386,2.43499 4.29638,2.43499 0.0996,0 0.043,-0.15221 -0.12557,-0.33848 -0.29747,-0.32866 -0.29579,-0.339 0.0584,-0.339 0.34576,0 0.3652,0.0776 0.36639,1.48157 6.7e-4,0.81492 0.0438,2.01509 0.0961,2.66702 0.0885,1.10131 0.0763,1.16204 -0.17312,0.85318 -0.24052,-0.29776 -0.32538,-0.30979 -0.81597,-0.11524 -0.30118,0.11944 -0.90624,0.32786 -1.34462,0.46353 -0.43837,0.13566 -0.8431,0.32117 -0.89917,0.41187 -0.13078,0.21121 -0.59014,0.2153 -0.59014,0.006 0,-0.0876 0.0764,-0.20647 0.16949,-0.26407 0.0931,-0.0576 0.1695,-0.21462 0.1695,-0.34882 0,-0.17111 -0.19937,-0.24391 -0.66662,-0.24391 -1.45393,0 -2.12074,-0.78041 -0.88315,-1.03353 1.16477,-0.23822 1.15805,-0.83604 -0.0181,-1.60558 -1.65883,-1.08544 -1.75977,-1.41614 -0.43305,-1.42214 0.87279,-0.004 1.49293,-0.27255 1.49293,-0.64699 0,-0.17255 -0.45252,-0.76053 -1.00562,-1.3069 -0.55309,-0.54636 -0.96775,-1.05464 -0.92139,-1.12964 0.0412,-0.0666 0.0942,-0.10844 0.16175,-0.12351 0.0254,-0.006 0.0526,-0.007 0.0822,-0.006 z m 13.65653,7.18251 c 0.0394,0.002 0.0771,0.01 0.11214,0.0232 0.34955,0.13414 0.35265,0.34241 0.008,0.47491 -0.38674,0.14844 -0.74827,0.12616 -0.74827,-0.046 0,-0.20243 0.25873,-0.4027 0.50643,-0.44494 0.0413,-0.007 0.0825,-0.01 0.12195,-0.007 z m 0.0589,0.77101 c 0.36703,0 0.66766,0.0759 0.66766,0.16898 0,0.0931 -0.34745,0.1695 -0.77204,0.1695 -0.47154,0 -0.73158,-0.0661 -0.66766,-0.1695 0.0576,-0.0931 0.405,-0.16898 0.77204,-0.16898 z m -0.01,0.67748 c 0.37252,0 0.67747,0.0764 0.67747,0.1695 0,0.0931 -0.30495,0.1695 -0.67747,0.1695 -0.37253,0 -0.67748,-0.0764 -0.67748,-0.1695 0,-0.0931 0.30495,-0.1695 0.67748,-0.1695 z m 0.2098,0.51521 c 0.25453,0 0.46767,0.0542 0.46767,0.16227 0,0.0931 -0.32404,0.16891 -0.71985,0.16691 -0.52704,-0.002 -0.65161,-0.0467 -0.4656,-0.16691 0.16717,-0.10803 0.46324,-0.16227 0.71778,-0.16227 z m -0.3793,0.50023 c 0.4692,0 0.519,0.0373 0.33899,0.25425 -0.11594,0.1397 -0.26866,0.25373 -0.33899,0.25373 -0.0703,0 -0.22254,-0.11403 -0.33848,-0.25373 -0.18001,-0.2169 -0.13074,-0.25425 0.33848,-0.25425 z"
       sodipodi:nodetypes="ccssssccccscsccccssscscccssssccsscsccccccsssccccccsssssssssscccscccssssssscscscssssssssssssssssccccscssccccscccccsssssssssscssscsssssssccssssssscsssssssscccssscssssscsccsssssscscssssssssssssssssssssssssscssssscscccscsssccccscssssscsssccccscscccsssssssssccscsssssssssssscssssssssscssssscssssssscssssccssssccssccssccssssssssccscssscssscscssscssssscssscsssssccssscccccssccsssssssscssscssssssscsssssss" />
  </g>
  <metadata
     id="metadata2343">
    <rdf:RDF>
      <cc:License
         rdf:about="http://creativecommons.org/publicdomain/zero/1.0/">
        <cc:permits
           rdf:resource="http://creativecommons.org/ns#Reproduction" />
        <cc:permits
           rdf:resource="http://creativecommons.org/ns#Distribution" />
        <cc:permits
           rdf:resource="http://creativecommons.org/ns#DerivativeWorks" />
      </cc:License>
      <cc:Work
         rdf:about="">
        <cc:license
           rdf:resource="http://creativecommons.org/publicdomain/zero/1.0/" />
        <dc:title>Suprised fish</dc:title>
      </cc:Work>
    </rdf:RDF>
  </metadata>
</svg>
