<?xml version="1.0" encoding="UTF-8" standalone="no"?>
<!-- Created with Inkscape (http://www.inkscape.org/) -->

<svg
   xmlns:dc="http://purl.org/dc/elements/1.1/"
   xmlns:cc="http://creativecommons.org/ns#"
   xmlns:rdf="http://www.w3.org/1999/02/22-rdf-syntax-ns#"
   xmlns:svg="http://www.w3.org/2000/svg"
   xmlns="http://www.w3.org/2000/svg"
   xmlns:sodipodi="http://sodipodi.sourceforge.net/DTD/sodipodi-0.dtd"
   xmlns:inkscape="http://www.inkscape.org/namespaces/inkscape"
   id="svg55785"
   version="1.1"
   inkscape:version="0.91 r13725"
   width="443.4375"
   height="634.6875"
   viewBox="0 0 443.4375 634.6875"
   sodipodi:docname="Flower21.svg">
  <metadata
     id="metadata55791">
    <rdf:RDF>
      <cc:Work
         rdf:about="">
        <dc:format>image/svg+xml</dc:format>
        <dc:type
           rdf:resource="http://purl.org/dc/dcmitype/StillImage" />
        <dc:title></dc:title>
      </cc:Work>
    </rdf:RDF>
  </metadata>
  <defs
     id="defs55789" />
  <sodipodi:namedview
     pagecolor="#ffffff"
     bordercolor="#666666"
     borderopacity="1"
     objecttolerance="10"
     gridtolerance="10"
     guidetolerance="10"
     inkscape:pageopacity="0"
     inkscape:pageshadow="2"
     inkscape:window-width="1600"
     inkscape:window-height="837"
     id="namedview55787"
     showgrid="false"
     inkscape:zoom="1.0556376"
     inkscape:cx="221.71875"
     inkscape:cy="317.34375"
     inkscape:window-x="-8"
     inkscape:window-y="-8"
     inkscape:window-maximized="1"
     inkscape:current-layer="svg55785" />
  <path
     style="fill:#000000"
     d="m 240.41585,632.10937 c 1.43102,-6.53181 -4.80695,-23.46119 -9.47303,-25.7091 -1.42025,-0.68421 -2.81105,-2.21814 -3.09067,-3.40873 -0.98197,-4.18111 -2.40299,-2.44775 -4.46468,5.44596 -1.1447,4.38281 -2.79124,9.55175 -3.65898,11.48653 -1.49453,3.33234 -1.48835,3.61649 0.11721,5.39063 0.93219,1.03006 2.27138,1.87284 2.97595,1.87284 1.89227,0 3.72474,4.45361 2.38408,5.79427 -1.30637,1.30637 -7.58,-0.83992 -8.71605,-2.98187 -3.90497,-7.36266 -3.90313,-7.215 -0.18559,-14.88322 2.9617,-6.10913 3.47071,-8.10164 3.50248,-13.71043 0.0402,-7.09791 -1.25398,-8.59103 -3.65669,-4.21875 -8.34234,15.1807 -10.36863,20.24942 -10.36863,25.93686 0,3.17933 -0.30324,6.08413 -0.67387,6.45511 -1.19675,1.1979 -5.42053,-2.33567 -5.4064,-4.52295 0.0172,-2.6584 8.53288,-20.41638 10.60962,-22.12443 0.86042,-0.70767 1.5644,-2.07877 1.5644,-3.04688 0,-1.8897 -1.38894,-2.36762 -2.35203,-0.80931 -0.32323,0.52299 -2.33406,1.84183 -4.46852,2.93074 -2.13445,1.08892 -6.85192,4.50609 -10.48326,7.59371 -8.0148,6.81474 -11.57921,8.49447 -16.2612,7.66308 -5.13172,-0.91126 -14.24749,-10.29118 -14.24749,-14.66033 0,-2.34088 2.87917,-1.86976 4.1952,0.68646 5.71081,11.09242 11.44691,11.43368 24.69709,1.4693 4.53337,-3.40918 9.66133,-6.38872 12.38989,-7.19901 8.02603,-2.38348 5.7982,-3.52403 -5.48842,-2.80985 -14.72298,0.93163 -32.1366,-1.33405 -65.32501,-8.49941 -21.95146,-4.73932 -35.962078,-5.24824 -45.9375,-1.66865 -3.609375,1.29519 -11.348588,3.63177 -17.198253,5.1924 -10.313129,2.75144 -11.166268,2.8287 -28.125,2.54721 -15.285064,-0.25371 -17.951177,-0.52661 -21.154465,-2.1653 -2.01587,-1.03125 -3.70337,-2.27306 -3.75,-2.75957 -0.04663,-0.48651 4.977718,-2.89598 11.165218,-5.35437 10.864087,-4.31646 20.804078,-8.99215 43.59375,-20.50616 10.103532,-5.10461 22.922316,-10.4764 31.31172,-13.12138 5.53607,-1.74539 14.35854,-1.39951 20.25078,0.79391 2.83594,1.0557 8.74219,3.25765 13.125,4.89322 21.70219,8.09881 49.39346,15.0064 60.38802,15.0638 4.00579,0.0209 7.46575,-0.14448 7.68881,-0.36754 0.22306,-0.22306 -2.03031,-1.30393 -5.0075,-2.40194 -2.97719,-1.09801 -10.89746,-5.65716 -17.60058,-10.13146 -6.70313,-4.4743 -15.14063,-9.38179 -18.75,-10.90554 -3.60938,-1.52375 -7.03569,-3.1487 -7.61404,-3.61101 -0.57834,-0.4623 -3.95334,-1.8449 -7.5,-3.07245 -10.72603,-3.71242 -40.74444,-18.17908 -46.76096,-22.53533 -4.788441,-3.46706 -15.549617,-9.0136 -16.430987,-8.46889 -0.460399,0.28454 -1.531326,2.92875 -2.379837,5.87603 -3.192172,11.08789 -7.174558,20.38233 -10.901239,25.44225 -6.995282,9.49786 -21.646212,19.37444 -23.732523,15.99871 -0.32491,-0.52571 0.731116,-4.85147 2.346725,-9.61281 2.585221,-7.61886 5.591944,-25.47189 5.620964,-33.37564 0.0091,-2.47739 0.755131,-2.52017 -11.241853,0.6446 -7.536088,1.98799 -28.187145,4.68821 -38.8735847,5.0829 -5.6053936,0.20703 -6.57782547,0.007 -6.86881951,-1.41609 C -0.21083342,514.32696 10.618387,502.74841 16.875,498.47743 c 2.320312,-1.58392 4.534846,-3.39818 4.921185,-4.03167 1.116043,-1.83002 11.644066,-8.17958 23.03199,-13.89083 7.357266,-3.68982 10.480741,-5.74509 10.472309,-6.89088 -0.0066,-0.89804 0.603908,-4.58593 1.356704,-8.1953 1.374279,-6.58915 3.10347,-22.19999 3.874424,-34.97762 0.579535,-9.60509 4.575105,-31.97774 7.364566,-41.23689 1.28862,-4.27736 3.519611,-9.9387 4.957759,-12.58077 2.328052,-4.27694 3.180288,-4.99524 7.771063,-6.54968 13.065676,-4.42406 33.70611,-5.74134 48.67745,-3.10662 8.35666,1.47065 13.1578,3.9825 16.62312,8.69687 3.82946,5.20976 10.67365,19.75876 14.4263,30.66664 3.46162,10.06193 8.139,22.0137 14.50236,37.05682 1.19962,2.83594 3.45997,8.95313 5.02299,13.59375 1.56302,4.64063 4.59386,12.65625 6.73517,17.8125 2.14133,5.15625 6.01189,15.49219 8.60126,22.96875 10.26073,29.62698 11.48807,32.50774 13.2329,31.05966 0.9126,-0.75739 1.04046,-2.1941 0.48907,-5.49569 -0.41061,-2.45862 -1.20174,-15.64991 -1.75807,-29.31397 -2.58426,-63.4719 -7.28078,-99.23739 -14.4726,-110.21349 -3.79647,-5.79415 -18.36192,-9.33226 -19.06149,-4.63026 -0.8009,5.38307 -1.20582,6.09375 -3.47209,6.09375 -4.81551,0 -5.4187,-7.74867 -0.97632,-12.54208 2.04471,-2.20629 2.95745,-2.45792 8.9153,-2.45792 3.77905,0 8.08675,0.60559 10.003,1.40625 1.8511,0.77344 3.53309,1.40625 3.73776,1.40625 1.79397,0 -8.89754,-25.46624 -17.31802,-41.25 -3.43852,-6.44531 -6.40851,-12.14063 -6.60001,-12.65625 -1.54937,-4.17199 -13.52117,-23.26437 -16.60772,-26.48568 -3.77196,-3.93664 -4.01905,-4.03813 -9.39647,-3.85966 -14.62789,0.48549 -30.86389,-2.65389 -37.84964,-7.31856 -1.79548,-1.19893 -3.87544,-2.17985 -4.622144,-2.17985 -0.7467,0 -3.9183,1.65094 -7.047995,3.66875 -4.186735,2.6993 -7.72111,4.07546 -13.375575,5.20795 -8.787028,1.75988 -11.633676,1.43665 -21.990786,-2.49695 -5.637453,-2.1411 -7.296045,-3.20372 -7.735907,-4.95628 -1.162714,-4.63262 3.051868,-10.82219 10.266263,-15.07712 3.021308,-1.78191 5.254583,-2.26469 10.989922,-2.37573 l 7.198066,-0.13935 0.260078,-12.77501 c 0.241574,-11.86606 0.387692,-12.77501 2.053651,-12.77501 1.686536,0 1.78063,0.73607 1.576685,12.33389 -0.191341,10.88107 0.0115,12.78157 1.722052,16.13453 2.346482,4.59948 2.487973,8.81737 0.366935,10.93841 -1.227736,1.22773 -2.547028,1.44266 -6.024169,0.9814 -4.777218,-0.63372 -6.511335,0.4233 -4.557243,2.77783 1.401184,1.68833 10.576291,1.78618 14.161155,0.15103 3.588394,-1.63676 8.864749,-6.58642 10.601665,-9.94525 3.942207,-7.62337 3.549737,-18.70294 -0.899822,-25.40309 -2.568656,-3.86787 -8.326993,-10.3125 -9.214323,-10.3125 -1.092731,0 -0.663408,7.75456 0.824066,14.88457 0.793534,3.8037 1.275971,7.08263 1.072082,7.28653 -0.945524,0.94552 -6.266406,-16.48551 -6.266406,-20.52853 0,-2.39046 -0.295941,-2.67015 -2.547843,-2.40796 -1.661796,0.19348 -3.332243,1.43774 -4.803406,3.57789 l -2.255564,3.28125 0.616946,-4.92188 c 0.339321,-2.70703 0.480681,-4.92187 0.314134,-4.92187 -0.896734,0 -7.738182,3.89055 -9.254467,5.26277 -0.972837,0.8804 -2.01975,1.34978 -2.326473,1.04306 -0.673237,-0.67324 4.195779,-7.24333 5.367944,-7.24333 0.454426,0 0.826229,-0.68716 0.826229,-1.52703 0,-1.29667 -0.742464,-1.43253 -4.921875,-0.9006 -5.446909,0.69325 -14.622804,4.7146 -15.404207,6.75089 -0.27554,0.71805 0.177294,3.00072 1.006299,5.07262 0.829006,2.07188 1.507283,5.90035 1.507283,8.50771 0,3.98966 -0.434116,5.17475 -2.740385,7.48102 -3.797095,3.7971 -7.002159,3.607 -11.020482,-0.65367 -3.421282,-3.62762 -4.615105,-3.66612 -3.725122,-0.12015 0.322473,1.28484 2.219442,3.1505 4.565715,4.49035 5.626836,3.21326 15.100635,3.11219 20.18783,-0.21534 1.932532,-1.26408 4.205476,-2.5541 5.050987,-2.86673 0.845511,-0.31263 3.165824,-3.59425 5.15625,-7.29249 2.68923,-4.99661 3.69624,-6.21617 3.919778,-4.74709 0.57643,3.78824 -4.654426,12.23966 -10.247026,16.55596 -10.702478,8.26006 -22.729121,8.02077 -33.793188,-0.6724 -2.748966,-2.1599 -3.839741,-4.03547 -5.513818,-9.48093 -2.33144,-7.58374 -3.004126,-21.41547 -1.197385,-24.6206 2.142857,-3.80139 14.688515,-6.53019 19.119664,-4.15871 1.004879,0.53779 2.881162,2.64762 4.169519,4.68852 l 2.342466,3.7107 4.94934,-2.79323 c 2.722138,-1.53628 7.251713,-3.12458 10.065724,-3.52956 6.916646,-0.9954 6.741341,-2.87122 -0.508617,-5.44235 C 53.674805,215.78751 48.75,213.5444 48.75,212.67029 c 0,-1.26879 4.051132,-0.86257 5.982663,0.59991 1.999291,1.51378 11.684196,3.75044 12.538872,2.89577 0.308186,-0.30819 -0.252614,-1.21325 -1.246223,-2.01124 -1.709132,-1.37265 -1.640015,-1.43111 1.281589,-1.08413 5.082567,0.60365 4.399422,-0.93923 -2.337151,-5.27843 -9.779058,-6.29895 -9.505516,-6.31149 -16.613402,0.76149 -6.598668,6.56626 -7.990478,7.04947 -14.832185,5.1494 -4.310552,-1.19711 -9.146797,-6.14211 -9.122925,-9.32806 0.0194,-2.58854 2.973352,-8.01143 9.278253,-17.03306 7.581323,-10.84806 10.410999,-13.78151 15.713858,-16.29017 4.438798,-2.09989 5.93654,-2.3556 10.922304,-1.86482 3.177954,0.31283 6.248769,0.23703 6.824034,-0.16846 0.575265,-0.40548 1.936807,-2.49468 3.02565,-4.64267 1.088843,-2.14798 3.293624,-4.841 4.899513,-5.9845 2.639985,-1.87983 3.697683,-2.03035 11.03685,-1.57066 13.099872,0.82051 17.27205,2.19569 23.19457,7.64509 4.75259,4.37294 5.25176,5.22894 6.2424,10.70505 1.21826,6.73426 2.8487,8.03152 8.97793,7.14327 6.28037,-0.91016 13.25844,4.66505 15.38215,12.28973 2.75882,9.90498 1.10136,36.3821 -2.649,42.31634 -1.90216,3.00982 -1.70059,3.7592 2.30648,8.57475 6.84555,8.22672 10.12216,15.66194 17.5953,39.92693 0.94487,3.06794 2.61712,6.90309 3.71612,8.52256 1.09899,1.61945 3.60788,6.07026 5.5753,9.89067 1.96743,3.82041 5.33387,9.68839 7.48099,13.03995 4.9172,7.67555 18.09696,36.97975 21.92968,48.75902 1.59546,4.90339 3.9124,13.89642 5.14874,19.98451 1.23635,6.08808 2.50097,11.32231 2.81027,11.63161 1.10112,1.10111 0.48609,-41.76206 -0.84388,-58.81264 -0.74407,-9.53906 -1.36516,-20.71875 -1.38022,-24.84375 -0.0314,-8.61457 -3.29598,-21.97549 -7.57475,-31.0014 -2.60746,-5.50037 -7.30099,-10.62317 -15.23137,-16.62443 -6.13624,-4.64357 -3.70786,-6.00087 3.82688,-2.13896 5.09742,2.61267 12.77448,10.13621 14.18916,13.90542 2.663,7.09514 3.02973,-0.8581 0.98347,-21.32813 -0.51544,-5.15625 -1.34639,-15.91406 -1.84657,-23.90625 -1.7055,-27.25185 -1.94546,-30.47316 -2.94852,-39.58196 -0.92765,-8.42396 -1.19982,-9.23936 -3.59869,-10.78125 -5.74688,-3.69385 -15.90649,-18.0507 -15.94148,-22.52741 -0.0104,-1.32511 -0.80012,-1.48895 -6.10291,-1.26607 -4.59268,0.19302 -8.70053,-2.34689 -10.7689,-6.6585 -1.39596,-2.90992 -1.73589,-3.07521 -5.80078,-2.82057 -5.96872,0.3739 -7.33657,-1.19426 -7.33657,-8.41094 0,-4.43879 0.84949,-7.8185 3.93013,-15.63616 3.85002,-9.77009 4.1282,-10.1708 13.64686,-19.65781 5.3442,-5.326427 9.5653,-10.138699 9.38023,-10.693924 -0.18508,-0.555225 -2.42382,0.943322 -4.97498,3.330103 -2.55117,2.386781 -7.27663,5.644151 -10.50103,7.238611 -7.44014,3.6791 -17.36006,13.47674 -19.2445,19.00727 -1.42852,4.1925 -0.95698,6.90379 1.56467,8.99657 3.14998,2.61426 0.86815,8.52454 -3.29114,8.52454 -2.68329,0 -8.31281,-6.4795 -8.31826,-9.57421 -0.009,-5.27697 3.64188,-12.49281 9.14585,-18.07499 5.53718,-5.61587 16.84366,-13.6008 19.25841,-13.6008 0.74893,0 1.93109,-0.686091 2.62702,-1.524647 1.15078,-1.386609 0.88531,-1.450275 -2.93208,-0.703125 -2.30858,0.451838 -9.04899,0.767747 -14.97868,0.702028 -8.70703,-0.09651 -11.63917,-0.496425 -15.24049,-2.078681 -6.55143,-2.878397 -7.33547,-5.308995 -3.97826,-12.333075 2.28662,-4.784168 2.50972,-5.921299 1.56742,-7.989411 -1.52814,-3.353886 -1.37187,-9.015843 0.3153,-11.424627 3.81529,-5.447087 27.04912,-4.89796 47.55004,1.123834 5.11299,1.501851 6.70751,0.560105 2.2965,-1.356342 -2.92673,-1.271576 -10.44851,-6.819228 -16.21966,-11.962732 -1.61034,-1.435209 -6.18905,-7.585316 -10.17491,-13.666904 -7.73802,-11.806594 -10.12538,-14.098689 -14.18617,-13.620061 -3.92394,0.462498 -3.99939,2.646243 -0.0914,2.646243 4.48318,0 6.19223,2.161844 4.33227,5.480078 -2.06616,3.686124 -5.5132,5.062979 -9.40928,3.758364 -3.68478,-1.233863 -7.11613,-4.097744 -7.91124,-6.602901 -0.8292,-2.612595 3.672,-9.658331 7.06928,-11.065527 3.59367,-1.488548 9.86901,-0.715882 12.3388,1.519244 1.71522,1.552258 7.26145,8.962508 12.99184,17.358261 6.10258,8.941061 10.84988,14.271439 16.56048,18.594469 3.42052,2.589406 7.04907,4.708012 8.06342,4.708012 1.58466,0 1.37931,-0.514666 -1.4588,-3.65611 -4.99904,-5.533342 -11.95255,-21.311038 -15.63865,-35.484515 -1.54857,-5.954402 0.0871,-11.121802 4.13087,-13.0501312 2.86791,-1.3676135 3.38186,-1.364528 6.19163,0.037172 4.21986,2.1051404 4.51537,2.0245904 8.1498,-2.2214165 2.50355,-2.9248345 3.8699,-3.75 6.20946,-3.75 4.32162,0 6.45397,1.8885552 11.37306,10.0727189 5.52754,9.196478 7.74981,15.803347 8.55234,25.426437 0.93109,11.164663 2.63962,10.182539 6.30465,-3.624156 1.3003,-4.898437 2.65856,-10.793736 3.01835,-13.100662 0.87411,-5.604638 4.86591,-14.8876566 7.76151,-18.0495424 3.46022,-3.77843693 7.79815,-4.94140333 12.99958,-3.48509235 4.99862,1.39952695 7.77339,5.11742565 7.77879,10.42274175 0.009,9.152734 -12.92196,13.85355 -15.9804,5.809243 -2.21112,-5.815688 3.13214,-10.4981146 6.80451,-5.962943 1.26887,1.566996 2.03773,1.882928 2.77881,1.141848 2.61263,-2.6126317 -3.22217,-6.7723162 -7.42585,-5.2939606 -3.07558,1.0816244 -7.206,8.8035396 -8.73531,16.3308686 -0.57617,2.835937 -1.83831,7.371094 -2.80474,10.078125 -1.03126,2.888594 -1.35602,4.921875 -0.78612,4.921875 0.53406,0 2.852,-1.294146 5.15098,-2.875879 2.29896,-1.581733 6.59373,-3.907793 9.54391,-5.169021 2.95019,-1.261229 6.06813,-2.691538 6.92877,-3.178463 0.86064,-0.486925 5.35734,-1.171619 9.99268,-1.52154 8.26795,-0.624147 8.47542,-0.588669 10.93373,1.869631 2.21349,2.213493 2.42951,2.966738 1.85157,6.456187 -0.35985,2.172684 -1.04666,4.697335 -1.52625,5.610335 -1.2146,2.312238 -0.34944,3.288897 3.93554,4.442723 3.81507,1.027291 6.52918,4.466817 6.52918,8.27427 0,2.652688 -7.83239,11.727952 -14.35051,16.627717 -3.10958,2.337515 -8.95751,5.792922 -12.99539,7.678681 -4.03788,1.88576 -7.3416,3.762039 -7.3416,4.169507 0,0.407469 4.76293,0.740852 10.58428,0.740852 20.13239,0 33.47612,5.980253 33.46949,15 -0.004,5.31743 -1.91421,9.48567 -4.92804,10.75289 -3.22608,1.35647 -4.57627,1.0799 -8.42261,-1.72526 -3.02329,-2.20491 -3.39974,-5.709443 -0.76475,-7.119649 2.61763,-1.400915 5.66029,-1.19249 6.28304,0.430388 1.1723,3.054951 2.02728,0.207459 0.91941,-3.062082 -0.97158,-2.867372 -2.21787,-4.04817 -6.93969,-6.575054 -5.68728,-3.043542 -5.93627,-3.085314 -21.02516,-3.527337 -18.34334,-0.53736 -27.58675,-1.135541 -30.73847,-1.989218 -2.11112,-0.571819 -2.21517,-0.478068 -1.04834,0.944535 0.71248,0.868651 4.18568,2.457258 7.71824,3.530237 10.27364,3.120522 24.37246,12.09392 33.99938,21.63939 l 8.32553,8.25509 -0.48843,4.33338 c -0.74106,6.57471 -3.73393,9.07518 -11.45044,9.56653 l -6.11844,0.38959 0,4.90174 c 0,5.43357 -1.27823,7.2407 -6.37929,9.01894 -2.49322,0.86914 -3.62458,0.72177 -6.97038,-0.908 -3.67721,-1.79119 -12.82061,-9.96047 -14.77843,-13.20396 -1.64396,-2.7235 -2.18019,0.19708 -2.87682,15.66848 -0.74932,16.64203 -1.76127,21.51527 -6.02711,29.02502 -4.32109,7.60702 -4.92596,12.1654 -4.09191,30.8371 2.1695,48.56822 3.65168,72.16816 5.52904,88.036 0.48804,4.125 1.39291,12.04392 2.01084,17.5976 0.69715,6.26572 1.50142,9.97321 2.1194,9.76982 1.00704,-0.33144 4.95436,-10.81157 9.24856,-24.55492 1.28888,-4.125 2.62211,-10.94704 2.96271,-15.1601 1.44296,-17.84824 5.36436,-29.95882 13.40229,-41.39069 3.91827,-5.57273 6.4302,-7.46386 7.92652,-5.96754 1.51563,1.51563 2.55554,15.4121 1.75074,23.39541 -0.74064,7.34682 -3.03993,13.87302 -7.01256,19.90417 -8.47671,12.86913 -11.77269,18.50185 -15.71059,26.84896 -2.46634,5.22787 -4.89801,11.13412 -5.40371,13.125 -0.5057,1.99088 -1.7359,5.9401 -2.73377,8.77604 -0.99788,2.83594 -2.55706,11.69531 -3.46485,19.6875 -2.62616,23.12082 -1.96505,111.00253 1.08964,144.84375 0.73829,8.17921 1.72545,6.05982 2.61998,-5.625 0.35527,-4.64063 1.03026,-10.75781 1.49998,-13.59375 0.46973,-2.83594 1.29413,-9.58594 1.83202,-15 0.87031,-8.76014 2.25301,-17.28565 7.07016,-43.59375 0.75531,-4.125 1.80915,-10.24219 2.34187,-13.59375 1.46549,-9.22007 2.71282,-14.59748 5.65399,-24.375 2.67312,-8.88647 7.59201,-25.75882 9.83932,-33.75 0.65253,-2.32031 2.43975,-7.80469 3.97162,-12.1875 1.53185,-4.38281 5.13189,-14.71875 8.00009,-22.96875 2.86819,-8.25 8.02251,-21.32813 11.45404,-29.0625 3.43153,-7.73438 7.44478,-17.09447 8.91835,-20.8002 1.47356,-3.70574 3.77886,-8.90778 5.12289,-11.56009 3.76588,-7.43162 3.43998,-7.7986 -7.89441,-8.88971 -13.67142,-1.31608 -13.60331,-1.09383 -6.17743,-20.15625 2.22023,-5.69937 3.75387,-11.55631 4.25929,-16.26609 1.04916,-9.77653 3.88644,-15.50083 8.83258,-17.81997 3.32499,-1.55901 4.24375,-1.61568 8.73318,-0.53868 6.06261,1.4544 8.23886,3.89106 9.10596,10.19555 0.75779,5.50981 -0.82494,9.47151 -5.65375,14.15178 -1.78478,1.72988 -3.24505,3.46523 -3.24505,3.85633 0,0.39112 1.53284,0.99868 3.4063,1.35014 3.61473,0.67813 16.2812,-1.17002 16.2812,-2.37556 0,-0.39255 -1.02124,-2.1472 -2.26943,-3.89924 -4.09967,-5.75459 -5.9189,-10.56884 -7.14266,-18.9017 -1.04065,-7.0861 -1.00078,-9.36174 0.28984,-16.54454 1.71686,-9.55498 4.74638,-16.51868 8.31772,-19.11922 3.29247,-2.39748 8.11976,-3.22162 23.51889,-4.01528 12.24884,-0.63128 13.09219,-0.55814 17.45711,1.5142 3.51656,1.66955 5.27083,3.32165 7.52002,7.08203 4.40922,7.37172 3.77083,12.02051 -2.45826,17.90127 -5.89328,5.56372 -11.76498,7.99788 -19.57954,8.11683 -5.91769,0.0901 -7.11199,-0.1817 -9.13032,-2.07783 -3.78487,-3.55569 -4.64302,-1.92829 -4.08902,7.75442 0.50657,8.85368 3.17946,17.02294 5.91291,18.07186 0.73437,0.28181 3.49459,-0.87328 6.13381,-2.56686 2.63921,-1.69359 6.96456,-3.79282 9.61188,-4.66497 l 4.8133,-1.58572 -0.29066,-3.80958 c -0.40205,-5.26933 3.78769,-12.28925 8.99938,-15.07845 2.82365,-1.51117 10.14621,-1.27951 13.44294,0.4253 4.68656,2.42351 6.99116,10.27018 4.12815,14.05542 -1.94573,2.57249 -1.75683,3.98547 0.57926,4.33273 3.86241,0.57415 5.95343,4.90181 5.95343,12.32145 0,15.6987 -8.42753,20.29203 -23.47889,12.7969 -4.37652,-2.17937 -6.83835,-2.78123 -11.38765,-2.784 -3.19223,-0.002 -6.02057,0.34681 -6.28521,0.77501 -0.95051,1.53796 2.08575,10.3702 5.04213,14.66715 2.66012,3.86636 7.61465,7.97829 9.62524,7.98831 0.38672,0.002 0.70313,-1.41066 0.70313,-3.1391 0,-4.6193 3.51142,-9.27602 7.7506,-10.27856 5.32968,-1.26045 10.10641,0.24623 12.6238,3.98176 2.58508,3.83602 2.68996,6.87169 0.37087,10.73501 -0.9651,1.60772 -1.99567,5.10227 -2.29017,7.76563 -0.73467,6.64413 -5.36932,15.54318 -9.38865,18.02726 -4.16224,2.57241 -6.91748,2.49066 -11.96588,-0.35502 -2.2725,-1.28097 -6.37611,-3.45368 -9.11912,-4.82824 -2.88902,-1.44771 -6.83333,-4.60438 -9.375,-7.50289 -2.41324,-2.75202 -4.85675,-5.009 -5.43002,-5.01551 -0.57328,-0.007 -3.2013,4.31239 -5.84004,9.59754 l -4.79771,9.60938 5.68593,0.47251 c 4.9432,0.41079 6.04281,0.87196 8.41816,3.53042 2.12634,2.37979 2.73223,3.95794 2.73223,7.11656 0,6.86138 -4.66068,9.16614 -18.94532,9.3687 -12.16664,0.17252 -14.17372,-0.41466 -17.60409,-5.15015 -5.09913,-7.03914 -4.91436,-13.96654 0.54258,-20.34174 3.87709,-4.52951 3.0456,-4.82018 -4.83104,-1.68886 -9.95473,3.95746 -12.35779,5.47441 -15.77908,9.96069 -3.9748,5.21211 -10.90203,18.96727 -13.22633,26.26312 -0.90348,2.83594 -3.48803,9.67425 -5.74345,15.19626 -2.25542,5.52199 -4.10077,10.64236 -4.10077,11.37857 0,0.73622 -1.63402,6.34322 -3.63117,12.46001 -1.99714,6.11677 -3.92498,12.59797 -4.28408,14.40266 -0.3591,1.80469 -1.64326,6.44531 -2.85368,10.3125 -4.57372,14.6126 -10.76815,40.30725 -12.65663,52.5 -1.07814,6.96094 -2.58544,16.24219 -3.34956,20.625 -3.29488,18.89884 -6.83148,42.74291 -7.57832,51.09375 -0.23058,2.57812 -1.21596,12.28125 -2.18975,21.5625 -3.09511,29.49973 -3.1057,49.19349 -0.0149,27.7446 1.92935,-13.38903 7.11838,-37.02982 10.61687,-48.3696 1.27262,-4.125 3.81294,-12.35156 5.64515,-18.28125 5.58351,-18.07023 19.97575,-51.89869 25.92573,-60.9375 6.29493,-9.56284 8.23446,-12.20164 11.62277,-15.81309 2.11274,-2.2519 5.95072,-5.09543 8.52885,-6.31897 4.14179,-1.96564 5.9972,-2.22056 15.9375,-2.18972 14.50748,0.045 33.40123,1.33585 39.375,2.69014 6.16441,1.39751 10.95823,5.85879 32.34375,30.10016 3.35156,3.79914 7.99219,8.83252 10.3125,11.1853 3.7004,3.75216 11.34951,13.2366 13.4808,16.71537 1.08383,1.76907 -1.12866,3.94331 -4.01267,3.94331 -3.12065,0 -12.96115,-4.71112 -24.20558,-11.58838 -4.75406,-2.90764 -8.89681,-5.28662 -9.20611,-5.28662 -0.30931,0 -2.40192,-1.26563 -4.65022,-2.8125 -2.2483,-1.54688 -4.31761,-2.8125 -4.59845,-2.8125 -0.28084,0 -4.84546,-2.9033 -10.14359,-6.45177 -11.48469,-7.69199 -20.38329,-12.29823 -23.75845,-12.29823 -3.50115,0 -6.91494,2.35027 -10.86863,7.48263 -22.98108,29.83229 -31.47714,42.94299 -43.7529,67.51737 -6.90564,13.82415 -8.53422,17.33591 -15.65155,33.75 -6.81561,15.71828 -7.948,18.67613 -10.33261,26.98929 -2.73724,9.54248 -2.53359,13.82953 0.42998,9.05182 1.7963,-2.89592 25.18352,-25.52787 33.55067,-32.46721 2.68095,-2.22346 9.85282,-8.28251 15.9375,-13.46456 6.08466,-5.18205 13.1724,-10.86013 15.75053,-12.61795 2.57812,-1.75782 6.37903,-4.47889 8.44646,-6.04683 8.34996,-6.33263 9.81976,-6.60131 28.87022,-5.27746 9.38208,0.65197 18.62652,1.58269 20.54322,2.06826 1.9167,0.48558 10.98702,1.29744 20.15625,1.80415 18.81128,1.03952 28.58232,2.57766 35.42135,5.57595 2.57812,1.13026 8.1897,3.33006 12.47017,4.88843 5.85953,2.13323 7.71058,3.21257 7.49089,4.36788 -0.23232,1.22175 -1.91398,1.65033 -8.25142,2.10291 -28.02977,2.00174 -43.0417,2.74021 -59.99089,2.95114 -14.97534,0.18637 -19.77024,0.5487 -21.71653,1.64105 -1.37378,0.77104 -5.05609,2.76194 -8.18291,4.42424 -3.12683,1.66229 -7.42374,4.11988 -9.54869,5.4613 -2.12494,1.34142 -5.82544,3.53109 -8.22333,4.86593 -2.39788,1.33484 -9.21135,5.5899 -15.14104,9.4557 -5.92969,3.8658 -12.36328,8.01528 -14.29688,9.22109 -8.99651,5.61029 -11.94748,7.6046 -18.28125,12.35479 -7.96704,5.9751 -8.76678,8.07074 -2.8125,7.36992 2.19141,-0.25793 5.88282,-0.97722 8.20313,-1.59843 2.32031,-0.62121 10.54687,-2.83206 18.28125,-4.913 7.73437,-2.08094 19.54687,-4.93649 26.25,-6.34565 6.70312,-1.40916 14.8583,-3.24851 18.1226,-4.08744 11.52778,-2.96264 15.84356,-2.33029 40.3702,5.91513 12.17271,4.09225 26.56189,8.52786 31.97595,9.85691 16.66832,4.09178 36.8649,10.30159 37.24349,11.45121 0.19785,0.60078 -0.61272,1.39087 -1.80126,1.75577 -1.18854,0.36489 -5.41185,2.13837 -9.38515,3.94106 l -7.22416,3.27762 -19.49459,-1.06051 c -23.45145,-1.27578 -24.84933,-1.47095 -56.52583,-7.89245 -21.39694,-4.33762 -25.34489,-4.79071 -32.41046,-3.71965 -5.93916,0.90031 -14.32812,3.37513 -21.49579,6.34147 -1.54688,0.64017 -5.13281,2.06017 -7.96875,3.15556 -2.83594,1.09539 -11.23152,4.34461 -18.65685,7.22048 -7.42534,2.87589 -15.44096,5.44801 -17.8125,5.71584 -4.13948,0.46749 -15.97856,-0.74096 -20.57834,-2.10049 -1.76589,-0.52194 -2.13855,-0.33251 -1.875,0.95305 0.3608,1.75986 1.59708,2.51769 12.14121,7.44248 7.48069,3.49396 16.8684,5.48909 24.75023,5.26006 6.72726,-0.19548 7.23068,-0.10697 6.80014,1.19551 -0.26052,0.78816 -3.42941,1.32537 -9.67767,1.64063 -7.67484,0.38724 -9.34186,0.73913 -9.58675,2.02362 -0.16303,0.85519 0.25442,2.01031 0.92768,2.56694 9.4634,7.82415 14.79588,11.47057 20.74357,14.18472 3.92424,1.79079 7.14944,3.83851 7.16712,4.55051 0.0516,2.07446 -5.90919,0.64351 -14.50947,-3.48319 -6.35295,-3.04836 -8.61334,-4.79156 -13.64568,-10.52351 -3.31729,-3.77847 -7.40364,-8.13242 -9.08078,-9.67544 -2.98895,-2.74994 -10.22684,-5.89872 -11.23702,-4.88855 -0.28142,0.28144 1.44382,2.80065 3.83388,5.59825 3.62609,4.24438 4.5795,6.19857 5.75841,11.80289 2.1703,10.31728 1.77898,15.96876 -1.10572,15.96876 -1.01786,0 -1.23209,-0.67716 -0.81561,-2.57813 z m -29.58612,-41.82276 c 5.73855,-0.14818 5.98875,-0.46645 7.1039,-9.03661 0.36901,-2.83594 1.45668,-7.89844 2.41705,-11.25 0.96038,-3.35156 3.62877,-12.84375 5.92976,-21.09375 7.15582,-25.6566 19.30142,-57.25109 27.35698,-71.16411 2.03848,-3.52071 4.86685,-8.50969 6.28528,-11.0866 6.06087,-11.01109 14.29483,-23.93271 19.78297,-31.04556 3.24269,-4.20268 7.82524,-10.17248 10.18346,-13.26623 6.3916,-8.38516 13.36431,-15.3084 16.11245,-15.99814 4.0582,-1.01854 2.73572,-2.28311 -2.38765,-2.28311 -3.61064,0 -5.79126,0.62068 -8.67187,2.46832 -4.01436,2.57484 -11.67042,11.2254 -15.38582,17.3844 -1.18938,1.97162 -2.56406,3.58478 -3.05482,3.58478 -1.00328,0 0.33468,-2.63303 3.81108,-7.5 1.28906,-1.80469 3.14288,-4.75781 4.1196,-6.5625 0.97673,-1.80469 2.63229,-4.23047 3.67905,-5.39063 1.62278,-1.79858 1.67774,-2.10937 0.37299,-2.10937 -1.63321,0 -6.68438,4.64755 -11.71756,10.78125 -4.8018,5.85175 -2.80462,0.35242 2.27233,-6.25691 2.24734,-2.92569 4.08609,-5.79956 4.08609,-6.38638 0,-1.83675 -8.10946,4.66035 -11.21575,8.98578 -1.62979,2.26945 -3.35892,4.12626 -3.84251,4.12626 -0.48358,0 -0.87924,0.58608 -0.87924,1.30239 0,1.78454 -3.43246,5.88439 -4.24713,5.07291 -0.90789,-0.90435 5.72304,-10.91429 13.361,-20.16954 6.16247,-7.46733 6.48261,-7.70452 10.57363,-7.83372 9.81704,-0.31001 17.12051,1.68699 25.78125,7.04941 2.57813,1.59628 5.74219,3.44074 7.03125,4.09879 5.08773,2.59721 7.76944,4.20794 16.33473,9.81119 31.41478,20.55096 46.47777,29.0684 46.47777,26.28109 0,-2.53525 -37.73946,-42.1348 -44.70636,-46.90982 -3.45936,-2.37101 -4.30202,-2.48917 -26.07489,-3.65603 -12.375,-0.66321 -23.96728,-1.22627 -25.76062,-1.25126 -2.81325,-0.0392 -4.01482,0.75852 -8.75754,5.81396 -10.15682,10.82655 -12.83253,15.35617 -27.77351,47.01683 -6.79692,14.403 -9.22609,21.43292 -18.49718,53.53005 -6.89531,23.872 -7.61626,27.00362 -9.69395,42.10798 -0.56141,4.08127 -2.03449,11.46408 -3.27352,16.40625 -1.42388,5.67951 -2.33139,12.26277 -2.46643,17.89202 -0.3219,13.41882 0.19593,12.82584 -11.27793,12.91465 -23.25047,0.17996 -55.15557,-5.73565 -55.15557,-10.22653 0,-0.55755 0.5889,-0.78774 1.30867,-0.51155 2.90775,1.11582 9.07555,2.55053 19.23255,4.47376 12.06238,2.284 35.80367,3.03244 38.85612,1.22493 2.13783,-1.26592 -2.92289,-1.98817 -21.98245,-3.13729 -10.14991,-0.61194 -13.67744,-1.20083 -17.34375,-2.89538 -6.55098,-3.02783 -3.32048,-3.37966 8.13956,-0.88644 8.98957,1.95573 29.15143,2.93172 30.6018,1.48135 1.13869,-1.13869 -0.77109,-1.74529 -7.91044,-2.51258 -12.84144,-1.38013 -34.17961,-5.52842 -40.65093,-7.90284 -2.28656,-0.83898 -5.42301,-1.85808 -6.96988,-2.26468 -1.54688,-0.4066 -7.66406,-2.46185 -13.59375,-4.56722 -19.37464,-6.87907 -24.5992,-8.00688 -31.51388,-6.80273 -10.885917,1.8957 -22.284371,6.66998 -54.014949,22.62434 -10.173669,5.11539 -19.086856,9.30071 -19.807083,9.30071 -0.720228,0 -1.793803,0.58355 -2.385725,1.29677 -1.924311,2.31865 1.465788,2.56216 19.997985,1.43641 14.578195,-0.88555 18.918615,-1.4824 23.504902,-3.23209 22.13625,-8.44509 41.87029,-8.75354 66.09375,-1.03304 4.63497,1.47727 12.88754,3.61197 20.15625,5.21387 2.57812,0.56817 9.30977,1.46553 14.9592,1.99414 5.64943,0.5286 10.50099,1.20116 10.78125,1.49458 0.28026,0.29341 4.7283,0.22981 9.88455,-0.14135 5.15625,-0.37116 11.64682,-0.73349 14.42347,-0.80518 z m 54.40184,-6.61736 c 2.27579,-0.82877 4.5961,-1.87451 5.15625,-2.32387 0.56013,-0.44936 5.23718,-2.38851 10.39343,-4.30925 5.15625,-1.92073 11.36634,-4.50128 13.8002,-5.73457 6.82344,-3.45759 11.63877,-4.77534 21.8248,-5.97256 8.87883,-1.04357 10.02003,-0.96763 21.5625,1.43492 12.68526,2.6404 14.43999,2.98302 27.77394,5.42288 7.30659,1.33697 25.13487,3.28539 43.94481,4.80264 6.39271,0.51564 19.76271,-1.12715 21.2461,-2.61055 1.08882,-1.08881 -0.87225,-2.50389 -3.46996,-2.50389 -1.50601,0 -4.32876,-0.59728 -6.27279,-1.32729 -1.94403,-0.73002 -6.69866,-2.03897 -10.56585,-2.90879 -10.02323,-2.25444 -24.43726,-6.68773 -34.01664,-10.46242 -22.58362,-8.89893 -31.43899,-9.8122 -50.37568,-5.19533 -6.43578,1.56907 -15.07643,3.37166 -19.20143,4.00575 -4.125,0.63408 -10.87448,2.19949 -14.99883,3.47868 -4.12435,1.2792 -11.92904,3.10472 -17.34375,4.05672 -23.04431,4.05158 -23.03425,4.04849 -31.36953,9.65235 -4.30538,2.89456 -8.29006,5.26283 -8.85481,5.26283 -0.56475,0 -1.02683,0.42187 -1.02683,0.9375 0,1.45027 1.13907,1.22217 15.81107,-3.16603 7.5461,-2.25694 14.77487,-4.36169 16.06393,-4.67723 1.28906,-0.31553 4.34766,-1.19095 6.79687,-1.94537 2.44922,-0.75443 4.45313,-0.97983 4.45313,-0.50091 0,1.37947 -7.24554,4.51374 -12.03607,5.20655 -2.4036,0.3476 -4.88556,1.0424 -5.51548,1.54398 -0.62991,0.50159 -2.52835,1.27499 -4.21875,1.71867 -10.22466,2.68366 -20.80473,6.26418 -21.0965,7.13949 -0.52912,1.58735 4.14551,2.34699 10.91594,1.77389 3.39328,-0.28723 5.63964,-0.27714 4.99189,0.0224 -0.64774,0.29958 -0.95863,0.89916 -0.69086,1.33243 0.47804,0.77348 8.15384,-1.18024 16.3189,-4.15365 z m -12.40903,-3.07196 c 1.12272,-0.21855 2.54547,-1.00484 3.16167,-1.74732 0.61621,-0.74249 1.76151,-1.34997 2.54513,-1.34997 2.57499,0 14.67945,-3.79378 18.26359,-5.72417 1.93142,-1.04025 3.98977,-1.59589 4.57411,-1.23475 0.62263,0.38481 -0.83103,1.5406 -3.51168,2.79209 -5.69769,2.66002 -22.91812,7.96108 -25.30302,7.78916 -1.44866,-0.10443 -1.39946,-0.20001 0.2702,-0.52504 z m -18.19222,-5.75537 c 5.15166,-4.67353 16.06416,-12.9918 35.51524,-27.07224 13.77942,-9.97478 21.6384,-16.02654 22.8811,-17.61945 0.54747,-0.70176 2.23497,-1.57562 3.75,-1.94191 2.38961,-0.57774 16.26074,-9.10236 28.06709,-17.24887 2.0625,-1.42315 6.07031,-3.78454 8.90625,-5.24754 l 5.15625,-2.66 37.03125,-0.60467 c 20.36719,-0.33256 37.13672,-0.66768 37.26563,-0.74471 1.25233,-0.74825 -0.44322,-2.03981 -3.28125,-2.49945 -1.9336,-0.31315 -7.10157,-1.67753 -11.48438,-3.03195 -6.07032,-1.8759 -11.09558,-2.6351 -21.09375,-3.18676 -7.21875,-0.39831 -16.71094,-0.95738 -21.09375,-1.24236 -41.59788,-2.70486 -39.81527,-2.6755 -44.19092,-0.72763 -3.73178,1.66125 -7.34346,4.22238 -22.42771,15.90405 -12.34851,9.56304 -21.32944,17.19911 -28.41694,24.16161 -4.19137,4.11747 -8.78522,8.12528 -10.20855,8.90625 -3.87666,2.12712 -20.38088,17.75377 -20.38088,19.29718 0,2.18143 1.43283,1.5925 7.67834,-3.15594 8.04934,-6.1199 17.10362,-12.37753 17.90926,-12.37753 2.53079,0 -0.67609,3.41089 -8.75895,9.31615 -9.96383,7.27948 -22.18487,18.45263 -21.22888,19.40862 0.31269,0.31269 2.55647,-0.74821 4.98617,-2.35758 2.4297,-1.60937 4.65848,-2.68527 4.95286,-2.3909 0.29437,0.29438 -1.67518,2.64381 -4.37679,5.22096 -2.70161,2.57715 -4.91201,4.86675 -4.91201,5.08799 0,0.22124 0.85317,0.40226 1.89594,0.40226 1.04278,0 3.67949,-1.61801 5.85938,-3.59558 z M 240,563.47243 C 240,562.50711 250.5979,555 251.96066,555 c 0.44745,0 2.02609,-1.26563 3.50809,-2.8125 1.482,-1.54688 3.24843,-2.8125 3.9254,-2.8125 2.17867,0 1.3151,1.4837 -1.81603,3.12009 -1.67578,0.87581 -5.93865,3.90706 -9.47305,6.73614 C 241.75509,564.314 240,565.2324 240,563.47243 Z m -39.375,-2.43401 c 0,-0.74301 0.60791,-1.35092 1.35092,-1.35092 0.74301,0 1.64081,-0.46904 1.99511,-1.04231 0.8471,-1.37065 -1.65096,-2.90276 -2.82257,-1.73115 -1.66753,1.66753 -5.31911,0.91413 -9.49517,-1.95908 -2.28431,-1.57164 -4.15329,-3.25914 -4.15329,-3.75 0,-0.49085 -0.63281,-0.89246 -1.40625,-0.89246 -0.77344,0 -1.40625,-0.39722 -1.40625,-0.8827 0,-2.28071 -18.9785,-14.5945 -35.625,-23.11452 -4.1139,-2.10557 -6.38448,-3.73047 -5.47244,-3.91624 1.57544,-0.3209 12.23392,4.6776 18.76323,8.79936 1.95082,1.23151 3.97721,2.2391 4.50308,2.2391 1.51908,0 1.11029,-2.02002 -0.6845,-3.38245 -0.90234,-0.68499 -1.15766,-1.25883 -0.56738,-1.27524 0.59028,-0.0164 6.36194,5.22828 12.82591,11.65483 6.46396,6.42656 12.83647,11.95667 14.16113,12.28914 2.952,0.7409 2.95369,0.67538 0.11345,-4.40635 -3.68434,-6.59199 -30.21205,-31.74937 -46.7608,-44.34528 -4.12111,-3.13675 -18.25674,-10.84715 -19.88627,-10.84715 -1.16442,0 -17.41813,-8.48504 -24.56922,-12.82604 -3.748306,-2.27537 -8.552508,-4.75003 -10.676012,-5.49925 -7.562227,-2.66811 -17.823871,-1.56782 -31.471493,3.37447 -5.826999,2.11017 -26.902115,12.83113 -31.349233,15.94743 -4.575937,3.20657 -16.323473,13.9143 -18.5097564,16.8714 l -1.8763041,2.53784 11.5453705,-0.26833 c 7.345418,-0.17071 14.402777,-0.94272 19.400179,-2.1222 4.320145,-1.01964 11.229809,-2.37518 15.354809,-3.01232 4.125,-0.63713 7.921875,-1.25102 8.4375,-1.36417 0.515625,-0.11315 3.566924,-0.75039 6.780666,-1.41607 5.777418,-1.19671 8.794249,-3.02958 6.906697,-4.19616 -0.514213,-0.3178 -2.829501,-0.10076 -5.145085,0.48231 -6.312934,1.58961 -6.977692,0.65065 -1.608315,-2.27172 2.631633,-1.43232 4.784787,-2.99976 4.784787,-3.4832 0,-1.26497 -0.572546,-1.15276 -9.140625,1.79137 -4.253906,1.4617 -7.734375,2.30259 -7.734375,1.86864 0,-0.43395 0.539055,-0.789 1.197899,-0.789 0.658845,0 1.92034,-0.84375 2.803325,-1.875 1.543201,-1.80232 1.515566,-1.875 -0.712987,-1.875 -1.275126,0 -6.285528,1.90421 -11.134225,4.23159 -9.251312,4.44063 -18.623109,7.89388 -21.529012,7.93286 -3.588901,0.0481 -0.735742,-2.26773 5.303844,-4.30504 6.09658,-2.05654 20.813825,-9.06303 22.618031,-10.76784 1.981935,-1.87276 -2.603198,-0.6789 -9.131888,2.37773 -8.25321,3.86402 -12.545988,5.12263 -11.455875,3.35879 0.406327,-0.65745 4.745521,-3.09337 9.642656,-5.41317 8.378611,-3.96898 9.235209,-4.18317 14.520278,-3.63078 7.152432,0.74758 12.354012,2.30712 14.564863,4.36684 0.956165,0.8908 2.760737,1.92849 4.010161,2.30598 1.249424,0.37749 5.64668,2.68964 9.77168,5.13812 24.20394,14.36674 46.90057,26.21956 62.34375,32.55769 12.75791,5.23605 29.90162,15.53892 41.71875,25.07176 6.46173,5.21266 8.90625,5.98499 8.90625,2.81389 z m 0.9375,-12.51221 c 0,-1.95285 -0.56527,-4.77561 -1.25618,-6.2728 -3.63404,-7.87509 -3.52716,-7.70553 -2.89755,-4.59716 0.31334,1.54687 0.76005,4.71094 0.99271,7.03125 0.64429,6.42547 1.25127,8.56964 2.25101,7.95176 0.5005,-0.30933 0.91001,-2.1602 0.91001,-4.11305 z m 12.03279,3.96789 c -1.05829,-0.28027 -2.6855,-3.94343 -5.05314,-11.37563 -1.9207,-6.02922 -4.22178,-12.01691 -5.1135,-13.30597 -3.60044,-5.20477 -8.85128,-18.08407 -14.52417,-35.625 -2.43092,-7.51656 -7.49028,-20.35081 -10.25374,-26.01103 -1.32041,-2.7045 -2.40074,-5.52726 -2.40074,-6.27279 0,-0.74554 -0.37405,-1.5867 -0.83123,-1.86925 -0.45717,-0.28254 -1.09622,-1.88947 -1.42013,-3.57095 -0.32391,-1.68148 -2.30617,-7.48692 -4.40502,-12.90098 -2.09886,-5.41406 -5.64231,-14.69531 -7.87434,-20.625 -6.5108,-17.29685 -17.34828,-40.37648 -20.74231,-44.17307 -0.7458,-0.83425 -6.22944,-2.68635 -12.18588,-4.11577 -9.93458,-2.38409 -11.81129,-2.55097 -22.70111,-2.01853 -12.156858,0.59438 -20.871042,2.30681 -21.511161,4.22716 -0.198037,0.59412 0.202431,1.079 0.889931,1.07752 2.211822,-0.005 13.293828,4.98013 18.125,8.15298 5.14936,3.38182 22.05257,22.13601 27.29795,30.28721 6.85182,10.64758 15.71114,26.1489 21.11009,36.93671 5.02353,10.03771 16.74821,36.31108 16.74821,37.53045 0,0.26834 4.00781,8.72376 8.90625,18.78982 4.89844,10.06606 8.90625,18.77732 8.90625,19.35836 0,0.58105 1.1123,3.53499 2.47177,6.5643 2.38202,5.30784 4.09073,7.02547 4.09073,4.11207 0,-1.56855 -3.21841,-13.83404 -5.23875,-19.9651 -1.54053,-4.67499 -1.72678,-6.97112 -0.39658,-4.88911 0.49415,0.77344 2.44207,5.29792 4.32872,10.05441 2.10422,5.305 4.06211,8.84869 5.06471,9.16691 1.69567,0.53819 6.50468,10.15553 6.6203,13.23966 0.0362,0.96677 0.45898,2.60152 0.93942,3.63277 0.68529,1.47095 0.81267,1.1174 0.59111,-1.64063 -0.37431,-4.65939 0.90734,-4.4519 3.09851,0.5016 2.18456,4.93857 2.61648,5.38568 5.07069,5.24903 1.46198,-0.0814 1.5606,-0.21271 0.39216,-0.52215 z m -31.17291,-48.91586 c -2.22739,-4.29183 -7.61571,-18.36163 -10.58589,-27.64152 -1.34764,-4.21051 -3.43716,-9.1245 -4.64338,-10.91997 C 165.98691,463.22127 165,461.00643 165,460.09488 c 0,-6.68853 7.26772,7.85734 14.55014,29.1212 5.04473,14.73001 6.28703,20.94194 2.87224,14.36216 z M 62.273273,544.97235 c 4.609091,-4.66593 12.512958,-16.31318 14.057882,-20.7159 1.990751,-5.67323 3.566928,-16.29587 2.566422,-17.29637 -0.564713,-0.56472 -3.746568,-0.1705 -8.667172,1.07381 C 65.954217,509.11525 61.750591,510 60.889013,510 c -1.152515,0 -1.451645,0.60084 -1.131886,2.27355 0.23904,1.25046 -0.03409,3.69375 -0.606949,5.42953 -0.572861,1.73579 -1.084504,6.01812 -1.136983,9.5163 -0.05248,3.49818 -0.676598,8.54317 -1.386929,11.21109 -0.710332,2.66793 -1.296519,6.44765 -1.302639,8.39939 -0.0099,3.15219 0.18091,3.44583 1.70793,2.6286 0.945482,-0.50601 3.304254,-2.52476 5.241716,-4.48611 z M 184.6875,532.07856 c 0,-0.2318 -2.47008,-5.61071 -5.48906,-11.95313 -3.01899,-6.34242 -5.81335,-12.58637 -6.20968,-13.87543 -0.39634,-1.28906 -3.03564,-6.98438 -5.86512,-12.65625 -2.82947,-5.67187 -5.89528,-12.21094 -6.8129,-14.53125 -4.39809,-11.12103 -19.43112,-40.08885 -25.26644,-48.68706 -0.89834,-1.32368 -4.3344,-6.62338 -7.6357,-11.7771 -4.88046,-7.619 -10.86974,-15.36779 -18.80752,-24.33272 -1.67915,-1.89643 -2.79847,1.48288 -4.97921,15.03257 -2.64262,16.41953 -4.639804,27.33867 -6.07282,33.20181 -0.567113,2.32031 -1.291397,9.71739 -1.609509,16.43797 l -0.578382,12.2192 7.955001,5.34793 c 4.37525,2.94136 12.34477,7.27972 17.71005,9.6408 5.36527,2.36108 11.61865,5.18004 13.89639,6.26435 8.29441,3.94855 18.67138,12.08212 33.08931,25.93568 12.81383,12.31227 16.67559,15.49249 16.67559,13.73263 z M 75.123553,470.25026 C 79.574319,469.42512 84.295515,468.75 85.6151,468.75 c 3.269845,0 3.803312,-1.16432 4.510193,-9.84375 0.916958,-11.25885 3.537149,-27.96711 5.566954,-35.49893 4.011609,-14.88559 6.552713,-32.46982 4.692223,-32.46982 -1.014007,0 -4.193858,9.73568 -6.657257,20.38237 -2.20595,9.53403 -4.432472,13.03542 -3.373411,5.30497 1.93164,-14.09971 2.413495,-17.07739 3.246535,-20.06234 1.562982,-5.6005 2.147222,-10.3125 1.278638,-10.3125 -0.457041,0 -1.917334,2.00391 -3.245095,4.45312 -2.280002,4.20575 -4.432182,12.66141 -5.905786,23.20313 -0.36039,2.57812 -1.074152,5.49324 -1.586139,6.47803 -1.65796,3.18906 -2.821452,-0.76259 -2.134172,-7.24844 0.676706,-6.38609 4.488797,-22.57308 6.598125,-28.01712 1.337251,-3.45136 0.582695,-5.53584 -1.198731,-3.31152 -3.575502,4.46442 -8.354814,17.18498 -9.494295,25.2699 -0.488032,3.46272 -1.15704,6.73225 -1.486685,7.26562 -1.211152,1.95969 -2.363697,0.88429 -2.363697,-2.20549 0,-4.4745 6.366617,-28.80439 8.013782,-30.62449 0.75092,-0.82976 1.097981,-1.77597 0.771248,-2.10271 -1.063179,-1.06318 -3.838808,1.09037 -5.893305,4.57248 -2.300939,3.8998 -7.765758,24.02152 -9.909228,36.48624 -0.798015,4.64062 -1.638703,9.07031 -1.868194,9.84375 -0.229491,0.77344 -0.872362,5.625 -1.428603,10.78125 -0.55624,5.15625 -1.54689,14.10599 -2.201443,19.88832 -1.3693,12.09639 -0.926195,13.91956 2.923158,12.02745 1.408734,-0.69245 6.202871,-1.93411 10.653638,-2.75926 z M 313.125,286.125 c 0,-0.4125 -0.40766,-1.15766 -0.90592,-1.65592 -1.20112,-1.20112 -1.45389,-5.72929 -0.54252,-9.71867 0.40438,-1.7701 2.72072,-7.15212 5.14741,-11.96006 2.4267,-4.80794 4.25951,-8.89437 4.07293,-9.08095 -1.0756,-1.0756 -12.37184,4.70724 -15.0564,7.70777 -4.03083,4.50524 -7.71638,11.61628 -7.71199,14.87979 0.006,3.97516 3.21627,8.49861 6.75766,9.51993 3.90065,1.12493 8.23883,1.28717 8.23883,0.30811 z m 13.90658,-0.74631 c 5.62588,-3.94052 -1.21606,-12.07626 -8.12913,-9.66635 -3.35953,1.17113 -3.70729,2.88371 -1.60654,7.91152 1.16432,2.78661 1.80427,3.25114 4.47891,3.25114 1.71626,0 4.0818,-0.67334 5.25676,-1.49631 z m -6.96374,-2.61476 c -0.84176,-2.19361 0.38928,-3.38893 3.49019,-3.38893 2.39068,0 2.77655,0.32264 2.5228,2.10937 -0.36491,2.56942 -5.12899,3.58321 -6.01299,1.27956 z m -180.59141,1.1341 c -0.20203,-0.60608 -2.87391,-1.82399 -5.93751,-2.70646 -8.78315,-2.53 -14.75525,-4.99681 -15.17968,-6.27009 -0.56344,-1.69034 1.77476,-1.44317 6.46026,0.68293 2.24771,1.01993 6.11745,1.86368 8.59941,1.875 l 4.51265,0.0206 -7.56304,-6.32813 c -18.16214,-15.19658 -24.51499,-20.40567 -25.15425,-20.6255 -0.37566,-0.12919 -0.74563,4.08956 -0.82215,9.375 -0.0765,5.28542 -0.28746,10.8755 -0.46875,12.42238 -0.31312,2.67173 0.0381,2.99104 7.01857,6.38 7.64387,3.71105 16.60805,5.97938 24.37056,6.16683 3.09335,0.0747 4.41468,-0.24027 4.16393,-0.99255 z m -71.437233,-7.10116 c 0.85565,-3.4581 0.946556,-3.51723 5.555968,-3.61389 6.853357,-0.14372 7.029835,-0.19964 7.029835,-2.22762 0,-2.29788 -1.973205,-2.82679 -11.544142,-3.09433 l -7.325391,-0.20478 -3.756705,4.01933 c -2.066188,2.21064 -3.589638,4.53095 -3.385445,5.15625 0.469033,1.43632 5.893685,3.35833 9.674466,3.42776 2.565333,0.0471 2.976987,-0.33287 3.751414,-3.46272 z m 168.596733,-3.29961 c 2.98731,-8.36814 4.23347,-14.93205 4.26818,-22.48164 0.0184,-3.99609 -0.2498,-7.26562 -0.59592,-7.26562 -3.66619,0 -12.49569,22.00252 -12.49569,31.13845 0,4.13253 1.30783,2.3481 3.23927,-4.4197 0.88291,-3.09375 2.17578,-6.89063 2.87305,-8.4375 l 1.26776,-2.8125 0.06,4.77288 c 0.033,2.62508 -0.56829,6.84383 -1.33615,9.375 -1.70913,5.63399 -1.72683,6.06865 -0.22367,5.49184 0.656,-0.25174 1.98044,-2.66428 2.94321,-5.36121 z m -88.51093,0.67979 c 0,-0.28075 -0.70897,-3.33935 -1.57548,-6.79688 -1.3032,-5.2 -2.70451,-7.71893 -8.1085,-14.57544 -6.19905,-7.86527 -6.68165,-8.25941 -9.44015,-7.70991 -1.59891,0.31851 -7.44228,0.83323 -12.98524,1.14382 -10.71967,0.60066 -12.7788,1.79023 -7.14107,4.12545 1.61537,0.66911 4.11401,2.20691 5.55251,3.41734 1.43851,1.21042 5.14891,3.98368 8.24534,6.16279 3.09643,2.17912 8.40248,6.18399 11.79123,8.89972 4.77699,3.82826 6.16136,4.55409 6.16136,3.23042 0,-2.04297 -4.52899,-9.32383 -7.35814,-11.82904 -1.10928,-0.98225 -2.01686,-2.35335 -2.01686,-3.04687 0,-4.5493 8.78195,4.13361 12.58709,12.44515 1.27005,2.77415 2.75439,5.0439 3.29855,5.0439 0.54414,0 0.98936,-0.22971 0.98936,-0.51045 z m 211.94095,-8.89985 c 1.88341,-1.00797 7.43405,-11.06107 7.43405,-13.46426 0,-0.96551 -1.57912,-1.5471 -5.39063,-1.98537 -10.60669,-1.21964 -12.46793,-2.09645 -19.07772,-8.98739 -3.41077,-3.55585 -6.65792,-6.46518 -7.21588,-6.46518 -0.66991,0 -0.54184,1.38705 0.37707,4.08393 1.47232,4.32102 5.4526,8.99856 9.88531,11.61704 2.85574,1.68692 3.27023,2.56855 1.67198,3.55633 -0.54993,0.33987 -3.79889,-2.18107 -7.21991,-5.60208 -3.42103,-3.42102 -6.87343,-6.09648 -7.67201,-5.94545 -0.9473,0.17913 -1.5557,1.5376 -1.75044,3.90844 -0.2759,3.35896 0.11722,4.03212 5.19661,8.89845 4.13472,3.96128 7.34181,6.00563 12.95473,8.25793 8.59179,3.44764 8.40797,3.41145 10.80684,2.12761 z m -65.52068,-6.42451 c 2.83321,-0.97476 5.95785,-2.21432 6.94364,-2.75456 3.65681,-2.00403 14.48656,-6.72313 15.42876,-6.72313 2.02074,0 10.62602,-9.0726 12.41976,-13.09422 3.50384,-7.85575 1.62011,-19.76051 -3.56595,-22.536 -5.01094,-2.68178 -18.23499,3.73319 -25.41734,12.3299 -6.99315,8.37025 -14.31638,19.86767 -18.034,28.31324 -0.90557,2.05724 12.83393,-7.65704 15.89058,-11.23516 0.82059,-0.96059 3.03375,-4.33018 4.91814,-7.48799 3.50318,-5.87055 5.88477,-8.52614 6.81351,-7.59741 0.80142,0.80142 -1.22074,4.10987 -8.29445,13.57051 -6.65357,8.89873 -12.42319,14.39017 -16.91238,16.09696 -1.40142,0.53282 -2.54804,1.40108 -2.54804,1.92947 0,1.55052 6.78786,1.10473 12.35777,-0.81161 z M 47.223459,250.21083 c 0.747576,-3.73788 -1.541095,-13.61409 -4.514748,-19.4823 -2.80311,-5.53167 -5.60329,-6.61715 -10.644291,-4.12621 -3.943309,1.94854 -5.128779,5.17712 -4.688919,12.77008 l 0.280749,4.84635 6.640507,-0.32378 c 5.253083,-0.25613 6.966991,0.003 8.203125,1.23885 1.943551,1.94355 2.024525,4.80083 0.156368,5.51771 -2.374305,0.9111 -1.560069,2.47347 1.289062,2.47347 2.26569,0 2.788215,-0.46451 3.278147,-2.91417 z m 319.765791,-5.16819 c 1.81661,-0.69709 4.26075,-5.14592 4.26075,-7.75543 0,-2.32228 -3.37902,-4.78721 -6.5625,-4.78721 -2.9509,0 -6.5625,2.41118 -6.5625,4.38126 0,1.09198 0.53433,1.29111 2.10937,0.78613 4.46699,-1.43219 6.78155,-1.05651 7.09527,1.15167 0.3112,2.19049 -1.33137,3.281 -6.66486,4.42479 -1.43905,0.30862 -2.36337,0.97062 -2.05404,1.47114 0.6279,1.01597 6.03386,1.22738 8.37851,0.32765 z M 124.0187,239.76383 c 7.62074,-2.18684 10.34894,-7.98142 5.86766,-12.46269 -4.01889,-4.01889 -8.26739,-2.45978 -4.53515,1.6643 2.13904,2.36359 0.68595,4.67025 -3.6336,5.76803 -6.99001,1.77647 -13.8791,-4.89734 -14.6621,-14.2039 -0.22856,-2.71655 -0.74609,-5.14345 -1.15005,-5.39313 -0.40398,-0.24967 -3.24948,0.19037 -6.323338,0.97785 -4.046353,1.03663 -6.269274,1.17309 -8.054231,0.49446 -1.355966,-0.51554 -2.465391,-0.57757 -2.465391,-0.13783 0,1.45625 2.598655,2.98726 6.010097,3.54086 4.290487,0.69625 4.309706,1.91351 0.04284,2.71398 -3.851224,0.72249 -3.787252,1.98285 0.234403,4.61799 6.732206,4.4112 6.653936,4.31662 3.087647,3.73104 -1.804688,-0.29632 -4.657022,-0.77639 -6.338527,-1.06681 -2.439772,-0.42139 -2.950082,-0.2487 -2.526552,0.855 0.291899,0.76068 1.456736,1.85609 2.588527,2.43424 1.131791,0.57815 3.174964,1.95119 4.540395,3.05121 1.365422,1.1 4.740426,2.7949 7.499996,3.76643 5.31191,1.87011 12.52214,1.74239 19.81736,-0.35103 z m -4.46207,-9.17989 c 0.33263,-0.53822 0.21208,-1.48744 -0.26789,-2.10938 -1.89918,-2.46095 -1.92947,-4.37757 -0.10581,-6.69598 1.49768,-1.90399 2.71615,-2.40358 5.86218,-2.40358 2.18434,0 4.79044,0.6194 5.79133,1.37644 3.834,2.89988 4.16356,2.07604 4.16356,-10.4083 0,-6.51439 -0.48414,-13.46029 -1.07588,-15.43533 -2.30974,-7.70923 -9.06524,-10.18753 -17.22206,-6.318 -6.00538,2.84889 -6.90461,5.38673 -6.92193,19.53519 -0.02,16.32858 2.26435,23.4375 7.53122,23.4375 0.90227,0 1.91264,-0.44035 2.24528,-0.97856 z m 170.77357,-1.05986 c 3.63479,-3.41471 2.77634,-4.24943 -5.09583,-4.95494 -9.45722,-0.84756 -11.48437,-1.36947 -11.48437,-2.95673 0,-1.0671 1.69102,-1.21229 9.14062,-0.78486 6.50755,0.37338 10.34196,0.14651 13.31099,-0.78761 6.15149,-1.93537 5.8957,-3.38441 -0.59281,-3.35825 -6.19813,0.025 -9.40978,-0.98423 -13.80823,-4.33909 -5.45066,-4.15742 -7.48827,-3.02272 -10.54392,5.87168 -2.53545,7.38021 -3.11204,10.83598 -2.02625,12.14427 0.68608,0.82668 3.80858,1.20395 9.96459,1.20395 7.91471,0 9.2197,-0.23889 11.13521,-2.03842 z M 83.855618,227.23345 c 2.498048,-0.95859 3.339368,-3.53396 2.338561,-7.15858 -1.058563,-3.8338 -3.422214,-4.81535 -9.32345,-3.87169 -3.933807,0.62904 -5.401168,1.67995 -3.761022,2.69362 0.524037,0.32387 0.952793,1.53909 0.952793,2.70051 0,4.40617 5.199795,7.39877 9.793118,5.63614 z m 288.114632,-6.76684 c 2.88651,-1.83212 3.91381,-11.66264 1.67184,-15.99814 -1.23385,-2.38598 -1.94203,-2.6749 -7.75047,-3.16185 -13.75491,-1.15316 -32.06818,2.82156 -32.91348,7.14357 -0.3829,1.95768 1.80156,2.00024 7.88849,0.1537 5.51871,-1.67416 7.28168,-1.72669 13.46223,-0.40121 6.53571,1.40167 6.15142,3.04688 -0.51709,2.2137 -5.64781,-0.70565 -16.66571,1.80303 -16.04868,3.65413 0.1735,0.52053 3.66107,0.98063 7.76039,1.0238 6.5386,0.0689 8.07318,0.43575 12.60152,3.01279 5.11625,2.91162 11.31188,3.96748 13.84525,2.35951 z M 89.735762,206.68457 c 1.176581,-3.03757 2.139238,-7.33111 2.139238,-9.54121 0,-4.98809 2.420184,-5.65668 3.309853,-0.91436 0.520388,2.77389 -0.877247,8.3653 -3.735125,14.94287 -0.593276,1.36546 -0.219248,1.64063 2.230081,1.64063 4.45006,0 9.162221,-2.35063 10.658161,-5.31677 0.73562,-1.45859 1.6064,-5.34108 1.93505,-8.62776 0.41901,-4.19016 1.47447,-7.50844 3.53226,-11.10508 2.58582,-4.51954 2.8682,-5.7038 2.37532,-9.96173 -0.43966,-3.79817 -1.17076,-5.38419 -3.41603,-7.41054 -3.27632,-2.95687 -5.09482,-3.17385 -9.245532,-1.10321 -5.168691,2.57848 -2.803013,4.24579 2.701382,1.90391 0.85228,-0.36262 2.31649,0.20505 3.59056,1.39202 1.63566,1.52384 2.003,2.59563 1.53235,4.47088 -0.9046,3.60417 -1.93489,4.49535 -6.53682,5.65412 -4.578379,1.15285 -23.386322,1.30799 -26.167797,0.21585 -0.972146,-0.3817 -2.45212,-2.14502 -3.288834,-3.91847 -1.420244,-3.01028 -1.916443,-3.27747 -7.469952,-4.02231 -8.584755,-1.1514 -13.965098,0.49354 -15.773883,4.82256 -1.096509,2.62432 -1.140331,3.77471 -0.227719,5.97795 1.342485,3.24104 4.240241,5.46608 7.118696,5.46608 3.025945,0 3.808519,-1.97443 1.413,-3.56499 -2.814543,-1.86879 -2.629622,-5.23813 0.362304,-6.60134 6.013399,-2.73989 8.325568,5.03393 3.720881,12.51008 -1.270329,2.0625 -2.322854,4.3909 -2.338947,5.17423 -0.01621,0.78892 2.579743,2.87988 5.81956,4.6875 10.162002,5.66976 9.510581,5.92108 8.756037,-3.37826 -0.524692,-6.46654 -0.410107,-8.002 0.572738,-7.67488 0.675761,0.22492 1.587214,2.69437 2.025451,5.48767 0.438238,2.79331 1.439464,5.80224 2.224947,6.68651 0.831202,0.93575 1.238251,2.60116 0.973834,3.98438 -0.372178,1.94692 -0.0904,2.3766 1.558536,2.3766 2.350532,0 2.48927,-0.62796 2.856494,-12.92907 0.404711,-13.55684 2.689302,-13.17919 3.578786,0.5916 0.402717,6.23479 0.205573,8.61434 -0.849581,10.25458 -1.435082,2.23083 -0.947113,4.31032 0.869363,3.70483 0.580855,-0.19361 2.018757,-2.83731 3.195338,-5.87487 z M 46.875,205.10133 C 53.364434,197.77569 54.700685,195 51.737898,195 c -2.253126,0 -6.337451,-4.48312 -7.125561,-7.82129 l -0.629189,-2.66504 -3.944699,4.45227 c -5.471035,6.17502 -9.09218,11.77097 -9.096936,14.058 -0.008,3.84359 5.64622,8.31409 9.370987,7.40916 1.289063,-0.31318 4.242188,-2.71248 6.5625,-5.33177 z m 241.03324,0.91294 c 3.76505,-2.49474 7.8428,-10.03065 6.94992,-12.84388 -0.94181,-2.96738 -2.18715,-2.28709 -3.28642,1.79529 -2.3042,8.55716 -13.13424,9.07136 -13.13424,0.6236 0,-5.25211 3.44381,-7.2154 3.92498,-2.23758 0.20211,2.09098 0.84372,3.14349 2.05643,3.37349 3.58818,0.68051 4.50689,-4.53182 1.44664,-8.20752 -1.84423,-2.2151 -1.95441,-2.23026 -5.14636,-0.70813 -4.12157,1.96544 -5.2867,4.91939 -4.21114,10.67656 0.58696,3.14183 1.6809,5.20212 3.73816,7.04027 3.51054,3.13667 3.651,3.14561 7.66203,0.4879 z m 24.27926,-1.9098 c 0,-1.18004 -0.85071,-3.81413 -1.89046,-5.85354 -2.45756,-4.82037 -3.05187,-17.4415 -0.92204,-19.58114 1.25042,-1.25617 1.40625,-0.35175 1.40625,8.16188 0,9.53896 0.0122,9.58979 3.28125,13.66131 3.84154,4.78457 4.75895,3.51336 2.41949,-3.35258 -1.85199,-5.43531 -1.85984,-9.10302 -0.0418,-19.52847 1.91644,-10.98972 4.1547,-14.81312 10.48474,-17.91013 6.3194,-3.09179 11.79749,-2.68045 15.07691,1.13211 3.89946,4.5334 0.50809,11.8068 -6.0816,13.04303 -3.90074,0.73179 -6.85773,-1.33942 -6.85773,-4.80349 0,-2.94671 3.09828,-5.94334 5.49651,-5.31619 1.5518,0.40581 1.73644,0.88556 1.04289,2.70974 -0.47075,1.23816 -0.48504,2.4377 -0.0324,2.71745 0.96552,0.59672 3.07166,-4.97146 2.3327,-6.16714 -0.82878,-1.34099 -5.90657,-0.95207 -8.33379,0.6383 -2.4718,1.61959 -4.25591,5.7886 -4.25591,9.94499 0,2.07267 0.59594,2.92772 2.57813,3.69906 3.56342,1.38667 14.09487,0.51654 18.38435,-1.51895 4.41168,-2.09349 6.04468,-4.51572 6.81034,-10.10185 0.59423,-4.33538 0.57225,-4.37937 -4.73687,-9.48058 -4.61336,-4.43271 -5.73797,-5.07201 -8.32552,-4.73286 -1.64543,0.21565 -7.26077,1.02885 -12.47855,1.80709 -5.21778,0.77825 -11.00212,1.41499 -12.8541,1.41499 -7.05105,0 -11.5087,8.6836 -12.91524,25.15914 -1.0091,11.82004 -0.29991,17.56386 2.45044,19.84645 0.76974,0.63882 1.39952,1.60397 1.39952,2.14475 0,1.66573 3.00828,4.41216 4.83281,4.41216 1.17739,0 1.72969,-0.68508 1.72969,-2.14552 z m 55.07143,-12.12633 c 2.73825,-5.55025 -3.56673,-11.77689 -9.25018,-9.13526 -3.82927,1.77981 -5.88748,5.37612 -5.61632,9.81337 0.0968,1.58415 0.38132,1.43872 1.83415,-0.9375 2.39589,-3.91869 4.37329,-5.35114 6.89369,-4.99384 2.6964,0.38224 3.30646,3.55824 1.27813,6.65386 -0.80712,1.23181 -1.18188,2.52525 -0.83281,2.87431 0.95962,0.95964 4.37665,-1.6061 5.69334,-4.27494 z M 99.753778,178.24751 c 3.819162,-2.14455 3.209402,-3.32734 -1.996397,-3.87251 -3.983634,-0.41718 -4.507381,-0.73801 -4.760144,-2.91595 -0.185055,-1.59454 0.603545,-3.50201 2.263319,-5.47453 2.992144,-3.55597 2.186278,-4.58219 -3.854306,-4.90819 -7.56203,-0.40812 -11.267502,0.26566 -14.765625,2.68486 -3.874292,2.67935 -4.211814,4.2062 -2.464122,11.14692 0.762221,3.02706 1.600454,4.29675 3.046875,4.6152 7.12119,1.5678 18.626566,0.9163 22.5304,-1.2758 z m 103.709752,-8.39624 c 2.28423,-7.3955 2.95723,-24.41753 1.05597,-26.70842 -0.64283,-0.77455 -3.02248,-4.28935 -5.28814,-7.81067 -5.33953,-8.29879 -5.93238,-6.9074 -4.00269,9.3942 0.80111,6.76769 1.52983,15.03132 1.61936,18.36364 0.20911,7.78278 0.95988,8.89182 2.51089,3.70912 0.98694,-3.29788 1.02195,-5.72298 0.17164,-11.88971 -0.5875,-4.26075 -0.82059,-7.9944 -0.51799,-8.297 1.20662,-1.20662 2.47946,0.86102 3.59292,5.83651 0.91429,4.08546 0.92822,6.40155 0.0636,10.58733 -0.60865,2.94681 -1.10924,6.1762 -1.11241,7.17642 -0.003,1.00021 -0.636,3.02694 -1.40625,4.50385 -1.76535,3.38489 -1.76472,3.94034 0.003,2.47343 0.77179,-0.64054 2.26141,-3.94295 3.31024,-7.3387 z m -10.87356,-15.63252 c -0.88656,-6.1875 -1.65621,-16.41663 -1.71032,-22.73138 -0.10832,-12.63833 -1.16754,-14.37004 -3.25752,-5.32567 -0.70628,3.05638 -3.07898,9.98674 -5.27267,15.4008 -5.6089,13.84285 -5.77238,15.35396 -2.39263,22.11743 2.86724,5.73787 5.98975,9.75757 7.57969,9.75757 1.15712,0 1.13538,-0.31416 -0.48652,-7.03125 -1.62537,-6.73144 -1.70766,-7.96875 -0.52998,-7.96875 0.49225,0 1.18495,1.58203 1.53932,3.51562 0.35437,1.9336 1.73478,5.83594 3.06758,8.67188 l 2.42329,5.15625 0.32584,-5.15625 c 0.17921,-2.83594 -0.39953,-10.21875 -1.28608,-16.40625 z m -17.53959,-9.45568 c 3.77326,-6.92921 11.18233,-29.16159 12.00565,-36.02537 0.33936,-2.82917 1.26972,-7.58122 2.06745,-10.560122 2.52654,-9.43456 -0.19928,-8.233397 -6.64369,2.927622 -8.14623,14.10837 -11.30897,13.66849 -4.10281,-0.57062 2.65118,-5.238624 4.52722,-9.817887 4.16897,-10.176131 -0.7029,-0.702895 -1.86854,0.342509 -16.23399,14.559351 -9.65338,9.55351 -13.67463,15.81178 -17.52881,27.28005 -1.4265,4.24462 -1.21026,8.91277 0.46069,9.94548 1.54544,0.95513 5.07128,-3.23414 9.23881,-10.97721 2.21058,-4.10717 4.47585,-7.31804 5.03392,-7.13527 1.64216,0.53779 1.71015,5.84862 0.17019,13.29507 -1.63567,7.90921 -0.79346,12.29843 2.60249,13.56326 3.34684,1.24654 5.60698,-0.33383 8.76113,-6.12611 z m 61.67548,-6.02092 c 1.65581,-1.82966 1.62211,-2.04153 -1.19304,-7.5 -1.59335,-3.08943 -2.67607,-5.61715 -2.40606,-5.61715 0.27,0 2.81715,0.67626 5.66032,1.50278 7.69813,2.23792 14.33792,0.12932 14.33792,-4.55327 0,-7.64919 -14.95918,-21.86464 -30.34013,-28.831699 -8.56564,-3.879954 -21.29086,-8.67432 -21.76499,-8.200197 -0.22849,0.228494 0.64388,1.976428 1.93859,3.884298 1.29472,1.907871 2.35403,3.862951 2.35403,4.344622 0,1.726594 -4.85467,-1.375406 -6.18814,-3.954051 C 197.82697,87.308598 195,86.148517 195,88.125 c 0,0.515625 0.41009,0.9375 0.91132,0.9375 0.50121,0 1.55766,2.214844 2.34765,4.921875 0.79001,2.707031 2.97421,7.875005 4.85381,11.484375 1.87959,3.60938 4.05989,7.80643 4.84511,9.32678 2.73459,5.29477 10.01361,15.08459 15.19688,20.43884 4.42202,4.56791 5.72583,5.39063 8.5428,5.39063 2.13833,0 3.93224,-0.67173 5.02829,-1.88285 z m -29.53836,-7.1309 c 0,-1.86382 -1.0258,-5.34429 -2.27957,-7.73438 -1.25376,-2.39009 -3.9426,-9.18201 -5.97518,-15.09316 -3.45418,-10.045385 -3.74025,-10.544332 -4.3788,-7.63706 -0.83852,3.81777 0.0698,12.20222 1.9597,18.09103 1.58977,4.95337 8.25241,15.76232 9.7159,15.76232 0.52688,0 0.95795,-1.52494 0.95795,-3.38875 z m -50.625,-38.33 c 2.19216,-0.773438 4.97287,-1.40625 6.17934,-1.40625 4.11815,0 20.48046,-10.195901 18.90772,-11.782029 -0.3818,-0.385053 -4.17867,-0.138789 -8.4375,0.547254 -11.16261,1.798156 -21.76245,2.199818 -24.16208,0.915578 -3.03479,-1.624171 -1.55671,-2.220597 4.85467,-1.958933 6.94131,0.283292 16.72336,-1.407375 21.93821,-3.79166 2.09639,-0.95849 4.60655,-1.74271 5.57813,-1.74271 3.02282,0 0.26743,-1.55602 -4.70224,-2.655447 -2.57813,-0.570352 -8.69531,-1.930381 -13.59375,-3.022288 -6.45477,-1.43883 -12.55508,-2.027363 -22.16254,-2.138151 -11.84658,-0.136608 -13.46663,0.03705 -15.23437,1.633062 -2.57127,2.321483 -2.49476,4.049727 0.36566,8.25921 2.83776,4.176132 2.8675,4.659024 0.42326,6.871033 -1.30699,1.182811 -1.83108,2.649691 -1.64062,4.591905 0.41913,4.27409 3.93857,5.583236 16.68611,6.206845 5.92969,0.290072 10.83368,0.606478 10.89775,0.703125 0.0641,0.09664 1.91009,-0.457107 4.10225,-1.230544 z M 195.9375,82.5 c 2.16595,-2.165951 2.31891,-3.625004 0.74268,-7.084447 -1.02056,-2.239874 -1.50542,-2.435128 -4.9123,-1.97817 -5.96309,0.799819 -8.32625,5.457169 -4.95518,9.765742 1.44413,1.845739 7.00439,1.417283 9.1248,-0.703125 z m 35.62221,-7.080462 c 17.1145,-6.767746 29.06529,-15.830926 29.06529,-22.04239 0,-2.466157 -5.02104,-4.627148 -10.75114,-4.627148 -4.93702,0 -5.47756,-1.331362 -1.90368,-4.68884 2.59654,-2.439332 4.31738,-7.382269 3.56788,-10.248392 -0.74965,-2.866622 -6.2009,-4.302746 -10.95515,-2.886112 -14.00495,4.173082 -36.07446,20.056193 -40.66104,29.263162 -2.44377,4.905554 -2.88595,11.997682 -0.74804,11.997682 0.74874,0 4.01827,-1.845373 7.26563,-4.100828 3.24736,-2.255457 6.95898,-4.384976 8.24804,-4.732266 2.16939,-0.584463 2.2046,-0.545326 0.4732,0.526084 -1.02879,0.636634 -2.8522,2.067767 -4.05201,3.180291 -1.19981,1.112526 -3.82719,3.037568 -5.83861,4.277871 -4.35716,2.686748 -4.54306,3.623852 -1.12778,5.685011 1.84008,1.110507 4.92276,1.57941 10.78584,1.640625 7.31178,0.07634 9.13026,-0.278439 16.63157,-3.24475 z m -41.24721,-7.39546 c 0,-0.743007 -0.42188,-1.611654 -0.9375,-1.930328 -0.51563,-0.318674 -0.9375,-1.621909 -0.9375,-2.896077 0,-1.27417 -1.07833,-4.878676 -2.3963,-8.010016 -2.78896,-6.62628 -2.90923,-11.839133 -0.155,-6.718588 0.88758,1.650175 1.6138,3.926251 1.6138,5.057946 0,2.35024 4.54327,9.967032 6.36126,10.664661 0.66534,0.255318 1.34711,-0.05602 1.51503,-0.691856 0.16793,-0.635838 0.8649,-3.265445 1.54885,-5.84357 2.13759,-8.057704 2.13445,-15.397087 -0.0105,-24.450238 -2.39202,-10.09615 -4.58412,-14.58661 -9.68853,-19.846637 -5.88447,-6.0638705 -8.11882,-5.0358998 -8.15081,3.75 -0.0139,3.80071 -1.63863,4.668841 -3.81967,2.040855 -1.87369,-2.257658 -8.2781,-5.234377 -10.56198,-4.909127 -1.74995,0.249212 -2.07722,0.9799 -2.31962,5.179059 -0.65546,11.354161 10.69993,35.843002 21.53368,46.439213 3.7038,3.622588 6.40479,4.535475 6.40479,2.164703 z"
     id="path55795"
     inkscape:connector-curvature="0" />
</svg>
