<?xml version="1.0" encoding="UTF-8" standalone="no"?>
<!-- Created with Inkscape (http://www.inkscape.org/) -->

<svg
   width="38.405491mm"
   height="49.719646mm"
   viewBox="0 0 38.405491 49.719646"
   version="1.1"
   id="svg2158"
   inkscape:version="1.2 (dc2aedaf03, 2022-05-15)"
   sodipodi:docname="Cartoon dog.svg"
   xmlns:inkscape="http://www.inkscape.org/namespaces/inkscape"
   xmlns:sodipodi="http://sodipodi.sourceforge.net/DTD/sodipodi-0.dtd"
   xmlns="http://www.w3.org/2000/svg"
   xmlns:svg="http://www.w3.org/2000/svg"
   xmlns:rdf="http://www.w3.org/1999/02/22-rdf-syntax-ns#"
   xmlns:cc="http://creativecommons.org/ns#"
   xmlns:dc="http://purl.org/dc/elements/1.1/">
  <title
     id="title2187">Cartoon dog</title>
  <sodipodi:namedview
     id="namedview2160"
     pagecolor="#ffffff"
     bordercolor="#666666"
     borderopacity="1.0"
     inkscape:showpageshadow="2"
     inkscape:pageopacity="0.0"
     inkscape:pagecheckerboard="0"
     inkscape:deskcolor="#d1d1d1"
     inkscape:document-units="mm"
     showgrid="false"
     inkscape:zoom="2.5036339"
     inkscape:cx="66.902752"
     inkscape:cy="90.468497"
     inkscape:window-width="1920"
     inkscape:window-height="991"
     inkscape:window-x="-9"
     inkscape:window-y="-9"
     inkscape:window-maximized="1"
     inkscape:current-layer="layer1" />
  <defs
     id="defs2155" />
  <g
     inkscape:label="Lager 1"
     inkscape:groupmode="layer"
     id="layer1"
     transform="translate(-59.87133,-38.792858)">
    <path
       id="path1719"
       style="fill:#000000;stroke-width:0.169333"
       d="m 88.17498,38.794531 c -0.02545,-0.004 -0.04736,-9.34e-4 -0.06563,0.01034 -0.146119,0.0916 -0.057,0.688789 0.361218,1.733227 0.476651,1.190378 0.519745,1.439591 0.415478,2.413289 -0.100545,0.93882 -0.07425,1.117477 0.194821,1.321367 0.171143,0.1297 0.464688,0.238329 0.652156,0.241329 0.187469,0.003 0.416063,0.147804 0.507979,0.321944 0.0919,0.17415 0.350584,0.650475 0.574642,1.058333 0.69853,1.271738 0.442664,3.578837 -0.534334,4.820895 -0.333622,0.424128 -0.369022,0.433895 -0.485758,0.136425 -0.06925,-0.176438 -0.13086,-0.524626 -0.13746,-0.773596 -0.01331,-0.506268 -0.758952,-1.494482 -1.127579,-1.494482 -0.310147,0 -0.307523,0.409396 0.0041,0.668176 0.248671,0.20636 0.33617,0.526698 0.513663,1.882056 0.09406,0.718378 0.04149,0.862491 -0.748274,2.060339 -1.071306,1.624846 -1.337942,2.534115 -1.03973,3.545003 0.235823,0.7994 0.778348,1.49655 1.164787,1.49655 0.205361,0 0.201081,-0.065 -0.02584,-0.411345 -0.338877,-0.517198 -0.54149,-1.711603 -0.314192,-1.852083 0.0949,-0.0586 0.221187,0.173417 0.287837,0.529167 0.176437,0.941768 1.015431,2.575041 1.826762,3.556889 v 5.16e-4 c 0.39404,0.47682 0.774527,0.871433 0.845427,0.876433 0.0709,0.005 -0.181748,-0.60801 -0.561206,-1.362708 -0.379436,-0.754698 -0.641277,-1.420613 -0.581877,-1.480013 0.0594,-0.0594 1.233485,-0.109554 2.609143,-0.109554 2.727754,-0.002 3.066144,-0.102287 3.056144,-0.911055 -0.005,-0.43319 -0.0119,-0.435889 -0.260449,-0.106971 -0.20564,0.27212 -0.283262,0.29264 -0.398942,0.10542 -0.20708,-0.335038 -0.002,-1.596126 0.294556,-1.814876 0.427708,-0.31496 -0.0986,-0.47155 -0.562757,-0.167432 -0.577208,0.37819 -0.812376,0.899671 -0.704866,1.562179 0.0509,0.31319 0.04023,0.57646 -0.02377,0.58446 -0.064,0.008 -0.896222,0.04321 -1.8495,0.07751 -0.953298,0.0343 -1.883381,0.142512 -2.067057,0.240812 -0.397289,0.21261 -0.514613,0.0427 -0.922941,-1.337903 -0.406507,-1.374456 -0.351689,-2.076242 0.235644,-3.0024 0.2794,-0.44055 0.50798,-0.911565 0.50798,-1.046965 0,-0.13542 0.366267,-0.597079 0.813387,-1.025777 0.963618,-0.923978 1.315058,-1.907348 1.281058,-3.584794 -0.0226,-1.114008 -0.30364,-1.926581 -0.81287,-2.349211 -0.3619,-0.300328 -0.332565,-0.791043 0.08733,-1.470711 0.39047,-0.631798 0.163728,-0.792584 -0.26665,-0.189136 -0.2592,0.36344 -0.266416,0.339542 -0.157096,-0.508496 0.0724,-0.561358 0.05167,-0.888835 -0.05633,-0.888835 -0.0941,0 -0.262024,-0.360868 -0.373104,-0.802018 -0.215484,-0.855828 -0.469915,-1.278072 -0.68833,-1.143082 -0.07388,0.0456 -0.09917,0.254077 -0.05684,0.463537 0.04235,0.20945 -0.149266,-0.0427 -0.425814,-0.560689 -0.457255,-0.856528 -0.80684,-1.280725 -0.984952,-1.312065 z m -1.811776,0.218592 c -0.05638,0.002 -0.104049,0.02033 -0.140043,0.05633 -0.140262,0.14026 0.01191,0.405542 0.582393,1.015442 0.865691,0.925488 1.316716,1.69609 1.316716,2.250508 0,0.31262 -0.07997,0.261991 -0.496611,-0.313159 -0.460907,-0.636288 -1.508104,-1.566829 -1.7632,-1.566829 -0.368845,0 0.0339,0.575848 0.998906,1.428336 0.610405,0.53924 1.07026,1.020052 1.02216,1.068152 -0.0481,0.0481 -0.666098,-0.187512 -1.37356,-0.523482 -1.170645,-0.555938 -1.376386,-0.601429 -2.285649,-0.506429 -1.228665,0.12842 -1.952938,0.551311 -2.952791,1.723409 -0.767256,0.899438 -1.954919,3.112947 -1.954919,3.643705 0,0.43559 -0.178666,0.346047 -1.355473,-0.678511 -1.074837,-0.935768 -1.102024,-0.979629 -1.201994,-1.958537 -0.131228,-1.285038 -0.56014,-1.892071 -1.386995,-1.962671 -0.529539,-0.0452 -0.642733,0.0144 -0.871782,0.457336 -0.375647,0.72644 -0.339858,2.177481 0.0708,2.850989 l 0.333313,0.546737 -0.535368,0.861446 c -0.783328,1.260128 -0.847526,2.512769 -0.194303,3.803385 0.271378,0.5362 0.799593,1.216219 1.198376,1.543059 0.5946,0.487358 0.892499,0.600729 1.797306,0.685229 0.645773,0.0603 1.438919,0.0165 1.960087,-0.10852 0.850103,-0.20395 0.887197,-0.19738 1.284677,0.23151 0.39627,0.4276 0.933793,0.596195 0.933793,0.293005 0,-0.0817 -0.114548,-0.243201 -0.254248,-0.359151 -0.1397,-0.11594 -0.254248,-0.287238 -0.254248,-0.380338 0,-0.0931 0.127861,-0.06476 0.283703,0.06304 0.254426,0.20866 0.271876,0.189422 0.171566,-0.190686 -0.06144,-0.23283 -0.112805,-0.592815 -0.114205,-0.799435 -0.0016,-0.266008 -0.07736,-0.346885 -0.259416,-0.276985 -0.213637,0.082 -0.228716,0.0241 -0.08888,-0.343649 0.09256,-0.243448 0.105829,-0.442867 0.02945,-0.442867 -0.26502,0 -0.696017,0.617728 -0.802535,1.150318 -0.09037,0.451878 -0.202662,0.553623 -0.721403,0.651123 -0.923175,0.17351 -2.871426,-0.214847 -3.505729,-0.698665 -0.296377,-0.22606 -0.776842,-0.770219 -1.067635,-1.209229 -0.743644,-1.122718 -0.702282,-2.445141 0.12299,-3.925859 0.176156,-0.316098 0.311219,-0.371804 0.698149,-0.286804 0.375652,0.0825 0.536823,0.024 0.74259,-0.269751 l 0.263033,-0.375171 0.655257,0.592212 c 0.360407,0.32561 1.106424,0.92355 1.658297,1.329118 0.551881,0.40555 1.096298,0.855983 1.209745,1.000973 0.182827,0.233648 0.207074,0.228045 0.211874,-0.05064 0.003,-0.17282 -0.179721,-0.533932 -0.406177,-0.803052 -0.475501,-0.565118 -0.422113,-0.947569 0.325561,-2.321305 1.433899,-2.634566 3.322672,-3.919905 4.250904,-2.892847 0.500199,0.553468 0.428839,2.332335 -0.14211,3.541903 -0.4999,1.059028 -1.171065,1.858284 -1.559595,1.858284 -0.144147,0 -0.262,0.114548 -0.262,0.254248 0,0.40476 0.286955,0.300153 1.042831,-0.380855 1.266523,-1.141068 2.104361,-3.813518 1.585433,-5.055506 -0.144154,-0.344938 -0.222727,-0.666585 -0.174667,-0.714685 0.04806,-0.048 0.449307,0.0762 0.891419,0.275953 0.44211,0.199708 1.108514,0.414056 1.481046,0.476456 0.372525,0.0623 0.730511,0.195291 0.795301,0.295589 0.211457,0.32732 0.367668,-0.0503 0.429948,-1.038696 0.05273,-0.836928 -0.0091,-1.090778 -0.452169,-1.848466 -0.53481,-0.914648 -1.375232,-1.680704 -1.769918,-1.665014 z M 75.291528,43.51569 c 0.02503,0.003 0.06896,0.0701 0.147278,0.204639 0.09657,0.16591 0.149089,0.43267 0.116789,0.592728 -0.05363,0.26574 -0.06945,0.26408 -0.180868,-0.01912 -0.0671,-0.1706 -0.119588,-0.437359 -0.116788,-0.592729 0.0023,-0.125998 0.0086,-0.188178 0.03359,-0.185518 z m 5.741769,1.778186 c -0.05853,0.01151 -0.11174,0.05977 -0.178801,0.14056 -0.150755,0.18166 -0.157597,0.339801 -0.02584,0.586011 0.204558,0.382138 0.05149,1.038009 -0.161747,0.692981 -0.06976,-0.1129 -0.211681,-0.152844 -0.315226,-0.08888 -0.249739,0.15435 -0.240438,0.823089 0.01499,1.078487 0.320856,0.32086 0.580206,0.24243 1.051615,-0.31781 0.548402,-0.651748 0.563858,-1.334338 0.04082,-1.825728 -0.172301,-0.16186 -0.27916,-0.246863 -0.364836,-0.264583 -0.02142,-0.0044 -0.04147,-0.0049 -0.06098,-10e-4 z m -4.519104,1.525488 c -0.179703,-0.009 -0.297983,0.187675 -0.160714,0.409795 0.128957,0.208618 0.592729,0.2247 0.592729,0.02067 0,-0.0817 -0.107854,-0.238216 -0.239262,-0.347266 -0.06634,-0.0551 -0.132852,-0.0803 -0.192753,-0.0832 z m -1.275375,1.002523 c -0.255493,0 -0.413226,0.625676 -0.258899,1.027844 v 5.17e-4 c 0.106004,0.27621 0.258177,0.298772 0.589629,0.08888 0.297937,-0.18872 0.02312,-1.117245 -0.33073,-1.117245 z m 1.264006,0.311609 c -0.0588,-0.003 -0.119001,0.0576 -0.219625,0.178801 -0.121906,0.146918 -0.177567,0.382602 -0.123507,0.523482 0.123609,0.322128 0.550776,0.333973 0.671794,0.0186 0.05013,-0.13064 -0.0029,-0.366322 -0.117822,-0.523482 -0.09483,-0.12969 -0.152043,-0.194854 -0.21084,-0.197404 z m 9.869165,1.080038 c -0.600505,-0.0937 -1.975073,0.807245 -1.975073,1.412833 0,0.35741 0.432493,0.733517 0.672827,0.584977 0.09876,-0.061 0.144776,-0.166711 0.102836,-0.234611 -0.04194,-0.0679 -0.006,-0.233719 0.07958,-0.368969 0.121461,-0.192 0.15613,-0.162595 0.15813,0.134875 0.003,0.44355 0.208666,0.490716 0.517281,0.118856 0.17252,-0.20783 0.245406,-0.216578 0.352433,-0.04341 0.285897,0.462508 -0.148119,1.318537 -1.439706,2.840653 -0.645614,0.760828 -1.459342,2.561394 -1.459342,3.228744 0,0.319338 -0.06853,0.479278 -0.176733,0.412378 -0.09723,-0.0601 -0.373216,0.0192 -0.612883,0.176216 -0.432615,0.28348 -0.441843,0.279129 -1.309997,-0.578259 -0.480949,-0.47496 -0.974697,-0.863513 -1.097091,-0.863513 -0.122396,0 -0.44658,0.15953 -0.72037,0.3545 -0.508689,0.36218 -0.934009,0.337338 -1.087788,-0.06356 -0.128104,-0.33383 0.359604,-1.381679 0.962731,-2.068607 0.729292,-0.83054 0.501496,-0.928689 -0.356567,-0.153479 -1.13898,1.028918 -1.465632,1.969263 -0.943612,2.714563 0.240519,0.343368 0.227334,0.348683 -0.615466,0.267683 -0.628161,-0.0603 -1.185834,-0.283831 -2.065507,-0.827339 -1.79276,-1.107578 -3.556785,-1.500299 -5.205884,-1.159619 -0.551628,0.11396 -0.682693,0.06479 -1.290877,-0.484725 -0.446341,-0.40325 -0.842226,-0.611849 -1.163753,-0.611849 -0.268112,-3.5e-4 -0.750213,-0.160828 -1.071253,-0.356568 -0.427666,-0.260578 -0.757905,-0.332617 -1.23455,-0.268717 -0.883176,0.11845 -1.145149,0.379784 -1.145149,1.141532 0,0.79028 -0.60966,1.580855 -1.426787,1.850533 -1.014986,0.33498 -1.724674,1.8055 -1.346687,2.790528 0.124431,0.324248 1.023914,0.82421 1.241267,0.68988 0.08325,-0.0514 0.407376,0.0577 0.72037,0.242363 0.419813,0.247708 0.698028,0.301538 1.0604,0.204638 0.579506,-0.15499 0.779827,-0.536401 0.281637,-0.536401 -0.988588,0 -1.506991,-0.692345 -0.941545,-1.257805 0.24189,-0.241888 0.241115,-0.266133 -0.0083,-0.266133 -0.1508,0 -0.450326,0.1904 -0.666109,0.42323 -0.461282,0.497738 -0.501808,0.505383 -0.84801,0.159163 -0.239496,-0.23949 -0.232443,-0.326676 0.07545,-0.930176 0.222201,-0.435548 0.540351,-0.750131 0.919324,-0.908471 0.340001,-0.14208 0.759769,-0.527223 1.015442,-0.932243 0.239664,-0.37964 0.512198,-0.690397 0.605648,-0.690397 0.09345,0 0.153562,-0.211486 0.133842,-0.470256 -0.07229,-0.948748 0.49419,-1.148798 1.497583,-0.52865 0.390085,0.24126 0.714863,0.32103 1.00769,0.24753 0.320226,-0.0804 0.636312,0.0271 1.222148,0.415996 0.613738,0.407508 0.908099,0.502847 1.316715,0.426847 1.229987,-0.22871 5.037714,1.196399 5.968111,2.233455 0.347821,0.38771 0.442608,0.416774 0.742591,0.229444 0.292484,-0.18266 0.548603,-0.137441 1.718241,0.303857 0.755941,0.2852 1.807518,0.639226 2.337325,0.786516 0.529815,0.147388 1.238269,0.45424 1.574064,0.682128 0.757308,0.51387 0.826858,0.515094 0.700216,0.01034 -0.06616,-0.26362 -0.0068,-0.482239 0.170532,-0.629419 0.291846,-0.24222 0.404001,-0.148072 1.427303,1.195276 0.336316,0.441498 0.56462,0.572494 1.025777,0.588594 0.326195,0.0113 0.81729,0.187518 1.091407,0.391708 0.887647,0.661248 1.007152,0.463058 0.244429,-0.40566 -0.57403,-0.65379 -0.738006,-1.327121 -0.211873,-0.870231 0.321304,0.278998 1.566312,0.533673 1.566312,0.320393 0,-0.0719 -0.228579,-0.33397 -0.507979,-0.58291 -0.629315,-0.560748 -0.667714,-0.84124 -0.08475,-0.6196 0.582033,0.22128 0.530245,6.49e-4 -0.156063,-0.664559 -0.318686,-0.30888 -0.626446,-0.749697 -0.684196,-0.979785 -0.06929,-0.27609 -0.188981,-0.385995 -0.351917,-0.323495 -0.147248,0.0565 -0.247013,-0.006 -0.247013,-0.153996 0,-0.421718 -0.2944,-0.274658 -0.434599,0.217042 l -0.132808,0.465604 -0.110071,-0.592729 -0.110588,-0.592728 -0.214457,0.507979 c -0.297639,0.703988 -0.132152,2.310606 0.31626,3.070614 0.430252,0.729238 0.35564,0.933727 -0.119889,0.329179 -0.375449,-0.4773 -0.81485,-2.846171 -0.66921,-3.608049 l 0.0894,-0.467672 -0.322978,0.398942 c -0.177729,0.21949 -0.322977,0.585904 -0.322977,0.813904 0,0.26112 -0.07006,0.371473 -0.188619,0.298173 -0.278775,-0.1723 -0.03597,-1.688834 0.436666,-2.727482 0.219401,-0.482178 0.783239,-1.383932 1.252636,-2.004012 0.601982,-0.795188 0.886466,-1.347491 0.965316,-1.873271 0.115601,-0.770888 -0.0011,-1.532586 -0.287321,-1.877404 -0.04792,-0.0577 -0.117817,-0.09149 -0.203605,-0.104903 z m 10.522872,4.569746 c -0.0451,-0.005 -0.0906,-0.0028 -0.13901,0.0072 -0.19375,0.0412 -0.430939,0.209874 -0.840259,0.532784 -0.411968,0.325 -0.413667,0.336369 -0.100769,0.682129 0.17502,0.1934 0.42094,0.3514 0.54622,0.3514 0.27238,0 0.282348,-0.08939 0.05788,-0.509013 -0.28467,-0.53191 0.17548,-0.618847 0.608748,-0.115239 0.32952,0.3831 0.382654,0.631106 0.374654,1.762684 -0.006,0.942918 -0.0837,1.402999 -0.273368,1.619539 -0.14568,0.16634 -0.307785,0.623499 -0.360185,1.015959 l -0.09508,0.713651 -1.518771,0.04909 c -0.924788,0.0301 -1.620166,0.135172 -1.778186,0.2682 -0.1427,0.12014 -0.678385,0.430411 -1.190625,0.689881 -1.115718,0.565158 -1.077514,0.534117 -0.938444,0.759127 0.0614,0.0993 0.202251,0.180283 0.313159,0.178283 0.49513,-0.006 1.76661,-0.568429 2.18488,-0.966349 0.44265,-0.4211 0.514129,-0.433079 1.974557,-0.338481 1.740546,0.11276 2.053621,-0.05321 2.053621,-1.086755 0,-0.32412 0.111824,-0.736975 0.248564,-0.917773 0.170998,-0.22604 0.250248,-0.767723 0.254248,-1.734261 0.006,-1.539738 -0.202603,-2.143954 -0.940511,-2.724382 -0.17697,-0.1392 -0.306157,-0.222192 -0.441317,-0.237712 z m -17.001546,3.029273 c 0.19146,-0.008 0.345769,0.125383 0.598413,0.395841 0.26553,0.28424 0.64999,0.578624 0.854211,0.654224 0.294246,0.10884 0.324219,0.172732 0.144694,0.307992 -0.15881,0.119668 -0.60339,0.0473 -1.486731,-0.241846 -1.172209,-0.38369 -1.237094,-0.429411 -0.931209,-0.657841 0.400674,-0.29923 0.62916,-0.44994 0.820622,-0.45837 z m -11.469068,1.23765 v 5.17e-4 c -0.17015,-0.002 -0.650356,0.310843 -1.066601,0.694531 -0.850973,0.7844 -1.464095,0.863313 -1.558045,0.200505 -0.04492,-0.31689 -0.1013,-0.352786 -0.296622,-0.190686 -0.364419,0.30243 -0.289356,0.795887 0.166398,1.094507 0.371201,0.24324 0.464999,0.242522 1.058333,-0.0052 0.358068,-0.14958 0.85927,-0.471562 1.113627,-0.715202 0.406725,-0.389578 0.515011,-0.419046 0.897103,-0.244946 0.532159,0.24243 1.376776,0.258272 1.51877,0.02842 0.218541,-0.3536 0.727066,-0.142134 1.488282,0.619084 0.632604,0.632528 0.809005,0.73435 0.893485,0.51418 0.05971,-0.15562 -0.0531,-0.497179 -0.260966,-0.789099 -0.335096,-0.470608 -0.34181,-0.524393 -0.07752,-0.625801 0.421259,-0.16157 0.767526,0.121576 1.342037,1.098124 0.653886,1.111488 1.006844,1.4577 1.351339,1.3255 0.213988,-0.0821 0.250068,-0.237677 0.163298,-0.700215 -0.161439,-0.86055 0.263451,-0.783325 1.060917,0.192753 0.353802,0.433028 0.863332,1.045647 1.13223,1.361157 0.520538,0.610628 0.83698,0.653335 0.911056,0.123507 0.06031,-0.43141 -2.050623,-2.604731 -2.554883,-2.630331 -0.203046,-0.0103 -0.540876,-0.005 -0.750858,0.0124 -0.231751,0.0188 -0.592022,-0.179633 -0.91674,-0.504361 -0.710507,-0.71055 -1.159339,-0.862847 -1.922364,-0.652157 -0.425404,0.11797 -0.768413,0.1178 -1.072802,0 -0.383745,-0.14851 -0.924527,-0.190923 -2.619479,-0.207223 z m 21.206458,1.97249 v 5.17e-4 c -0.329963,0.203938 -0.119198,0.911495 0.692981,2.328023 0.900628,1.570676 0.995697,1.80696 0.594279,1.473812 -0.36775,-0.30521 -0.494553,0.145091 -0.269235,0.956531 0.20534,0.739478 0.238971,2.810302 0.05581,3.44475 -0.11025,0.38222 -0.13059,0.358758 -0.20929,-0.240812 -0.131078,-0.998408 -0.446529,-0.93557 -0.554488,0.110588 -0.189685,1.837876 -1.249929,4.066145 -2.115116,4.445723 -0.746927,0.32772 -0.352217,0.425814 1.716174,0.425814 1.955566,0 2.102697,0.02271 2.185397,0.338998 0.0778,0.297398 0.205163,0.33237 1.033011,0.28267 1.104508,-0.0663 1.060983,0.106233 -0.186035,0.738973 -0.505538,0.256518 -1.130818,0.419515 -1.658296,0.432015 -1.202414,0.0288 -1.230418,0.0437 -0.780315,0.418579 0.893317,0.743938 -0.339629,0.596539 -1.577681,-0.188619 -0.92723,-0.58803 -1.11311,-0.615047 -1.11311,-0.160197 0,0.429398 -0.202897,0.430907 -0.589112,0.0036 -0.166579,-0.18404 -0.372918,-0.291545 -0.45837,-0.238745 -0.08546,0.0528 -0.349803,-0.11404 -0.587561,-0.37052 -0.343128,-0.37018 -0.413297,-0.582635 -0.340547,-1.030945 0.127594,-0.786268 -0.109154,-0.705226 -0.698149,0.239262 -1.013202,1.624736 -2.439503,2.917718 -3.220992,2.919718 -0.215315,6.1e-4 -0.799915,-0.192227 -1.299145,-0.428397 -0.922109,-0.43624 -1.611272,-1.266469 -1.611272,-1.940967 0,-0.508388 -0.324032,-0.569363 -0.504362,-0.09508 -0.209797,0.55178 -0.27655,0.544641 -0.592212,-0.06563 -0.185326,-0.358408 -0.258382,-1.022329 -0.258382,-2.349727 0,-1.341358 -0.06264,-1.902432 -0.227376,-2.039152 -0.312741,-0.25956 -0.450102,-0.07079 -0.450102,0.618567 0,0.455558 -0.143508,0.723885 -0.652673,1.218013 -0.359151,0.34854 -0.70778,0.854236 -0.77463,1.123446 -0.06685,0.26922 -0.258842,0.641588 -0.42633,0.827856 -0.167487,0.18626 -0.348213,0.529388 -0.402043,0.762228 -0.192771,0.833808 -0.543005,1.951151 -0.676444,2.159041 -0.161886,0.25224 -0.730198,0.280695 -0.876433,0.04393 -0.05687,-0.092 -0.212532,-0.587388 -0.346232,-1.100708 -0.300965,-1.155488 -0.865726,-2.069526 -1.681034,-2.720764 -1.307953,-1.044718 -1.647178,-1.469736 -1.573548,-1.971456 0.07919,-0.539558 -0.195649,-0.652457 -0.330729,-0.135909 -0.152667,0.583828 -0.410584,0.368557 -0.355534,-0.296623 0.04233,-0.511418 0.127271,-0.645563 0.436149,-0.689363 0.486708,-0.0691 0.320405,-0.36897 -0.204638,-0.36897 -0.407496,0 -0.941028,-0.620357 -0.941028,-1.094507 0,-0.18506 0.173609,-0.259932 0.602547,-0.259932 0.358653,0 0.560441,-0.0687 0.498161,-0.169499 -0.05756,-0.0931 -0.388407,-0.168982 -0.735356,-0.168982 -0.516727,0 -0.68343,0.0886 -0.92139,0.491443 -0.38022,0.643648 -0.37,0.742719 0.14211,1.351339 0.366788,0.435898 0.402985,0.570343 0.236678,0.881083 -0.14306,0.26731 -0.146411,0.47543 -0.01292,0.768428 0.181535,0.39837 0.337808,0.469028 0.910022,0.410828 0.190811,-0.0194 0.296106,0.087 0.296106,0.29869 0,0.19016 0.403025,0.673248 0.956014,1.145666 0.9849,0.841428 1.461929,1.655154 1.678967,2.864942 0.217844,1.214356 1.328823,2.279016 2.117183,2.028816 0.508266,-0.161328 1.174573,-1.260338 1.176673,-1.940966 10e-4,-0.32757 0.04873,-0.879169 0.105936,-1.225249 0.0845,-0.511168 0.170703,-0.622428 0.460437,-0.592728 0.289625,0.0297 0.383238,-0.0902 0.498678,-0.640271 0.39338,-1.874306 0.709552,-2.112845 0.713652,-0.538469 0.0032,1.235218 0.300416,1.818132 1.195275,2.34611 0.319102,0.18828 0.57981,0.424099 0.57981,0.523999 0,0.0999 0.117975,0.311633 0.261999,0.470773 0.237231,0.262148 0.228951,0.352239 -0.0863,0.957047 -0.415601,0.797358 -0.852661,2.40186 -0.852661,3.129008 0,0.926758 0.387416,1.852943 1.108459,2.649451 0.696155,0.768918 0.719602,0.779241 2.027783,0.886251 1.070423,0.0875 1.380184,0.177984 1.618506,0.472322 0.162093,0.20017 0.331245,0.363802 0.376205,0.363802 0.196585,0 0.271209,-0.560398 0.113688,-0.854728 -0.250803,-0.468628 -0.701848,-0.660729 -1.808675,-0.769979 -1.61109,-0.15902 -2.350413,-0.94655 -2.449463,-2.608626 l -0.05529,-0.931209 0.761711,-0.04392 c 1.542681,-0.0897 3.048392,-0.403924 3.048392,-0.636654 0,-0.125 0.171306,-0.279648 0.380856,-0.343648 0.596377,-0.1821 1.788325,-0.944483 2.601908,-1.663981 0.408345,-0.3611 0.74259,-0.596899 0.74259,-0.523999 0,0.298878 -0.920492,1.308559 -1.580265,1.733227 -1.572927,1.012438 -1.8263,1.252099 -1.604553,1.519287 0.17056,0.2055 0.110982,0.329084 -0.337447,0.697632 -0.299745,0.24636 -0.544482,0.537846 -0.543636,0.647506 0.0028,0.365138 0.863532,0.903971 1.277958,0.799951 0.283862,-0.0712 0.440192,-0.002 0.578259,0.255798 0.227701,0.42547 0.834849,0.460122 1.552877,0.08888 0.673276,-0.34816 0.995288,-0.09099 0.995288,0.794783 0,0.46245 -0.150984,0.866261 -0.507979,1.359091 -0.2794,0.385698 -0.50798,0.804455 -0.50798,0.930175 0,0.12573 -0.06921,0.22841 -0.153479,0.22841 -0.08432,0 -0.119064,-0.285855 -0.07751,-0.635103 0.0829,-0.69723 -0.128112,-1.170475 -0.436666,-0.979785 -0.108507,0.0671 -0.512468,0.766537 -0.89762,1.554427 -0.385144,0.787898 -0.946175,1.714339 -1.246952,2.058789 -0.47711,0.546348 -0.589273,0.60089 -0.881083,0.42478 -0.228212,-0.13772 -0.816128,-0.17087 -1.850533,-0.10387 -1.454733,0.0943 -1.527617,0.08231 -1.796273,-0.301273 -0.393055,-0.56117 -0.353217,-0.967113 0.101286,-1.036113 l 0.380855,-0.05788 -0.362769,-0.204122 c -0.30432,-0.17124 -0.434434,-0.148036 -0.804602,0.143144 -0.242785,0.190978 -0.441316,0.498172 -0.441316,0.683162 0,0.18502 -0.07637,0.289527 -0.169499,0.232027 -0.09313,-0.0576 -0.169499,-0.370595 -0.169499,-0.695565 0,-0.500528 0.08034,-0.624648 0.52555,-0.811836 0.357972,-0.15052 0.447923,-0.25091 0.281636,-0.31471 -0.408551,-0.15678 -1.332859,0.408301 -1.60662,0.982369 -0.315165,0.660908 -1.203933,1.007409 -1.840715,0.717269 -0.297626,-0.13574 -0.582645,-0.133065 -1.06195,0.01033 -0.360329,0.10799 -0.851075,0.195854 -1.09089,0.195854 -0.606276,0 -0.733382,0.306339 -0.304891,0.734839 0.352226,0.35225 0.38208,0.354315 1.143083,0.08062 l 0.781864,-0.28112 0.415996,0.495061 c 0.504864,0.599968 0.648255,0.608846 1.414384,0.08837 0.426566,-0.289818 0.67773,-0.362501 0.874882,-0.252181 0.203431,0.11385 0.343187,0.0593 0.529166,-0.206189 0.251089,-0.358468 0.257301,-0.355749 0.916223,0.336931 0.73437,0.771988 0.832661,0.790987 2.409156,0.461987 0.605357,-0.12637 1.519692,-0.194412 2.031917,-0.151412 0.782576,0.0657 1.107052,-0.004 2.031917,-0.436149 1.790221,-0.836488 2.187842,-1.32688 2.176612,-2.686658 -0.0051,-0.612948 0.101506,-1.061684 0.347265,-1.459342 0.884162,-1.430598 0.06529,-3.253554 -1.074353,-2.391586 -0.484172,0.36622 -0.909145,0.309639 -0.972033,-0.129191 -0.03521,-0.245688 -0.231181,-0.435149 -0.561723,-0.543119 -0.2794,-0.0913 -0.536091,-0.184089 -0.569991,-0.206189 -0.0339,-0.0221 0.09856,-0.243968 0.294039,-0.492476 0.248749,-0.31617 0.309441,-0.532914 0.203088,-0.722954 -0.120738,-0.215748 0.06813,-0.419432 0.918807,-0.99012 0.812369,-0.54498 1.164912,-0.913856 1.461409,-1.529106 0.214914,-0.446018 0.412323,-0.8427 0.438733,-0.8816 0.0264,-0.0389 0.243185,0.0336 0.481625,0.161231 0.345617,0.18493 0.500606,0.190081 0.764294,0.02532 0.267872,-0.16732 0.431564,-0.154642 0.861446,0.0677 0.744387,0.3849 1.574321,0.370533 2.129069,-0.03721 0.25735,-0.189138 0.734511,-0.396553 1.060401,-0.460953 1.126198,-0.22257 3.722821,-2.25015 4.037479,-3.15278 0.26189,-0.751278 -0.0326,-0.781012 -0.932759,-0.09353 -0.823928,0.62917 -1.34496,0.83739 -1.8495,0.73949 -0.22084,-0.0429 -0.114542,-0.182705 0.420646,-0.553455 1.168098,-0.809148 1.877953,-2.316228 1.312065,-2.785876 -0.18202,-0.15106 -0.356139,-2.38e-4 -0.838709,0.72657 -0.709248,1.068188 -1.469381,1.690344 -2.360579,1.932182 -0.618758,0.16789 -0.93277,-0.0354 -0.381372,-0.247013 0.23311,-0.0894 0.37479,-0.738456 0.16123,-0.738456 -0.0511,0 -0.551735,0.304948 -1.112593,0.677478 -0.560843,0.372528 -1.20665,0.676961 -1.435055,0.676961 -0.406888,0 -0.401422,-0.0172 0.255282,-0.84801 0.368638,-0.46638 0.718323,-0.999391 0.777213,-1.184941 0.05889,-0.18556 0.180585,-0.337447 0.270785,-0.337447 0.22044,0 0.766045,-1.303321 1.200443,-2.868559 0.50807,-1.830486 0.501085,-3.424612 -0.02015,-4.4974 -0.65958,-1.358056 -1.723226,-2.972335 -1.890324,-2.869075 z m -0.685747,0.583427 c -0.304412,0 -0.304341,0.381527 0.0016,1.053165 0.181492,0.39876 0.383688,1.010876 0.449068,1.360124 0.183423,0.979878 0.378648,0.750325 0.238745,-0.280603 C 89.49574,61.717618 89.136669,60.60612 88.944958,60.60612 Z m -10.750764,0.284737 c -0.01308,0.0014 -0.02348,0.0068 -0.03204,0.01654 -0.02282,0.0246 -0.03049,0.0761 -0.03049,0.150379 0,0.19465 0.126929,0.458181 0.282153,0.586011 0.471937,0.388598 1.241599,1.535024 1.140499,1.698604 -0.05225,0.0845 -0.350082,-0.004 -0.661975,-0.196887 -0.668562,-0.41319 -1.241311,-0.333824 -2.076876,0.288354 -1.459159,1.086528 -1.985975,1.97269 -2.998266,5.046204 -0.429447,1.303786 -0.820478,2.484946 -0.869198,2.624646 -0.150122,0.430508 -0.379929,-0.166555 -0.754993,-1.962671 -0.375706,-1.799146 -0.597692,-2.333077 -1.207678,-2.902665 -0.659847,-0.61617 -1.335608,-0.660828 -1.966805,-0.129708 -0.296342,0.24936 -0.538985,0.572442 -0.538985,0.718302 0,0.23516 0.03488,0.233614 0.309542,-0.01499 0.170318,-0.15414 0.588555,-0.280086 0.929142,-0.280086 0.528191,0 0.680677,0.09351 1.03818,0.635103 0.230529,0.34925 0.541457,1.163906 0.690914,1.810226 0.149453,0.646308 0.381635,1.437619 0.51573,1.758549 0.2169,0.519148 0.214025,0.605294 -0.02532,0.780314 -0.244346,0.17868 -0.240585,0.253413 0.04134,0.819071 v 5.17e-4 c 0.170727,0.34254 0.327086,0.624835 0.347266,0.626835 0.02018,0.002 0.305524,-0.265209 0.634586,-0.594279 0.35741,-0.35741 0.598413,-0.764361 0.598413,-1.010791 0,-0.22691 0.147403,-0.674296 0.327112,-0.994254 0.17971,-0.31997 0.603498,-1.484293 0.942061,-2.587439 0.959672,-3.126954 1.3207,-3.648231 2.65927,-3.839559 0.510864,-0.073 0.755372,0.004 1.32705,0.418062 0.874334,0.633378 1.275846,1.514091 1.497583,3.282487 0.09361,0.746558 0.220004,1.508003 0.280604,1.692403 0.510029,1.552188 0.810317,1.707448 0.649055,0.33538 -0.07477,-0.636158 -0.04952,-0.931209 0.07906,-0.931209 0.254377,0 0.704867,0.90141 0.704867,1.41025 0,0.226058 0.105254,0.498124 0.233577,0.604614 0.184455,0.1531 0.254954,0.112837 0.336414,-0.191203 0.285102,-1.064088 -0.198641,-2.368348 -0.989604,-2.669088 -0.305672,-0.116208 -0.394502,-0.315231 -0.470772,-1.054199 -0.06123,-0.593308 -0.283971,-1.232678 -0.638721,-1.833996 -0.471749,-0.79964 -0.520368,-0.98692 -0.364319,-1.400948 0.0991,-0.26291 0.141446,-0.57933 0.09405,-0.7028 -0.04739,-0.1235 -0.0029,-0.275897 0.09922,-0.338997 0.113664,-0.0703 0.37949,0.312203 0.68523,0.986503 0.274609,0.605638 0.589493,1.156848 0.700216,1.225248 0.119038,0.0736 0.345768,-0.0538 0.554488,-0.312126 l 0.35295,-0.437182 0.304374,0.409794 c 0.167332,0.22524 0.385079,0.409277 0.483691,0.409277 0.09862,0 0.409144,0.193805 0.690397,0.430465 0.281248,0.23666 0.54788,0.394149 0.592212,0.349849 0.04434,-0.0444 -0.186541,-0.614264 -0.51263,-1.266072 -0.582957,-1.165278 -0.789125,-1.327021 -0.802535,-0.628903 -0.006,0.3097 -0.03764,0.296144 -0.259416,-0.112654 -0.292611,-0.53938 -0.492458,-0.585117 -0.741556,-0.169499 -0.160831,0.26834 -0.213488,0.248227 -0.558623,-0.210323 -1.158696,-1.539416 -1.82056,-2.001368 -1.82056,-1.27124 0,0.494058 -0.152039,0.427664 -1.052649,-0.459404 -0.382569,-0.376808 -0.59097,-0.564074 -0.700216,-0.603064 -0.01821,-0.0065 -0.03395,-0.0091 -0.04703,-0.0078 z m 10.757999,3.102653 c -0.100003,0.007 -0.153842,0.163888 -0.08372,0.465088 0.05964,0.25611 0.1544,0.935202 0.21084,1.508952 0.09335,0.949198 0.07414,1.040658 -0.214457,1.015958 -0.284489,-0.0244 -0.311379,0.08161 -0.260449,1.030945 0.04553,0.848588 0.0068,1.058333 -0.19482,1.058333 -0.333407,0 -0.45682,0.364514 -0.45682,1.347722 0,0.515288 -0.09257,0.889433 -0.253731,1.023193 -0.1397,0.11594 -0.254248,0.36876 -0.254248,0.56224 0,0.381248 0.03909,0.349922 0.729154,-0.593246 0.474401,-0.648458 0.577051,-0.910611 0.286804,-0.731221 -0.245714,0.15185 -0.212007,-0.009 0.183452,-0.877466 0.194066,-0.42602 0.394501,-1.031716 0.445451,-1.345654 0.05094,-0.31393 0.158838,-0.570508 0.239778,-0.570508 0.201828,0 0.187036,-2.922601 -0.01757,-3.460771 -0.11336,-0.29815 -0.259664,-0.440635 -0.359668,-0.433565 z m -24.545272,6.431132 c -0.260255,0.0208 -0.654588,0.833935 -0.914672,1.938383 -0.326033,1.384448 -0.277041,2.492312 0.155029,3.5264 0.34487,0.825388 1.523244,2.350061 2.159041,2.793111 0.300721,0.20955 0.574028,0.380855 0.607198,0.380855 0.03317,0 -0.2167,-0.323516 -0.555521,-0.719336 -1.001964,-1.170478 -1.663214,-2.694304 -1.771985,-4.083472 -0.10764,-1.374746 0.07003,-3.09671 0.355017,-3.4401 0.10571,-0.127368 0.136589,-0.2869 0.06873,-0.3545 -0.03093,-0.0308 -0.06566,-0.04434 -0.102836,-0.04134 z m 14.822868,6.117973 c 0.01915,-0.0039 0.04202,-0.0038 0.06873,0 0.106834,0.0153 0.276069,0.09269 0.526066,0.235644 0.232833,0.13306 0.309199,0.23541 0.169499,0.22841 -0.475627,-0.0256 -0.84646,-0.167775 -0.84646,-0.325045 0,-0.0803 0.0247,-0.127162 0.08217,-0.139009 z m -18.21956,0.0057 c -0.06368,-0.0223 -0.141967,0.143991 -0.214457,0.506429 -0.151684,0.758468 0.174147,1.810309 0.820622,2.646867 0.664197,0.859488 1.166726,1.2706 2.344043,1.91978 0.996051,0.549208 0.963249,0.53706 0.963249,0.3545 0,-0.0748 -0.4502,-0.453244 -1.000456,-0.841292 -1.631472,-1.150558 -2.740788,-2.727469 -2.785876,-3.959965 -0.01438,-0.39292 -0.06344,-0.603979 -0.127125,-0.626319 z m 17.903817,0.511597 c 0.09293,-0.008 0.270431,0.0752 0.661975,0.238745 0.351523,0.14688 1.122929,0.274187 1.714108,0.283187 1.151249,0.0175 1.408675,0.187068 0.545703,0.359668 -0.796827,0.15932 -2.565839,0.117507 -2.884062,-0.06821 -0.173428,-0.10122 -0.247036,-0.293242 -0.192236,-0.502812 0.05304,-0.20282 0.06159,-0.302375 0.154512,-0.310575 z m -0.07131,1.185974 c 0.04886,0.003 0.107742,0.01479 0.177767,0.03359 0.209548,0.0562 0.438129,0.102386 0.507979,0.104386 0.06985,0.001 0.127124,0.0785 0.127124,0.171566 0,0.0931 -0.228581,0.169498 -0.507979,0.169498 -0.354954,0 -0.50798,-0.08259 -0.50798,-0.273885 0,-0.10063 0.02503,-0.162502 0.08527,-0.189652 0.03012,-0.0136 0.06896,-0.0187 0.117823,-0.0155 z m 1.574581,1.156002 c -1.180932,0 -1.515392,0.275936 -0.465605,0.383956 0.34925,0.0359 0.736378,0.04044 0.860413,0.01034 0.124031,-0.0303 0.333528,-0.05478 0.465604,-0.05478 0.132081,0 0.240296,-0.0764 0.240296,-0.169499 0,-0.0955 -0.479828,-0.169498 -1.100708,-0.169498 z m -20.449398,0.866097 c -0.09567,-0.007 -0.129901,0.166549 -0.0584,0.523999 0.137048,0.685238 0.655916,1.243838 1.627291,1.752348 0.419092,0.219388 0.83808,0.399525 0.93121,0.401525 0.167616,0.002 0.02571,-0.126032 -1.178223,-1.0604 -0.340743,-0.26446 -0.743576,-0.740715 -0.895036,-1.058333 -0.174007,-0.36491 -0.331173,-0.552179 -0.426847,-0.559139 z m 21.860164,3.984253 c -0.1237,0.0232 -0.48458,0.245587 -1.114144,0.672827 -0.496274,0.336758 -0.792845,0.412153 -1.458309,0.371553 -1.02204,-0.0623 -1.320227,0.314716 -0.330212,0.417546 v 5.17e-4 c 0.355023,0.0369 0.7752,0.07948 0.933793,0.09508 0.463804,0.0458 1.023741,-0.303934 1.658814,-1.036112 0.320139,-0.36909 0.433766,-0.544665 0.310058,-0.521415 z m 3.502112,1.865002 c 0.02275,9.9e-4 0.03949,0.01456 0.04858,0.04186 0.03633,0.10898 -0.0267,0.309916 -0.140043,0.446484 -0.354156,0.42674 -0.525977,0.270691 -0.218592,-0.198437 0.120668,-0.18397 0.241809,-0.292885 0.310059,-0.289905 z m 3.723287,0.295589 c -0.234902,-0.009 -0.552657,0.0508 -1.139982,0.172083 -0.682771,0.14107 -1.40172,0.214597 -1.597835,0.163297 -0.445824,-0.11658 -0.664924,0.203601 -0.376722,0.550871 0.244445,0.29455 0.924601,0.258953 2.234489,-0.117305 l 0.812871,-0.233578 0.426847,0.545703 c 0.527421,0.67393 0.853764,0.681324 1.967322,0.04548 0.986868,-0.56358 0.845085,-0.780062 -0.421163,-0.643372 -0.51396,0.0555 -0.875826,-0.0143 -1.262455,-0.24443 -0.256371,-0.152588 -0.40847,-0.230045 -0.643372,-0.238745 z m -6.085933,0.779798 c 0.04107,0 0.07441,0.0759 0.07441,0.168982 0,0.0931 -0.08069,0.169498 -0.179318,0.169498 -0.09863,0 -0.13199,-0.0764 -0.07441,-0.169498 0.05756,-0.0931 0.138248,-0.168982 0.179318,-0.168982 z"
       sodipodi:nodetypes="ccssssscsscscssssscsccsssccsccscsssssscsccscsscccccsssssssscsssssscccscscssssssccssssscscccccsccssssssccccsscccsssccsccsccssssccsccscccsccsssccscscsccssscssccccsccsccccssscccsssssscsssccccsssccsssccssscssssscccccsssccscscsscccssscccscccssccsssccsccscssscccsssscscccsscsssscsscscsccccssccccscssccsscsssscssscsssssssscscssscssscsssscsscssssscssssssccsssscccscsssssscccssssccscscsccssscsscsccsscccsssscssccsscscsscscccssscccssscsssssscccscsssscscccscsssssssssssccsssssscscssscsssssscsccccsscscsscsssscsccssssscscsssccsssscssscssccsscsssssscccccssccccssscccccssccccscssccsccccscscscscccsccccsscsssss" />
  </g>
  <metadata
     id="metadata2183">
    <rdf:RDF>
      <cc:License
         rdf:about="http://creativecommons.org/publicdomain/zero/1.0/">
        <cc:permits
           rdf:resource="http://creativecommons.org/ns#Reproduction" />
        <cc:permits
           rdf:resource="http://creativecommons.org/ns#Distribution" />
        <cc:permits
           rdf:resource="http://creativecommons.org/ns#DerivativeWorks" />
      </cc:License>
      <cc:Work
         rdf:about="">
        <cc:license
           rdf:resource="http://creativecommons.org/publicdomain/zero/1.0/" />
        <dc:title>Cartoon dog</dc:title>
      </cc:Work>
    </rdf:RDF>
  </metadata>
</svg>
