<?xml version="1.0" encoding="UTF-8" standalone="no"?>
<!-- Created with Inkscape (http://www.inkscape.org/) -->

<svg
   width="38.41275mm"
   height="40.230675mm"
   viewBox="0 0 38.41275 40.230675"
   version="1.1"
   id="svg1953"
   inkscape:version="1.2 (dc2aedaf03, 2022-05-15)"
   sodipodi:docname="Screwball bird.svg"
   xmlns:inkscape="http://www.inkscape.org/namespaces/inkscape"
   xmlns:sodipodi="http://sodipodi.sourceforge.net/DTD/sodipodi-0.dtd"
   xmlns="http://www.w3.org/2000/svg"
   xmlns:svg="http://www.w3.org/2000/svg"
   xmlns:rdf="http://www.w3.org/1999/02/22-rdf-syntax-ns#"
   xmlns:cc="http://creativecommons.org/ns#"
   xmlns:dc="http://purl.org/dc/elements/1.1/">
  <title
     id="title1979">Screwball bird</title>
  <sodipodi:namedview
     id="namedview1955"
     pagecolor="#ffffff"
     bordercolor="#666666"
     borderopacity="1.0"
     inkscape:showpageshadow="2"
     inkscape:pageopacity="0.0"
     inkscape:pagecheckerboard="0"
     inkscape:deskcolor="#d1d1d1"
     inkscape:document-units="mm"
     showgrid="false"
     inkscape:zoom="3.0206888"
     inkscape:cx="58.099332"
     inkscape:cy="73.658697"
     inkscape:window-width="1920"
     inkscape:window-height="991"
     inkscape:window-x="-9"
     inkscape:window-y="-9"
     inkscape:window-maximized="1"
     inkscape:current-layer="layer1" />
  <defs
     id="defs1950" />
  <g
     inkscape:label="Lager 1"
     inkscape:groupmode="layer"
     id="layer1"
     transform="translate(-113.48195,-57.633092)">
    <path
       id="path1719"
       style="fill:#000000;stroke-width:0.169333"
       d="m 146.35747,57.636792 -5.1e-4,5.17e-4 c -0.48092,0.06656 -0.83122,1.0341 -0.93638,2.708878 -0.0981,1.5616 -0.72301,3.91301 -1.24902,4.698938 -0.1619,0.241887 -0.53861,0.813602 -0.83716,1.270207 -0.60238,0.921254 -1.40543,1.630877 -2.56832,2.270146 -0.90518,0.497599 -1.71291,1.607057 -1.83554,2.521293 -0.062,0.462259 0.0905,1.173174 0.54725,2.546098 0.62673,1.883896 0.63302,1.927269 0.54312,3.964099 -0.10504,2.378942 -0.35481,3.315866 -1.30276,4.887557 -0.75182,1.24652 -0.77893,1.322082 -0.47129,1.315682 0.25563,-0.0053 1.18929,-1.350822 1.56941,-2.261878 0.36837,-0.882896 0.75203,-3.300801 0.75603,-4.761466 0.002,-0.854281 -0.13952,-1.636153 -0.5054,-2.793628 -0.2794,-0.883893 -0.50798,-1.943545 -0.50798,-2.354895 0,-0.845859 0.65065,-2.131694 1.16014,-2.2934 0.1716,-0.05446 0.79127,-0.514256 1.37718,-1.021643 2.25923,-1.956502 3.37918,-4.327245 3.72587,-7.886857 0.16698,-1.714347 0.28196,-2.191081 0.52968,-2.191081 0.2593,0 -0.16286,3.342977 -0.62994,4.987292 -0.34536,1.215883 -1.23417,2.903619 -1.96887,3.738273 -0.75845,0.86164 -0.78758,1.096177 -0.18138,1.463994 l 0.45682,0.276985 -0.60565,0.252698 c -0.68946,0.288042 -0.89425,0.532453 -0.7028,0.837675 0.0731,0.116416 0.1117,0.338261 0.0863,0.492993 -0.0718,0.436927 0.24623,0.527066 1.41852,0.401526 0.73047,-0.07822 1.28474,-0.252913 1.70325,-0.536918 0.6996,-0.474766 1.00508,-0.349971 0.68472,0.27957 -0.16613,0.326444 -0.32373,0.409146 -0.69919,0.367936 -0.29467,-0.03234 -0.67132,0.08541 -0.96118,0.299723 -0.26223,0.193877 -0.70844,0.378941 -0.99115,0.411861 -0.2827,0.03292 -0.85545,0.241102 -1.27279,0.462504 -0.69172,0.366948 -0.75861,0.458682 -0.75861,1.035596 0,0.550775 0.088,0.690994 0.67748,1.081071 0.37254,0.246531 0.67696,0.555281 0.67696,0.685746 0,0.130461 -0.26815,0.395465 -0.59635,0.589112 -0.32818,0.193645 -0.79842,0.696141 -1.0449,1.116727 -0.39069,0.666634 -0.42381,0.829884 -0.25683,1.272274 0.15167,0.401828 0.14,0.606751 -0.0558,0.98547 -0.13598,0.263057 -0.24753,0.667199 -0.24753,0.897619 0,0.230418 -0.22261,0.977077 -0.49506,1.659331 -0.67161,1.681847 -0.78345,2.178773 -0.52606,2.337841 0.15773,0.09749 0.16332,0.215987 0.0227,0.478524 -0.10271,0.191989 -0.18655,0.506277 -0.18655,0.698665 0,0.423016 -0.1285,0.43983 -0.53743,0.06976 -0.29256,-0.26481 -0.30955,-0.255317 -0.30955,0.169498 0,0.286732 -0.0917,0.449585 -0.25373,0.449585 -0.1397,0 -0.25425,-0.07637 -0.25425,-0.169498 0,-0.09313 -0.16104,-0.330535 -0.35811,-0.527617 -0.25883,-0.258823 -0.36763,-0.599895 -0.39223,-1.227832 -0.11498,-2.936322 -1.48156,-5.429304 -3.33519,-6.084383 l -0.74053,-0.261483 0.67748,-0.0124 c 0.37253,-0.0068 0.89845,0.10312 1.1684,0.243913 0.7411,0.386477 0.77114,0.125304 0.061,-0.52555 -0.48899,-0.448125 -0.778,-0.579292 -1.27899,-0.579292 -0.7137,0 -1.01094,0.184415 -1.45727,0.90382 -0.1639,0.264193 -0.33881,0.439391 -0.38861,0.389641 -0.0497,-0.04975 0.0757,-0.359834 0.27905,-0.688847 0.62714,-1.014799 2.35839,-1.228469 3.44475,-0.425297 0.26652,0.197047 0.52936,0.313512 0.58446,0.258382 0.15911,-0.159109 -0.61903,-0.899711 -1.2702,-1.208712 -0.44826,-0.212706 -0.53715,-0.31871 -0.3607,-0.430464 0.36563,-0.231575 0.96832,-0.179596 1.43092,0.123506 0.6209,0.40683 0.65556,0.196591 0.0615,-0.372587 -0.42225,-0.40452 -0.66097,-0.494143 -1.31051,-0.491443 -0.43685,0.0018 -0.947,0.06914 -1.13327,0.149862 -0.31895,0.138239 -0.32197,0.129156 -0.0548,-0.155029 0.15605,-0.165936 0.51795,-0.310134 0.80409,-0.320394 0.28612,-0.01027 0.52038,-0.07403 0.52038,-0.14211 6.5e-4,-0.205022 -0.82052,-0.345923 -1.31465,-0.22531 -0.25439,0.0621 -0.60817,0.112994 -0.786,0.112655 -1.09554,-0.002 -1.95002,1.829693 -1.96628,4.215763 -0.004,0.635678 -0.14616,1.494032 -0.33538,2.031918 -0.36942,1.050217 -0.42389,2.354128 -0.15865,3.788916 0.26468,1.431825 0.23018,1.477126 -0.81649,1.076936 -0.74274,-0.283986 -0.99801,-0.50205 -1.53996,-1.313614 -0.71112,-1.064936 -1.6625,-3.503778 -2.2443,-5.753654 -0.42086,-1.627512 -1.54112,-4.199285 -1.87637,-4.307748 -0.12208,-0.0395 -0.80656,-0.107465 -1.52084,-0.150895 -1.74927,-0.10636 -2.92861,-0.734791 -4.39043,-2.338875 -3.44904,-3.784703 -3.4747,-3.804269 -4.28759,-3.271635 -0.67666,0.443366 -0.70087,0.916911 -0.10749,2.092378 0.38039,0.75357 0.75747,1.207368 1.36787,1.645895 0.46344,0.332949 0.84233,0.626483 0.84233,0.652673 0,0.02618 -0.48124,0.04806 -1.0697,0.04806 -1.47858,0 -1.80868,0.127823 -1.80868,0.702283 0,0.570131 0.74901,1.215355 2.42569,2.088761 0.63567,0.331124 1.09199,0.641414 1.01441,0.689364 -0.0776,0.04795 -0.4303,0.141399 -0.78393,0.207739 -0.5634,0.10569 -0.63639,0.173481 -0.59118,0.548804 0.0284,0.235587 0.24207,0.565966 0.47491,0.734322 0.51047,0.369116 3.38654,0.886967 4.1274,0.743107 l 0.52916,-0.102836 -0.55965,0.478524 c -0.67019,0.572622 -0.60544,0.914613 0.25063,1.320849 0.687,0.325993 1.52667,0.235373 2.36936,-0.255281 0.61009,-0.355224 0.73381,-0.299174 0.73381,0.332796 0,0.729807 0.36182,1.076026 1.02939,0.984436 0.31842,-0.04369 0.68659,-0.110638 0.81804,-0.148828 0.15396,-0.04473 0.32628,0.171884 0.48421,0.608232 0.69225,1.912546 0.94422,2.451133 1.30328,2.78846 0.21594,0.202862 0.52371,0.712522 0.68419,1.132747 0.24365,0.637995 0.41716,0.817815 1.05058,1.089339 0.42506,0.182202 0.79545,0.467301 0.84285,0.64854 0.0465,0.177897 0.25859,0.367256 0.47129,0.420646 0.29097,0.07303 0.43592,0.292261 0.58549,0.886251 0.24996,0.992685 0.56115,1.596855 1.19269,2.316137 l 0.49713,0.566374 -1.13533,0.558106 c -1.32818,0.653289 -1.72806,0.9683 -1.72806,1.361674 0,0.366131 0.46646,0.771534 1.04593,0.908988 l 0.45269,0.107487 -0.36587,0.410828 c -0.24893,0.279475 -0.4289,0.358703 -0.56224,0.248046 -0.20205,-0.167687 -0.73949,0.223735 -0.73949,0.538469 0,0.08648 -0.19443,0.157096 -0.43202,0.157096 -0.33286,0 -0.48841,0.134546 -0.67748,0.587044 -0.33263,0.796098 -0.30831,1.21249 0.0935,1.614372 0.38122,0.381221 0.37396,0.379263 0.76843,0.227893 0.25912,-0.09943 0.25121,-0.138553 -0.0755,-0.384989 -0.39953,-0.301364 -0.62798,-1.31524 -0.37982,-1.685169 0.25389,-0.378498 0.5333,-0.04919 0.5333,0.628903 0,0.744513 0.3951,1.382344 0.85628,1.382344 0.41507,0 0.41193,-0.07093 -0.03,-0.668693 -0.23063,-0.311951 -0.36579,-0.759851 -0.37775,-1.25212 -0.0353,-1.456324 0.45623,-1.249847 0.76016,0.319361 0.30219,1.560229 1.00982,2.080667 1.60145,1.177705 0.2333,-0.356028 0.24724,-0.544551 0.0884,-1.175638 -0.24683,-0.980293 -0.23944,-1.109493 0.0646,-1.109493 0.1397,0 0.25425,-0.06249 0.25425,-0.138493 0,-0.192683 -1.15309,-1.201623 -1.8433,-1.612822 l -0.5736,-0.341581 0.38344,-0.310575 c 0.42637,-0.345269 1.14613,-0.572125 1.30638,-0.411861 0.0572,0.05718 -0.0226,0.243557 -0.17725,0.414445 -0.15465,0.170887 -0.28112,0.36349 -0.28112,0.42788 0,0.185228 2.31568,1.634009 2.61172,1.634009 0.1572,0 0.26717,0.144884 0.26717,0.352433 0,0.304197 -0.0703,0.336455 -0.51521,0.238746 -0.31481,-0.06914 -0.61066,-0.03337 -0.76172,0.09198 -0.31913,0.264909 -0.31566,0.502295 0.007,0.502295 0.1397,0 0.25425,-0.0846 0.25425,-0.188103 0,-0.12279 0.20266,-0.149972 0.58342,-0.07855 0.46125,0.08653 0.61528,0.04568 0.73536,-0.19327 0.24348,-0.484584 -0.0107,-1.137019 -0.48007,-1.232999 -0.22868,-0.04676 -0.78377,-0.352028 -1.23404,-0.677995 l -0.81907,-0.592212 0.7245,-0.210323 c 0.39833,-0.115685 0.80062,-0.287512 0.89452,-0.381372 0.28778,-0.287775 0.54339,-0.19207 0.78755,0.295072 0.7439,1.484091 3.30302,4.783688 3.71037,4.783688 0.22679,0 0.36149,-0.982332 0.51832,-3.787366 0.0826,-1.477719 0.18229,-2.719048 0.22169,-2.758488 0.0394,-0.03944 0.44347,-0.131085 0.89762,-0.203605 1.64511,-0.262696 3.21071,-1.77844 3.34191,-3.234945 0.0511,-0.567267 0.19089,-0.806398 0.75086,-1.28571 0.37844,-0.323924 0.8522,-0.854376 1.05265,-1.178739 0.37436,-0.605707 0.78811,-0.764791 0.94258,-0.362252 0.048,0.125143 -0.0683,0.623239 -0.2589,1.106909 -0.19064,0.483667 -0.34675,1.136842 -0.34675,1.451591 0,0.412946 -0.11697,0.658611 -0.42013,0.882634 -0.60522,0.447235 -1.45035,2.253729 -1.24075,2.652034 0.10614,0.201619 0.26131,0.269653 0.44597,0.195337 0.15583,-0.06273 0.37312,-0.150387 0.48265,-0.195337 0.1189,-0.04881 0.22145,0.110855 0.25425,0.396875 0.0719,0.627628 0.79516,0.754588 1.28778,0.225826 0.3111,-0.333927 0.35148,-0.338924 0.61547,-0.07493 0.26399,0.263988 0.30738,0.261916 0.65629,-0.03307 0.20545,-0.173721 0.43634,-0.414869 0.51314,-0.535368 0.0776,-0.121885 0.28033,-0.174359 0.45682,-0.118339 0.51473,0.163365 0.87766,-0.761355 0.90486,-2.306836 0.0245,-1.394954 -0.15014,-1.805517 -0.68058,-1.60197 -0.2404,0.09223 -0.25581,0.145257 -0.0744,0.257349 0.12575,0.07771 0.17549,0.227216 0.11059,0.332279 -0.16523,0.26735 -0.43356,0.06185 -0.43356,-0.332279 0,-0.347424 -0.13284,-0.397133 -0.59273,-0.220658 -0.22315,0.08564 -0.23541,0.137259 -0.0579,0.247013 0.30885,0.190882 -0.0522,0.543688 -0.47439,0.463538 -0.5007,-0.09506 -0.49418,-1.269443 0.015,-2.78536 0.50178,-1.493959 0.52992,-1.883436 0.17363,-2.392102 -0.30546,-0.436104 -0.74006,-0.33234 -1.71307,0.409794 -0.49113,0.374613 -0.62121,0.411825 -0.74776,0.211873 -0.23653,-0.373775 -0.21409,-0.418331 0.68988,-1.361157 0.4849,-0.505727 0.9323,-1.166181 1.0449,-1.542025 0.17504,-0.58425 0.15985,-0.69539 -0.13953,-0.994771 -0.18532,-0.185311 -0.44633,-0.294479 -0.57981,-0.242879 -0.13349,0.0516 -0.66186,0.670808 -1.17409,1.376143 -0.84142,1.158658 -1.43946,1.731922 -1.61902,1.55236 -0.0363,-0.0363 0.23493,-0.518446 0.60255,-1.071769 0.68684,-1.033805 0.80812,-1.546773 0.50229,-2.118217 -0.40313,-0.753269 -1.03239,-0.17226 -1.92391,1.775086 -0.74067,1.617864 -0.3085,1.373923 0.55759,-0.31471 0.55879,-1.089445 1.03404,-1.443382 1.03404,-0.769979 0,0.18732 -0.30374,0.785906 -0.67489,1.329635 -0.86248,1.263514 -0.94358,1.780811 -0.29094,1.855701 0.5164,0.05926 1.24812,-0.59951 2.23552,-2.011764 0.63727,-0.911452 1.02823,-1.089277 0.86455,-0.393258 -0.10615,0.451369 -0.76391,1.169362 -2.3549,2.569869 l -0.63355,0.557589 -0.93379,-0.294039 c -0.91208,-0.287502 -0.93145,-0.306465 -0.82062,-0.811837 0.0624,-0.284594 0.25559,-0.783356 0.42943,-1.107942 0.17386,-0.324588 0.31626,-0.805572 0.31626,-1.069186 0,-0.263619 0.0922,-0.645617 0.20463,-0.849044 0.11247,-0.203425 0.20895,-0.81581 0.21395,-1.36064 0.008,-0.851903 0.0685,-1.034916 0.43046,-1.305347 1.13916,-0.851099 1.31787,-1.024291 1.40767,-1.367875 0.073,-0.279178 -0.0554,-0.510003 -0.52039,-0.93586 l -0.61701,-0.564823 0.49868,-0.0088 c 0.74103,-0.01208 1.63242,-0.512522 2.01951,-1.133781 0.18818,-0.302008 0.51365,-0.59578 0.72347,-0.65319 0.55049,-0.150603 1.22732,-1.028586 1.22732,-1.592151 0,-0.311795 -0.14864,-0.599609 -0.4191,-0.812354 l -0.41858,-0.329179 0.88418,-0.916223 c 0.99307,-1.028546 1.47995,-2.143992 1.47795,-3.391524 -0.002,-2.312108 -1.11191,-2.164672 -2.34818,0.312126 -0.49608,0.993868 -2.34463,3.211605 -2.52594,3.030306 -0.0473,-0.0473 0.21094,-0.376511 0.57361,-0.731222 0.96596,-0.944787 2.08646,-2.928092 2.19935,-3.892786 0.0517,-0.442197 0.19687,-1.299427 0.32246,-1.904793 0.31832,-1.534407 0.2266,-2.981486 -0.21704,-3.425114 -0.18515,-0.185152 -0.36008,-0.262998 -0.52039,-0.240812 z m 1.65778,5.919535 c 0.0653,-0.0062 0.12009,0.03704 0.17415,0.117823 0.29605,0.442443 0.19539,1.420268 -0.20567,1.995743 -0.20955,0.300678 -0.95256,1.001962 -1.65106,1.558562 -0.6985,0.556597 -1.37288,1.013425 -1.49862,1.014925 -0.12577,0.0016 0.1454,-0.406732 0.60255,-0.906922 0.45715,-0.500192 1.1078,-1.433606 1.44591,-2.074292 0.64629,-1.224679 0.93668,-1.687306 1.13274,-1.705839 z m 1.82728,4.003374 c -0.0746,0.0053 -0.1303,0.274122 -0.19637,0.891418 -0.22561,2.106553 -1.50985,5.041114 -2.57142,5.876127 -0.22198,0.174617 -0.40359,0.368708 -0.40359,0.431498 0,0.06279 0.23791,-0.05496 0.52865,-0.261999 0.64432,-0.458779 1.71577,-2.081098 2.15491,-3.26285 0.45102,-1.2137 0.77148,-3.234558 0.56999,-3.594613 -0.0301,-0.05376 -0.0573,-0.08134 -0.0822,-0.07958 z m -35.01233,0.855761 c 0.2784,0 2.03812,1.633894 2.03812,1.892391 0,0.196705 -0.29757,0.173592 -0.4253,-0.03307 -0.0587,-0.0949 -0.47961,-0.361279 -0.93534,-0.592212 -1.10509,-0.559996 -1.48302,-1.267106 -0.67748,-1.267106 z m 31.10353,0.746208 c 0.0581,0.0081 -0.0262,0.09284 -0.19534,0.261999 -0.18611,0.186125 -0.59783,0.389833 -0.91467,0.453203 -0.83834,0.16767 -0.53404,-0.183159 0.44958,-0.518315 0.40154,-0.136816 0.60231,-0.204976 0.66043,-0.196887 z m 5.35884,0.129191 c -0.0914,-0.008 -0.23192,0.27791 -0.37827,0.860413 -0.28358,1.128768 -1.35275,3.296618 -2.12442,4.30723 -0.32705,0.428328 -0.59479,0.847646 -0.59479,0.931726 0,0.08408 0.41267,-0.288514 0.91726,-0.828373 1.19926,-1.283112 2.16318,-3.142795 2.26497,-4.370276 0.049,-0.590979 0.007,-0.892755 -0.0842,-0.90072 z m 0.59222,3.045292 c -0.0701,-0.04354 -0.51117,0.728006 -1.36891,2.386935 -0.61398,1.187444 -1.08087,2.159041 -1.03767,2.159041 0.26697,0 2.04821,-3.202914 2.35438,-4.233333 0.0573,-0.192938 0.0756,-0.29813 0.0522,-0.312643 z m -36.05568,0.338998 c 0.44387,0.01631 0.69293,0.115209 1.06763,0.369486 1.32702,0.900536 2.14397,1.297595 2.67116,1.297595 h 0.55293 l -0.52555,-0.59893 c -0.56463,-0.643057 -0.72864,-1.156788 -0.22892,-0.716752 0.84893,0.747531 2.16238,1.227129 3.59823,1.313615 l 1.43919,0.08682 0.53795,1.015958 c 0.29575,0.558796 0.6649,1.434935 0.82062,1.947168 1.4993,4.931962 1.78588,5.685333 2.65255,6.977352 0.65586,0.977753 1.24723,1.316183 2.30322,1.318783 0.21436,5.23e-4 0.69789,0.290657 1.0821,0.649056 0.62083,0.579095 0.6784,0.697481 0.53951,1.114144 l -0.15555,0.466121 -0.29042,-0.608748 c -0.16577,-0.347595 -0.49117,-0.689871 -0.75758,-0.796851 -1.79868,-0.722276 -2.39332,-1.100218 -2.76004,-1.753898 -0.209,-0.372529 -0.55401,-0.867875 -0.76687,-1.100708 -0.56376,-0.616621 -1.19131,-1.971089 -1.44178,-3.111955 l -0.21859,-0.995288 -1.08985,0.101803 -1.09038,0.101802 0.11059,-0.833541 0.11059,-0.833541 -0.55707,-0.104903 c -0.40337,-0.07567 -0.92766,0.0385 -1.8986,0.412378 -0.73767,0.284049 -1.37446,0.483307 -1.4149,0.442867 -0.0404,-0.04044 0.41207,-0.373233 1.00511,-0.739489 1.29482,-0.799673 1.71725,-1.17075 1.58233,-1.389063 -0.0555,-0.08974 -0.99167,-0.1686 -2.08049,-0.1757 -1.72157,-0.0112 -1.90831,-0.039 -1.43351,-0.211873 0.3003,-0.109331 0.71928,-0.372877 0.93121,-0.585494 0.45131,-0.452758 0.31922,-0.599384 -0.79995,-0.889352 -0.37253,-0.09652 -1.43958,-0.469169 -2.37091,-0.827856 -0.93133,-0.358683 -1.90292,-0.717604 -2.15904,-0.797884 -0.76575,-0.24004 -0.53301,-0.481575 0.51469,-0.534334 0.20307,-0.01023 0.37243,-0.01418 0.52039,-0.0088 z m 17.39222,1.497583 c 0.0465,0 0.003,0.152217 -0.0961,0.33848 -0.0997,0.186267 -0.21954,0.338998 -0.26614,0.338998 -0.0466,0 -0.003,-0.152731 0.0961,-0.338998 0.0997,-0.186263 0.21954,-0.33848 0.26614,-0.33848 z m -0.48576,0.897619 c 0.0303,0.0059 0.0485,0.02847 0.0475,0.06615 -0.001,0.07535 -0.0761,0.250974 -0.1664,0.390674 -0.14142,0.218894 -0.16471,0.214722 -0.16691,-0.03204 -0.001,-0.157486 0.0738,-0.33363 0.16691,-0.39119 0.0466,-0.02878 0.0886,-0.03945 0.11886,-0.03359 z m -0.34158,0.84646 c 0.0285,0.0059 0.0446,0.02847 0.0413,0.06615 -0.007,0.07535 -0.0776,0.289674 -0.15762,0.47594 -0.14031,0.326515 -0.14558,0.325144 -0.15709,-0.03256 -0.007,-0.204053 0.064,-0.417863 0.15709,-0.475423 0.0466,-0.02878 0.0877,-0.03997 0.11628,-0.03411 z m -0.40773,1.029395 c 0.0178,-0.0178 0.0417,0.0058 0.0687,0.07338 0.0489,0.122237 0.0428,0.268262 -0.0134,0.324528 -0.0563,0.05627 -0.0962,-0.0437 -0.0889,-0.222208 0.004,-0.09863 0.0158,-0.157897 0.0336,-0.1757 z m 3.30522,2.140954 c 0.80174,0.01047 1.40146,1.004705 1.90221,3.152263 0.36112,1.548775 0.32576,2.290563 -0.13487,2.812748 -0.14377,0.162983 -0.35619,0.296623 -0.47181,0.296623 -0.32333,0 -1.19982,-1.082759 -1.58905,-1.962671 -0.5942,-1.343357 -0.39184,-4.307963 0.29352,-4.298963 z m -21.01525,0.01447 c -0.0812,-0.01263 -0.11731,0.0834 -0.11731,0.286287 0,0.695033 2.49907,2.448259 4.28501,3.006535 0.87286,0.27286 2.02753,0.300366 2.86339,0.06821 1.0195,-0.283149 0.88736,-0.467931 -0.2682,-0.375171 -0.84368,0.06772 -1.28851,0.0065 -2.07222,-0.285771 -1.47797,-0.551112 -3.95602,-1.896643 -4.30103,-2.335258 -0.18185,-0.231186 -0.30845,-0.3522 -0.38964,-0.364835 z m 17.97875,0.83044 c 0.50342,0.0024 0.88344,0.502123 1.5446,2.02985 0.50147,1.158689 0.59434,3.374632 0.15969,3.809587 -0.14614,0.146249 -0.52793,0.308671 -0.84853,0.360701 -0.8862,0.143807 -1.34104,-0.478687 -1.69034,-2.312003 -0.41891,-2.198699 -0.0553,-3.892335 0.83458,-3.888135 z m 3.60339,2.057755 c -0.19432,-0.0039 -0.39145,0.139267 -0.52555,0.463021 -0.1673,0.403945 -0.15492,0.583378 0.0687,1.015959 0.43095,0.833369 1.11463,0.5874 1.10433,-0.397392 -0.007,-0.661103 -0.32366,-1.075151 -0.64751,-1.081588 z m 10.77454,0.392225 c 0.44745,-0.03333 0.44253,0.667524 -0.0455,2.073258 -0.25138,0.724182 -0.46897,1.697509 -0.48317,2.163176 -0.02,0.656226 -0.15161,1.027643 -0.58446,1.651062 -0.62943,0.906514 -0.51356,1.062483 0.22014,0.296622 1.03127,-1.076406 1.19102,-0.407984 0.34468,1.442289 -0.242,0.529068 -0.53506,0.928109 -0.68109,0.928109 -0.32688,0 -0.33242,-0.611764 -0.0114,-1.227315 0.29595,-0.567332 0.0345,-0.622162 -0.32815,-0.06873 -0.21724,0.331554 -0.90933,0.788066 -1.19476,0.788066 -0.22908,0 -0.0269,-0.522353 0.262,-0.676961 0.2251,-0.120462 0.33848,-0.354702 0.33848,-0.698149 0,-0.418492 0.0967,-0.553429 0.50747,-0.708484 0.36869,-0.139158 0.53375,-0.333365 0.60461,-0.711068 0.054,-0.285808 0.0743,-0.592895 0.046,-0.682645 -0.0283,-0.08975 0.0861,-0.596556 0.25425,-1.12603 0.35498,-1.118011 0.32053,-1.805025 -0.10438,-2.068091 -0.25512,-0.157929 -0.44937,-0.02899 -1.27021,0.844393 -1.27332,1.354799 -1.81331,1.687963 -2.34456,1.445907 -0.26876,-0.122451 -0.40256,-0.325129 -0.40256,-0.610299 v -0.511596 c 0,-0.04657 0.0392,-0.08355 0.0868,-0.08165 0.0475,0.0019 0.2952,-0.101904 0.55035,-0.230994 0.25514,-0.129085 0.84742,-0.325033 1.3162,-0.435115 0.61248,-0.143826 1.07127,-0.407196 1.63142,-0.936377 0.58768,-0.555193 1.01932,-0.839381 1.28778,-0.859379 z m -10.89184,0.124023 c 0.0466,-0.04657 0.134,0.04398 0.1943,0.201021 0.0603,0.157043 0.0714,0.323434 0.0248,0.370004 -0.0466,0.04657 -0.13401,-0.04346 -0.19431,-0.200505 -0.0603,-0.157046 -0.0714,-0.32395 -0.0248,-0.37052 z m -2.4753,0.489376 c -0.0819,0.01582 -0.16855,0.111188 -0.32143,0.297656 -0.36906,0.450149 -0.43475,1.373422 -0.11989,1.688269 0.3955,0.395494 0.71629,0.134119 0.87023,-0.708484 0.12361,-0.676604 0.0998,-0.865421 -0.13694,-1.098124 -0.13342,-0.131141 -0.2101,-0.195139 -0.29197,-0.179317 z m 7.49153,0.0217 c 0.0767,-0.01394 0.16024,-0.0088 0.24236,0.02274 0.24734,0.0949 0.24979,0.13479 0.0233,0.361218 -0.30302,0.303032 -0.39073,0.314337 -0.54157,0.07028 -0.12226,-0.19784 0.0458,-0.412412 0.27595,-0.454236 z m -25.49767,0.272335 0.59273,0.527616 c 0.32596,0.290378 1.04989,0.67352 1.60869,0.851111 1.0568,0.335861 2.96082,0.428287 3.55585,0.172599 0.23036,-0.09899 -0.075,-0.149513 -0.95549,-0.157613 -1.37029,-0.0126 -3.15607,-0.461175 -4.20905,-1.057816 z m 22.7304,2.190564 c 0.0439,-0.0063 0.08,0.0051 0.10903,0.03411 0.16169,0.161695 0.18712,3.343056 0.0424,5.337659 -0.0338,0.465666 -0.12109,1.856756 -0.19379,3.090767 -0.0727,1.234008 -0.1974,2.243274 -0.2775,2.243274 -0.0801,0 -0.35455,-0.309257 -0.60978,-0.687296 -0.25524,-0.37804 -0.70689,-1.019751 -1.00356,-1.42627 -0.68497,-0.938604 -2.33019,-3.636085 -2.83497,-4.647778 -0.72301,-1.449179 -0.67541,-2.466271 0.0837,-1.77922 0.18098,0.163776 0.35624,0.26664 0.38964,0.22841 0.21415,-0.245309 0.44642,-0.862747 0.37052,-0.98547 -0.25561,-0.413579 1.06283,-0.793655 1.5291,-0.440799 0.60117,0.45493 1.19195,0.314861 1.78594,-0.424264 0.27707,-0.344834 0.47749,-0.524116 0.60927,-0.543119 z m -1.64796,1.392655 c -0.18627,0 -0.339,0.07637 -0.339,0.169498 0,0.09313 0.15273,0.168982 0.339,0.168982 0.18627,0 0.33848,-0.07585 0.33848,-0.168982 0,-0.09313 -0.15221,-0.169498 -0.33848,-0.169498 z m 12.2933,0.569991 c 0.0727,0.0215 0.0703,0.271806 0.0103,0.88315 -0.0555,0.5665 -0.14969,1.157303 -0.20929,1.312581 -0.11633,0.303164 -0.33699,0.369119 -0.47698,0.142627 -0.13022,-0.210701 0.33711,-2.063896 0.57723,-2.288749 0.0415,-0.03888 0.0745,-0.05678 0.0987,-0.04961 z m -1.09399,0.117305 c 0.032,0.0045 0.0625,0.01959 0.0899,0.04703 0.14064,0.140636 -0.28797,2.680033 -0.49765,2.948657 -0.44688,0.572521 -0.72036,-0.09564 -0.3762,-0.919324 0.13878,-0.332131 0.25218,-0.851779 0.25218,-1.154968 0,-0.462314 0.3078,-0.952934 0.53175,-0.921391 z m -10.93318,0.93586 c -0.0461,-0.037 -0.11229,0.01255 -0.22634,0.126608 -0.14075,0.140662 -0.20937,0.376043 -0.15297,0.522965 0.19339,0.503986 0.56826,0.306556 0.48576,-0.255798 -0.0342,-0.233188 -0.0604,-0.356776 -0.10645,-0.393775 z m -1.74563,0.179318 c -0.14645,-0.05163 -0.24697,0.256371 -0.14314,0.809769 0.0684,0.364748 0.21176,0.605131 0.36018,0.605131 0.29377,0 0.29808,-0.06142 0.0625,-0.909505 -0.0872,-0.314101 -0.1917,-0.474419 -0.27957,-0.505395 z m -3.74448,5.87102 h 5.2e-4 c 0.23691,0.03921 0.50356,0.384341 0.56276,0.81132 0.0309,0.222754 0.10803,0.638329 0.17156,0.922941 0.0828,0.370872 0.0407,0.579658 -0.14882,0.736906 -0.30265,0.251174 -0.42732,0.03195 -0.79117,-1.390613 -0.15708,-0.614135 -0.16026,-0.861938 -0.0129,-1.009241 0.0634,-0.0634 0.13925,-0.08409 0.21807,-0.07131 z"
       sodipodi:nodetypes="sccssssscssscssscsssscccccssssssssssssssssscscsssscccccsssccscsssssssscsccssssssssssssssssssscccsssssssssssscccscccsssssscsssscsscsscccsssssscssscscccccsssssscscsscsscssscscsscsscsssssssssssssssssssscccsssscsscccsssccccssscsscsssscssssssscssssssssssssscssssscccsssccssccscccsssscccssscccccccssscssssssscscsccccccscccccscscccsccsscccssssccssssssscscccsscscsscssssscscssssssssssssssssssssssccssccsssscscsscsscsccscssssssssssssscscscsssssssssscssssssssssssssccsscsssc" />
  </g>
  <metadata
     id="metadata1975">
    <rdf:RDF>
      <cc:License
         rdf:about="http://creativecommons.org/publicdomain/zero/1.0/">
        <cc:permits
           rdf:resource="http://creativecommons.org/ns#Reproduction" />
        <cc:permits
           rdf:resource="http://creativecommons.org/ns#Distribution" />
        <cc:permits
           rdf:resource="http://creativecommons.org/ns#DerivativeWorks" />
      </cc:License>
      <cc:Work
         rdf:about="">
        <cc:license
           rdf:resource="http://creativecommons.org/publicdomain/zero/1.0/" />
        <dc:title>Screwball bird</dc:title>
      </cc:Work>
    </rdf:RDF>
  </metadata>
</svg>
