<?xml version="1.0" standalone="no"?>
<!DOCTYPE svg PUBLIC "-//W3C//DTD SVG 1.1//EN" "http://www.w3.org/Graphics/SVG/1.1/DTD/svg11.dtd">
<svg width="101mm" height="115mm" viewBox="-1 11 101 115" xmlns="http://www.w3.org/2000/svg" version="1.1">
<title>OpenSCAD Model</title>
<path d="
M 50.4696,124.983 L 51.0576,124.928 L 51.1155,124.917 L 51.1714,124.898 L 51.2241,124.872 L 51.2725,124.838
 L 51.3143,124.8 L 51.3502,124.756 L 51.3795,124.707 L 51.4014,124.655 L 51.4156,124.6 L 51.5305,123.859
 L 51.6294,122.82 L 51.7078,121.372 L 51.7704,120.109 L 51.8446,118.987 L 51.9216,118.044 L 51.9418,117.916
 L 51.98,117.791 L 52.0043,117.739 L 52.0354,117.692 L 52.0731,117.649 L 52.1551,117.575 L 52.2443,117.511
 L 52.3496,117.45 L 52.4603,117.398 L 52.5738,117.359 L 52.6908,117.33 L 52.8166,117.315 L 52.9435,117.317
 L 53.0688,117.336 L 53.1903,117.373 L 53.9109,117.707 L 55.0333,118.395 L 55.2221,118.522 L 55.6543,118.812
 L 55.849,118.944 L 57.147,119.828 L 57.9049,120.262 L 58.0372,120.313 L 58.1751,120.345 L 58.3163,120.357
 L 58.4576,120.349 L 58.5824,120.322 L 58.7005,120.274 L 58.809,120.207 L 58.9042,120.122 L 60.6107,117.478
 L 60.9853,116.721 L 61.0301,116.602 L 61.0576,116.478 L 61.0666,116.352 L 61.0621,116.29 L 61.0485,116.23
 L 61.0263,116.172 L 60.9958,116.119 L 60.9579,116.07 L 60.9133,116.028 L 60.1131,115.415 L 58.7451,114.488
 L 56.0656,112.781 L 55.8444,112.641 L 55.6482,112.516 L 55.2145,112.237 L 53.5374,111.119 L 53.0305,110.705
 L 52.601,110.21 L 52.4079,109.891 L 52.2712,109.544 L 52.1952,109.179 L 52.0828,107.314 L 52.1043,106.528
 L 52.1303,106.27 L 52.1791,106.016 L 52.2388,105.825 L 52.3231,105.644 L 52.43,105.479 L 52.5589,105.331
 L 53.0348,104.855 L 53.9182,105.337 L 54.3511,105.582 L 54.9413,105.935 L 55.5756,106.327 L 56.1609,106.699
 L 59.4295,108.814 L 61.8161,110.347 L 63.7146,111.56 L 63.8285,111.625 L 63.948,111.679 L 64.0039,111.697
 L 64.062,111.704 L 64.1207,111.703 L 64.1781,111.692 L 64.2331,111.671 L 64.2839,111.642 L 64.3295,111.605
 L 64.3682,111.561 L 65.4962,109.987 L 66.5228,108.391 L 66.6168,108.209 L 66.6852,108.015 L 66.7267,107.813
 L 66.7407,107.608 L 66.735,107.537 L 66.7183,107.468 L 66.6911,107.402 L 66.6539,107.34 L 66.6077,107.286
 L 66.5536,107.239 L 65.0729,106.186 L 62.5628,104.498 L 56.9294,100.827 L 55.8447,100.119 L 55.6503,99.9909
 L 55.2196,99.7068 L 54.5772,99.2806 L 53.5026,98.4981 L 53.216,98.2476 L 52.9537,97.9717 L 52.8971,97.8959
 L 52.8519,97.8129 L 52.8189,97.7244 L 52.7987,97.632 L 52.7919,97.5377 L 52.7992,97.4437 L 52.8205,97.3519
 L 52.8558,97.2645 L 53.24,96.5141 L 53.7328,95.6281 L 54.3169,94.6595 L 54.9553,93.6318 L 55.6123,92.567
 L 56.1982,91.6117 L 56.5854,90.9718 L 56.9662,90.3822 L 57.1149,90.1886 L 57.2814,90.0103 L 57.4181,89.8954
 L 57.57,89.8016 L 57.6627,89.7625 L 57.7605,89.7387 L 57.8608,89.7305 L 58.0254,89.7446 L 58.1851,89.7864
 L 58.3353,89.8545 L 58.4721,89.9471 L 58.8079,90.258 L 59.0997,90.6105 L 59.9488,91.9396 L 61.5325,94.8135
 L 62.4192,96.4074 L 63.0093,97.3297 L 63.4546,97.8584 L 63.5138,97.9096 L 63.5803,97.9506 L 63.6524,97.9807
 L 63.7283,97.999 L 63.8062,98.0052 L 63.8711,98.0012 L 63.9349,97.9891 L 63.9968,97.9692 L 64.3376,97.8228
 L 67.3706,96.2151 L 67.4458,96.167 L 67.5121,96.1073 L 67.5679,96.0375 L 67.5969,95.9858 L 67.6176,95.9301
 L 67.6289,95.872 L 67.631,95.8126 L 67.6139,95.6307 L 67.5801,95.4512 L 67.4648,95.0498 L 67.3124,94.6611
 L 66.6685,93.2891 L 65.8144,91.6273 L 64.7902,89.775 L 64.3604,88.9819 L 63.9982,88.2307 L 63.7278,87.5921
 L 63.6958,87.4937 L 63.6767,87.392 L 63.6709,87.2886 L 63.6928,87.0497 L 63.7548,86.818 L 63.855,86.6002
 L 63.9245,86.4975 L 64.0093,86.4068 L 64.1072,86.3307 L 64.2159,86.2709 L 64.3327,86.229 L 64.862,86.1172
 L 65.4008,86.0674 L 68.446,85.9873 L 72.7695,85.9085 L 73.2925,86.616 L 73.4699,86.8935 L 73.6081,87.1924
 L 73.7045,87.5073 L 73.9295,88.913 L 74.0663,91.3412 L 74.18,96.7049 L 74.223,99.1729 L 74.2606,101.3
 L 74.2937,103.156 L 74.2985,103.384 L 74.301,103.408 L 74.3073,103.431 L 74.3168,103.452 L 74.3299,103.472
 L 74.3458,103.49 L 74.3643,103.505 L 74.385,103.517 L 74.4072,103.526 L 74.8141,103.612 L 75.4802,103.665
 L 76.5519,103.679 L 77.6196,103.664 L 78.2903,103.612 L 78.705,103.525 L 78.7308,103.515 L 78.7545,103.501
 L 78.7755,103.483 L 78.793,103.461 L 78.8064,103.437 L 78.8156,103.411 L 78.82,103.384 L 78.8285,103.156
 L 78.8272,101.404 L 78.8231,99.3915 L 78.8138,97.0595 L 78.8161,94.7302 L 78.8476,92.7264 L 78.8952,90.9928
 L 78.9012,90.9347 L 78.9158,90.878 L 78.9387,90.8242 L 78.9689,90.7743 L 79.1372,90.5735 L 79.3342,90.4012
 L 79.466,90.3165 L 79.6087,90.2513 L 79.7589,90.2071 L 79.9107,90.1851 L 80.0642,90.1857 L 80.216,90.2085
 L 80.4539,90.2843 L 80.6755,90.3996 L 80.9176,90.5616 L 82.7065,91.5655 L 83.0517,91.7684 L 83.3705,92.0108
 L 83.6582,92.2894 L 83.8795,92.574 L 84.0518,92.8907 L 84.1707,93.2311 L 84.3393,94.0452 L 84.4254,94.8722
 L 84.5978,98.8326 L 84.6664,100.565 L 84.7497,102.046 L 84.8386,103.33 L 84.8432,103.36 L 84.8525,103.39
 L 84.866,103.417 L 84.8837,103.442 L 84.9051,103.465 L 84.9281,103.482 L 84.953,103.496 L 84.9799,103.507
 L 85.0079,103.513 L 85.0365,103.516 L 85.6416,103.522 L 86.3639,103.508 L 87.1907,103.465 L 89.3184,103.325
 L 89.3227,100.32 L 89.339,98.5014 L 89.4052,97.6997 L 89.4623,97.453 L 89.5569,97.2184 L 89.6372,97.0785
 L 89.7335,96.9495 L 89.8448,96.8327 L 90.0597,96.648 L 90.2773,96.4919 L 90.4705,96.3795 L 90.5084,96.3634
 L 90.5488,96.3536 L 90.59,96.3503 L 90.6426,96.3547 L 90.6935,96.3675 L 90.7418,96.3888 L 91.2946,96.6948
 L 91.9428,97.0734 L 92.6689,97.5227 L 94.453,98.6249 L 95.6955,99.3156 L 96.5835,99.73 L 96.6402,99.7487
 L 96.6992,99.7582 L 96.7591,99.758 L 96.8182,99.7482 L 96.8748,99.729 L 96.9277,99.7012 L 97.1271,99.5516
 L 97.3019,99.3737 L 97.448,99.1717 L 98.2512,97.7746 L 98.9794,96.3297 L 99.039,96.1764 L 99.0766,96.0163
 L 99.0919,95.8524 L 99.084,95.6883 L 99.0525,95.5321 L 98.9964,95.383 L 98.9176,95.2447 L 98.7452,95.0315
 L 98.5409,94.8486 L 97.7287,94.2917 L 95.3171,92.8204 L 94.3175,92.147 L 94.02,91.8858 L 93.7681,91.5803
 L 93.7002,91.4655 L 93.6504,91.342 L 93.6194,91.2123 L 93.6083,91.0794 L 93.6146,90.9786 L 93.6351,90.88
 L 93.6694,90.7851 L 93.7167,90.696 L 93.7763,90.6146 L 93.9598,90.4234 L 94.1661,90.257 L 98.3076,88.0183
 L 98.491,87.8918 L 98.6566,87.7426 L 98.7281,87.658 L 98.7872,87.5638 L 98.8322,87.4624 L 98.8781,87.2898
 L 98.8935,87.1117 L 98.8739,86.8225 L 98.8168,86.5383 L 98.722,86.2643 L 98.0388,84.7922 L 97.257,83.3416
 L 97.2185,83.2847 L 97.1722,83.2342 L 97.1185,83.191 L 97.0591,83.1566 L 96.9951,83.1315 L 96.9283,83.116
 L 96.8597,83.1108 L 96.7754,83.1171 L 96.693,83.1354 L 96.6139,83.1656 L 95.3196,83.7776 L 93.8187,84.5106
 L 92.1032,85.3806 L 89.7278,86.5834 L 88.3908,87.1931 L 87.5192,87.4945 L 87.3268,87.5337 L 87.1307,87.5446
 L 86.9348,87.5272 L 86.5666,87.4349 L 86.2189,87.2818 L 84.897,86.5162 L 83.6104,85.6851 L 83.4355,85.5474
 L 83.2813,85.3866 L 83.1513,85.2058 L 83.1023,85.1096 L 83.07,85.0067 L 83.0552,84.8998 L 83.0581,84.7922
 L 83.0883,84.6289 L 83.1417,84.4718 L 83.2172,84.324 L 83.3929,84.0837 L 83.6071,83.8773 L 83.8759,83.6868
 L 84.1664,83.5321 L 84.7322,83.2602 L 86.1191,82.5524 L 87.7691,81.7004 L 89.5548,80.7681 L 92.3975,79.2613
 L 93.4099,78.6469 L 93.575,78.5192 L 93.7238,78.3731 L 93.8543,78.2104 L 93.9051,78.1267 L 93.9432,78.0364
 L 93.9679,77.9418 L 93.9788,77.8442 L 93.9753,77.7464 L 93.8947,77.2877 L 93.7539,76.8437 L 93.185,75.5506
 L 92.5347,74.3169 L 92.4568,74.2035 L 92.3607,74.1051 L 92.249,74.0248 L 92.1255,73.9646 L 92.0287,73.936
 L 91.9288,73.9229 L 91.8279,73.9257 L 91.7287,73.9445 L 91.6339,73.9784 L 89.7872,74.8372 L 86.7839,76.3255
 L 80.3564,79.6208 L 79.1369,80.2269 L 78.0342,80.7292 L 77.1026,81.1174 L 77.0036,81.1478 L 76.9007,81.1614
 L 76.7972,81.1575 L 76.7032,81.1387 L 76.6131,81.1058 L 76.529,81.0596 L 76.453,81.001 L 76.3868,80.9315
 L 75.846,80.177 L 75.036,78.7838 L 73.4486,75.8059 L 72.6644,74.2849 L 72.3527,73.5422 L 72.2911,73.299
 L 72.2692,73.0491 L 72.2791,72.8986 L 72.3104,72.7509 L 72.3629,72.6096 L 72.6409,71.9992 L 82.1077,71.9992
 L 82.115,71.3492 L 82.1254,71.0002 L 82.1554,70.4386 L 82.1956,69.7983 L 82.2418,69.1622 L 82.2722,68.5509
 L 82.2643,67.985 L 82.2264,67.5182 L 82.2121,67.4459 L 82.1867,67.3767 L 82.1505,67.3125 L 82.1114,67.2635
 L 82.0646,67.2216 L 82.0116,67.1881 L 81.9538,67.1637 L 81.8927,67.1493 L 81.0011,67.0401 L 79.6543,66.9482
 L 77.4727,66.8711 L 74.4549,66.7583 L 73.8293,66.7018 L 73.211,66.5903 L 73.047,66.5412 L 72.8912,66.4698
 L 72.7466,66.378 L 72.6159,66.2671 L 72.5334,66.1739 L 72.4651,66.0697 L 72.4128,65.9568 L 72.3776,65.8373
 L 72.3599,65.7141 L 72.3611,65.6132 L 72.3783,65.5139 L 72.411,65.4187 L 72.8124,64.5263 L 73.3273,63.4714
 L 73.9436,62.3062 L 75.2147,60.0197 L 76.0541,58.6289 L 76.6649,57.7393 L 76.7051,57.6925 L 76.752,57.6526
 L 76.8047,57.6205 L 76.8616,57.5971 L 76.9216,57.5826 L 76.983,57.5778 L 77.0445,57.5826 L 77.1044,57.5972
 L 77.1613,57.6209 L 78.2741,58.1948 L 79.5557,58.873 L 81.029,59.678 L 82.5732,60.5303 L 84.0725,61.3549
 L 85.356,62.0579 L 86.0566,62.4371 L 88.8104,63.9829 L 89.6396,64.4278 L 90.503,64.8903 L 91.2585,65.2416
 L 91.8737,65.4813 L 91.9225,65.4949 L 91.9723,65.5012 L 92.023,65.5007 L 92.0729,65.4931 L 92.1211,65.4782
 L 92.1861,65.4473 L 92.2453,65.4065 L 92.2973,65.3567 L 92.5433,65.055 L 93.9901,62.5373 L 94.1107,62.3256
 L 94.2015,62.0994 L 94.2608,61.8631 L 94.2742,61.7423 L 94.2704,61.6206 L 94.2495,61.5007 L 94.2124,61.3849
 L 94.1593,61.2754 L 94.0121,61.0573 L 93.8349,60.8628 L 93.6313,60.6957 L 92.5404,60.0121 L 91.7227,59.5572
 L 90.4746,58.8573 L 89.0731,58.0688 L 87.7079,57.2978 L 86.4409,56.5896 L 85.339,55.9929 L 84.3819,55.4877
 L 84.3332,55.467 L 84.2818,55.4543 L 84.1793,55.4462 L 84.1306,55.4347 L 84.0844,55.4157 L 84.0418,55.3897
 L 84.0035,55.3575 L 83.9708,55.3199 L 83.8406,55.1186 L 83.7364,54.903 L 83.6505,54.6513 L 83.5946,54.3913
 L 83.582,54.2438 L 83.5893,54.0959 L 83.6161,53.9504 L 83.6419,53.8724 L 83.678,53.7986 L 83.7238,53.7302
 L 83.7782,53.6686 L 84.191,53.3125 L 84.8035,52.8988 L 85.641,52.4223 L 87.5356,51.4041 L 89.3728,52.4033
 L 91.2803,53.4438 L 92.2419,53.9784 L 92.8205,54.3142 L 93.1034,54.5115 L 93.4374,54.7547 L 93.7942,54.9631
 L 95.3288,55.7317 L 96.9933,56.5262 L 97.0337,56.5412 L 97.0759,56.5495 L 97.119,56.5506 L 97.1618,56.5447
 L 97.203,56.5316 L 97.2416,56.5121 L 97.3949,56.3987 L 97.5271,56.2613 L 97.635,56.104 L 98.4577,54.6046
 L 99.2295,53.0868 L 99.3049,52.8975 L 99.3509,52.699 L 99.3661,52.4959 L 99.3587,52.4031 L 99.3362,52.3127
 L 99.2997,52.2271 L 99.2498,52.1485 L 99.0802,51.9505 L 98.8881,51.7747 L 98.2029,51.289 L 96.9112,50.5123
 L 95.9599,49.9351 L 95.1348,49.3882 L 94.469,48.9083 L 94.4189,48.8651 L 94.3752,48.8155 L 94.3392,48.7601
 L 94.3112,48.7004 L 94.2807,48.6011 L 94.2636,48.4984 L 94.2603,48.3946 L 94.2711,48.2913 L 94.3072,48.1399
 L 94.362,47.9946 L 94.4348,47.8571 L 94.5944,47.6386 L 94.7863,47.4478 L 95.027,47.2665 L 95.2866,47.1139
 L 95.5949,46.9526 L 98.8435,45.1654 L 99.6003,44.7357 L 99.7064,44.6633 L 99.8031,44.5784 L 99.8889,44.4822
 L 99.9302,44.4195 L 99.9612,44.351 L 99.9804,44.2783 L 99.9875,44.2035 L 99.9788,43.9826 L 99.9466,43.7638
 L 99.8493,43.3807 L 99.7157,43.0086 L 99.2316,41.9301 L 98.687,40.888 L 98.4858,40.57 L 98.2526,40.275
 L 98.1708,40.1966 L 98.077,40.133 L 97.9737,40.0864 L 97.8643,40.0577 L 97.6989,40.0431 L 97.5336,40.057
 L 97.373,40.0986 L 96.5416,40.4692 L 94.5082,41.5963 L 93.5807,42.1034 L 92.7377,42.5312 L 92.0244,42.8669
 L 91.9458,42.8962 L 91.8637,42.914 L 91.7799,42.9199 L 91.7195,42.916 L 91.6604,42.9044 L 91.603,42.8851
 L 91.3802,42.7733 L 91.1512,42.6118 L 90.951,42.4207 L 90.8558,42.3018 L 90.7759,42.1726 L 90.712,42.0347
 L 90.634,41.7915 L 90.5876,41.5404 L 90.5423,40.7501 L 90.5641,39.1699 L 90.5749,38.0955 L 90.5542,37.1447
 L 90.5133,36.3516 L 90.5063,36.2954 L 90.4916,36.2409 L 90.4703,36.1886 L 90.4421,36.1395 L 90.4088,36.0965
 L 90.3694,36.0587 L 90.325,36.0272 L 90.2764,36.0024 L 90.2247,35.9849 L 90.1711,35.9753 L 88.8482,35.8538
 L 87.4488,35.7851 L 86.2142,35.8108 L 86.1793,35.8159 L 86.1459,35.827 L 86.115,35.8437 L 86.0872,35.8656
 L 86.0638,35.8917 L 86.045,35.9216 L 86.0319,35.9541 L 86.0242,35.9885 L 85.8883,37.2252 L 85.7388,39.2677
 L 85.5139,43.511 L 85.4518,44.6102 L 85.3832,45.5628 L 85.3141,46.3792 L 85.3063,46.4255 L 85.2916,46.4701
 L 85.2701,46.5118 L 85.1895,46.6259 L 85.0945,46.7283 L 84.9867,46.8169 L 84.868,46.8907 L 83.2921,47.7019
 L 81.7078,48.4572 L 81.5056,48.5327 L 81.2946,48.5786 L 81.0793,48.594 L 80.9352,48.5844 L 80.794,48.5556
 L 80.6559,48.508 L 80.5255,48.4429 L 80.4,48.3591 L 80.2858,48.2602 L 80.1785,48.1432 L 80.0846,48.0154
 L 79.9893,47.8459 L 79.9177,47.6652 L 79.871,47.4764 L 79.8504,47.2831 L 79.8082,45.14 L 79.8695,42.0193
 L 80.0856,37.2088 L 80.1008,36.68 L 80.0904,36.1973 L 80.0613,35.7994 L 80.0517,35.7449 L 80.0335,35.6927
 L 80.0076,35.6437 L 79.9862,35.6158 L 79.961,35.5917 L 79.9321,35.5719 L 79.9003,35.5569 L 79.8666,35.5472
 L 79.2626,35.4348 L 78.5242,35.3314 L 77.6763,35.252 L 76.2213,35.1516 L 75.9949,35.1509 L 75.7701,35.1773
 L 75.7298,35.1878 L 75.6917,35.2047 L 75.6569,35.2276 L 75.6262,35.2558 L 75.6004,35.2884 L 75.5803,35.3249
 L 75.5448,35.4248 L 75.5255,35.529 L 75.5231,35.635 L 75.5292,36.4458 L 75.3874,39.5319 L 75.236,42.5251
 L 75.1352,43.7474 L 75.096,44.1961 L 75.0311,45.2739 L 74.9609,46.5594 L 74.8925,47.9483 L 74.6906,51.0092
 L 74.6491,51.2666 L 74.5692,51.5145 L 74.453,51.7476 L 74.3028,51.9606 L 74.1712,52.096 L 74.0191,52.2083
 L 73.8506,52.2941 L 73.6706,52.3513 L 73.4835,52.3784 L 71.2013,52.4269 L 68.6924,52.3499 L 66.696,52.2192
 L 65.1569,52.0547 L 65.026,52.029 L 64.9,51.9854 L 64.7811,51.9248 L 64.6719,51.8483 L 64.6113,51.7921
 L 64.5589,51.728 L 64.5074,51.6481 L 64.4633,51.5639 L 64.4266,51.4754 L 64.3982,51.3838 L 64.382,51.3003
 L 64.3764,51.2154 L 64.395,50.9791 L 64.4504,50.7488 L 64.541,50.5298 L 65.6923,48.3257 L 66.8764,46.1781
 L 67.0327,45.9374 L 67.2168,45.7172 L 67.4261,45.5206 L 67.5289,45.4224 L 67.6174,45.3108 L 67.6898,45.1885
 L 68.1385,44.2501 L 68.5485,43.2962 L 68.5952,43.1562 L 68.6233,43.0112 L 68.6326,42.8639 L 68.6268,42.7908
 L 68.6097,42.7194 L 68.5818,42.6516 L 68.544,42.589 L 68.4967,42.5328 L 67.9875,42.0852 L 67.1598,41.5214
 L 65.8906,40.7796 L 65.5613,40.6033 L 65.2497,40.4545 L 64.9848,40.3432 L 64.9442,40.3301 L 64.9023,40.3222
 L 64.8594,40.3194 L 64.8375,40.321 L 64.816,40.326 L 64.7954,40.3341 L 64.7764,40.3452 L 64.7592,40.3589
 L 64.7444,40.3753 L 64.4867,40.7187 L 64.1945,41.1578 L 63.8882,41.6788 L 63.233,42.8306 L 62.5257,44.0339
 L 61.8026,45.227 L 61.1013,46.348 L 60.0061,47.8847 L 59.8806,48.0215 L 59.7367,48.1391 L 59.5777,48.2347
 L 59.4065,48.3068 L 59.2268,48.3537 L 59.0932,48.3673 L 58.9591,48.359 L 58.8282,48.3287 L 58.704,48.2775
 L 58.5897,48.2068 L 58.4888,48.1182 L 58.0179,47.5805 L 57.6037,46.9981 L 57.2419,46.4336 L 54.204,41.5788
 L 54.0837,41.3048 L 54.0017,40.9834 L 53.9741,40.6611 L 53.9857,40.4702 L 54.0201,40.2821 L 54.077,40.0993
 L 54.1535,39.9338 L 54.2521,39.7805 L 54.3712,39.6424 L 54.6569,39.3859 L 54.9701,39.1638 L 55.2188,39.01
 L 55.6485,38.7515 L 55.8437,38.6372 L 56.161,38.4559 L 58.4376,37.1477 L 62.0442,35.0292 L 65.6337,32.9037
 L 67.145,31.9744 L 68.1402,31.3414 L 67.8001,30.3778 L 67.318,29.2115 L 66.7235,28.1257 L 66.1317,27.2704
 L 66.0822,27.2154 L 66.025,27.1682 L 65.9613,27.1306 L 65.8926,27.1028 L 65.8205,27.0859 L 65.7465,27.0802
 L 65.6011,27.0916 L 65.4592,27.1257 L 65.3243,27.1819 L 64.1011,27.8271 L 62.4689,28.7498 L 60.2391,30.0768
 L 56.7844,32.1337 L 55.3803,32.8278 L 55.1185,32.9111 L 54.8468,32.9517 L 54.5721,32.949 L 54.4351,32.9255
 L 54.3035,32.8811 L 54.1804,32.8163 L 54.0691,32.7331 L 53.9721,32.6336 L 53.8978,32.528 L 53.8406,32.4123
 L 53.8023,32.2889 L 53.7834,32.1612 L 53.6765,30.2444 L 53.6108,28.2987 L 53.6157,28.215 L 53.6344,28.1335
 L 53.6663,28.0562 L 53.7105,27.985 L 53.766,27.9223 L 53.8034,27.8901 L 53.8444,27.8622 L 55.2213,27.0339
 L 56.583,26.2183 L 58.2887,25.2025 L 59.9884,24.1857 L 61.4194,23.3132 L 62.6873,22.5301 L 62.6971,22.5229
 L 62.7055,22.514 L 62.7124,22.5039 L 62.7174,22.4928 L 62.7205,22.4809 L 62.7216,22.4687 L 62.6999,22.1522
 L 62.636,21.8414 L 62.5302,21.5424 L 61.7657,19.9336 L 60.8926,18.353 L 60.8407,18.2799 L 60.777,18.2166
 L 60.7035,18.1654 L 60.6222,18.1277 L 60.5356,18.1045 L 60.4462,18.0966 L 60.314,18.1069 L 60.1851,18.1379
 L 60.0629,18.1889 L 59.0929,18.7078 L 58.1418,19.2596 L 58.0338,19.337 L 57.9395,19.4305 L 57.8394,19.5665
 L 57.8138,19.5915 L 57.7842,19.6119 L 57.7515,19.6273 L 57.7169,19.6371 L 57.6813,19.641 L 57.6453,19.6389
 L 57.6093,19.6313 L 57.5747,19.618 L 57.5427,19.5996 L 57.5137,19.5766 L 57.4886,19.5494 L 57.4677,19.5188
 L 57.4521,19.4853 L 57.3669,19.2042 L 57.3216,18.914 L 57.2838,18.0232 L 57.2306,17.0755 L 57.0725,16.1398
 L 56.8166,15.2845 L 56.4489,14.4707 L 55.9987,13.7578 L 55.451,13.1165 L 54.8346,12.5833 L 54.1415,12.1543
 L 53.6175,11.9268 L 53.0682,11.7691 L 51.7225,11.5849 L 50.3479,11.6115 L 49.7585,11.7043 L 49.1842,11.866
 L 48.6247,12.1026 L 48.1012,12.411 L 47.6229,12.7857 L 46.9421,13.4996 L 46.3808,14.311 L 45.9402,15.222
 L 45.6426,16.1889 L 45.5091,17.1548 L 45.5411,18.1292 L 45.5805,18.5719 L 45.5869,18.962 L 45.5674,19.2734
 L 45.564,19.2925 L 45.5578,19.3108 L 45.5488,19.328 L 45.5373,19.3438 L 45.5237,19.3574 L 45.5078,19.3688
 L 45.4892,19.3785 L 45.4693,19.3847 L 45.4485,19.3881 L 45.4274,19.3878 L 45.4067,19.3843 L 45.3868,19.3774
 L 45.2846,19.3321 L 44.9472,19.176 L 44.4238,18.9065 L 43.8347,18.5669 L 43.2386,18.2276 L 42.6935,17.9577
 L 42.2364,17.765 L 42.2027,17.7546 L 42.1678,17.7493 L 42.1325,17.7493 L 42.0976,17.7544 L 42.0638,17.7648
 L 41.9272,17.8312 L 41.8026,17.9183 L 41.6937,18.0242 L 41.6028,18.146 L 40.7333,19.6023 L 39.9327,21.0945
 L 39.8727,21.2389 L 39.8354,21.3909 L 39.8218,21.5467 L 39.8319,21.7028 L 39.8616,21.8311 L 39.9128,21.9524
 L 39.984,22.0632 L 40.0731,22.1602 L 40.8676,22.8114 L 42.3721,23.8505 L 45.8895,26.1292 L 46.8499,26.7779
 L 47.4948,27.2944 L 47.925,27.7534 L 48.0755,27.9731 L 48.1947,28.211 L 48.342,28.6434 L 48.4301,29.0915
 L 48.5257,30.3587 L 48.4954,31.5952 L 48.4604,31.8377 L 48.392,32.0732 L 48.2918,32.2967 L 48.2197,32.4074
 L 48.1296,32.5039 L 48.0242,32.5835 L 47.9066,32.6439 L 47.7193,32.7028 L 47.5245,32.7299 L 47.3281,32.7245
 L 46.9325,32.6482 L 46.5539,32.5104 L 45.602,31.9963 L 45.2846,31.7961 L 43.7324,30.8089 L 41.3462,29.2748
 L 39.0699,27.8006 L 37.95,27.0571 L 36.938,26.4657 L 36.8493,26.4299 L 36.7563,26.4083 L 36.6611,26.4012
 L 36.5658,26.4088 L 36.473,26.4314 L 36.3848,26.4678 L 36.1847,26.5917 L 36.0083,26.7475 L 35.8609,26.9308
 L 34.7087,28.7008 L 34.1554,29.7759 L 34.1111,29.9121 L 34.0877,30.0534 L 34.0856,30.1966 L 34.105,30.3386
 L 34.1454,30.4759 L 34.2299,30.6598 L 34.3395,30.8302 L 34.4719,30.9832 L 34.6246,31.1163 L 35.9691,32.0449
 L 40.9929,35.2444 L 44.4597,37.54 L 46.959,39.2774 L 47.1717,39.4553 L 47.3537,39.6646 L 47.5003,39.8999
 L 47.5735,40.072 L 47.6203,40.2531 L 47.6397,40.4391 L 47.6307,40.6232 L 47.5934,40.8036 L 47.5283,40.9762
 L 47.0506,41.8614 L 45.0995,45.0202 L 43.7183,47.0944 L 43.4716,47.3843 L 43.1785,47.6276 L 42.8483,47.8173
 L 42.7394,47.8581 L 42.6255,47.8815 L 42.5094,47.8871 L 42.3936,47.8746 L 42.2813,47.8445 L 42.175,47.7973
 L 42.0772,47.7343 L 41.6086,47.3156 L 41.2123,46.8278 L 40.5926,45.8625 L 39.7838,44.4727 L 38.8837,42.8403
 L 37.9634,41.0878 L 37.6973,40.6249 L 37.3885,40.1898 L 37.3011,40.0949 L 37.1999,40.0148 L 37.0877,39.9517
 L 36.9668,39.907 L 36.8404,39.8818 L 36.6499,39.8721 L 36.4601,39.8876 L 36.274,39.9284 L 36.0951,39.9936
 L 34.6503,40.6944 L 34.0331,41.0235 L 33.5038,41.3102 L 33.043,41.5624 L 33.0167,41.5795 L 32.9929,41.6
 L 32.9578,41.6408 L 32.9299,41.6869 L 32.91,41.7368 L 32.8986,41.7894 L 32.8961,41.8432 L 32.9025,41.8967
 L 32.9175,41.9483 L 33.5585,43.5539 L 34.3693,45.3534 L 35.3199,47.1914 L 36.4128,49.2274 L 36.814,50.1775
 L 36.8596,50.3651 L 36.8757,50.5572 L 36.8619,50.7496 L 36.84,50.8466 L 36.8042,50.9394 L 36.7552,51.0261
 L 36.6944,51.1048 L 36.6226,51.1737 L 36.4634,51.2849 L 36.2881,51.3685 L 36.1012,51.4221 L 35.9083,51.4443
 L 31.8961,51.5446 L 27.8233,51.5996 L 27.7237,51.5928 L 27.626,51.5708 L 27.5329,51.5342 L 27.4464,51.484
 L 27.3687,51.421 L 27.3015,51.347 L 27.1693,51.1453 L 27.072,50.9247 L 27.0118,50.6912 L 26.8534,49.4007
 L 26.7451,47.1893 L 26.6509,42.5654 L 26.5953,39.7182 L 26.5305,37.2331 L 26.4633,35.1029 L 26.4155,34.7044
 L 26.3831,34.5972 L 26.3331,34.497 L 26.2666,34.4069 L 26.21,34.352 L 26.1456,34.3066 L 26.075,34.2719
 L 25.9998,34.2486 L 25.7345,34.2028 L 25.4659,34.1844 L 24.0633,34.1726 L 21.8221,34.1726 L 21.8301,40.23
 L 21.8029,44.581 L 21.6339,46.3073 L 21.5773,46.526 L 21.4899,46.7342 L 21.3735,46.9277 L 21.2306,47.1025
 L 21.1111,47.2099 L 20.9759,47.2964 L 20.8284,47.36 L 20.6724,47.3988 L 20.5125,47.4119 L 20.2544,47.3945
 L 20.001,47.3431 L 19.7334,47.2548 L 19.4761,47.1392 L 18.7889,46.7327 L 17.6669,45.9524 L 17.1999,45.567
 L 16.7901,45.1209 L 16.5989,44.8398 L 16.4528,44.5327 L 16.3554,44.2072 L 16.2314,43.4644 L 16.181,42.7131
 L 16.1473,38.9706 L 16.1302,37.4079 L 16.0775,36.0641 L 16.0029,34.9709 L 15.9853,34.8531 L 15.9515,34.7387
 L 15.9026,34.6298 L 15.8419,34.5367 L 15.7663,34.4551 L 15.6779,34.3875 L 15.5697,34.328 L 15.455,34.2823
 L 15.3352,34.2513 L 14.7443,34.1873 L 13.5384,34.1726 L 12.7239,34.1853 L 12.0333,34.2246 L 11.4654,34.2789
 L 11.4518,34.2815 L 11.4388,34.2862 L 11.4268,34.2932 L 11.416,34.3018 L 11.4069,34.312 L 11.3995,34.3237
 L 11.3941,34.3364 L 11.3908,34.3499 L 11.3781,34.4831 L 11.3547,35.239 L 11.3307,36.1184 L 11.3075,37.1278
 L 11.2347,39.1188 L 11.1835,39.6243 L 11.0833,40.1222 L 11.0161,40.3258 L 10.9205,40.5177 L 10.7986,40.6937
 L 10.6973,40.804 L 10.5823,40.9 L 10.4555,40.9798 L 10.3195,41.0423 L 10.1556,41.0926 L 9.98692,41.1218
 L 9.8157,41.129 L 9.64574,41.1141 L 9.47896,41.0772 L 9.31857,41.0191 L 8.55005,40.6227 L 6.43248,39.3409
 L 5.53825,38.8101 L 4.7281,38.3623 L 4.0413,38.0087 L 3.96901,37.9793 L 3.89298,37.9612 L 3.81501,37.9553
 L 3.73731,37.9616 L 3.66169,37.9809 L 3.59023,38.0124 L 3.52502,38.0553 L 3.46772,38.1084 L 3.42013,38.1702
 L 2.49912,39.6576 L 1.66636,41.1512 L 1.56979,41.3798 L 1.51152,41.6211 L 1.4932,41.8685 L 1.51055,42.0923
 L 1.55883,42.3114 L 1.60434,42.4329 L 1.6665,42.5466 L 1.74406,42.6503 L 1.9161,42.822 L 2.11091,42.967
 L 2.78966,43.3656 L 4.83036,44.485 L 5.89414,45.1418 L 6.50033,45.6319 L 6.62229,45.7679 L 6.72177,45.9209
 L 6.79669,46.0875 L 6.83554,46.2224 L 6.85635,46.3611 L 6.85899,46.5016 L 6.84317,46.641 L 6.80973,46.7667
 L 6.75604,46.8853 L 6.68403,46.9936 L 6.59509,47.0886 L 6.25835,47.3599 L 5.89206,47.5895 L 4.09014,48.5463
 L 2.64592,49.3467 L 2.267,49.6124 L 1.93206,49.932 L 1.88197,49.9969 L 1.84187,50.0686 L 1.81329,50.1455
 L 1.79637,50.2258 L 1.79193,50.3078 L 1.7997,50.3894 L 2.3816,52.2997 L 2.54366,52.7832 L 2.79576,53.3343
 L 3.14125,53.9745 L 3.24947,54.135 L 3.37975,54.2785 L 3.43067,54.32 L 3.48687,54.3536 L 3.54736,54.3784
 L 3.61105,54.3942 L 3.70484,54.4024 L 3.79877,54.3957 L 3.89034,54.3745 L 4.22833,54.2399 L 5.52812,53.6068
 L 7.05768,52.8486 L 8.77884,51.9788 L 11.6867,50.5114 L 12.7111,50.0701 L 12.9127,50.0105 L 13.1203,49.9761
 L 13.3303,49.9676 L 13.5251,49.987 L 13.7146,50.0359 L 13.8946,50.1129 L 15.8976,51.2202 L 16.4377,51.5771
 L 16.9346,51.9921 L 17.063,52.1296 L 17.1722,52.283 L 17.2598,52.4497 L 17.3244,52.6263 L 17.3464,52.7291
 L 17.3523,52.834 L 17.3429,52.9383 L 17.3176,53.0405 L 17.2777,53.1374 L 17.2236,53.2274 L 17.1409,53.3275
 L 17.0446,53.4145 L 16.9365,53.4868 L 15.465,54.3088 L 13.7081,55.2485 L 11.6849,56.2776 L 8.43308,57.9126
 L 7.21807,58.5991 L 6.91712,58.8167 L 6.6474,59.0721 L 6.58247,59.1537 L 6.53016,59.2441 L 6.49186,59.3411
 L 6.46814,59.4427 L 6.45967,59.5468 L 6.47438,59.8091 L 6.52253,60.0673 L 6.60328,60.3174 L 7.27523,61.9064
 L 8.03404,63.5306 L 8.06193,63.5781 L 8.0969,63.6204 L 8.1381,63.6566 L 8.18472,63.6857 L 8.2355,63.7072
 L 8.28878,63.7203 L 8.34359,63.7247 L 8.3959,63.7207 L 8.44709,63.7089 L 8.4958,63.6896 L 10.6363,62.6483
 L 13.0446,61.4651 L 15.8658,60.0603 L 18.6951,58.6556 L 21.1306,57.4722 L 23.2698,56.4498 L 23.3465,56.4199
 L 23.4267,56.4018 L 23.5087,56.3957 L 23.6115,56.4033 L 23.712,56.4255 L 23.8084,56.4623 L 23.8982,56.5123
 L 23.98,56.5751 L 24.0519,56.6491 L 24.7681,57.633 L 25.7634,59.3741 L 27.4064,62.6079 L 28.1667,64.4801
 L 28.192,64.5891 L 28.1991,64.7011 L 28.1878,64.8125 L 28.1587,64.9207 L 28.1122,65.0226 L 28.0498,65.1157
 L 27.9729,65.1972 L 27.884,65.2652 L 27.6174,65.4105 L 27.3329,65.516 L 27.0361,65.5795 L 26.7333,65.5999
 L 22.862,65.5239 L 21.0982,65.4771 L 19.699,65.4752 L 18.5665,65.5007 L 18.5352,65.5043 L 18.5045,65.5129
 L 18.4758,65.5265 L 18.4497,65.5445 L 18.4269,65.5666 L 18.4081,65.5923 L 18.3577,65.6873 L 18.3204,65.7883
 L 18.2968,65.8935 L 18.2875,66.0006 L 18.2571,68.0947 L 18.2478,70.2296 L 18.2527,70.2925 L 18.2672,70.3535
 L 18.2914,70.4117 L 18.3243,70.4654 L 18.3651,70.5131 L 18.3857,70.5308 L 18.4086,70.5456 L 18.4333,70.5565
 L 18.4594,70.564 L 18.4862,70.5675 L 19.7611,70.637 L 21.2239,70.7012 L 22.9358,70.7528 L 25.6887,70.8329
 L 26.7887,70.9213 L 27.0953,70.9808 L 27.3918,71.0792 L 27.539,71.154 L 27.6717,71.2526 L 27.7857,71.3721
 L 27.9424,71.5857 L 28.0757,71.8069 L 28.1713,72.0057 L 28.1862,72.0483 L 28.1956,72.0925 L 28.1993,72.1374
 L 28.1956,72.199 L 28.1817,72.2589 L 28.1583,72.3161 L 27.7171,73.17 L 27.1836,74.163 L 26.5498,75.2925
 L 25.9153,76.4153 L 25.381,77.3869 L 24.9241,78.2358 L 24.1988,79.2756 L 23.9566,79.5178 L 23.6932,79.7369
 L 23.5412,79.8389 L 23.3783,79.9224 L 23.2068,79.9865 L 23.0629,80.0185 L 22.9158,80.0277 L 22.7692,80.0133
 L 22.6682,79.9877 L 22.5717,79.9481 L 22.482,79.8953 L 22.4005,79.8303 L 22.3288,79.7696 L 22.2519,79.7157
 L 21.8948,79.4924 L 21.4629,79.236 L 20.9939,78.9711 L 17.7736,77.1923 L 15.3936,75.8703 L 13.5733,74.8494
 L 12.1647,74.0463 L 11.5824,73.7148 L 11.0755,73.4354 L 9.14611,72.364 L 8.77371,72.1729 L 8.45237,72.0332
 L 8.3952,72.0145 L 8.3361,72.0031 L 8.27588,71.9992 L 8.22718,72.003 L 8.17945,72.0135 L 8.13394,72.0311
 L 8.09135,72.0551 L 8.05277,72.0851 L 8.01906,72.1203 L 7.64541,72.629 L 7.14203,73.4745 L 6.38933,74.8965
 L 6.21201,75.2952 L 6.08173,75.7114 L 6.05245,75.873 L 6.04482,76.037 L 6.05911,76.2008 L 6.09491,76.3609
 L 6.14999,76.5088 L 6.22547,76.6473 L 6.31995,76.7738 L 6.43137,76.8855 L 6.75118,77.1266 L 7.10194,77.3207
 L 7.46823,77.5001 L 9.22103,78.5625 L 9.98719,78.9939 L 10.828,79.4501 L 11.7034,79.9235 L 12.5737,80.4065
 L 13.3293,80.8363 L 13.7832,81.1106 L 14.152,81.3333 L 14.5772,81.5688 L 14.9918,81.782 L 15.324,81.9335
 L 15.6564,82.0973 L 15.9661,82.3004 L 16.2307,82.5296 L 16.4594,82.7949 L 16.5642,82.9556 L 16.649,83.1276
 L 16.7126,83.3088 L 16.7299,83.3953 L 16.7337,83.4834 L 16.7233,83.571 L 16.6994,83.656 L 16.6626,83.736
 L 16.6123,83.8122 L 16.5515,83.8802 L 16.4813,83.9386 L 15.9393,84.3088 L 15.2642,84.7233 L 14.5052,85.1415
 L 12.5647,86.1592 L 11.6964,85.7676 L 7.76834,83.6052 L 6.873,83.1089 L 4.80053,81.9308 L 3.90353,81.4345
 L 3.11974,81.01 L 3.08589,80.9952 L 3.04995,80.9862 L 3.01318,80.9831 L 2.97086,80.9866 L 2.9298,80.9969
 L 2.89095,81.0138 L 2.85543,81.0367 L 2.82407,81.0651 L 2.42434,81.5163 L 2.05513,81.9875 L 1.37138,83.3472
 L 1.07502,83.8889 L 0.848442,84.4632 L 0.798909,84.6764 L 0.785728,84.8948 L 0.809592,85.1123 L 0.86967,85.3227
 L 0.968181,85.5329 L 1.09694,85.7261 L 1.25358,85.8974 L 1.43423,86.0434 L 2.02696,86.4129 L 2.65188,86.7251
 L 3.6073,87.2132 L 4.60157,87.8504 L 5.4507,88.4969 L 5.59916,88.6352 L 5.72917,88.791 L 5.83892,88.9614
 L 5.86681,89.0217 L 5.88484,89.0857 L 5.89275,89.1516 L 5.89025,89.2181 L 5.87735,89.2833 L 5.85446,89.3457
 L 5.82227,89.4037 L 5.5993,89.6877 L 5.33457,89.9328 L 4.29133,90.6383 L 2.32846,91.7284 L 0.466192,92.7677
 L 0.332162,92.861 L 0.215059,92.9751 L 0.118352,93.1068 L 0.0443992,93.2526 L 0.00652114,93.3713 L -0.0124873,93.4946
 L -0.012071,93.6191 L 0.00776987,93.7422 L 0.046203,93.8607 L 0.783924,95.5228 L 1.56951,97.1161 L 1.67246,97.2806
 L 1.80205,97.425 L 1.95482,97.545 L 2.0235,97.5825 L 2.09717,97.6086 L 2.17431,97.6222 L 2.25243,97.6235
 L 2.32999,97.6122 L 2.4045,97.5884 L 3.28138,97.1597 L 4.88641,96.2667 L 6.44677,95.4595 L 7.82911,94.7881
 L 7.96148,94.7369 L 8.09995,94.7058 L 8.24133,94.6954 L 8.29752,94.699 L 8.35261,94.7103 L 8.40575,94.7286
 L 8.62594,94.8394 L 8.85959,94.998 L 9.07243,95.1857 L 9.17705,95.3035 L 9.26709,95.4333 L 9.34105,95.5726
 L 9.42651,95.8057 L 9.47549,96.0495 L 9.51878,96.8353 L 9.48604,98.5937 L 9.4698,99.725 L 9.48493,100.707
 L 9.51989,101.534 L 9.52433,101.569 L 9.53377,101.603 L 9.54792,101.636 L 9.56693,101.665 L 9.58996,101.692
 L 9.66114,101.754 L 9.74036,101.805 L 9.82625,101.844 L 9.91685,101.87 L 10.0101,101.882 L 11.8214,101.976
 L 13.6433,102.024 L 13.7305,102.019 L 13.8157,101.999 L 13.8967,101.966 L 13.9713,101.921 L 14.0379,101.864
 L 14.0712,101.825 L 14.0981,101.781 L 14.1178,101.734 L 14.1299,101.684 L 14.2254,101.017 L 14.3088,100.209
 L 14.3655,99.292 L 14.6724,93.0424 L 14.7598,92.2843 L 14.9405,91.5427 L 15.0473,91.2788 L 15.1966,91.0362
 L 15.3845,90.8221 L 15.6054,90.6426 L 17.3743,89.5963 L 19.192,88.6754 L 20.4617,89.8488 L 20.3068,93.7497
 L 20.2387,95.3991 L 20.162,97.1296 L 20.088,98.6973 L 20.031,99.7783 L 19.9995,100.615 L 20.0052,101.369
 L 20.0385,101.991 L 20.0463,102.047 L 20.0617,102.102 L 20.084,102.155 L 20.1131,102.205 L 20.17,102.276
 L 20.2372,102.338 L 20.3127,102.389 L 20.3952,102.428 L 20.4826,102.454 L 20.5729,102.467 L 22.3889,102.54
 L 24.2109,102.535 L 24.2965,102.525 L 24.3796,102.502 L 24.4576,102.466 L 24.5286,102.417 L 24.5905,102.357
 L 24.6419,102.287 L 24.6743,102.225 L 24.6975,102.159 L 24.7107,102.09 L 24.7764,101.454 L 24.8312,100.689
 L 24.8641,99.8328 L 24.8916,98.9367 L 24.93,98.0485 L 24.9726,97.2785 L 25.0126,96.823 L 25.0936,95.9171
 L 25.3141,92.4528 L 25.5219,89.0431 L 25.6507,86.6572 L 25.7012,86.2052 L 25.8079,85.7633 L 25.8534,85.6471
 L 25.9154,85.539 L 25.993,85.4414 L 26.084,85.3563 L 26.1867,85.2855 L 26.4128,85.1777 L 26.654,85.1089
 L 26.9029,85.081 L 28.3074,85.1049 L 29.2189,85.161 L 30.406,85.2324 L 31.6544,85.3071 L 32.7737,85.3731
 L 34.4455,85.4848 L 34.757,85.5246 L 35.0625,85.5966 L 35.1975,85.6485 L 35.322,85.722 L 35.4325,85.815
 L 35.6169,86.0217 L 35.775,86.2493 L 36.0382,86.7171 L 36.0713,86.7961 L 36.091,86.8793 L 36.097,86.9649
 L 36.092,87.0274 L 36.079,87.0887 L 36.058,87.1478 L 36.0294,87.2036 L 35.7569,87.6212 L 32.1158,93.7074
 L 31.9246,94.0681 L 31.7908,94.4039 L 31.7609,94.5249 L 31.7509,94.6491 L 31.7589,94.7601 L 31.7832,94.869
 L 31.823,94.973 L 31.8777,95.0702 L 32.3381,95.6752 L 32.8675,96.2115 L 32.9304,96.2601 L 32.9997,96.2989
 L 33.074,96.3272 L 33.1515,96.3444 L 33.2308,96.3503 L 33.2702,96.3533 L 33.3085,96.362 L 33.3452,96.3766
 L 33.636,96.5238 L 33.9793,96.7149 L 34.3514,96.9413 L 35.0815,97.3721 L 35.2096,97.4322 L 35.3444,97.4752
 L 35.4837,97.5001 L 35.5306,97.5019 L 35.5774,97.4967 L 35.6229,97.4849 L 35.6662,97.4665 L 35.7063,97.4419
 L 35.7424,97.412 L 38.6971,92.5285 L 39.1278,91.7798 L 39.8238,90.4907 L 40.0649,90.0908 L 40.3467,89.7185
 L 40.4634,89.5982 L 40.5955,89.495 L 40.7406,89.4109 L 40.8957,89.3477 L 41.0081,89.3191 L 41.1233,89.307
 L 41.2391,89.3112 L 41.353,89.3317 L 41.4631,89.3682 L 41.673,89.4718 L 41.867,89.6027 L 42.0419,89.7584
 L 42.3726,90.1317 L 42.6632,90.5369 L 44.2212,92.9971 L 45.7151,95.4381 L 46.3609,96.6789 L 46.5131,97.0794
 L 46.5329,97.1635 L 46.5396,97.2493 L 46.5329,97.3354 L 46.5133,97.4179 L 46.481,97.4963 L 46.4368,97.5686
 L 46.1749,97.8841 L 45.9407,98.1078 L 41.5985,100.743 L 39.8872,101.756 L 38.0159,102.861 L 36.1643,103.954
 L 34.5142,104.929 L 33.1218,105.753 L 32.7349,105.984 L 32.5949,106.077 L 32.4638,106.183 L 32.4074,106.24
 L 32.3605,106.306 L 32.3243,106.378 L 32.2993,106.454 L 32.2864,106.534 L 32.2857,106.615 L 32.3381,106.949
 L 32.4751,107.414 L 32.6527,107.864 L 33.275,109.157 L 33.9585,110.426 L 34.0194,110.516 L 34.0946,110.593
 L 34.1823,110.657 L 34.2797,110.704 L 34.3602,110.727 L 34.4431,110.738 L 34.5268,110.734 L 34.6088,110.717
 L 35.1731,110.509 L 35.9867,110.105 L 37.2172,109.403 L 37.727,109.106 L 38.3626,108.736 L 39.0151,108.359
 L 40.225,107.662 L 41.153,107.125 L 42.1746,106.531 L 43.1455,105.964 L 44.0407,105.451 L 44.8327,105.018
 L 45.5109,104.663 L 45.5615,104.642 L 45.6151,104.629 L 45.6698,104.625 L 45.7014,104.627 L 45.7322,104.634
 L 45.7617,104.646 L 45.7892,104.662 L 45.9775,104.808 L 46.187,105.009 L 46.3915,105.248 L 46.5272,105.443
 L 46.6392,105.652 L 46.7259,105.873 L 46.7863,106.103 L 46.8606,106.716 L 46.8816,107.685 L 46.8617,108.452
 L 46.8008,109.105 L 46.709,109.615 L 46.6809,109.706 L 46.6397,109.792 L 46.586,109.871 L 46.4712,109.994
 L 46.3377,110.096 L 45.1619,110.844 L 43.76,111.707 L 42.1533,112.66 L 40.5477,113.603 L 39.1504,114.433
 L 37.9552,115.15 L 37.7405,115.301 L 37.6983,115.341 L 37.663,115.388 L 37.6356,115.439 L 37.6024,115.534
 L 37.5841,115.634 L 37.5788,115.757 L 37.5884,115.88 L 37.6499,116.169 L 37.8136,116.636 L 38.0632,117.183
 L 38.4785,117.983 L 39.27,119.432 L 39.409,119.643 L 39.5794,119.831 L 39.6365,119.876 L 39.7,119.912
 L 39.7685,119.937 L 39.8403,119.951 L 39.9133,119.953 L 40.0736,119.933 L 40.2293,119.889 L 40.3769,119.823
 L 41.2204,119.331 L 41.7349,119.016 L 42.4312,118.604 L 43.179,118.171 L 43.8667,117.783 L 45.4621,116.896
 L 46.0537,117.487 L 46.2572,117.724 L 46.424,117.987 L 46.5401,118.259 L 46.6077,118.546 L 46.6714,119.447
 L 46.6476,121.566 L 46.6468,122.275 L 46.6708,123.006 L 46.7137,123.658 L 46.7718,124.091 L 46.9279,124.923
 L 48.9516,124.999 L 49.7505,125.011 z
M 50.4847,20.4353 L 49.974,20.2788 L 49.4968,20.0382 L 49.0674,19.7205 L 48.6976,19.3348 L 48.3984,18.8922
 L 48.1783,18.4053 L 48.0437,17.8882 L 47.9984,17.3558 L 48.0437,16.8234 L 48.1783,16.3065 L 48.3984,15.8196
 L 48.6976,15.377 L 49.0674,14.9911 L 49.4968,14.6734 L 49.974,14.433 L 50.4847,14.2765 L 51.0149,14.2086
 L 51.5485,14.2314 L 52.0709,14.3437 L 52.5666,14.5431 L 53.0217,14.8231 L 53.4227,15.1761 L 53.7583,15.5919
 L 54.0189,16.0584 L 54.1969,16.5622 L 54.2872,17.0887 L 54.2986,17.3558 L 54.2872,17.623 L 54.1969,18.1496
 L 54.0189,18.6534 L 53.7583,19.1199 L 53.4227,19.5355 L 53.0217,19.8885 L 52.5666,20.1688 L 52.0709,20.3679
 L 51.5485,20.4806 L 51.0149,20.5032 z
M 49.8325,62.4605 L 49.7881,62.4518 L 49.7452,62.4369 L 49.705,62.4159 L 49.5891,62.3325 L 49.4863,62.2335
 L 49.3985,62.1207 L 48.6534,60.9827 L 47.9226,59.8133 L 45.8317,55.5193 L 45.5783,54.7303 L 45.556,54.6004
 L 45.5511,54.4689 L 45.5639,54.3377 L 45.5939,54.2098 L 45.7203,53.876 L 45.8884,53.5613 L 47.5601,50.8901
 L 49.1892,48.3389 L 49.9175,47.3529 L 50.0793,47.1906 L 50.2662,47.0584 L 50.4729,46.9598 L 50.5637,46.9333
 L 50.6573,46.9207 L 50.7517,46.9225 L 50.8448,46.9383 L 50.9345,46.9679 L 51.0186,47.0108 L 51.2489,47.1738
 L 51.4543,47.3675 L 51.6302,47.5881 L 52.4506,48.8895 L 52.9283,49.7143 L 53.4357,50.5795 L 53.9005,51.3631
 L 54.2284,51.9038 L 54.5084,52.3845 L 54.8085,52.951 L 55.0832,53.5126 L 55.2829,53.9745 L 55.5188,54.6232
 L 55.5461,54.7301 L 55.5584,54.8397 L 55.5552,54.95 L 55.5368,55.0541 L 55.5025,55.1541 L 55.4534,55.2478
 L 55.1099,55.7477 L 54.7909,56.2079 L 54.2045,57.1325 L 53.5265,58.2302 L 52.8312,59.3859 L 51.9653,60.8028
 L 51.3647,61.6695 L 50.9023,62.1967 L 50.8203,62.2679 L 50.7297,62.3273 L 50.6321,62.3742 L 50.5288,62.4076
 L 50.2841,62.4543 L 50.0411,62.4717 z
M 39.7017,65.9999 L 37.7732,65.914 L 36.407,65.8113 L 35.4205,65.6958 L 35.341,65.6783 L 35.2652,65.648
 L 35.1954,65.606 L 35.1334,65.5531 L 35.0477,65.4568 L 34.9733,65.3514 L 34.6556,64.8262 L 34.292,64.1886
 L 33.9162,63.4883 L 33.4995,62.6954 L 33.0108,61.775 L 32.5287,60.8742 L 32.1344,60.1457 L 31.5679,59.0061
 L 31.4218,58.6166 L 31.3267,58.2116 L 31.3097,58.0225 L 31.3213,57.8329 L 31.3615,57.6473 L 31.4072,57.5296
 L 31.4714,57.4209 L 31.5523,57.324 L 31.6479,57.2413 L 31.7457,57.1821 L 31.8522,57.141 L 31.9644,57.1187
 L 32.9778,57.0256 L 34.314,56.9523 L 36.0502,56.9093 L 38.3429,56.8871 L 39.4632,56.9275 L 40.1236,57.034
 L 40.2691,57.0833 L 40.405,57.1557 L 40.5271,57.2492 L 40.697,57.4171 L 40.8408,57.589 L 40.9441,57.7432
 L 42.2849,60.3586 L 43.4984,62.5298 L 44.4969,64.242 L 45.0197,65.1137 L 44.4991,65.6343 L 44.3636,65.7529
 L 44.2136,65.8526 L 44.0517,65.9312 L 43.772,66.0206 L 43.4817,66.0655 L 42.4709,66.0895 z
M 63.0383,66.3783 L 61.9886,66.362 L 60.7515,66.3475 L 59.527,66.3364 L 58.52,66.3312 L 57.1464,66.3143
 L 56.8718,66.2935 L 56.601,66.244 L 56.5164,66.2176 L 56.4362,66.1801 L 56.3618,66.132 L 56.2944,66.0744
 L 56.2043,65.9744 L 56.1269,65.8641 L 56.0638,65.745 L 55.9981,65.5684 L 55.9584,65.384 L 55.9483,65.2059
 L 55.9684,65.0283 L 56.027,64.7985 L 56.1091,64.5759 L 56.4413,63.8528 L 56.7074,63.328 L 56.9763,62.8366
 L 57.2166,62.4287 L 58.0898,61.1855 L 58.4731,60.5624 L 58.9297,59.8224 L 59.4178,59.0332 L 60.6397,57.0605
 L 63.04,57.2052 L 66.9778,57.4536 L 68.2633,57.5997 L 68.5927,57.6824 L 68.9035,57.8195 L 69.0188,57.895
 L 69.121,57.9876 L 69.2075,58.095 L 69.2759,58.2149 L 69.3276,58.3491 L 69.3594,58.4892 L 69.3705,58.6327
 L 69.3605,58.7761 L 69.2824,59.1576 L 69.159,59.5269 L 68.6272,60.6402 L 67.5342,62.5426 L 67.2384,63.0499
 L 66.8635,63.7071 L 66.4755,64.3967 L 66.1348,65.013 L 65.3647,66.4195 z
M 61.2515,80.6811 L 60.5299,80.6046 L 60.3789,80.5673 L 60.2352,80.5085 L 60.1017,80.4288 L 60.0017,80.3497
 L 59.9118,80.2596 L 59.8328,80.1594 L 59.2951,79.361 L 58.6837,78.3792 L 58.0527,77.2816 L 56.4597,74.3839
 L 55.9242,73.2776 L 55.8143,72.9563 L 55.752,72.6222 L 55.746,72.4843 L 55.7587,72.3466 L 55.7895,72.2122
 L 55.8382,72.083 L 55.8916,71.986 L 55.959,71.8982 L 56.0392,71.8216 L 56.1298,71.7582 L 56.2799,71.6827
 L 56.4389,71.6288 L 56.604,71.597 L 57.5477,71.5373 L 60.4114,71.5301 L 62.085,71.544 L 63.5353,71.5837
 L 64.7746,71.6374 L 64.8291,71.6439 L 64.8823,71.6578 L 64.9328,71.6793 L 64.98,71.7074 L 65.1044,71.8068
 L 65.2147,71.9215 L 65.3093,72.0496 L 65.8456,72.9312 L 66.5786,74.2679 L 67.6626,76.3731 L 68.6158,78.3007
 L 68.9827,79.2489 L 69.0247,79.4366 L 69.041,79.6284 L 69.0304,79.8204 L 69.012,79.9121 L 68.9795,80
 L 68.9343,80.0818 L 68.8771,80.1559 L 68.8093,80.2204 L 68.755,80.2587 L 68.6958,80.2887 L 68.6329,80.3098
 L 68.5676,80.3219 L 67.4379,80.437 L 66.0938,80.5411 L 64.5557,80.6189 L 62.4162,80.6902 z
M 32.2744,80.7595 L 31.6655,80.7102 L 31.6139,80.7015 L 31.5643,80.685 L 31.5176,80.661 L 31.4558,80.6159
 L 31.4011,80.562 L 31.3553,80.5007 L 31.3192,80.4333 L 31.2934,80.361 L 31.279,80.2858 L 31.2757,80.2092
 L 31.3167,79.7186 L 31.4061,79.2345 L 31.5572,78.7113 L 31.7596,78.2057 L 34.9817,72.6161 L 35.0844,72.464
 L 35.2444,72.2745 L 35.3655,72.1603 L 35.503,72.0665 L 35.6536,71.9955 L 35.937,71.911 L 36.2296,71.8678
 L 37.2743,71.841 L 40.0395,71.916 L 42.504,72.0053 L 43.6869,72.0999 L 44.3628,72.2354 L 44.461,72.272
 L 44.552,72.324 L 44.6333,72.3902 L 44.703,72.4685 L 44.7643,72.5616 L 44.8133,72.6617 L 44.8548,72.7773
 L 44.8851,72.8964 L 44.9035,73.015 L 44.9103,73.1347 L 44.9033,73.2378 L 44.881,73.3387 L 44.7493,73.6954
 L 44.5764,74.0338 L 42.7637,77.0953 L 40.9303,80.1527 L 40.7201,80.457 L 40.4742,80.7331 L 40.3833,80.809
 L 40.2805,80.868 L 40.1694,80.9085 L 40.0527,80.9291 z
M 49.8558,90.5904 L 49.7552,90.5664 L 49.6594,90.5273 L 49.3703,90.3487 L 49.1167,90.1228 L 48.4036,89.2358
 L 47.2362,87.4662 L 45.7361,85.0061 L 45.3837,84.3095 L 45.1139,83.5769 L 45.0396,83.2392 L 45.0186,82.8941
 L 45.0515,82.5499 L 45.1372,82.2213 L 45.2757,81.9112 L 45.463,81.6279 L 45.9944,80.6837 L 47.2526,78.5913
 L 48.4061,76.7012 L 49.0539,75.7228 L 49.169,75.5851 L 49.3045,75.4675 L 49.457,75.3729 L 49.6227,75.3038
 L 49.7971,75.2619 L 49.9372,75.2512 L 50.0774,75.2628 L 50.2139,75.2964 L 50.3433,75.3515 L 50.4622,75.4261
 L 50.5681,75.5188 L 51.1263,76.1679 L 51.6014,76.8802 L 53.5725,80.3699 L 54.6845,82.4933 L 54.7971,82.7726
 L 54.864,83.0661 L 54.8834,83.3668 L 54.8533,83.6591 L 54.7734,83.9419 L 54.646,84.2066 L 53.4829,86.0661
 L 53.0034,86.7973 L 52.4635,87.628 L 51.9468,88.4287 L 51.5446,89.0592 L 51.181,89.5841 L 50.7891,90.0542
 L 50.4226,90.4181 L 50.3433,90.48 L 50.2562,90.5299 L 50.1627,90.5673 L 50.0621,90.5908 L 49.9589,90.5985
 z
" stroke="black" fill="lightgray" stroke-width="0.5"/>
</svg>
