<?xml version="1.0" encoding="UTF-8" standalone="no"?>
<!-- Created with Inkscape (http://www.inkscape.org/) -->

<svg
   width="38.359303mm"
   height="37.501068mm"
   viewBox="0 0 38.359303 37.501068"
   version="1.1"
   id="svg1851"
   inkscape:version="1.2 (dc2aedaf03, 2022-05-15)"
   sodipodi:docname="Hen with egg.svg"
   xmlns:inkscape="http://www.inkscape.org/namespaces/inkscape"
   xmlns:sodipodi="http://sodipodi.sourceforge.net/DTD/sodipodi-0.dtd"
   xmlns="http://www.w3.org/2000/svg"
   xmlns:svg="http://www.w3.org/2000/svg"
   xmlns:rdf="http://www.w3.org/1999/02/22-rdf-syntax-ns#"
   xmlns:cc="http://creativecommons.org/ns#"
   xmlns:dc="http://purl.org/dc/elements/1.1/">
  <title
     id="title1877">Hen with egg</title>
  <sodipodi:namedview
     id="namedview1853"
     pagecolor="#ffffff"
     bordercolor="#666666"
     borderopacity="1.0"
     inkscape:showpageshadow="2"
     inkscape:pageopacity="0.0"
     inkscape:pagecheckerboard="0"
     inkscape:deskcolor="#d1d1d1"
     inkscape:document-units="mm"
     showgrid="false"
     inkscape:zoom="1.8343457"
     inkscape:cx="22.623871"
     inkscape:cy="185.62478"
     inkscape:window-width="1920"
     inkscape:window-height="991"
     inkscape:window-x="-9"
     inkscape:window-y="-9"
     inkscape:window-maximized="1"
     inkscape:current-layer="layer1" />
  <defs
     id="defs1848" />
  <g
     inkscape:label="Lager 1"
     inkscape:groupmode="layer"
     id="layer1"
     transform="translate(-85.049187,56.013231)">
    <path
       id="path1719"
       style="fill:#000000;stroke-width:0.169333"
       d="m 93.242887,-56.012085 c -0.0816,0.01146 -0.16466,0.106932 -0.31936,0.295589 -0.17685,0.215666 -0.491719,0.939591 -0.699699,1.608688 -0.475809,1.530853 -0.578531,1.651071 -0.728121,0.853694 -0.17594,-0.937757 -0.55805,-1.584916 -0.93586,-1.584916 -0.43297,0 -0.629698,0.764493 -0.782898,3.041158 l -0.119373,1.770951 -0.242362,-0.830957 c -0.42777,-1.467059 -1.556405,-2.796659 -2.172994,-2.56005 -0.37062,0.142221 -0.299503,1.65424 0.160197,3.40496 0.680239,2.590428 0.688386,2.442557 -0.08888,1.64176 -0.78471,-0.808469 -1.328085,-0.934398 -1.328085,-0.307991 0,0.221332 0.457159,1.303817 1.015959,2.405538 0.881309,1.737592 1.015959,2.128467 1.015959,2.948657 0,1.928331 1.05922,4.57936 2.445328,6.121073 0.830269,0.923462 1.0194,1.581449 0.848011,2.953308 -0.18436,1.475491 0.04101,2.707818 0.614949,3.361552 0.27207,0.309854 0.494544,0.608379 0.494544,0.663009 0,0.236994 -1.465213,2.206505 -1.809192,2.431893 -0.53342,0.349504 -0.653203,0.851917 -0.296623,1.245919 0.16253,0.179592 0.383586,0.326595 0.490926,0.326595 0.25605,0 2.281266,2.742992 2.289266,3.101102 0.003,0.125901 -1.222863,0.02328 -1.884123,-0.157613 -0.716599,-0.196024 -1.145739,1.254144 -0.491959,1.662431 0.425219,0.265551 0.130692,0.679779 -0.391708,0.550871 -0.19889,-0.04908 -0.739687,0.02552 -1.201477,0.165364 -0.787849,0.23858 -0.857992,0.234229 -1.136881,-0.06511 -0.27305,-0.293089 -0.366158,-0.300497 -1.148767,-0.09405 -0.46849,0.123591 -0.99114,0.188131 -1.16117,0.143661 -0.17005,-0.04447 -0.404232,0.03369 -0.520381,0.173632 -0.17272,0.208126 -0.148415,0.317188 0.133325,0.59893 0.326319,0.326327 0.382613,0.331054 1.069702,0.08733 0.666409,-0.236376 0.738919,-0.233904 0.894519,0.02997 0.0931,0.157944 0.332144,0.483548 0.531234,0.72347 l 0.362251,0.436149 0.874366,-0.47594 0.874365,-0.47594 0.419613,0.452686 c 0.373139,0.402638 0.498618,0.439437 1.134297,0.333829 0.39311,-0.06531 0.920025,-0.223745 1.171505,-0.352433 0.25149,-0.128684 0.609404,-0.234094 0.794783,-0.234094 0.18541,0 0.380799,-0.07113 0.434599,-0.15813 0.0538,-0.087 0.367969,-0.114554 0.698149,-0.06098 0.428469,0.06953 0.836496,-0.01312 1.425236,-0.288872 l 0.824756,-0.386539 0.824756,0.592728 c 0.453479,0.325805 1.087283,0.643637 1.408182,0.706417 1.917969,0.375198 2.570759,0.432155 2.903179,0.254248 0.21258,-0.11377 0.3887,-0.123735 0.4532,-0.02636 0.219,0.33086 0.92419,0.34713 1.84485,0.04341 l 0.95291,-0.314193 0.38551,0.415995 c 0.41234,0.444935 0.71687,0.439566 1.88722,-0.03462 0.439,-0.177885 0.55058,-0.312796 0.50798,-0.612883 -0.047,-0.33152 -0.16916,-0.391682 -0.88728,-0.437182 -0.45813,-0.02903 -0.97313,-0.150491 -1.14412,-0.270268 -0.23265,-0.162948 -0.55576,-0.179163 -1.28364,-0.06356 -1.11496,0.177075 -2.34428,0.04555 -2.4629,-0.26355 -0.0444,-0.115849 0.0252,-0.355385 0.15451,-0.532267 0.39419,-0.539083 0.29169,-0.931475 -0.27285,-1.044381 -0.2794,-0.05588 -0.50798,-0.203363 -0.50798,-0.328145 0,-0.377045 -0.59867,-0.599118 -1.1007,-0.408244 -1.089102,0.414075 -1.323584,0.281369 -2.564703,-1.449007 -0.638359,-0.889976 -1.237052,-1.728914 -1.330151,-1.864486 -0.2337,-0.340182 0.557839,-1.828678 1.015958,-1.910477 0.49543,-0.08847 1.658126,-1.02054 2.182296,-1.749764 0.30641,-0.426256 0.63324,-0.667672 0.99942,-0.73794 0.37907,-0.07275 0.71824,-0.333197 1.11931,-0.859896 0.36853,-0.483965 0.91286,-0.920836 1.51257,-1.214396 0.58948,-0.288554 1.05568,-0.66057 1.2578,-1.003039 l 0.32091,-0.544153 0.62219,0.393257 c 2.66272,1.682934 2.81299,1.849673 1.8495,2.055689 -0.75783,0.162046 -0.97359,0.374979 -0.97359,0.960665 0,0.400422 0.10102,0.540425 0.49972,0.690914 0.3814,0.143968 0.51175,0.310865 0.55035,0.704866 0.0436,0.445514 0.1257,0.523845 0.59841,0.569474 0.38366,0.03703 0.71668,-0.07618 1.11208,-0.377754 0.69318,-0.528716 0.96342,-0.346653 0.96842,0.65474 0.004,0.806193 0.53996,2.084563 0.93741,2.237073 0.38975,0.149566 0.57732,-0.227999 0.58032,-1.169955 10e-4,-0.442382 0.0496,-0.804602 0.10697,-0.804602 0.26323,0 1.77325,1.260777 2.7342,2.282548 1.29867,1.380839 1.62604,1.406658 1.69964,0.134359 0.0627,-1.085239 -0.14442,-2.135881 -0.72967,-3.703133 l -0.44855,-1.201477 0.55759,-0.557589 c 0.52213,-0.522118 0.59056,-0.543781 1.07177,-0.347265 0.9272,0.378635 1.1874,0.378252 1.66966,-0.001 0.38265,-0.300953 0.46141,-0.482775 0.41961,-0.968933 -0.0334,-0.38854 -0.17027,-0.662727 -0.39015,-0.781348 -1.13668,-0.613199 -1.17055,-0.645668 -0.85887,-0.820105 0.16165,-0.09046 0.45222,-0.123001 0.64596,-0.07235 0.73395,0.191933 1.82159,-0.708368 1.82159,-1.507918 0,-0.625406 -0.20529,-0.83652 -0.97203,-1.000456 -0.41064,-0.08779 -0.78892,-0.0077 -1.50223,0.318844 -0.90502,0.414335 -1.58957,0.558081 -1.58957,0.33383 0,-0.05641 0.19446,-0.33314 0.43201,-0.615467 0.3387,-0.402499 0.42076,-0.663656 0.38086,-1.209745 -0.0457,-0.624683 -0.1007,-0.702542 -0.53175,-0.751892 -0.5384,-0.06164 -1.39092,0.457802 -2.31355,1.409733 -0.40146,0.414211 -0.72486,0.592729 -1.07487,0.592729 -0.52394,0 -2.19153,0.706649 -2.68046,1.135848 -0.25705,0.225648 -0.37901,0.148735 -1.27021,-0.802535 -0.54212,-0.578671 -1.31282,-1.394397 -1.71255,-1.81281 -0.39975,-0.418413 -1.1169,-1.494791 -1.59422,-2.392102 -1.19236,-2.241519 -1.62804,-2.84709 -2.8851,-4.011641 -0.99426,-0.921099 -1.88891,-1.415374 -3.006529,-1.661397 -0.39451,-0.08683 -0.426022,-0.170884 -0.466122,-1.227832 -0.0554,-1.461994 -0.308965,-2.385295 -0.714685,-2.602425 -0.412649,-0.220841 -0.74631,0.219699 -1.04283,1.37666 -0.11594,0.452365 -0.261495,0.822172 -0.323494,0.822172 -0.062,0 -0.154356,-0.754829 -0.205156,-1.677417 -0.10147,-1.841125 -0.369618,-2.640666 -0.885217,-2.640666 -0.38998,0 -0.731492,0.942312 -0.751892,2.074292 -0.0179,0.98862 0.232285,0.911149 0.276985,-0.08578 0.0499,-1.112254 0.183468,-1.564762 0.461988,-1.564762 0.356699,0 0.571437,0.914612 0.639237,2.721797 0.0572,1.524759 0.0396,1.632127 -0.303857,1.794206 -0.32883,0.155182 -0.410585,0.08617 -0.817005,-0.690397 -0.248259,-0.474398 -0.560218,-1.052877 -0.693497,-1.28571 -0.1333,-0.232833 -0.288699,-0.791138 -0.345199,-1.240234 -0.0565,-0.449094 -0.23972,-0.953368 -0.40721,-1.120862 -0.25772,-0.257773 -0.301521,-0.579781 -0.284221,-2.097029 0.0173,-1.524156 -0.0255,-1.837704 -0.286804,-2.095996 -0.14783,-0.146145 -0.227972,-0.218685 -0.309542,-0.207223 z m 0.03049,0.648539 c 0.35181,0.127386 0.149297,2.660939 -0.491442,4.524272 -0.65935,1.917484 -0.672077,2.1631 -0.107487,2.055172 0.395209,-0.07555 0.423464,-0.03499 0.430464,0.614949 0.004,0.3829 0.04057,1.191426 0.08217,1.79679 0.0415,0.605366 0.107427,1.789779 0.145727,2.63188 0.0393,0.863133 0.187778,1.814084 0.340548,2.179712 0.43783,1.047847 0.297365,0.943681 -0.321944,-0.239262 -0.680069,-1.299013 -0.766112,-1.009711 -0.170532,0.572575 0.232039,0.616452 0.385881,1.120862 0.341581,1.120862 -0.0443,0 -0.312203,-0.438587 -0.595313,-0.974101 -0.456189,-0.862961 -0.50256,-0.906134 -0.40566,-0.380855 0.0601,0.325966 0.254182,0.878582 0.430982,1.227832 0.480449,0.949165 0.237892,0.765921 -0.303858,-0.229443 -0.455289,-0.836504 -0.474952,-0.850461 -0.612882,-0.436666 -0.10724,0.321714 -0.01549,0.734715 0.371037,1.668632 0.291019,0.703237 0.386815,1.06677 0.221175,0.838708 -0.16078,-0.22136 -0.582047,-1.135679 -0.936377,-2.031917 -0.50404,-1.274822 -0.624171,-1.476167 -0.550871,-0.923975 0.0515,0.388203 0.32119,1.374014 0.59893,2.190564 0.27772,0.81655 0.477717,1.511846 0.444417,1.545126 -0.0819,0.08187 -0.182072,-0.174634 -1.138432,-2.916618 -0.839909,-2.40802 -1.109266,-2.489799 -0.481107,-0.145728 0.559579,2.088111 0.276904,1.595871 -0.505396,-0.880566 -1.017369,-3.220482 -1.12443,-2.743529 -0.148311,0.660425 0.600219,2.093044 0.187421,1.371717 -0.607198,-1.061434 -0.853689,-2.614071 -0.905686,-2.97254 -0.511597,-3.535185 0.24651,-0.351934 0.234503,-0.478858 -0.160197,-1.688786 -1.550888,-4.754111 -1.732286,-7.241694 -0.322977,-4.42867 0.468799,0.935719 0.78781,2.040949 1.18184,4.094324 0.0491,0.256117 0.153627,0.465604 0.232027,0.465604 0.20139,0 0.295352,-0.777206 0.400492,-3.302124 0.0994,-2.387893 0.236337,-3.471622 0.438216,-3.471622 0.27496,0 0.403345,1.02562 0.411345,3.300057 0.008,2.079433 0.0437,2.374988 0.293522,2.423108 0.434489,0.08368 0.578302,-0.409562 0.628902,-2.155941 0.0435,-1.500588 0.562421,-3.872828 1.044381,-4.773352 0.14163,-0.264652 0.25264,-0.363744 0.333829,-0.334347 z m 0.373104,4.757849 c 0.102,0 0.127132,0.21963 0.06201,0.545187 -0.13008,0.650367 -0.44225,1.039803 -0.43925,0.547253 0.004,-0.540254 0.194408,-1.09244 0.377238,-1.09244 z m 4.541842,0.879016 c 0.0703,0.0037 0.146354,0.05479 0.234094,0.144178 0.2458,0.250468 0.357123,1.186525 0.296623,2.490804 -0.0276,0.595642 -0.0918,0.719336 -0.37207,0.719336 -0.64638,0 -0.334798,0.295055 0.398942,0.377754 2.377168,0.267943 4.693968,2.373371 6.441978,5.853907 0.42902,0.854241 0.96653,1.673123 1.19786,1.824695 0.2308,0.151224 0.95432,0.909317 1.60766,1.685168 1.34444,1.59655 1.6987,1.792918 2.35748,1.305863 0.57903,-0.428099 2.26682,-0.920644 2.67064,-0.77928 0.17117,0.05992 0.71038,0.536468 1.19785,1.05885 0.48748,0.522386 0.88684,0.849489 0.88884,0.726571 0.003,-0.268228 -0.9488,-1.718087 -1.33325,-2.030367 -0.24381,-0.198033 -0.20488,-0.283857 0.36483,-0.808737 0.52246,-0.481353 0.67879,-0.548495 0.86765,-0.37207 0.12675,0.118378 0.19373,0.310973 0.14883,0.427881 -0.0449,0.116907 0.0304,0.21239 0.16743,0.21239 0.17839,0 0.24386,0.18035 0.22996,0.635103 -0.0174,0.571443 0.0267,0.640391 0.44287,0.68833 0.25435,0.0293 0.91862,-0.151443 1.47588,-0.401525 0.63785,-0.28625 1.12534,-0.408266 1.31568,-0.329696 0.25847,0.106699 0.23305,0.149306 -0.17467,0.292489 -0.31026,0.108962 -0.44455,0.251997 -0.38395,0.409794 0.0512,0.133399 -0.02,0.285999 -0.15813,0.338997 -0.33964,0.130341 -0.31678,0.356485 0.0455,0.451135 0.16298,0.04259 0.0166,0.08635 -0.32504,0.09715 -0.34163,0.0108 -0.74152,0.06594 -0.88884,0.122473 -0.36336,0.139434 -0.34416,1.006443 0.0284,1.284676 0.38232,0.285471 0.4532,0.644405 0.12713,0.644405 -0.13967,0 -0.23518,0.09117 -0.21188,0.202055 0.0233,0.110886 -0.0913,0.230494 -0.25424,0.266134 -0.21893,0.04788 -0.29611,-0.04273 -0.29611,-0.347783 0,-0.882107 -1.15417,-1.700435 -2.13424,-1.513085 -0.19576,0.03742 -0.74303,0.360884 -1.21594,0.718819 l -0.85938,0.651123 -0.27492,-0.419613 c -0.15117,-0.2307 -0.46987,-0.508009 -0.70797,-0.6165 -0.36174,-0.164817 -0.46743,-0.150015 -0.6444,0.09198 -0.33903,0.463646 -1.18732,0.370364 -1.59474,-0.1757 -0.33598,-0.45038 -0.34743,-0.453237 -0.35243,-0.08475 -0.003,0.209548 0.075,0.380855 0.17363,0.380855 0.0986,0 0.12523,0.08758 0.0589,0.194821 -0.16683,0.269919 -0.57671,-0.312512 -0.57671,-0.819589 0,-0.45035 -0.33501,-0.542506 -0.34571,-0.09508 -0.004,0.185812 -0.12831,0.07551 -0.33176,-0.296106 -0.30467,-0.556524 -0.32505,-0.567016 -0.33745,-0.169499 l -0.0129,0.42323 -0.24185,-0.42323 c -0.1331,-0.232832 -0.24563,-0.575445 -0.25063,-0.761711 -0.007,-0.276893 -0.0378,-0.293314 -0.16743,-0.08837 -0.12581,0.198976 -0.21103,0.129307 -0.41393,-0.338481 -0.18668,-0.430338 -0.26105,-0.497922 -0.27595,-0.250631 -0.0168,0.279849 -0.0565,0.257355 -0.22841,-0.130741 -0.11442,-0.258316 -0.26074,-0.41724 -0.32504,-0.35295 -0.0643,0.06429 -0.11999,-0.06742 -0.12299,-0.292489 -0.003,-0.225072 -0.11329,-0.599674 -0.24443,-0.832507 -0.21666,-0.38464 -0.22931,-0.311441 -0.13901,0.800985 0.13071,1.610013 -0.21832,2.580048 -1.17874,3.275769 -0.8909,0.645365 -1.43431,0.626719 -2.80965,-0.09612 -1.290267,-0.678134 -2.585326,-1.873419 -4.180104,-3.857646 -1.980788,-2.464525 -2.729357,-4.617382 -2.872176,-8.259444 l -0.08423,-2.153874 0.454236,-0.297656 c 0.448289,-0.293739 0.459026,-0.29104 0.842326,0.189652 0.398599,0.499887 0.49027,0.944444 0.634069,3.079916 0.0735,1.09114 0.0498,1.227575 -0.204121,1.185457 -0.23417,-0.03885 -0.296164,0.115809 -0.337964,0.840776 -0.0281,0.488546 0.0271,1.021554 0.12299,1.18494 0.129199,0.220091 0.148597,0.09466 0.0739,-0.484725 -0.0589,-0.45646 -0.02994,-0.826201 0.06976,-0.887801 0.24566,-0.151828 0.615277,0.487463 1.144116,1.977141 0.41595,1.171638 0.676664,1.494777 0.968933,1.20251 0.22256,-0.22256 -0.95862,-3.022684 -1.445389,-3.426664 -0.19384,-0.160859 -0.208501,-0.36814 -0.07493,-1.043347 0.0916,-0.463524 0.223505,-0.807781 0.293005,-0.764812 0.0695,0.04297 0.175861,-0.230455 0.236161,-0.607714 0.0829,-0.518578 0.178571,-0.672736 0.392741,-0.631486 0.43245,0.08328 0.895993,1.019915 0.933793,1.887223 0.019,0.435994 0.16492,0.947838 0.33228,1.165304 l 0.298173,0.387573 0.0036,-0.371037 c 0.007,-0.72854 0.609182,-0.682534 1.049032,0.0801 0.14603,0.253196 0.316271,0.742778 0.378271,1.087789 0.0769,0.42761 0.18502,0.599499 0.340038,0.540019 0.3013,-0.115622 0.94567,0.719898 0.94567,1.226282 0,0.220274 0.0759,0.400492 0.16899,0.400492 0.50497,0 -0.34676,-2.521053 -0.96325,-2.850989 -0.1746,-0.09344 -0.493546,-0.594852 -0.709005,-1.11466 -0.21544,-0.519808 -0.480072,-0.95626 -0.587562,-0.96945 -0.107509,-0.01318 -0.373545,-0.03177 -0.591695,-0.04186 -0.315569,-0.01461 -0.472679,-0.20707 -0.768428,-0.939994 l -0.372071,-0.920874 0.315227,-1.280542 c 0.269579,-1.095914 0.428904,-1.512666 0.639754,-1.501718 z m -11.656136,1.629875 c 0.0331,-0.09933 0.454714,0.420533 0.936894,1.154968 0.638339,0.972295 0.84993,1.438526 0.77773,1.714624 -0.0545,0.208555 -0.155476,0.378789 -0.224276,0.378789 -0.17495,0 -1.563948,-3.027496 -1.490348,-3.248381 z m 11.125936,5.111316 c -0.0868,0 -0.147592,0.399887 -0.135393,0.888835 0.0202,0.805659 0.0329,0.833728 0.13591,0.296622 l 0.113688,-0.592728 0.260449,0.592728 c 0.14336,0.325967 0.359107,0.897158 0.479557,1.26969 0.12043,0.372531 0.362919,0.963334 0.538469,1.312582 0.216739,0.431164 0.433194,0.635103 0.674894,0.635103 0.277243,0 0.314753,-0.05019 0.168982,-0.225826 -0.10293,-0.124036 -0.45812,-0.897233 -0.789099,-1.718241 -0.61401,-1.523025 -1.164858,-2.458765 -1.447457,-2.458765 z m 1.914095,1.934766 c -0.0212,0.005 -0.03352,0.02942 -0.03462,0.07648 -0.003,0.128257 0.268313,0.794904 0.603062,1.481563 0.33476,0.686659 0.67793,1.248503 0.76222,1.248503 0.20373,0 0.20895,0.02251 -0.22737,-1.037663 -0.36167,-0.87875 -0.954699,-1.803556 -1.103289,-1.768884 z m -2.128036,2.448429 c -0.0433,-0.0077 -0.06911,0.01807 -0.08061,0.07493 -0.10126,0.50057 0.297877,1.252265 1.003556,1.889807 0.60039,0.542404 0.995805,0.741697 0.995805,0.501261 0,-0.05152 -0.435827,-0.680506 -0.968416,-1.39733 -0.53335,-0.71784 -0.82056,-1.045532 -0.95033,-1.068669 z m 2.059823,0.866097 c -0.31657,0 -0.111189,0.676269 0.304891,1.003556 0.763714,0.600741 0.977804,0.417399 0.380334,-0.326078 -0.299376,-0.372533 -0.607625,-0.677478 -0.685225,-0.677478 z m -4.035929,1.354439 c 0.009,-0.0087 0.07759,0.04248 0.211873,0.147795 0.16298,0.127821 0.296106,0.261463 0.296106,0.296623 h 5.17e-4 c 0,0.139368 -0.139492,0.04952 -0.360702,-0.232544 -0.10533,-0.134285 -0.156524,-0.203134 -0.147794,-0.211874 z m -1.068669,0.931726 0.449585,0.410311 c 0.24739,0.225786 0.450102,0.473454 0.450102,0.550354 0,0.308802 -0.283561,0.109413 -0.582911,-0.410311 z m 1.987992,0.498678 c 0.10693,-0.01555 0.377925,0.118542 0.748275,0.411861 0.779389,0.617286 1.062217,0.688667 0.602547,0.151929 -0.26094,-0.304692 -0.20132,-0.28671 0.313159,0.09405 0.34979,0.258887 0.703482,0.429488 0.785482,0.378788 0.082,-0.0507 0.233274,0.0096 0.336414,0.133842 0.10316,0.124287 0.499909,0.366347 0.881594,0.538469 0.59289,0.267351 0.64609,0.331209 0.36381,0.435632 -0.22726,0.08407 -0.36692,0.350937 -0.44752,0.854728 -0.16682,1.043269 -0.732899,2.082562 -1.439189,2.643766 -0.990579,0.787096 -1.009268,0.787985 -0.908988,0.04031 0.10041,-0.748628 -0.140281,-1.187008 -0.65164,-1.187008 -0.17507,0 -0.31781,0.118703 -0.31781,0.264067 0,0.145201 -0.058,0.228185 -0.128674,0.184485 -0.0707,-0.0437 -0.128608,-0.651469 -0.126608,-1.350822 0.001,-1.096533 0.0558,-1.329425 0.395325,-1.690853 0.37326,-0.397312 0.270426,-0.793176 -0.140043,-0.539502 -0.0931,0.05756 -0.169499,0.02422 -0.169499,-0.07441 0,-0.09863 0.114548,-0.179317 0.254248,-0.179317 0.3485,0 0.318642,-0.16354 -0.113688,-0.623735 -0.28695,-0.305446 -0.344125,-0.470724 -0.237195,-0.486275 z m -0.518831,0.332279 c 0.0163,-0.0062 0.03661,-0.0031 0.06201,0.0088 0.0339,0.01582 0.0765,0.0469 0.130224,0.09147 0.1397,0.115941 0.254248,0.315604 0.254248,0.4439 0,0.128297 -0.114548,0.233578 -0.254248,0.233578 -0.1612,0 -0.253731,-0.162581 -0.253731,-0.444418 0,-0.211233 0.0125,-0.314727 0.06149,-0.333313 z m -3.59513,0.02119 c 0.0376,-0.03765 0.197074,0.155009 0.353984,0.428397 0.15687,0.273387 0.25249,0.497128 0.21239,0.497128 -0.11961,0 -0.640573,-0.851295 -0.566374,-0.925525 z m -0.186551,0.587044 h 5.16e-4 c 0.09001,3.6e-4 0.163298,0.114768 0.163298,0.254248 0,0.139698 -0.02923,0.253731 -0.06563,0.253731 -0.0366,0 -0.110731,-0.114033 -0.164331,-0.253731 -0.05351,-0.139462 -0.0237,-0.253858 0.06615,-0.254248 z m 22.434803,0.338481 c 0.5836,0 1.26807,0.529196 1.26607,0.980302 -0.001,0.460263 -0.63653,1.379573 -1.09967,1.5906 -0.46697,0.212765 -0.56409,0.47749 -0.17518,0.47749 0.33162,0 1.04177,2.408159 1.18597,4.02146 0.0603,0.675215 0.0742,1.227832 0.03,1.227832 -0.0442,0 -0.57873,-0.59805 -1.18804,-1.328601 -1.49499,-1.79239 -2.40944,-2.599802 -2.87011,-2.534212 -0.28268,0.04024 -0.37234,0.171741 -0.38034,0.560689 -0.006,0.2794 -0.0308,0.812927 -0.0558,1.185458 l -0.046,0.676961 -0.23203,-0.507979 c -0.12794,-0.2794 -0.23681,-0.787542 -0.24081,-1.129647 -0.01,-0.796053 -0.69503,-1.673836 -1.20302,-1.540991 -0.30151,0.07886 -0.33098,0.03311 -0.23358,-0.355017 0.0988,-0.393704 0.0613,-0.445451 -0.3204,-0.445451 -0.23742,0 -0.47386,-0.06909 -0.52606,-0.153479 -0.0522,-0.08439 -0.25917,-0.110362 -0.45992,-0.05788 -0.22959,0.06003 -0.32492,0.02987 -0.25632,-0.08113 0.06,-0.09707 0.33904,-0.223305 0.6196,-0.280603 0.28053,-0.05731 0.74575,-0.15232 1.03457,-0.21084 0.37702,-0.0764 0.46143,-0.147025 0.29713,-0.251147 -0.12585,-0.07975 -0.40023,-0.146395 -0.60978,-0.147795 -0.20955,-0.0014 -0.38189,-0.07441 -0.38189,-0.162264 0,-0.325392 0.77514,-0.68678 1.47227,-0.68678 0.59258,0 0.69989,-0.04832 0.61339,-0.273885 -0.0863,-0.22492 -0.0471,-0.242704 0.21911,-0.100252 0.17814,0.09534 0.46831,0.332985 0.64492,0.528133 0.28447,0.314342 0.29841,0.432328 0.11783,1.035079 -0.1118,0.374192 -0.16081,0.75013 -0.10801,0.835608 0.0528,0.08548 -0.19115,0.179238 -0.54157,0.208256 -0.44609,0.03694 -0.65368,0.141859 -0.69298,0.349333 -0.0479,0.252563 0.0788,0.296106 0.85783,0.296106 0.53003,0 1.43642,0.177976 2.15749,0.42323 0.68398,0.232631 1.27378,0.393857 1.30948,0.358117 0.0896,-0.08957 -1.04874,-0.781347 -1.28571,-0.781347 -0.10538,0 -0.19172,-0.107997 -0.19172,-0.240296 0,-0.1323 -0.22858,-0.291063 -0.50797,-0.352433 -0.34182,-0.07508 -0.50747,-0.213881 -0.50747,-0.425297 0,-1.041822 1.40764,-2.707328 2.28875,-2.707328 z m -19.577613,0.169498 c 0.0953,0 0.258818,0.158707 0.362768,0.35295 0.216,0.403574 0.124513,0.610529 -0.126607,0.286288 -0.32658,-0.421697 -0.407171,-0.639238 -0.236161,-0.639238 z m 3.382739,0.338481 c -0.0932,0 -0.122176,0.07637 -0.0646,0.169499 0.0576,0.09313 0.180785,0.169498 0.273885,0.169498 0.0931,0 0.122753,-0.07637 0.06511,-0.169498 -0.0576,-0.09313 -0.181302,-0.169499 -0.274402,-0.169499 z m -1.090373,0.846977 c -0.29955,0 -0.322989,0.281695 -0.03204,0.386023 0.11641,0.04175 0.270181,0.04297 0.341581,0.0026 0.19338,-0.109559 -0.0286,-0.388607 -0.309025,-0.388607 z m 17.058907,0.367936 c -0.53177,-0.07572 -0.87798,0.254849 -0.87798,0.838192 0,0.320235 0.0873,0.487308 0.25424,0.487308 0.1397,0 0.25374,-0.07819 0.25374,-0.173632 0,-0.09544 0.19653,-0.248415 0.43614,-0.339515 0.5364,-0.203936 0.49363,-0.732713 -0.0656,-0.812353 z m 8.6558,0.58446 c -0.0993,-0.01237 -0.2138,-0.0097 -0.34313,0.0083 -0.17244,0.02394 -0.37101,0.07541 -0.59376,0.153995 -0.37917,0.133777 -1.09661,0.290783 -1.59474,0.349333 -0.57335,0.06738 -0.90588,0.186827 -0.90588,0.325562 0,0.255687 0.75167,0.821574 1.55494,1.170471 0.69372,0.301324 0.55879,0.298351 1.20974,0.02635 0.63718,-0.266231 1.13017,-0.929586 1.13017,-1.521354 0,-0.302865 -0.15946,-0.475524 -0.45734,-0.512631 z m -28.20241,0.359668 h 5.16e-4 c 0.06959,0.01578 0.240381,0.136647 0.513664,0.35295 0.39228,0.31051 0.713135,0.672729 0.713135,0.804602 0,0.398461 -0.297781,0.271371 -0.728121,-0.310575 -0.35856,-0.484913 -0.537141,-0.752976 -0.534851,-0.82734 4.94e-4,-0.01838 0.01296,-0.02454 0.03566,-0.01964 z m 27.62932,0.07131 h 5.2e-4 c 0.68265,-0.02106 0.74844,0.276208 0.0754,0.805635 -0.53919,0.424125 -1.10833,0.427155 -2.00246,0.01085 l -0.67231,-0.312642 0.50281,-0.10697 c 0.27615,-0.05874 0.82134,-0.178374 1.21182,-0.266134 0.3602,-0.08095 0.65647,-0.123615 0.88418,-0.130741 z m -25.381912,0.98702 c 0.182929,0 0.304222,0.371324 0.207222,0.635103 -0.0912,0.248067 -0.320206,0.277256 -0.455786,0.05788 -0.11794,-0.19083 0.06209,-0.692981 0.248564,-0.692981 z m -4.538225,0.535368 c 0.0531,-0.0024 0.125736,0.06321 0.257866,0.195336 0.18186,0.181832 0.224482,0.341385 0.119372,0.446485 -0.252899,0.252903 -0.652377,-0.07716 -0.517798,-0.427881 0.054,-0.140672 0.0875,-0.211502 0.14056,-0.21394 z m 1.239718,0.291971 0.800468,0.214458 c 0.440409,0.117793 0.800985,0.279864 0.800985,0.360184 0,0.218474 -1.011598,1.646411 -1.166337,1.646411 -0.0737,0 -0.218171,0.184314 -0.320911,0.409795 -0.16032,0.351879 -0.124716,0.47163 0.250114,0.84646 0.24018,0.240185 0.559237,0.437136 0.709517,0.437182 0.33006,10e-5 1.641948,1.485439 1.891358,2.141472 0.279769,0.735838 0.07579,1.244885 -0.499195,1.244885 -0.265969,0 -0.721808,0.04773 -1.012858,0.105936 -0.413819,0.08276 -0.529166,0.04722 -0.529166,-0.161747 0,-0.527584 -1.988543,-0.827452 -2.377633,-0.358634 -0.28084,0.338402 -1.169014,0.255698 -1.411283,-0.131258 -0.33785,-0.539648 0.0845,-0.716052 1.18494,-0.495061 0.816839,0.164042 1.031965,0.153454 1.366325,-0.06563 0.32986,-0.21613 0.365694,-0.317518 0.213424,-0.60203 -0.10074,-0.188249 -0.149954,-0.433416 -0.109554,-0.54467 0.0404,-0.111254 0.177137,0.02652 0.303857,0.305925 0.30081,0.663154 0.409432,0.727103 1.451591,0.857312 1.306139,0.163192 1.464661,-0.0148 0.309542,-0.347783 -1.098369,-0.316623 -0.969709,-0.175861 -2.523877,-2.763138 -0.718809,-1.196603 -0.69847,-1.444322 0.206189,-2.539897 z m 2.436027,0.153479 c 0.11169,-0.0212 0.28678,0.02804 0.490409,0.181901 l 0.394292,0.297657 -0.368453,0.624768 c -0.39373,0.66733 -0.677471,0.773787 -1.006141,0.377754 -0.283299,-0.34134 -0.0476,-0.647197 0.410311,-0.532267 0.54529,0.136856 0.645706,-0.06033 0.211357,-0.415478 -0.32768,-0.267915 -0.317935,-0.498999 -0.131775,-0.534335 z m -4.156852,0.480591 c 0.0696,-0.01792 0.141022,-0.0172 0.207222,0.0083 0.17075,0.06552 0.185488,0.171745 0.05788,0.410311 -0.19499,0.364341 -0.668176,0.43598 -0.668176,0.101286 0,-0.242758 0.194226,-0.466099 0.403076,-0.519865 z m -1.024227,1.152901 c 0.10511,-0.01175 0.242257,-0.0033 0.409277,0.02739 0.59012,0.108512 0.880251,0.310589 0.886251,0.61805 0.004,0.207776 -1.097489,0.144289 -1.317749,-0.07596 -0.31978,-0.319769 -0.293069,-0.534229 0.02222,-0.569475 z m 4.306714,0.186036 c 0.0256,-0.0019 0.03979,0.0091 0.03979,0.03514 0,0.104282 0.15222,0.238021 0.33848,0.297139 0.36034,0.11437 0.454248,0.501718 0.164848,0.680579 -0.34988,0.216233 -1.160076,0.225919 -1.334285,0.01602 -0.13262,-0.159804 -0.04809,-0.340692 0.326078,-0.699182 0.20827,-0.199535 0.388168,-0.323991 0.465088,-0.329695 z m -2.875794,0.859379 c 0.0731,0.0197 0.131803,0.09575 0.207223,0.236678 0.15746,0.294212 0.126858,0.33693 -0.239262,0.33693 -0.54733,0 -0.669766,-0.218953 -0.264067,-0.472323 0.13496,-0.08428 0.222946,-0.120983 0.296106,-0.101285 z m 3.806486,0.419612 c 0.0812,0.0232 0.125057,0.131581 0.125057,0.323495 0,0.225778 -0.113227,0.33848 -0.338997,0.33848 -0.38383,0 -0.433922,-0.17534 -0.135392,-0.473872 0.149269,-0.149266 0.268122,-0.211308 0.349332,-0.188103 z m 22.778455,0.03462 c -0.15951,0.04085 -0.79745,0.871227 -0.80357,1.092957 -0.003,0.116416 0.0332,0.211873 0.0811,0.211873 0.12265,0 0.7581,-1.065146 0.7581,-1.270206 -4e-5,-0.03048 -0.0129,-0.04046 -0.0357,-0.03462 z m -7.02438,0.368453 c -0.0539,0.01896 -0.0611,0.192134 0.0176,0.505396 0.0595,0.23717 0.17912,0.430981 0.26562,0.430981 0.0918,0 0.0824,-0.215055 -0.0227,-0.516764 -0.10586,-0.303675 -0.20606,-0.438573 -0.25993,-0.419613 z m -19.059816,0.179834 c 0.0632,0.0133 0.129205,0.06293 0.200504,0.148829 0.11549,0.139172 0.184996,0.379358 0.153996,0.533817 -0.0488,0.243325 -0.100292,0.232494 -0.382922,-0.08062 -0.22149,-0.245343 -0.270609,-0.416695 -0.153479,-0.533818 0.0586,-0.05856 0.118741,-0.08151 0.181901,-0.06821 z m 3.851444,0.422197 c 0.13742,0.01829 0.266543,0.116135 0.328663,0.278019 0.167319,0.436031 -0.147452,0.610514 -0.466122,0.258382 -0.15637,-0.172742 -0.232832,-0.365074 -0.170532,-0.427364 0.0511,-0.05106 0.109355,-0.08404 0.170015,-0.100252 0.0455,-0.01216 0.0922,-0.01487 0.137976,-0.0088 z m 12.132592,0.763778 c -0.0591,0.05936 0.0726,0.253765 0.29249,0.432015 0.59537,0.482685 0.8631,0.381262 0.30024,-0.113689 -0.26685,-0.234669 -0.53363,-0.377686 -0.59273,-0.318326 z m -11.368814,0.338997 c 0.13193,-0.01406 0.254765,0.06398 0.254765,0.245463 0,0.138424 -0.140179,0.278589 -0.311609,0.311609 -0.22628,0.04358 -0.295264,-0.02537 -0.251664,-0.251664 0.0357,-0.185285 0.176588,-0.291351 0.308508,-0.305408 z m 17.661974,0.228927 c -2.04397,0 -2.86297,0.283697 -3.63337,1.258321 -0.53176,0.672711 -0.65061,0.958987 -0.65061,1.569413 v 0.746724 l -0.97358,0.01189 c -1.55466,0.019 -2.03808,0.361821 -0.79014,0.560172 0.27156,0.04316 0.83664,0.133722 1.25574,0.201022 0.4191,0.0673 0.99081,0.146643 1.27021,0.176733 0.2794,0.03009 0.96516,0.126511 1.52394,0.213941 1.40561,0.219914 3.22885,0.06589 4.02352,-0.339515 0.37463,-0.191126 1.21107,-0.384648 1.9544,-0.452168 1.0882,-0.09884 1.30915,-0.170011 1.36065,-0.438733 0.0566,-0.295559 -0.026,-0.313897 -1.04594,-0.232027 l -1.10742,0.08888 0.0946,-0.797367 c 0.0858,-0.724144 0.0435,-0.855585 -0.45889,-1.42782 -0.81172,-0.924473 -1.34476,-1.139465 -2.82308,-1.139465 z m 4.83794,0.377238 c -0.0131,-0.03003 -0.0851,-0.02366 -0.22324,0.0031 -0.17558,0.03402 -0.35084,0.156953 -0.38964,0.273368 -0.10057,0.302076 0.21355,0.261624 0.48214,-0.06201 0.0982,-0.118323 0.14382,-0.18443 0.13074,-0.214457 z m -4.74699,0.02584 c 0.47127,0.03207 0.99721,0.541404 1.13016,1.1467 0.15247,0.694144 -0.21392,1.840178 -0.76429,2.390552 -0.46571,0.465711 -0.70775,0.545111 -1.13327,0.37207 -0.14596,-0.05936 -0.11345,-0.241197 0.11679,-0.651123 0.47677,-0.848831 0.56662,-1.608395 0.28629,-2.422075 -0.24345,-0.706645 -0.2412,-0.717163 0.16691,-0.819588 0.0638,-0.01601 0.13008,-0.02112 0.19741,-0.01654 z m -1.44023,0.166915 c 0.32972,0.03517 0.79065,0.528631 0.79065,0.906921 0,0.148492 -0.18731,0.235128 -0.50798,0.235128 -0.32564,0 -0.50797,-0.08635 -0.50797,-0.240296 0,-0.132083 -0.0461,-0.359898 -0.10232,-0.506429 -0.0632,-0.164848 0.0115,-0.310115 0.19585,-0.380855 0.04,-0.01535 0.0847,-0.01949 0.13177,-0.01447 z m -15.854841,0.09302 c 0.21775,-0.03645 0.429232,0.04632 0.835091,0.288355 0.5934,0.353859 0.73786,0.375351 1.37356,0.205672 0.79656,-0.212613 1.05194,-0.09779 0.70745,0.317293 -0.18742,0.225841 -0.42197,0.258043 -1.244368,0.172083 -0.813469,-0.08503 -0.971061,-0.0638 -0.799951,0.10697 0.1353,0.13501 0.704371,0.21239 1.558559,0.21239 0.74019,0 1.34618,0.06443 1.34617,0.142627 -7e-5,0.277265 -0.76854,0.777815 -1.20251,0.783415 -0.24221,0.0031 -0.684327,-0.07955 -0.982367,-0.183452 -0.712179,-0.248263 -0.84559,-0.0875 -0.25063,0.302308 0.313369,0.205307 0.789797,0.310408 1.411797,0.311608 0.8236,0.0016 0.93896,0.04344 0.93896,0.338998 0,0.294282 -0.12844,0.341815 -1.01596,0.377755 -0.5588,0.02263 -1.14989,-0.03839 -1.31361,-0.13591 -0.16372,-0.09752 -0.363484,-0.137239 -0.443384,-0.08785 -0.0799,0.0494 -0.506396,-0.251292 -0.947746,-0.668177 -0.441329,-0.416887 -0.889671,-0.755959 -0.996321,-0.753959 -0.10664,0.002 -0.525737,0.15426 -0.931726,0.338481 -0.795869,0.361131 -1.548226,0.440551 -1.548226,0.163297 0,-0.324688 1.097465,-0.842682 1.786454,-0.843359 0.766089,-7.08e-4 1.09244,-0.230556 1.09244,-0.769462 0,-0.216274 0.160622,-0.435571 0.398942,-0.544153 0.0814,-0.03711 0.154786,-0.06278 0.227376,-0.07493 z m 18.802981,0.232027 c 0.0623,-0.02455 0.16124,0.02658 0.30231,0.143661 0.16197,0.134427 0.24701,0.421391 0.21601,0.730705 -0.0777,0.776245 -0.4135,0.730749 -0.54209,-0.07338 -0.0811,-0.507036 -0.08,-0.759456 0.0238,-0.800985 z m -4.146,0.120923 h 5.2e-4 c 0.38066,-0.01654 0.63355,0.465854 0.63355,1.377694 0,0.776814 -0.0726,1.020612 -0.39222,1.32085 -0.49967,0.469413 -0.51023,0.467716 -1.03249,-0.152963 -0.55328,-0.658084 -0.5553,-1.240543 -0.006,-1.960604 0.29327,-0.384492 0.56787,-0.57454 0.79633,-0.584977 z m 5.1077,0.781348 c 0.0346,-6e-5 0.0717,0.03669 0.11421,0.10387 0.0815,0.128721 0.14889,0.397114 0.15089,0.596346 0.001,0.19923 -0.15165,0.54236 -0.34003,0.762227 l -0.34261,0.399459 0.10335,-0.676962 c 0.12981,-0.851133 0.21036,-1.184759 0.31419,-1.18494 z m -3.53156,0.253214 c 0.386,0 0.42805,0.05987 0.38085,0.537435 -0.0551,0.557929 -0.18659,0.659399 -0.68781,0.5302 -0.40085,-0.103318 -0.37726,-0.390157 0.032,-0.390157 0.18076,0 0.37606,-0.07637 0.43356,-0.169498 0.0576,-0.09313 -0.0521,-0.168982 -0.24391,-0.168982 -0.19176,0 -0.34882,-0.07637 -0.34882,-0.169499 0,-0.09313 0.19534,-0.169499 0.43409,-0.169499 z m 6.60321,0.169499 c -0.23832,0 -0.43356,0.07637 -0.43356,0.169499 0,0.09313 0.14788,0.168982 0.32866,0.168982 0.18077,0 0.37596,-0.07585 0.43356,-0.168982 0.0593,-0.09604 -0.0829,-0.169499 -0.32866,-0.169499 z m -3.89485,0.507979 c 0.14524,0 0.21718,0.07637 0.15968,0.169499 -0.0576,0.09313 -0.17647,0.168982 -0.26407,0.168982 -0.0876,0 -0.15968,-0.07585 -0.15968,-0.168982 0,-0.09313 0.11888,-0.169499 0.26407,-0.169499 z m -0.38344,0.571542 c 0.0307,-0.01353 0.0728,-0.0076 0.11937,0.02119 0.0931,0.05756 0.1695,0.138247 0.1695,0.179317 0,0.04107 -0.0764,0.07441 -0.1695,0.07441 -0.0931,0 -0.16898,-0.08069 -0.16898,-0.179317 0,-0.04931 0.0189,-0.08207 0.0496,-0.0956 z m -2.43448,0.126607 c 0.0588,0.0024 0.10931,0.01786 0.13746,0.04599 0.0563,0.05627 -0.0437,0.0967 -0.22221,0.0894 -0.19731,-0.0081 -0.2374,-0.04827 -0.10232,-0.102319 0.0611,-0.02446 0.12825,-0.03549 0.18707,-0.03307 z m 2.06603,0.487309 c 0.0932,0 0.12217,0.07585 0.0646,0.168982 -0.0576,0.09313 -0.18078,0.169498 -0.27388,0.169498 -0.0931,0 -0.1222,-0.07637 -0.0646,-0.169498 0.0576,-0.09313 0.18079,-0.168982 0.27389,-0.168982 z"
       sodipodi:nodetypes="sscsscccscsssssccsssscssssssssssccccccsssssccccscccsscsssccsssscsssssccsssscsscscsscccsssssscsscsccssssssssscssscsccssssssccssssscccsssscccsscsccsscscssssscscscscsssscscccsssssssscssssscssssccssscssssscccssccscscscccccscssssssssccsscsccccssscsssscccscsssssssccccsscssscsccsssssscsssscsssssssssscsccsccssccsssssssscsssssccssssssccssssccscssssssscsscscscccccsssssssssssscsscsscsscsssssscssssscssscsscssssccscsssssssccsscccsscccsssscsscscccccssssssssssssssscsssccscccsssssccsssccsssssssssssssssssssscscsccscccsccccscsccscscsssssssssscssssssscscccssscsssssssssssssscsssssssssccssssssssssscscscscsccssccccscccccsscsscsssssscsscssssssssssscsssssss" />
  </g>
  <metadata
     id="metadata1873">
    <rdf:RDF>
      <cc:License
         rdf:about="http://creativecommons.org/publicdomain/zero/1.0/">
        <cc:permits
           rdf:resource="http://creativecommons.org/ns#Reproduction" />
        <cc:permits
           rdf:resource="http://creativecommons.org/ns#Distribution" />
        <cc:permits
           rdf:resource="http://creativecommons.org/ns#DerivativeWorks" />
      </cc:License>
      <cc:Work
         rdf:about="">
        <cc:license
           rdf:resource="http://creativecommons.org/publicdomain/zero/1.0/" />
        <dc:title>Hen with egg</dc:title>
      </cc:Work>
    </rdf:RDF>
  </metadata>
</svg>
