<?xml version="1.0" encoding="UTF-8" standalone="no"?>
<!-- Created with Inkscape (http://www.inkscape.org/) -->

<svg
   xmlns:dc="http://purl.org/dc/elements/1.1/"
   xmlns:cc="http://creativecommons.org/ns#"
   xmlns:rdf="http://www.w3.org/1999/02/22-rdf-syntax-ns#"
   xmlns:svg="http://www.w3.org/2000/svg"
   xmlns="http://www.w3.org/2000/svg"
   xmlns:sodipodi="http://sodipodi.sourceforge.net/DTD/sodipodi-0.dtd"
   xmlns:inkscape="http://www.inkscape.org/namespaces/inkscape"
   id="svg4174"
   version="1.1"
   inkscape:version="0.91 r13725"
   width="370.3125"
   height="552.1875"
   viewBox="0 0 370.3125 552.1875"
   sodipodi:docname="Flower46.svg">
  <metadata
     id="metadata4180">
    <rdf:RDF>
      <cc:Work
         rdf:about="">
        <dc:format>image/svg+xml</dc:format>
        <dc:type
           rdf:resource="http://purl.org/dc/dcmitype/StillImage" />
        <dc:title></dc:title>
      </cc:Work>
    </rdf:RDF>
  </metadata>
  <defs
     id="defs4178" />
  <sodipodi:namedview
     pagecolor="#ffffff"
     bordercolor="#666666"
     borderopacity="1"
     objecttolerance="10"
     gridtolerance="10"
     guidetolerance="10"
     inkscape:pageopacity="0"
     inkscape:pageshadow="2"
     inkscape:window-width="1600"
     inkscape:window-height="837"
     id="namedview4176"
     showgrid="false"
     inkscape:zoom="1.213356"
     inkscape:cx="185.15625"
     inkscape:cy="276.09375"
     inkscape:window-x="-8"
     inkscape:window-y="-8"
     inkscape:window-maximized="1"
     inkscape:current-layer="svg4174" />
  <path
     style="fill:#000000"
     d="m 361.40625,550.75421 c -3.96834,-1.42964 -16.09808,-1.74993 -22.5,-0.59413 -3.59985,0.64992 -6.95521,0.13706 -27.39303,-4.18698 -3.72242,-0.78754 -7.18705,-1.17294 -7.69917,-0.85643 -2.1998,1.35954 -13.82272,-1.66229 -20.06827,-5.21754 -3.52577,-2.00702 -6.60689,-3.64913 -6.84693,-3.64913 -1.66598,0 -14.30434,-11.51717 -19.58221,-17.845 -6.19735,-7.43023 -8.87914,-8.53195 -8.87914,-3.64766 0,4.40347 -12.39873,-2.84783 -24.375,-14.25554 -10.31796,-9.8281 -22.88679,-17.13852 -32.57813,-18.94841 -3.65859,-0.68326 -3.78753,0.0862 -0.99656,5.94661 5.10135,10.71176 2.25326,23.21442 -7.40144,32.49103 -4.77263,4.58574 -7.13281,5.84715 -13.63325,7.28638 -3.82182,0.84617 -3.23862,3.518 1.64063,7.51617 3.65713,2.99675 4.21875,3.93253 4.21875,7.02939 0,5.5385 -4.99071,7.83633 -6.28342,2.89301 -0.26421,-1.01038 -1.83329,-2.63528 -3.48683,-3.61089 -1.88337,-1.11122 -3.33938,-2.93477 -3.89774,-4.88164 -1.09643,-3.823 -3.20701,-4.83357 -3.20701,-1.53555 0,5.98958 -4.66787,12.80225 -7.91739,11.55528 -1.43951,-0.55239 -1.28507,-1.39478 1.81545,-9.90287 1.71656,-4.71039 1.28225,-7.55075 -0.88014,-5.75612 -0.73419,0.60933 -1.60007,2.31519 -1.92417,3.79081 -0.77326,3.52063 -3.02545,5.50745 -3.83921,3.38683 -0.76125,-1.98379 -2.1983,-1.88079 -5.06704,0.36317 -5.15292,4.03068 -7.12864,1.80179 -3.30003,-3.72291 3.69599,-5.33331 4.00568,-8.81147 0.97298,-10.92788 -5.20537,-3.63262 -8.92295,-7.15087 -8.92295,-8.4445 0,-3.13739 -2.82812,-1.89095 -8.48647,3.74028 -6.80783,6.7752 -12.45455,8.86897 -15.78654,5.85356 -2.30756,-2.08832 -2.65198,-1.97932 -7.308449,2.31286 -6.442161,5.93818 -14.68596,9.51741 -20.449791,8.87876 -2.854813,-0.31633 -6.703455,0.0293 -9.84375,0.88409 -6.560726,1.78577 -15.889383,1.79386 -22.5,0.0195 -2.835938,-0.76119 -8.2,-1.389 -11.92014,-1.39512 -7.990606,-0.0131 -9.266888,-1.17825 -7.661138,-6.9938 0.531561,-1.92516 0.742858,-4.08302 0.469548,-4.79525 -0.273309,-0.71223 0.372176,-4.57622 1.434411,-8.58665 1.658151,-6.26027 1.77598,-7.90967 0.833017,-11.66063 -1.342196,-5.33903 -0.446298,-16.11249 1.912316,-22.99623 1.886107,-5.5047 2.084003,-5.17186 -5.481264,-9.21874 -5.29037,-2.82997 -6.994013,-5.87896 -5.036396,-9.01361 1.858608,-2.9761 1.211992,-4.62478 -3.749602,-9.56036 -4.605744,-4.5816 -7.363252,-9.19622 -7.363252,-12.32223 0,-0.79562 -0.7971839,-3.23494 -1.7715199,-5.42073 -1.0235527,-2.2962 -1.7700701,-6.09189 -1.7680862,-8.98989 0.0025,-3.65509 -0.539581,-5.7502 -1.9982762,-7.72319 -2.13592644,-2.889 -3.06185644,-10.48203 -1.4622007,-11.99069 0.5498885,-0.51861 4.9620549,-0.005 11.218833,1.30586 10.942193,2.29258 11.383807,2.23977 11.873741,-1.42 0.284853,-2.12782 0.689773,-2.32651 4.395187,-2.15663 l 4.081427,0.18714 -0.5705,-3.46839 c -3.717157,-22.59861 -0.05185,-33.23302 8.649107,-25.09429 5.300579,4.95807 6.410376,5.17915 9.095358,1.81187 1.683926,-2.11185 2.258256,-2.31591 3.957959,-1.40625 1.093513,0.58522 2.754222,1.06817 3.690464,1.07321 2.735718,0.0147 11.368975,4.38835 16.577886,8.39841 14.897826,11.46902 20.776896,15.56497 24.137449,16.81656 1.745932,0.65025 3.953782,1.59819 4.906342,2.10653 2.90743,1.55158 2.94376,0.0134 0.0518,-2.19419 -19.941748,-15.22273 -34.740662,-44.8055 -36.408026,-72.77905 -0.424937,-7.12921 0.845294,-8.4076 4.728836,-4.7592 2.854546,2.68171 3.74171,1.81211 4.469604,-4.38114 0.974185,-8.2888 6.446545,-18.14112 18.242298,-32.84305 10.381958,-12.93982 12.657438,-13.52142 13.591268,-3.47384 1.23327,13.26952 4.34623,19.11524 9.12511,17.13577 6.38799,-2.64599 8.00214,8.31757 3.13023,21.26104 -3.99585,10.61599 -2.74996,22.93535 1.96819,19.46158 0.6367,-0.46878 3.51447,-2.6453 6.39505,-4.8367 7.01077,-5.33349 6.97246,-5.36504 6.83975,5.63197 -0.14344,11.88547 1.79459,16.41326 13.74077,32.1024 10.47118,13.75201 10.10712,14.34187 8.31252,-13.46829 -0.41147,-6.37631 -0.3958,-16.29037 0.0348,-22.03125 0.69844,-9.31143 1.38238,-14.31344 4.56783,-33.40671 3.9679,-23.78315 2.68147,-33.50495 -6.7456,-50.97778 -11.24468,-20.84171 -21.27772,-28.15105 -26.32188,-19.17618 -5.04319,8.97314 -33.275821,17.21902 -37.636986,10.99258 -1.316572,-1.87967 -1.688238,-1.9207 -7.787535,-0.85974 -3.522728,0.61277 -9.358094,0.97367 -12.967469,0.802 l -6.5625,-0.31213 -0.291403,-3.01509 c -0.258188,-2.67142 -0.685632,-3.08096 -3.75,-3.59291 -17.661547,-2.95065 -27.084834,-10.0735 -19.358114,-14.63238 3.14918,-1.85806 3.244909,-2.06057 1.868528,-3.95276 -0.797887,-1.0969 -2.131635,-2.94741 -2.963883,-4.11225 -0.832247,-1.16484 -2.066131,-3.69609 -2.741965,-5.625 -0.993325,-2.83507 -1.645263,-3.4593 -3.402225,-3.25761 -4.424029,0.50785 -9.487237,5.74183 -7.793643,8.0565 0.512988,0.70112 1.755204,2.44309 2.76048,3.87107 l 1.827777,2.59632 -2.166012,1.75393 C 22.896159,228.48507 15,223.85865 15,216.44472 c 0,-4.64248 3.414709,-10.19605 7.894338,-12.8391 4.252058,-2.50878 4.209109,-3.47648 -0.32661,-7.3589 -5.803715,-4.96776 -7.256539,-12.86641 -3.192543,-17.35708 3.265836,-3.60871 5.408379,-1.45262 6.463972,6.50482 0.921886,6.94953 8.759892,13.09905 13.477585,10.57422 6.969641,-3.73004 8.780756,-7.58945 5.143422,-10.96041 -5.475487,-5.07451 9.276642,-10.3875 21.325353,-7.68032 4.644129,1.04346 6.14266,0.066 4.526983,-2.95295 -2.980415,-5.56896 5.009353,-4.3316 18.538707,2.87105 10.074927,5.3636 10.13308,5.37579 10.908768,2.2852 1.957235,-7.79826 16.468755,1.91558 26.123535,17.4868 5.57084,8.98465 6.86995,12.13456 7.67404,18.60695 0.96394,7.75915 1.21807,8.228 5.95778,10.99164 10.33794,6.02789 22.23827,21.448 28.34495,36.72858 2.28697,5.72263 4.58289,10.40295 5.10205,10.40073 1.05419,-0.005 7.7003,-13.81152 8.50763,-17.67421 0.28485,-1.3629 1.31187,-5.64205 2.28225,-9.50924 6.46206,-25.75267 7.34884,-38.85942 5.10608,-75.46875 -0.99723,-16.27809 -4.52405,-33.99107 -8.16846,-41.02493 -1.00449,-1.93872 -2.33752,-5.52465 -2.96228,-7.96875 l -1.13593,-4.44382 -9.31144,0.32317 c -18.23746,0.63296 -37.74312,-5.56764 -46.84868,-14.89257 -2.61289,-2.67585 -5.22408,-4.230447 -8.86459,-5.277634 C 93.498574,92.611901 83.631095,78.932108 86.735648,63.384374 89.640014,48.839188 108.67739,39.290451 124.23127,44.577377 c 6.54431,2.22448 6.7326,1.929441 5.08152,-7.96258 -4.70466,-28.1868268 14.368,-42.3819235 43.99008,-32.7402407 7.43194,2.4190199 19.49014,17.9363967 21.25712,27.3552217 0.8011,4.27019 1.90016,4.390375 3.5714,0.390541 2.78066,-6.655062 13.54157,-15.494415 22.0428,-18.106654 28.98359,-8.906012 55.91591,14.710857 45.75106,40.118971 -3.36976,8.423072 -3.45399,8.242251 3.84037,8.243104 10.055,0.0012 21.75359,6.43147 23.30508,12.809981 0.3556,1.461916 1.21641,3.49018 1.91293,4.507253 8.42853,12.307736 -9.9174,29.785256 -32.77091,31.219696 -6.28896,0.39474 -7.22732,0.67279 -6.67014,1.97647 2.18143,5.10416 1.77243,5.29101 -10.85508,4.95892 -11.33636,-0.29814 -27.86826,1.53142 -33.62908,3.72168 -4.52559,1.72063 -15.6405,1.94254 -19.36435,0.38662 -7.98827,-3.33772 -8.76706,-1.9867 -4.68718,8.13124 5.85304,14.51529 7.8289,24.37604 9.84289,49.12221 1.13441,13.93876 -0.96405,43.03368 -4.29926,59.60865 -2.21087,10.98732 -1.79786,11.45135 4.80227,5.39546 12.04016,-11.04734 30.29374,-24.24193 41.79806,-30.2137 3.40015,-1.76498 6.69356,-3.52517 7.3187,-3.91152 0.79132,-0.48907 0.12133,-1.68847 -2.20559,-3.94835 -7.40097,-7.18772 -10.1806,-21.23029 -5.79961,-29.29938 0.95266,-1.75464 2.00724,-5.12964 2.34351,-7.5 0.83077,-5.85594 3.99877,-6.28311 11.34803,-1.53018 6.35728,4.11139 6.50026,4.10814 11.54998,-0.26236 28.03445,-24.26365 65.70617,10.16234 47.92235,43.79344 -4.67434,8.83967 -4.67394,9.88697 0.003,6.32011 10.98808,-8.38101 7.72557,3.84885 -3.64858,13.67711 -16.02017,13.8428 -47.40005,8.78152 -53.93757,-8.69962 -2.91307,-7.78949 -10.39419,-7.07387 -21.03803,2.01246 -1.56764,1.33824 -6.01432,4.48659 -9.8815,6.99634 -8.73215,5.66701 -19.47354,15.26561 -26.25,23.45723 -2.83594,3.42817 -6.46142,7.76703 -8.05663,9.6419 -5.7066,6.70708 -15.99772,31.01085 -18.55346,43.81637 -6.12609,30.69469 -6.79609,55.19891 -1.99679,73.02998 1.38782,5.15625 3.69967,13.80469 5.13743,19.21875 1.43777,5.41406 3.11035,11.09065 3.71687,12.61464 3.6476,9.16536 4.01497,31.42911 0.64927,39.34822 -4.36317,10.26604 8.45846,-0.28977 14.18472,-11.67802 9.28058,-18.45698 7.54479,-49.2221 -3.62536,-64.25581 -6.93026,-9.32732 -6.51241,-12.13222 2.08882,-14.02136 3.67916,-0.80809 4.03317,-1.98602 2.43553,-8.10404 -1.41983,-5.43715 -0.82222,-9.20858 2.45578,-15.4977 1.80022,-3.45388 2.05104,-9.80631 0.50152,-12.70162 -3.5493,-6.63193 10.2699,-5.85625 21.6873,1.21732 0.77343,0.47918 2.91109,1.6886 4.75035,2.6876 5.21297,2.83145 14.73915,13.53823 15.45887,17.37471 0.67946,3.62178 2.53829,5.66893 4.47323,4.92643 9.95892,-3.82159 3.6651,26.49698 -9.07733,43.72732 -8.32905,11.26255 -9.18492,14.88113 -4.09412,17.30993 10.53407,5.02576 22.12232,-12.48626 23.73474,-35.86768 0.65415,-9.49076 3.35062,-13.64244 8.86023,-13.64244 4.07027,0 4.05098,-1.21678 -0.1248,-7.87674 -5.4311,-8.66207 -7.40262,-15.63918 -7.24822,-25.65096 0.1,-6.48143 -0.28503,-9.1205 -1.84452,-12.64418 -2.13568,-4.82556 -2.10824,-4.85823 3.78309,-4.50355 1.9336,0.11641 3.51563,-0.12401 3.51563,-0.53427 0,-6.29468 -3.439,-26.27057 -5.27302,-30.62899 -1.25728,-2.98784 -2.03685,-5.83549 -1.73239,-6.32812 0.70202,-1.13589 4.4709,-1.16696 5.64603,-0.0465 1.89077,1.80273 8.73835,5.14373 16.82813,8.21064 4.64062,1.75929 10.59209,4.66918 13.22549,6.46642 5.52905,3.77345 6.79854,3.57529 9.65502,-1.50714 2.63307,-4.68491 3.22561,-4.64371 5.13545,0.35714 0.85357,2.23504 4.29369,7.82488 7.64471,12.42188 7.37875,10.1223 9.98431,16.43702 10.53926,25.54249 0.40152,6.58778 0.5066,6.84981 2.54222,6.33891 7.51088,-1.88511 10.49154,40.29383 3.66419,51.85159 -2.68456,4.54461 -1.29456,6.00805 5.02118,5.28646 9.06607,-1.03584 10.06199,0.63599 4.60415,7.72885 -2.40648,3.12741 -4.37542,6.19778 -4.37542,6.82304 0,0.62527 -2.53125,5.90689 -5.625,11.73693 -3.09375,5.83005 -5.625,11.1046 -5.625,11.72122 0,14.35997 -32.19571,37.42238 -52.24264,37.42238 -4.20617,0 -6.88369,2.39971 -4.62814,4.14793 3.76082,2.91495 14.12833,3.67376 33.12805,2.4247 22.89499,-1.50515 28.98159,-0.53362 45.48778,7.26068 6.41125,3.02742 6.78718,4.49114 1.70198,6.62693 -4.46659,1.87599 -4.74496,3.27911 -0.96149,4.84627 10.94048,4.5317 24.50393,27.5517 18.77825,31.87059 -1.96612,1.48305 -2.01765,1.76215 -0.71108,3.85153 0.77476,1.23894 2.16498,4.36199 3.0894,6.94012 0.92442,2.57812 2.00843,5.12662 2.40892,5.66334 0.40049,0.53671 1.18399,3.0098 1.7411,5.49576 1.56826,6.99787 -0.40154,8.40771 -7.94838,5.68886 z m 0.20785,-8.61994 c 3.17985,-1.22023 -1.78318,-14.07042 -8.24701,-21.35302 -2.74184,-3.08915 -2.5735,-4.57506 0.58074,-5.12625 l 2.85408,-0.49875 -1.29618,-4.55309 c -1.57689,-5.53912 -7.74184,-11.81869 -17.77136,-18.10177 -7.76844,-4.86661 -8.01246,-5.38955 -3.51562,-7.53394 4.63063,-2.2082 4.34367,-4.62284 -0.70313,-5.91654 -2.1914,-0.56174 -5.49925,-1.6024 -7.35076,-2.31258 -3.9998,-1.53418 -14.47396,-1.76693 -38.98615,-0.86634 -22.07068,0.8109 -31.24121,-1.42218 -31.24121,-7.60741 0,-4.72501 1.64831,-5.47746 22.5,-10.27106 6.36072,-1.46228 12.21448,-3.41695 14.27678,-4.76726 1.92254,-1.25882 3.83153,-2.28876 4.24221,-2.28876 4.97306,0 20.00611,-22.05139 24.60611,-36.09375 3.2232,-9.83939 6.27196,-15.94188 9.36117,-18.73757 3.70179,-3.35008 -2.47774,-4.62812 -9.06658,-1.87512 -4.81468,2.0117 -4.80099,1.54909 0.24189,-8.17499 4.74827,-9.156 6.9395,-24.54163 4.9126,-34.49357 -0.36756,-1.80469 -1.0057,-4.93671 -1.41811,-6.96005 -0.99686,-4.89083 -2.52471,-5.15538 -6.3499,-1.09951 -5.42313,5.7502 -6.48007,3.90555 -3.61431,-6.30794 1.73352,-6.17823 0.62867,-17.64264 -2.11322,-21.92764 -0.73075,-1.14202 -1.3316,-2.61858 -1.33523,-3.28125 -0.0381,-6.96356 -13.15869,-16.56225 -14.78215,-10.81424 -1.36623,4.83723 -2.52718,5.61959 -3.55123,2.39312 -0.81568,-2.56997 -9.6405,-12.00249 -11.22922,-12.00249 -0.64471,0 -5.89089,-2.35242 -11.65818,-5.22761 -10.3401,-5.15487 -14.12735,-5.92605 -12.37908,-2.52068 0.46718,0.91 1.11115,6.45036 1.43105,12.31193 0.50208,9.19952 0.96851,11.47619 3.40977,16.64312 4.04136,8.55354 3.7702,10.58843 -0.92187,6.91824 -11.80657,-9.23523 -7.31366,27.19688 5.18594,42.05182 2.99522,3.55961 5.12656,8.6704 5.12656,12.29307 0,4.32993 -2.58653,3.59179 -4.77858,-1.36368 -5.10848,-11.54858 -10.74048,-8.14653 -11.96566,7.22794 -1.85199,23.24012 -23.26039,46.83978 -33.34364,36.75654 -4.9977,-4.9977 -2.72483,-12.65893 7.9486,-26.79268 9.46178,-12.52927 13.07678,-21.71973 13.07678,-33.24526 0,-3.02419 -3.89764,-0.94709 -5.16292,2.75138 -2.52482,7.38015 -4.40317,5.27153 -4.97286,-5.58251 -0.65075,-12.39828 -7.50949,-20.42824 -24.01227,-28.11267 -6.45085,-3.00381 -6.79987,-2.89505 -7.29651,2.27351 -0.24583,2.55844 -1.89346,7.42654 -3.81041,11.25831 -5.40583,10.80561 -5.23249,16.11154 0.72372,22.15328 5.58949,5.66976 5.54621,10.8787 -0.0552,6.64201 C 197.2542,366.5544 187.5,365.98365 187.5,367.31609 c 0,0.41448 1.51255,2.20745 3.36124,3.98438 8.89969,8.55428 13.302,29.34388 10.70425,50.55011 -2.73112,22.29506 -17.62726,40.34285 -37.56122,45.50826 -7.887,2.04373 -8.09988,2.23773 -4.45462,4.05982 5.76339,2.88084 3.52198,7.62579 -5.83301,12.34818 -9.58461,4.83829 -15.58037,16.77784 -11.57881,23.05728 3.08869,4.84693 5.32355,5.20835 13.91915,2.25103 7.52392,-2.58861 9.9081,-0.93605 3.82643,2.65223 -22.42142,13.22896 -33.23808,-15.28908 -12.30063,-32.43051 1.41708,-1.16015 3.03285,-2.10937 3.59061,-2.10937 0.55776,0 0.75439,-0.25972 0.43696,-0.57714 -1.81694,-1.81694 -12.86035,5.65148 -12.86035,8.69717 0,0.65435 -1.24881,2.61204 -2.77513,4.35043 -12.96529,14.76664 3.415,34.99365 22.18433,27.39406 8.01756,-3.24625 16.54496,-20.35781 11.6521,-23.38176 -0.44754,-0.27659 -0.86811,-2.86291 -0.93461,-5.74737 -0.47038,-20.40404 34.16691,-16.83415 56.92468,5.86694 10.63706,10.61057 17.07855,13.84771 17.77946,8.93496 0.74159,-5.19794 6.57612,-1.15823 16.60479,11.49682 7.9963,10.09042 14.72245,15.58869 25.27959,20.66466 13.86149,6.66476 20.65306,6.36409 13.96363,-0.61816 -5.29755,-5.52946 -0.0576,-6.13501 6.0523,-0.69943 9.77817,8.69912 42.69531,13.7221 56.13296,8.56559 z m -38.64535,-21.90083 c -4.64063,-2.55766 -9.41002,-5.06117 -10.59865,-5.56335 -1.18863,-0.50218 -4.77457,-2.17144 -7.96875,-3.70946 -10.32363,-4.97093 -13.65368,-4.89294 -9.2645,0.21699 3.18052,3.70279 -0.0952,2.36376 -7.31737,-2.99114 -7.3944,-5.48261 -9.38198,-6.17905 -9.38198,-3.2874 0,2.12675 -2.47037,1.58688 -5.82675,-1.27336 -7.28596,-6.20894 -29.3152,-20.11243 -34.83666,-21.98673 -1.61168,-0.5471 -3.76249,-1.56156 -4.77957,-2.25436 -2.16097,-1.47198 -4.61586,-1.68143 -3.77577,-0.32213 0.31868,0.51562 1.34707,0.9375 2.28534,0.9375 1.69795,0 4.60454,5.14136 3.51983,6.22609 -0.29754,0.29752 -1.72541,-0.28236 -3.17306,-1.28863 -12.41378,-8.62888 -32.51043,-15.20962 -46.52897,-15.2361 -9.40317,-0.0177 -9.52948,-1.82134 -0.46143,-6.58872 17.37641,-9.13534 28.88954,-35.09358 28.88954,-65.13617 0,-11.42753 1.04039,-15.29158 2.21077,-8.21085 3.0292,18.32661 -3.9122,52.12605 -13.2849,64.6875 -3.66854,4.91665 -0.0211,3.89327 5.82293,-1.63374 4.73615,-4.47924 5.66563,-6.08062 12.7916,-22.03813 l 1.25595,-2.8125 0.38349,2.33039 c 0.40475,2.45954 -0.067,3.67108 -5.91937,15.20203 -3.91066,7.70519 -3.85665,9.98766 0.14908,6.2994 3.21009,-2.95567 10.65295,-13.10808 10.65295,-14.53111 0,-1.58573 4.64165,-11.50547 5.68552,-12.15062 1.7155,-1.06023 0.83553,3.15073 -1.93552,9.26216 -6.10694,13.46856 2.6587,10.61205 9.60792,-3.131 2.66609,-5.27256 9.33658,-16.05549 9.70455,-15.68753 0.6725,0.6725 -2.20158,7.91655 -6.15826,15.52181 -6.20126,11.91961 -4.94,12.74796 3.80576,2.49952 8.16754,-9.57088 12.61909,-18.51421 13.40054,-26.92218 0.33368,-3.59034 1.12736,-7.43688 1.76371,-8.54788 1.91784,-3.34824 2.02614,5.80519 0.15093,12.7552 -0.86809,3.21739 -1.78899,7.11543 -2.04642,8.66231 l -0.46806,2.8125 2.45383,-2.26379 c 3.58502,-3.30737 5.90092,-10.50374 9.60479,-29.84559 0.58065,-3.03218 2.24321,-2.60207 2.24321,0.58033 0,4.38765 -2.64845,18.25119 -4.19272,21.94714 -2.80829,6.72118 -1.28529,7.28042 2.70237,0.9923 5.76693,-9.09388 9.92785,-28.41586 9.92785,-46.10181 0,-8.25374 0.29563,-11.4817 0.98812,-10.78921 2.26816,2.26816 0.39573,36.67455 -2.37215,43.58893 -0.34034,0.85019 -0.15858,1.83022 0.40392,2.17787 3.28962,2.0331 9.38361,-20.54594 9.40322,-34.84021 0.0133,-9.71594 0.89088,-13.61903 2.25991,-10.0514 4.44965,11.5956 -4.76278,46.33932 -15.88653,59.91439 -5.14784,6.28226 -2.90937,9.15791 2.37452,3.05042 1.44981,-1.67578 4.68334,-5.41928 7.18563,-8.3189 7.73568,-8.964 16.45714,-22.92084 21.49328,-34.39539 1.8741,-4.27003 3.17341,-6.33364 3.18798,-5.06327 0.0738,6.43064 -17.48917,37.47738 -26.56117,46.95329 -11.01325,11.50357 -10.04611,10.76862 -28.14006,21.38428 -12.75007,7.4804 -30.1565,15.95551 -37.37885,18.19957 -8.74817,2.71814 -9.49276,3.89243 -1.41094,2.22517 13.22018,-2.72728 32.20167,-10.46633 42.42187,-17.29604 1.54688,-1.03372 3.11567,-1.88226 3.48621,-1.88565 1.36454,-0.0126 -0.43585,2.75325 -2.14547,3.29586 -0.97201,0.30851 -3.38144,1.9066 -5.3543,3.55131 -1.97286,1.64472 -7.03248,4.88884 -11.24361,7.20915 -8.54306,4.70718 -8.6862,4.87997 -5.31496,6.41601 4.009,1.82662 1.6356,2.95899 -6.20195,2.95899 -7.74622,0 -10.03343,1.37228 -3.92904,2.35736 5.5259,0.89171 16.17187,4.35452 16.17187,5.2602 0,1.233 -2.54971,0.97777 -10.27676,-1.02874 -10.39794,-2.70006 -10.40513,-1.99543 -0.0357,3.5 3.86719,2.04948 10.20882,5.44672 14.09252,7.54941 14.59955,7.90443 22.75234,9.9204 39.81373,9.84488 13.97319,-0.0619 17.47809,1.13215 4.6875,1.59686 -13.65812,0.49623 -13.75553,2.39671 -0.20064,3.91485 4.75097,0.53209 11.38033,1.27518 14.73189,1.65131 3.35156,0.37611 5.88281,0.77194 5.625,0.87961 -0.81909,0.34206 -16.35121,0.30951 -17.69531,-0.0371 -0.70899,-0.18283 -1.44629,0.0894 -1.63845,0.60509 -0.19216,0.51563 3.1301,1.71679 7.38281,2.66925 4.25271,0.95247 10.99056,2.5345 14.97298,3.51563 3.98243,0.98113 7.4629,1.78387 7.73438,1.78387 0.27148,0 0.49359,0.44721 0.49359,0.99379 0,0.59702 -1.21647,0.79757 -3.04688,0.50231 -1.67578,-0.27032 -4.94531,-0.74208 -7.26562,-1.04837 l -4.21875,-0.55688 2.34375,1.98803 c 2.55542,2.16758 6.46268,4.92682 13.35937,9.43412 4.27185,2.79186 5.26635,3.75423 3.75,3.62887 -0.38671,-0.032 -4.5,-2.15076 -9.14062,-4.70843 z m -251.38702,9.12174 5.487978,-2.46311 2.339413,1.84018 c 3.88708,3.05758 10.7724,-0.57593 19.81016,-10.45418 6.372519,-6.96514 6.652829,-6.98404 8.064029,-0.5437 1.60834,7.34004 14.57568,-7.08485 17.87152,-19.8803 3.23746,-12.56874 9.4946,-19.81952 22.2586,-25.79328 9.0152,-4.21926 7.4867,-21.67462 -2.33531,-26.66883 -4.72257,-2.4013 -5.35284,-3.2836 -2.99264,-4.18929 1.66635,-0.63944 8.2919,2.44131 11.42645,5.31307 4.76893,4.36914 3.68875,-0.87396 -1.27962,-6.21118 -4.82339,-5.18147 -8.09652,-6.24078 -19.31157,-6.24994 -10.17223,-0.008 -17.17712,1.24486 -37.29574,6.67219 -24.138311,6.51171 -54.794124,2.35941 -67.530228,-9.14689 -5.251218,-4.74417 -4.042827,-4.9082 3.474099,-0.47161 9.864874,5.82238 16.361311,6.60379 13.063943,1.57138 -2.342972,-3.57583 -1.851023,-3.55545 2.945311,0.12201 5.436617,4.16839 11.086619,6.8377 14.53125,6.86521 3.631856,0.029 3.163393,-1.86912 -1.207454,-4.89238 -3.706595,-2.5638 -4.779404,-4.46203 -2.521775,-4.46203 0.655956,0 2.659862,1.20419 4.453125,2.67597 4.795301,3.93565 8.879363,5.79363 14.092133,6.411 5.676931,0.67236 6.066237,-0.65776 0.877365,-2.99761 -4.730033,-2.13294 -14.479128,-10.90403 -13.934832,-12.53692 0.275601,-0.8268 1.850221,-0.0321 4.853466,2.44968 7.299977,6.03236 17.615468,9.77 26.033869,9.43294 8.681888,-0.34761 8.718858,-1.68641 0.100612,-3.64293 -6.939932,-1.57549 -18.918384,-6.9978 -18.918384,-8.56381 0,-0.52167 0.719271,-0.62743 1.640625,-0.24122 12.761101,5.34908 33.114095,7.78816 40.078125,4.80289 3.3416,-1.43243 -0.93205,-2.33916 -11.3665,-2.41159 -9.4661,-0.0657 -14.319168,-1.12086 -20.742875,-4.50983 -5.339483,-2.81697 -4.346636,-3.60349 2.173593,-1.72189 9.183882,2.65028 35.788032,4.44698 49.154532,3.31964 4.63887,-0.39125 -5.45,-2.70098 -11.95312,-2.73654 -9.64213,-0.0527 -10.08881,-1.47636 -0.73816,-2.35259 8.0745,-0.75665 15.13819,0.84632 20.86998,4.73601 4.33422,2.94128 5.62037,1.15213 1.56499,-2.17704 -16.51294,-13.55588 -20.16645,-15.63171 -19.82539,-11.26429 0.7805,9.99424 -32.090022,-0.53632 -48.0433,-15.39139 -3.351563,-3.12085 -7.570313,-6.78801 -9.375,-8.14925 -1.804688,-1.36124 -3.703125,-2.93479 -4.21875,-3.49676 -1.462076,-1.59353 -9.746049,-4.37257 -11.279731,-3.78403 -1.847081,0.70879 -1.824036,8.61308 0.0355,12.1786 1.843518,3.53478 1.767223,4.34596 -0.408753,4.34596 -1.212566,0 -2.518452,-1.42008 -3.959757,-4.30601 C 47.405385,386.1003 39.411519,378.75 36.893618,378.75 c -3.122632,0 -4.488151,6.02278 -3.229566,14.24438 2.151818,14.05659 4.647214,18.8133 12.507823,23.8424 2.15881,1.38117 3.515625,2.97969 3.515625,4.1419 0,4.84198 -6.113588,2.20017 -14.200866,-6.1365 -4.706172,-4.85129 -7.361634,-5.19951 -7.361634,-0.96535 0,1.30524 -0.111425,2.37317 -0.24761,2.37317 -0.136185,0 -2.561966,-0.86008 -5.390625,-1.9113 -2.828658,-1.05121 -7.568796,-2.49036 -10.53364,-3.1981 l -5.390625,-1.28681 0,4.90295 c 0,2.69662 0.5891051,6.98342 1.3091226,9.52623 0.7200173,2.5428 1.5749433,6.45496 1.8998358,8.69369 1.2138876,8.36449 9.1928076,17.96679 18.1191666,21.80568 3.178012,1.36674 3.984375,2.19098 3.984375,4.07273 0,2.34049 -0.667507,2.72825 -6.09375,3.53988 -3.505019,0.52427 -2.81571,3.99182 1.127926,5.67402 13.169888,5.61776 28.624281,3.58252 40.538587,-5.33866 5.090778,-3.81186 7.779406,-2.81448 5.412347,2.00778 -6.231638,12.69533 16.568294,8.37025 33.10817,-6.28051 8.5272,-7.55327 11.82567,-9.38983 16.84422,-9.37878 6.58751,0.0145 7.96925,0.72643 10.15935,5.23432 6.05011,12.45295 -2.4778,18.5604 -18.64537,13.35328 -6.61639,-2.13095 -9.66973,-1.85983 -9.155,0.8129 0.36327,1.88632 10.16965,4.79578 16.49926,4.89516 12.86692,0.20204 23.14438,-13.64457 15.67301,-21.11594 -2.86078,-2.86078 -2.97625,-4.13352 -0.375,-4.13352 4.61304,0 8.60714,6.03676 8.15251,12.32189 l -0.41404,5.72408 -8.36924,8.04551 c -4.60308,4.42503 -10.4786,9.11859 -13.05673,10.43014 -4.06576,2.06834 -5.12272,3.24523 -7.96875,8.87298 -3.24577,6.41818 -5.625,8.79653 -5.625,5.62287 0,-0.90132 1.68609,-4.71091 3.74687,-8.46576 l 3.74688,-6.827 -2.57501,0.90789 c -1.63242,0.57555 -4.97718,4.15937 -9.13749,9.79059 -9.31665,12.61061 -10.386309,9.92656 -1.40438,-3.52398 2.06146,-3.08707 3.74813,-5.7967 3.74813,-6.02137 0,-2.33992 -18.011581,15.54977 -21.385602,21.24087 -1.831328,3.08897 -2.5839,3.76326 -2.821748,2.52822 -0.400464,-2.07945 6.84574,-12.94012 11.973875,-17.94657 8.607085,-8.40282 -1.784747,-6.25941 -11.835307,2.44115 -3.923294,3.39631 -4.570831,3.68079 -4.869888,2.13951 -0.511656,-2.63698 7.23162,-9.18213 15.511214,-13.11113 7.843146,-3.7219 7.986006,-4.75092 0.948131,-6.82896 -3.160896,-0.9333 -5.075236,-0.99005 -7.80732,-0.23144 -5.310909,1.47468 -12.875654,1.23548 -17.333166,-0.54806 -3.430498,-1.37261 -4.434668,-1.40901 -8.222097,-0.29797 -2.372888,0.69608 -9.291793,1.50516 -15.375345,1.79795 l -11.061003,0.53234 -2.331544,6.5625 c -3.962532,11.15317 -1.688852,18.26693 4.842887,15.15217 6.683044,-3.18693 6.755314,-1.4622 0.252032,6.01478 C 32.202164,511.45629 29.841888,525 34.716035,525 c 0.430437,0 1.04173,0.8164 1.358429,1.81423 0.517338,1.62999 4.804283,3.557 11.269286,5.06562 5.487725,1.28058 18.863987,-0.11272 24.23798,-2.52467 z M 45.515625,455.67937 c 0.489844,-0.48572 3.466313,-1.2962 6.614378,-1.80106 3.148064,-0.50487 9.265252,-2.59585 13.59375,-4.64663 4.328498,-2.05078 8.186403,-3.53571 8.573122,-3.29986 2.77987,1.69543 -2.311006,5.03376 -13.344716,8.75074 -5.696281,1.91894 -17.10977,2.65596 -15.436534,0.99681 z m 46.875,-4.59017 c 3.952153,-3.48701 12.733145,-9.5267 13.850665,-9.5267 1.67389,0 -4.19081,6.08546 -8.27254,8.58393 -2.792841,1.70953 -7.31304,2.47349 -5.578125,0.94277 z m 86.674835,53.89248 c 3.28772,-6.81688 3.75208,-12.39269 1.47542,-17.71605 -3.08013,-7.20206 -8.762,-3.22037 -7.01681,4.91716 1.0014,4.66937 0.78415,10.28775 -0.6255,16.17659 -1.32795,5.54748 3.00763,3.17282 6.16689,-3.3777 z M 171.5228,447.3208 c 5.87087,-19.71329 -1.54052,-40.29216 -24.09766,-66.91086 -13.41988,-15.83622 -17.53626,-23.52432 -17.68013,-33.02097 -0.0543,-3.58452 -0.51778,-6.65698 -1.02994,-6.82769 -1.96136,-0.65379 -5.0948,3.22639 -6.23428,7.71997 -2.24676,8.86016 -7.65742,5.62336 -10.40516,-6.22465 -1.4995,-6.46573 -0.68129,-13.11547 2.7524,-22.3691 4.48991,-12.10012 2.22021,-20.9518 -2.85553,-11.13639 -2.22875,4.30993 -4.16211,3.49232 -4.14814,-1.75423 0.0113,-4.2766 -4.18721,-20.37948 -5.79245,-22.21577 -1.28408,-1.46892 -10.940283,9.59269 -15.793468,18.09211 -5.303332,9.28778 -6.349501,11.64735 -7.437737,16.77535 -0.717673,3.38182 -0.955324,7.50288 -0.577839,10.02013 0.860852,5.74058 0.230951,6.35181 -4.100668,3.97915 -4.693573,-2.57092 -5.240311,-1.91653 -3.949042,4.72663 0.579355,2.9806 1.242442,6.89583 1.473526,8.70052 0.231084,1.80469 1.542496,6.23438 2.914251,9.84375 1.371754,3.60938 2.641328,7.30609 2.821274,8.21492 0.179948,0.90883 2.248815,4.51656 4.597485,8.0172 2.348669,3.50063 4.270308,6.83615 4.270308,7.41227 0,4.36324 31.1369,24.63686 37.83811,24.63686 2.17715,0 2.09358,-0.19697 -3.49328,-8.23324 -6.02084,-8.66053 -13.67984,-22.87699 -16.8216,-31.22389 -2.73701,-7.27156 -6.567521,-22.43608 -5.848833,-23.15476 0.7473,-0.74731 0.921028,-0.38172 3.245853,6.83064 7.30057,22.6488 33.30563,63.80836 30.6527,48.51562 -1.94043,-11.18552 -1.71783,-23.67187 0.42199,-23.67187 0.48403,0 0.88006,3.17737 0.88006,7.06083 0,6.78466 1.3147,12.27769 5.08225,21.23444 2.65577,6.31368 3.51867,5.32591 2.82422,-3.23289 -1.01197,-12.47201 1.66448,-12.71716 3.39008,-0.31051 1.65518,11.90033 5.57845,19.84356 5.57845,11.2944 0,-4.68429 1.89217,-10.73377 3.35735,-10.73377 0.89266,0 1.06217,1.67922 0.6861,6.79687 -0.83565,11.3718 1.817,17.15326 3.97349,8.66017 1.90473,-7.50158 3.43043,-7.52172 2.66467,-0.0352 -0.72165,7.05518 -0.78629,8.87163 -0.46877,13.17188 0.19726,2.67149 0.31713,2.5718 2.39088,-1.9882 2.97843,-6.54934 4.56848,-7.40246 3.90705,-2.09628 -2.02092,16.21246 -1.55851,20.24879 1.68981,14.74984 2.36029,-3.99567 2.51738,-3.16821 1.00742,5.3068 -2.17871,12.22838 -0.88357,14.11942 2.3148,3.37989 z M 89.532885,238.01849 c 10.857705,-4.68768 14.239775,-4.29115 8.904615,1.04401 -6.158591,6.15859 10.0023,5.05813 20.01105,-1.36263 15.64719,-10.03791 13.83231,-24.78868 -6.14759,-49.9655 -5.81623,-7.32907 -7.42013,-7.6114 -6.65745,-1.17187 0.30533,2.57812 0.26865,4.6875 -0.0816,4.6875 -2.2501,0 -10.120869,-5.06753 -20.693265,-13.32319 -6.024787,-4.70457 -11.599371,-2.8832 -7.524972,2.45861 3.453645,4.52796 1.690368,6.17881 -3.051827,2.85725 -10.086478,-7.06484 -30.611646,-4.29311 -22.104241,2.98497 l 3.444057,2.94639 -4.143995,2.08472 c -7.854727,3.95147 -9.447218,7.06067 -5.081494,9.92121 2.899539,1.89986 2.96157,2.88133 0.234375,3.70837 -8.321537,2.52354 -7.900095,9.34959 0.9375,15.1846 2.756641,1.82007 2.660866,3.01064 -0.441171,5.48412 -4.93697,3.9366 5.884656,9.05805 19.894296,9.41519 8.169312,0.20826 8.973501,1.01045 4.624716,4.61326 -5.514091,4.56822 6.005106,3.5585 17.876919,-1.56701 z M 79.141099,224.7324 c -13.458057,-7.84782 -11.94829,-14.88212 1.839361,-8.56992 5.950394,2.72418 7.028302,4.68863 2.061397,3.75684 -3.771907,-0.70761 -5.213181,0.73942 -2.453235,2.46303 3.621742,2.26181 2.242132,4.50161 -1.447523,2.35005 z m 21.104851,-5.12237 c -8.827241,-6.58591 -8.415186,-8.12541 2.26863,-8.47601 5.27528,-0.1731 8.77035,0.12158 9.59906,0.80935 2.17971,1.80901 0.53541,2.74413 -4.82522,2.74413 -6.0832,0 -6.60775,1.3524 -1.74631,4.50223 3.13623,2.03201 3.81302,3.88981 1.67649,4.60198 -0.52,0.17334 -3.65769,-1.70841 -6.97265,-4.18168 z M 59.933164,207.20962 c -7.555168,-3.99414 -5.697921,-7.52141 3.253519,-6.17906 4.742936,0.71126 5.878372,1.65653 3.931027,3.27268 -0.71453,0.59301 -1.082556,1.90644 -0.817836,2.91873 0.625435,2.39167 -1.828373,2.3869 -6.36671,-0.0124 z m 25.848086,-0.10185 c -16.204693,-7.7642 -17.211155,-12.76959 -2.296052,-11.41886 7.810404,0.70732 10.591052,2.29108 5.108552,2.90967 -5.365545,0.60539 -6.328059,3.57689 -1.823426,5.62934 1.260696,0.57441 2.292176,1.68624 2.292176,2.47073 0,1.6156 -0.605605,1.69112 -3.28125,0.40912 z m 214.32693,23.94932 c 9.97443,-5.09733 11.36383,-8.61684 2.93869,-7.44399 -11.08604,1.54327 -14.28087,0.98079 -34.36427,-6.05001 -3.04488,-1.06594 -6.16886,-1.93809 -6.94217,-1.93809 -2.80461,0 1.45988,3.29595 6.58589,5.09012 2.72521,0.95386 5.35571,2.09723 5.84555,2.54084 1.27724,1.15665 -2.37089,1.01001 -5.95483,-0.23935 -5.01497,-1.74823 -4.34086,-0.18042 0.99241,2.30809 3.27242,1.52693 7.60978,2.56462 12.5093,2.99278 4.125,0.36049 8.08484,0.97064 8.79964,1.35587 1.99448,1.07492 -6.72342,2.1045 -11.61214,1.3714 -4.89863,-0.7346 -5.61037,0.0706 -1.17188,1.32577 4.84838,1.37109 18.71349,0.55715 22.37381,-1.31343 z M 21.259037,217.62331 c -1.382125,-6.91062 4.653554,-12.63329 13.428463,-12.73207 5.586934,-0.0629 5.437209,-1.84399 -0.185462,-2.20623 -9.681766,-0.62376 -21.345765,11.72127 -16.064538,17.00249 1.71957,1.71957 3.341041,0.53333 2.821537,-2.06419 z m 274.034683,0.73063 c 7.47362,-1.6028 11.15141,-5.41651 14.50215,-15.03806 2.38087,-6.83658 2.09458,-7.64088 -2.53025,-7.10866 -6.87695,0.79138 -12.58311,3.49115 -18.28538,8.65141 -3.03102,2.74292 -6.9595,5.79636 -8.72996,6.78545 -7.94735,4.43985 2.95458,9.30246 15.04344,6.70986 z m -23.88747,-9.63273 c 5.29325,-1.4189 11.9614,-5.38213 16.21914,-9.63988 3.49939,-3.49938 8.79536,-6.14282 13.70455,-6.84049 5.39305,-0.76644 5.0791,-2.35373 -1.04769,-5.29697 -12.94582,-6.219 -31.9858,-3.51865 -40.52733,5.74783 -5.30173,5.75168 -5.32971,8.86788 -0.0459,5.10545 3.28439,-2.33868 10.28451,-5.56139 12.14018,-5.58906 0.82343,-0.0123 0.44515,0.6052 -0.9375,1.53028 -13.85875,9.27234 -16.74377,15.06027 -3.69479,7.41247 6.44694,-3.77845 12.1594,-5.64221 12.15553,-3.96589 -0.003,1.24438 -4.24769,3.90611 -13.12247,8.2285 -5.13321,2.50008 -5.79819,3.0851 -4.21875,3.71134 2.69434,1.06829 4.11183,1.00727 9.375,-0.40358 z m -27.42179,-17.96475 c 0.79656,-7.06698 3.51554,-6.96223 3.51554,0.13544 0,4.50976 1.34569,4.89012 2.13678,0.60395 0.26287,-1.42428 1.41974,-5.20677 2.57079,-8.40553 l 2.09285,-5.81592 -3.2299,-4.49658 c -6.2289,-8.67171 -14.29057,6.81218 -10.12239,19.44188 1.49653,4.53454 2.40991,4.09438 3.03633,-1.46324 z M 23.289959,189.375 c -1.982105,-5.86933 -3.075112,-6.88842 -4.059969,-3.78541 -0.604736,1.90535 0.588602,4.92847 3.067029,7.76978 2.601114,2.98198 2.917192,1.71365 0.99294,-3.98437 z m 236.283881,-0.85467 c 14.07835,-10.49834 33.1859,-10.87004 45.94322,-0.89375 8.51581,6.65943 7.06038,-5.63374 -1.59253,-13.45112 -19.55595,-17.66763 -46.0476,-8.17478 -50.26617,18.01204 -0.29073,1.80469 -0.21326,2.56392 0.17215,1.68719 0.3854,-0.87674 2.9699,-3.2862 5.74333,-5.35436 z m -53.62605,-73.26052 c 4.0334,-0.5446 11.34127,-1.7479 16.23971,-2.674 8.81903,-1.66733 10.60822,-1.71783 20.625,-0.5822 14.46887,1.64038 5.57744,-8.30027 -11.19412,-12.51506 -9.72832,-2.444784 -9.37011,-2.448197 -12.67479,0.120825 -9.33489,7.256845 -10.0547,8.899555 -3.20795,7.321065 5.72322,-1.31946 9.50788,-1.25474 9.0381,0.15457 -0.21037,0.63113 -2.88225,1.68838 -5.93749,2.34944 -3.05525,0.66107 -7.66438,1.65021 -10.2425,2.19809 -2.57813,0.54788 -7.74609,1.22424 -11.48438,1.50303 -3.73828,0.27877 -6.79687,0.84747 -6.79687,1.26378 0,1.97571 5.23988,2.26409 15.63529,0.86046 z m -38.13529,-3.48413 c 0,-0.39838 -2.42578,-1.27075 -5.39063,-1.93858 -8.16357,-1.83885 -17.10937,-4.97745 -17.10937,-6.00275 0,-0.52907 1.08352,-0.63786 2.57812,-0.25885 3.27404,0.83023 13.26827,2.57092 15.60825,2.71849 4.34066,0.27373 1.75392,-2.06988 -6.3241,-5.72971 -13.84793,-6.273952 -21.00442,-7.021097 -33.19039,-3.465089 -6.68127,1.949662 17.24387,12.742619 32.10937,14.484979 8.15799,0.95617 11.71875,1.01436 11.71875,0.19151 z m 33.63046,-7.3326 c 6.7468,-3.70852 17.79796,-13.15314 22.08685,-18.87605 1.51171,-2.017157 4.35937,-4.825424 6.32813,-6.240594 7.29889,-5.246544 2.67156,-6.822374 -10.20879,-3.476584 -9.17255,2.382656 -14.74808,6.042611 -21.07687,13.835546 -9.66863,11.905432 -8.20308,15.037962 2.95199,6.309718 3.69379,-2.890182 6.88371,-5.08714 7.08872,-4.882126 0.53158,0.531577 -11.74293,13.24963 -14.55049,15.07628 -4.78016,3.11006 1.05895,1.72854 7.38046,-1.74619 z m 72.42577,-2.72537 c 21.70664,-7.261407 23.38698,-28.923055 2.78825,-35.944017 -9.32601,-3.178716 -25.44741,1.500483 -35.75613,10.378131 -6.91534,5.955353 -6.22132,6.350118 6.73205,3.829234 16.3217,-3.176399 13.83354,0.04458 -3.02516,3.916156 -7.73993,1.777462 -7.22347,1.591912 -13.04524,4.686858 -4.70604,2.501807 -3.1119,3.051622 4.21875,1.455034 2.0625,-0.449204 8.70859,-1.907394 14.76908,-3.240421 13.43221,-2.954465 18.17437,-3.184449 12.3701,-0.599925 -2.08907,0.930223 -6.94063,2.39224 -10.78125,3.248928 -18.85337,4.205431 -26.76066,9.099631 -9.32668,5.772724 9.04854,-1.726716 24.41624,-2.840195 22.5,-1.630251 -1.24145,0.783867 -10.602,2.747058 -20.81672,4.365895 -2.46957,0.391378 -3.3268,0.931313 -2.96705,1.868803 0.73148,1.906211 2.84901,2.092401 9.72127,0.854751 11.12966,-2.004388 15.2224,-2.422916 14.65091,-1.498223 -0.30213,0.488841 -2.77295,1.180553 -5.49074,1.537143 -10.54648,1.38377 -11.8583,1.69369 -12.32584,2.91207 -0.78974,2.05802 18.10425,0.65632 25.7844,-1.91289 z m -99.49373,0.57888 c 0,-0.45563 -1.64834,-2.317587 -3.66297,-4.137687 -2.01464,-1.820109 -4.73736,-5.142564 -6.05049,-7.383244 -1.31311,-2.24068 -3.88353,-5.523977 -5.71201,-7.296217 C 155.65305,80.284375 154.84706,78.75 156.46522,78.75 c 1.32973,0 17.7593,16.798978 18.39815,18.811819 0.31651,0.997247 1.225,1.813181 2.01886,1.813181 0.79386,0 1.25051,-0.527344 1.01479,-1.171875 -0.23573,-0.644531 -1.81823,-5.082811 -3.51668,-9.862843 -4.90455,-13.803144 -31.91052,-36.122599 -37.24855,-30.784575 -2.47878,2.478781 4.41837,22.134168 9.77737,27.863365 7.9517,8.501019 27.46584,20.492278 27.46584,16.877518 z m 8.4375,-9.445795 c 0,-8.001779 1.76624,-20.796532 3.04658,-22.069545 0.63204,-0.628431 0.78686,3.080403 0.46961,11.25 -0.75292,19.38866 0.48399,21.38292 5.3098,8.560993 3.62929,-9.642853 4.43546,-16.462609 3.32789,-28.151997 -0.6331,-6.681765 -0.64217,-11.207275 -0.0269,-13.435526 1.86376,-6.750034 -2.85851,-4.867373 -6.85276,2.732037 -1.1692,2.224471 -3.99435,7.419493 -6.27814,11.544493 -4.46816,8.070443 -5.63833,18.958534 -2.97429,27.674581 0.54853,1.794606 1.25417,4.423075 1.56812,5.841044 1.06794,4.823415 2.41009,2.625881 2.41009,-3.94608 z m -63.75,0.123562 c 0,-0.426603 -2.04464,-1.797697 -4.54366,-3.046875 -9.74768,-4.87257 -13.26884,-6.893174 -13.26884,-7.614294 0,-1.300096 1.76405,-0.8329 7.29236,1.931331 6.70244,3.351313 15.12348,6.152144 15.96551,5.310117 0.65314,-0.653144 -5.28318,-6.046581 -6.70512,-6.091916 -1.30956,-0.04175 -10.92775,-6.032793 -10.92775,-6.806749 0,-1.314338 1.96478,-0.744914 6.39556,1.853532 6.93046,4.064394 23.55035,11.39897 24.0388,10.60864 0.97453,-1.576828 -20.8188,-17.076312 -28.79373,-20.478191 -2.73762,-1.167787 -3.48842,-3.014952 -1.22547,-3.014952 0.74397,0 2.95881,0.948346 4.92188,2.107434 4.74993,2.80459 7.57775,4.394336 13.56397,7.625397 2.75288,1.485869 6.79751,3.982663 8.98806,5.548431 2.19055,1.565769 4.26477,2.564901 4.60938,2.220295 0.3446,-0.344607 0.13436,-0.626557 -0.4672,-0.626557 -0.60156,0 -1.09375,-0.838673 -1.09375,-1.863717 0,-1.930511 -9.50672,-10.085326 -18.04948,-15.482756 -3.9689,-2.507599 -5.53442,-4.216027 -3.86336,-4.216027 1.10903,0 11.98775,5.793649 14.3128,7.622533 2.03349,1.599549 2.42687,1.649511 3.12768,0.397241 1.00762,-1.800529 -0.56712,-4.895087 -2.86158,-5.623319 -1.92953,-0.61241 -7.56137,-6.164682 -6.20083,-6.113235 0.48319,0.01827 1.93321,0.636135 3.22227,1.37303 5.4397,3.109618 6.26467,0.885233 1.31446,-3.544267 -19.99649,-17.893101 -53.125952,8.109979 -34.363679,26.971813 8.056409,8.09915 24.611719,15.466835 24.611719,10.953061 z M 206.25,72.834592 c 0,-0.67535 1.79297,-3.360043 3.98437,-5.965984 2.19141,-2.605942 6.51563,-7.832175 9.60938,-11.61385 3.09375,-3.781677 7.3692,-8.860847 9.50101,-11.287047 2.13181,-2.426199 4.07796,-4.979439 4.32478,-5.673866 0.24682,-0.694428 0.73075,-1.003204 1.07542,-0.686169 0.96208,0.884981 -14.00391,22.723817 -19.06291,27.817184 -1.31658,1.325518 -4.74455,7.225149 -4.74455,8.165492 0,0.259681 0.63281,0.472148 1.40625,0.472148 0.77344,0 1.40625,-0.556829 1.40625,-1.237399 0,-1.898147 15.62347,-17.122804 25.54687,-24.894757 4.14277,-3.24459 1.22043,1.572795 -4.21875,6.954481 -14.15026,14.0007 -14.45393,17.357979 -0.61105,6.7558 1.85139,-1.417969 3.95916,-2.565296 4.68392,-2.549617 0.82337,0.01781 0.6143,0.427481 -0.55724,1.091929 -2.78981,1.582266 -6.19659,5.454706 -5.61981,6.387964 0.51707,0.83664 5.47968,-0.824676 10.07293,-3.372084 3.21908,-1.785293 3.35835,-0.801143 0.23438,1.656177 -6.00715,4.725226 -0.25476,3.90962 6.40014,-0.907447 9.35378,-6.770615 16.59605,-30.449732 9.95749,-32.556726 -0.95176,-0.302078 -1.98593,-1.354125 -2.29817,-2.337884 -7.19153,-22.6585262 -57.65321,-11.879732 -57.65321,12.314932 0,3.828519 1.49832,3.337473 3.93537,-1.289744 1.83421,-3.482613 2.14048,-3.714882 2.43202,-1.8444 0.18983,1.21798 -1.10999,4.76615 -3.01692,8.235397 -3.44606,6.269326 -4.23651,9.806011 -2.17859,9.747638 1.18962,-0.03374 10.07812,-14.004664 10.07812,-15.840768 0,-0.550546 0.4503,-1.000992 1.00068,-1.000992 1.73509,0 -6.96027,20.499821 -9.31184,21.95317 C 201.31482,62.13873 201.20508,67.5 202.5,67.5 c 0.51562,0 0.9375,-0.43092 0.9375,-0.9576 0,-1.332968 4.05509,-7.475265 11.1162,-16.83786 3.29838,-4.37344 6.43303,-8.908597 6.96591,-10.078125 0.53287,-1.169528 1.30978,-2.126415 1.72645,-2.126415 0.96523,0 -0.0243,2.83384 -1.65789,4.748138 -0.68849,0.806789 -3.30503,5.447414 -5.81452,10.3125 -2.50949,4.865086 -6.10079,11.352044 -7.98067,14.415461 -3.58832,5.847431 -4.022,7.086401 -2.48048,7.086401 0.51562,0 0.9375,-0.552559 0.9375,-1.227908 z m -37.5,-7.560261 c 0,-0.192868 -1.0115,-2.196774 -2.24776,-4.453125 -2.1561,-3.935164 -11.81474,-31.417646 -11.81474,-33.617407 0,-3.785611 5.95677,7.846168 14.09226,27.517902 5.8044,14.03515 5.1492,2.66265 -0.9337,-16.206374 -2.98004,-9.24401 -3.35967,-11.327827 -2.06375,-11.327827 0.91921,0 10.19812,23.424911 11.06234,27.927246 0.32553,1.695923 1.06319,2.922749 1.63923,2.726279 1.40924,-0.480641 1.11615,-6.353579 -0.68762,-13.778525 -2.79003,-11.484657 -0.27788,-10.54326 3.22157,1.207245 2.91288,9.780915 4.83238,8.142862 3.33718,-2.84787 -0.85749,-6.303058 0.64397,-6.508338 3.42856,-0.46875 l 2.05312,4.453125 0.30213,-3.111558 C 191.72119,26.998036 172.32255,5.4137238 156.09375,5.4137238 c -18.29338,0 -31.72251,21.9694562 -20.74459,33.9372112 1.19458,1.302298 3.7576,5.256343 5.69559,8.786765 4.90138,8.928855 6.20439,7.043017 2.46124,-3.562138 -1.58454,-4.489352 -2.87161,-8.656188 -2.86014,-9.259635 0.0286,-1.504288 3.68227,3.276174 3.7083,4.851924 0.0114,0.693881 0.63628,2.381381 1.38848,3.75 0.7522,1.36862 2.24726,4.509781 3.32237,6.98036 1.16437,2.675694 2.88738,4.9169 4.26133,5.542912 2.82755,1.288319 4.0127,0.330091 2.52938,-2.045081 -1.58897,-2.544348 -9.60965,-24.48422 -9.58486,-26.21857 0.0226,-1.583583 3.66924,2.458483 3.7083,4.110445 0.11064,4.679372 18.77085,37.471359 18.77085,32.986414 z"
     id="path4184"
     inkscape:connector-curvature="0" />
</svg>
